<svg width="40" height="40" viewBox="0 0 40 40" fill="none" xmlns="http://www.w3.org/2000/svg">
<path d="M37.832 14.8766C38.0443 14.3914 38.0555 13.8419 37.8631 13.3485C37.6708 12.855 37.2906 12.4581 36.806 12.2446L10.656 0.73257C8.666 -0.14343 6.216 0.83457 5.366 2.81657L0.946 13.1246C0.529626 14.0996 0.517348 15.2 0.911864 16.184C1.30638 17.1681 2.07542 17.9552 3.05 18.3726L15.126 23.5486L12.646 29.7486H4V23.7486H0V39.7486H4V33.7486H12.646C14.292 33.7486 15.75 32.7606 16.358 31.2326L18.802 25.1246L29.212 29.5846C29.6968 29.7926 30.2442 29.8007 30.7349 29.607C31.2256 29.4133 31.6199 29.0336 31.832 28.5506L32.456 27.1306L35.858 28.4906L39.858 18.4906L36.786 17.2646L37.832 14.8766ZM28.964 25.1286L4.626 14.6986L9.042 4.39457L33.366 15.1026L28.964 25.1286Z" fill="url(#paint0_linear_2025_951)"/>
<defs>
<linearGradient id="paint0_linear_2025_951" x1="19.929" y1="39.7486" x2="19.929" y2="0.409912" gradientUnits="userSpaceOnUse">
<stop stop-color="#5C49EA"/>
<stop offset="0.5" stop-color="#3DAFE9"/>
<stop offset="1" stop-color="#94FFED"/>
</linearGradient>
</defs>
</svg>
