<svg width="48" height="49" viewBox="0 0 48 49" fill="none" xmlns="http://www.w3.org/2000/svg">
<path d="M24 8.74854C25.1046 8.74854 26 9.64397 26 10.7485V13.2601C26 13.7905 25.7893 14.2992 25.4142 14.6743C24.6332 15.4554 23.3668 15.4554 22.5858 14.6743C22.2107 14.2992 22 13.7905 22 13.2601V10.7485C22 9.64397 22.8954 8.74854 24 8.74854ZM38 22.7485C39.1046 22.7485 40 23.644 40 24.7485C40 25.8531 39.1046 26.7485 38 26.7485H35.4884C34.958 26.7485 34.4493 26.5378 34.0742 26.1627C33.2932 25.3817 33.2932 24.1154 34.0742 23.3343C34.4493 22.9592 34.958 22.7485 35.4884 22.7485H38ZM12.5116 22.7485C13.042 22.7485 13.5507 22.9592 13.9258 23.3343C14.7068 24.1154 14.7068 25.3817 13.9258 26.1627C13.5507 26.5378 13.042 26.7485 12.5116 26.7485H10C8.89543 26.7485 8 25.8531 8 24.7485C8 23.644 8.89543 22.7485 10 22.7485H12.5116ZM22.5858 34.8227C23.3668 34.0417 24.6332 34.0417 25.4142 34.8227C25.7893 35.1978 26 35.7065 26 36.237V38.7485C26 39.8531 25.1046 40.7485 24 40.7485C22.8954 40.7485 22 39.8531 22 38.7485V36.237C22 35.7065 22.2107 35.1978 22.5858 34.8227ZM30 7.74853C30 6.09168 28.6569 4.74854 27 4.74854H21C19.3431 4.74854 18 6.09168 18 7.74854V14.5059C18 15.3015 18.3161 16.0646 18.8787 16.6272L21.8787 19.6272C23.0503 20.7988 24.9497 20.7988 26.1213 19.6272L29.1213 16.6272C29.6839 16.0646 30 15.3015 30 14.5059V7.74853ZM44 21.7485C44 20.0917 42.6569 18.7485 41 18.7485H34.2426C33.447 18.7485 32.6839 19.0646 32.1213 19.6272L29.1213 22.6272C27.9497 23.7988 27.9497 25.6983 29.1213 26.8699L32.1213 29.8699C32.6839 30.4325 33.447 30.7485 34.2426 30.7485H41C42.6569 30.7485 44 29.4054 44 27.7485V21.7485ZM15.8787 19.6272C15.3161 19.0646 14.553 18.7485 13.7574 18.7485H7C5.34315 18.7485 4 20.0917 4 21.7485V27.7485C4 29.4054 5.34315 30.7485 7 30.7485H13.7574C14.553 30.7485 15.3161 30.4325 15.8787 29.8699L18.8787 26.8699C20.0503 25.6983 20.0503 23.7988 18.8787 22.6272L15.8787 19.6272ZM26.1213 29.8699C24.9497 28.6983 23.0503 28.6983 21.8787 29.8699L18.8787 32.8699C18.3161 33.4325 18 34.1955 18 34.9912V41.7485C18 43.4054 19.3431 44.7485 21 44.7485H27C28.6569 44.7485 30 43.4054 30 41.7485V34.9912C30 34.1955 29.6839 33.4325 29.1213 32.8699L26.1213 29.8699Z" fill="url(#paint0_linear_2025_976)"/>
<defs>
<linearGradient id="paint0_linear_2025_976" x1="24" y1="44.7485" x2="24" y2="4.74854" gradientUnits="userSpaceOnUse">
<stop stop-color="#5C49EA"/>
<stop offset="0.5" stop-color="#3DAFE9"/>
<stop offset="1" stop-color="#94FFED"/>
</linearGradient>
</defs>
</svg>
