<svg width="48" height="36" viewBox="0 0 48 36" fill="none" xmlns="http://www.w3.org/2000/svg">
<path d="M40.4 31.2V31.161L40.3985 31.1221C40.3144 28.9659 39.7588 26.8543 38.7709 24.9359C38.6746 24.7489 38.5744 24.5642 38.4704 24.3819C42.213 25.3854 44.0273 27.0774 44.9331 28.4077C45.4838 29.2164 45.7511 29.9672 45.8809 30.4963C45.9459 30.7609 45.9758 30.9675 45.9894 31.0939C45.9962 31.157 45.9989 31.1993 45.9998 31.2182C45.9999 31.2196 45.9999 31.2209 46 31.2221V33.2V34H40.4V31.2ZM31.1907 2.00007V2.00009H31.2C32.8974 2.00009 34.5253 2.67437 35.7255 3.8746C36.9257 5.07483 37.6 6.70269 37.6 8.40007C37.6 10.0974 36.9257 11.7253 35.7255 12.9255C34.5253 14.1258 32.8974 14.8 31.2 14.8L31.1907 14.8001C30.5779 14.8029 29.9718 14.7143 29.3914 14.5402C30.3202 12.637 30.8097 10.5381 30.8097 8.40007C30.8097 6.262 30.3202 4.16317 29.3914 2.25995C29.9718 2.08579 30.5779 1.99722 31.1907 2.00007ZM2 31.222C2.00015 31.2187 2.00038 31.2143 2.00071 31.2087C2.00241 31.1795 2.00677 31.1204 2.01737 31.0356C2.03864 30.8654 2.08454 30.5959 2.1825 30.26C2.37768 29.5908 2.77772 28.6627 3.60515 27.717C5.21405 25.8783 8.78287 23.6 16.8 23.6C24.8171 23.6 28.386 25.8783 29.9949 27.717C30.8223 28.6627 31.2223 29.5908 31.4175 30.26C31.5155 30.5959 31.5614 30.8654 31.5826 31.0356C31.5932 31.1204 31.5976 31.1795 31.5993 31.2087C31.5996 31.2143 31.5998 31.2187 31.6 31.222V34H2V31.222ZM22.1214 4.84443C22.8246 5.8969 23.2 7.13427 23.2 8.40007C23.2 10.0974 22.5257 11.7253 21.3255 12.9255C20.1253 14.1258 18.4974 14.8 16.8 14.8C15.5342 14.8 14.2968 14.4247 13.2444 13.7215C12.1919 13.0182 11.3716 12.0187 10.8872 10.8492C10.4028 9.67979 10.276 8.39297 10.523 7.15149C10.7699 5.91002 11.3795 4.76966 12.2745 3.8746C13.1696 2.97955 14.3099 2.37001 15.5514 2.12306C16.7929 1.87612 18.0797 2.00286 19.2492 2.48726C20.4186 2.97166 21.4182 3.79196 22.1214 4.84443Z" stroke="url(#paint0_linear_2174_666)" stroke-width="4"/>
<defs>
<linearGradient id="paint0_linear_2174_666" x1="24" y1="36" x2="24" y2="0" gradientUnits="userSpaceOnUse">
<stop stop-color="#5C49EA"/>
<stop offset="0.5" stop-color="#3DAFE9"/>
<stop offset="1" stop-color="#94FFED"/>
</linearGradient>
</defs>
</svg>
