<svg width="48" height="48" viewBox="0 0 48 48" fill="none" xmlns="http://www.w3.org/2000/svg">
<path d="M44.94 10.4C44 9.92 43.02 9.52 42 9.18V33.24C39.72 32.42 37.38 32 35 32C31.2 32 27.44 33.08 24 35.16V10.96C20.76 9.1 17.02 8 13 8C9.42 8 6.04 8.88 3.06 10.4C2.4 10.72 2 11.42 2 12.16V36.32C2 37.48 2.94 38.3 4 38.3C4.32 38.3 4.64 38.22 4.96 38.06C7.38 36.8 10.1 36 13 36C17.14 36 20.96 37.64 24 40C27.04 37.64 30.86 36 35 36C37.9 36 40.62 36.8 43.04 38.08C43.36 38.24 43.68 38.32 44 38.32C45.04 38.32 46 37.5 46 36.34V12.16C46 11.42 45.6 10.72 44.94 10.4ZM20 33.24C17.72 32.42 15.38 32 13 32C10.62 32 8.28 32.42 6 33.24V13.42C8.22 12.48 10.56 12 13 12C15.4 12 17.78 12.5 20 13.44V33.24ZM38 1L28 11V30L38 21V1Z" fill="url(#paint0_linear_2174_678)"/>
<defs>
<linearGradient id="paint0_linear_2174_678" x1="24" y1="40" x2="24" y2="1" gradientUnits="userSpaceOnUse">
<stop stop-color="#5C49EA"/>
<stop offset="0.5" stop-color="#3DAFE9"/>
<stop offset="1" stop-color="#94FFED"/>
</linearGradient>
</defs>
</svg>
