<svg width="48" height="48" viewBox="0 0 48 48" fill="none" xmlns="http://www.w3.org/2000/svg">
<path d="M39.0902 12.0063C39.4461 12.7861 40.5539 12.7861 40.9098 12.0063L41.725 10.2196C41.825 10.0006 42.0006 9.82497 42.2197 9.72502L44.0063 8.90976C44.7861 8.55392 44.7861 7.44608 44.0063 7.09024L42.2197 6.27498C42.0006 6.17503 41.825 5.9994 41.725 5.78036L40.9098 3.99373C40.5539 3.21391 39.4461 3.21391 39.0902 3.99373L38.275 5.78036C38.175 5.9994 37.9994 6.17503 37.7804 6.27498L35.9937 7.09024C35.2139 7.44608 35.2139 8.55392 35.9937 8.90976L37.7804 9.72502C37.9994 9.82497 38.175 10.0006 38.275 10.2196L39.0902 12.0063ZM16.0902 12.0063C16.4461 12.7861 17.5539 12.7861 17.9098 12.0063L18.725 10.2196C18.825 10.0006 19.0006 9.82497 19.2196 9.72502L21.0063 8.90976C21.7861 8.55392 21.7861 7.44608 21.0063 7.09024L19.2196 6.27498C19.0006 6.17503 18.825 5.9994 18.725 5.78036L17.9098 3.99373C17.5539 3.21391 16.4461 3.21391 16.0902 3.99373L15.275 5.78036C15.175 5.9994 14.9994 6.17503 14.7804 6.27498L12.9937 7.09024C12.2139 7.44608 12.2139 8.55392 12.9937 8.90976L14.7804 9.72502C14.9994 9.82497 15.175 10.0006 15.275 10.2196L16.0902 12.0063ZM40.9098 26.9937C40.5539 26.2139 39.4461 26.2139 39.0902 26.9937L38.275 28.7804C38.175 28.9994 37.9994 29.175 37.7804 29.275L35.9937 30.0902C35.2139 30.4461 35.2139 31.5539 35.9937 31.9098L37.7804 32.725C37.9994 32.825 38.175 33.0006 38.275 33.2196L39.0902 35.0063C39.4461 35.7861 40.5539 35.7861 40.9098 35.0063L41.725 33.2196C41.825 33.0006 42.0006 32.825 42.2197 32.725L44.0063 31.9098C44.7861 31.5539 44.7861 30.4461 44.0063 30.0902L42.2197 29.275C42.0006 29.175 41.825 28.9994 41.725 28.7804L40.9098 26.9937ZM35.42 18.24L29.76 12.58C29.36 12.2 28.86 12 28.34 12C27.82 12 27.32 12.2 26.92 12.58L4.58001 34.92C4.3946 35.105 4.2475 35.3248 4.14714 35.5667C4.04678 35.8087 3.99512 36.0681 3.99512 36.33C3.99512 36.5919 4.04678 36.8513 4.14714 37.0933C4.2475 37.3352 4.3946 37.555 4.58001 37.74L10.24 43.4C10.64 43.8 11.14 44 11.66 44C12.18 44 12.68 43.8 13.08 43.42L35.42 21.08C36.2 20.3 36.2 19.02 35.42 18.24ZM27.6329 17.5471C28.0234 17.1566 28.6566 17.1566 29.0471 17.5471L30.4529 18.9529C30.8434 19.3434 30.8434 19.9766 30.4529 20.3671L29.5271 21.2929C29.1366 21.6834 28.5034 21.6834 28.1129 21.2929L26.7071 19.8871C26.3166 19.4966 26.3166 18.8634 26.7071 18.4729L27.6329 17.5471ZM12.3671 38.4719C11.9767 38.8629 11.3431 38.8631 10.9524 38.4724L9.54662 37.0666C9.15629 36.6763 9.15607 36.0435 9.54613 35.6529L22.4729 22.7081C22.8633 22.3171 23.4969 22.3169 23.8876 22.7076L25.2934 24.1134C25.6837 24.5037 25.6839 25.1365 25.2939 25.5271L12.3671 38.4719Z" fill="url(#paint0_linear_2174_707)"/>
<defs>
<linearGradient id="paint0_linear_2174_707" x1="24.9976" y1="44" x2="24.9976" y2="2" gradientUnits="userSpaceOnUse">
<stop stop-color="#5C49EA"/>
<stop offset="0.5" stop-color="#3DAFE9"/>
<stop offset="1" stop-color="#94FFED"/>
</linearGradient>
</defs>
</svg>
