<svg width="48" height="48" viewBox="0 0 48 48" fill="none" xmlns="http://www.w3.org/2000/svg">
<path d="M27.0956 4.23915C26.5113 4.14844 26 4.61267 26 5.2039V7.25639C26 7.76107 26.3773 8.1833 26.8739 8.27297C34.3454 9.62195 40 16.1435 40 24C40 30.178 36.444 35.5782 31.1855 38.2578C30.8134 38.4474 30.3642 38.3642 30.0688 38.0688L27.7071 35.7071C27.0771 35.0771 26 35.5233 26 36.4142V43C26 43.5523 26.4477 44 27 44H33.7783C34.5982 44 35.0088 43.0088 34.429 42.4291C33.9948 41.9948 34.1001 41.2649 34.62 40.938C40.2874 37.3749 44 31.0871 44 24C44 14.0177 36.6655 5.72508 27.0956 4.23915ZM22 5.10781C22 4.51518 21.4869 4.05048 20.9016 4.14305C17.7686 4.63852 14.7961 5.86383 12.2304 7.74401C11.754 8.09312 11.7217 8.78175 12.1394 9.19938L13.5786 10.6386C13.934 10.994 14.4962 11.0275 14.9102 10.7425C16.7833 9.45278 18.9044 8.56669 21.1383 8.14067C21.6296 8.04697 22 7.62702 22 7.12682V5.10781ZM9.18245 12.137C8.76323 11.7207 8.0745 11.7555 7.72699 12.2333C5.86135 14.7983 4.63817 17.7698 4.14304 20.9016C4.05049 21.4869 4.51518 22 5.10781 22H7.12489C7.62592 22 8.0463 21.6284 8.13918 21.1361C8.56027 18.9042 9.44231 16.7801 10.7351 14.9142C11.0232 14.4984 10.99 13.9318 10.631 13.5754L9.18245 12.137ZM13 16C12.4477 16 12 16.4477 12 17V19C12 19.5523 12.4477 20 13 20H17C17.5523 20 18 20.4477 18 21C18 21.5523 17.5523 22 17 22H16C13.8 22 12 23.8 12 26V31C12 31.5523 12.4477 32 13 32H21C21.5523 32 22 31.5523 22 31V29C22 28.4477 21.5523 28 21 28H17C16.4477 28 16 27.5523 16 27C16 26.4477 16.4477 26 17 26H18C20.22 26 22 24.22 22 22V20C22 18.9391 21.5786 17.9217 20.8284 17.1716C20.0783 16.4214 19.0609 16 18 16H13ZM25 16C24.4477 16 24 16.4477 24 17V25C24 25.5523 24.4477 26 25 26H29C29.5523 26 30 26.4477 30 27V31C30 31.5523 30.4477 32 31 32H33C33.5523 32 34 31.5523 34 31V27C34 26.4477 34.4477 26 35 26C35.5523 26 36 25.5523 36 25V23C36 22.4477 35.5523 22 35 22C34.4477 22 34 21.5523 34 21V17C34 16.4477 33.5523 16 33 16H31C30.4477 16 30 16.4477 30 17V21C30 21.5523 29.5523 22 29 22C28.4477 22 28 21.5523 28 21V17C28 16.4477 27.5523 16 27 16H25ZM5.10781 26C4.51518 26 4.05047 26.5131 4.14354 27.0983C4.64179 30.2315 5.88064 33.2041 7.76369 35.7698C8.11315 36.246 8.80175 36.2783 9.21938 35.8606L10.6571 34.4229C11.0131 34.0669 11.046 33.5034 10.7595 33.0893C9.4641 31.2171 8.57261 29.0954 8.14202 26.8598C8.04755 26.3693 7.62799 26 7.12853 26H5.10781ZM14.9289 37.2615C14.5156 36.9745 13.9525 37.0056 13.5955 37.3601L12.1477 38.7978C11.7266 39.216 11.7591 39.9086 12.2388 40.2579C14.8016 42.1242 17.7703 43.3573 20.9011 43.856C21.4866 43.9492 22 43.4844 22 42.8916V40.8759C22 40.3746 21.6279 39.954 21.1352 39.8611C18.9067 39.4408 16.7917 38.5549 14.9289 37.2615Z" fill="url(#paint0_linear_2174_720)"/>
<defs>
<linearGradient id="paint0_linear_2174_720" x1="24" y1="44" x2="24" y2="4" gradientUnits="userSpaceOnUse">
<stop stop-color="#5C49EA"/>
<stop offset="0.5" stop-color="#3DAFE9"/>
<stop offset="1" stop-color="#94FFED"/>
</linearGradient>
</defs>
</svg>
