<svg width="717" height="584" viewBox="0 0 717 584" fill="none" xmlns="http://www.w3.org/2000/svg">
<g clip-path="url(#clip0_6_150)">
<path d="M225.616 409.239C227.163 408.344 228.099 406.309 228.099 406.309L356.701 332.044C356.701 332.044 355.765 334.079 354.219 334.974L225.616 409.239Z" fill="#42294D"/>
<path d="M302.533 462.548C307.01 459.984 307.01 454.246 307.01 454.246L435.612 379.981C435.612 379.981 435.612 385.678 431.136 388.282L302.533 462.548Z" fill="#42294D"/>
<path d="M403.259 492.783L404.927 483.179L533.529 408.954L531.861 418.517L403.259 492.783Z" fill="#42294D"/>
<path d="M404.928 483.179L296.918 440.37L425.52 366.145L533.53 408.954L404.928 483.179Z" fill="#603060"/>
<path d="M296.917 440.37C296.917 440.37 277.342 440.37 257.157 420.796C236.971 401.223 231.273 381.649 231.273 381.649L359.876 307.384C359.876 307.384 365.573 326.957 385.759 346.531C405.945 366.104 425.52 366.104 425.52 366.104L296.917 440.37Z" fill="#603060"/>
<path d="M231.273 381.69L161.193 273.771L289.796 199.505L359.876 307.424L231.273 381.69Z" fill="#603060"/>
<path d="M403.259 492.783L307.01 454.287C307.01 454.287 307.01 459.984 302.534 462.588C300.784 463.606 298.383 464.094 295.005 463.606C282.999 461.856 282.999 453.025 282.999 453.025C282.999 453.025 245.761 430.278 236.93 418.314L228.099 406.35C227.611 407.408 224.355 413.309 219.878 406.35C215.076 398.822 219.227 382.992 219.227 382.992L156.798 282.398L161.234 273.771L231.273 381.69C231.273 381.69 236.971 401.263 257.157 420.837C277.342 440.41 296.917 440.41 296.917 440.41L404.927 483.22L403.259 492.783Z" fill="#4C2B53"/>
<path d="M437.363 483.179C436.711 485.58 413.392 499.375 404.927 500.026C396.503 500.637 366.672 486.15 364.474 483.179C362.277 480.209 361.666 470.646 362.236 466.251C362.317 465.6 362.765 464.908 363.457 464.135C367.445 459.658 379.939 453.636 379.939 453.636L396.34 444.48C438.177 464.704 435.857 462.1 438.054 464.298C443.426 469.588 437.892 481.023 437.363 483.179Z" fill="#E07743"/>
<path d="M438.014 464.298C437.689 465.234 437.444 465.925 437.322 466.332C436.671 468.774 413.352 482.569 404.887 483.179C396.463 483.83 366.632 469.262 364.393 466.332C363.986 465.803 363.62 465.03 363.376 464.135C367.364 459.659 379.858 453.636 379.858 453.636L396.259 444.48C438.096 464.704 435.776 462.1 437.973 464.298H438.014Z" fill="#F69E44"/>
<path d="M492.263 412.21C492.263 412.21 508.989 420.186 509.6 421.284C510.21 422.383 511.024 430.522 509.6 431.376C508.175 432.19 504.96 434.062 504.96 434.062C504.96 434.062 507.076 437.196 514.646 434.062C522.216 430.929 534.547 423.685 537.233 418.639C539.919 413.593 535.646 404.682 535.646 404.682C535.646 404.682 507.443 386.532 502.356 390.561C497.268 394.59 492.263 412.251 492.263 412.251V412.21Z" fill="#E07743"/>
<path d="M489.251 398.944C489.251 398.944 505.978 406.92 506.588 408.018C507.199 409.117 508.012 417.256 506.588 418.11C505.164 418.965 501.949 420.796 501.949 420.796C501.949 420.796 504.065 423.93 511.634 420.796C519.204 417.663 531.535 410.419 534.221 405.373C536.907 400.327 532.634 391.416 532.634 391.416C532.634 391.416 504.431 373.266 499.344 377.295C494.257 381.324 489.251 398.985 489.251 398.985V398.944Z" fill="#F69E44"/>
<path d="M158.873 266.812C158.873 266.812 150.246 278.817 152.769 283.008C155.292 287.2 172.955 312.674 172.955 312.674C172.955 312.674 181.42 304.942 181.745 305.471C182.071 306 206.814 293.507 206.814 293.507C206.814 293.507 187.036 259.203 184.309 257.331C181.582 255.418 158.833 265.103 158.833 266.812H158.873Z" fill="#E07743"/>
<path d="M179.304 258.267C179.304 258.267 157.409 263.76 159.932 267.993C162.455 272.184 187.28 308.605 187.28 308.605C187.28 308.605 195.745 300.873 196.071 301.402C196.396 301.931 221.14 289.438 221.14 289.438C221.14 289.438 201.361 255.133 198.635 253.262C195.908 251.349 179.263 256.598 179.263 258.267H179.304Z" fill="#F69E44"/>
<path d="M252.721 395.566C252.721 395.566 253.657 372.208 244.216 350.112C234.733 328.015 179.833 272.184 179.833 272.184L308.435 197.959C308.435 197.959 363.335 253.831 372.818 275.887C382.3 297.943 381.324 321.341 381.324 321.341L252.721 395.607V395.566Z" fill="#F0D2A5"/>
<path d="M179.833 272.184H167.827L296.429 197.959H308.435L179.833 272.184Z" fill="#F3DBB6"/>
<path d="M276.325 375.789L246.128 395.566C246.128 395.566 257.808 401.67 267.128 412.21C276.447 422.709 285.685 433.086 285.685 433.086L408.631 358.983L377.335 327.69L276.325 375.83V375.789Z" fill="#E8C085"/>
<path d="M252.721 395.566H246.087L167.827 272.184H179.833C179.833 272.184 234.733 328.056 244.215 350.112C253.698 372.208 252.721 395.566 252.721 395.566Z" fill="#ECC995"/>
<path d="M255.57 399.798C255.57 399.798 259.029 365.331 249.547 337.822C240.064 310.273 167.827 256.11 167.827 256.11L296.429 181.844C296.429 181.844 368.667 236.048 378.149 263.557C387.631 291.106 384.172 325.533 384.172 325.533L255.57 399.798Z" fill="#F7E3C6"/>
<path d="M259.965 399.798C259.965 399.798 261.552 359.919 253.657 335.299C245.762 310.68 196.519 243.454 196.519 243.454L325.162 169.229C325.162 169.229 374.405 236.455 382.3 261.074C390.195 285.694 388.608 325.574 388.608 325.574L260.006 399.839L259.965 399.798Z" fill="#FBECD6"/>
<path d="M233.797 249.151C233.797 249.151 259.355 292.368 264.401 337.497C266.436 355.809 264.401 406.228 264.401 406.228L393.003 331.962C393.003 331.962 395.038 281.543 393.003 263.231C387.957 218.102 362.399 174.886 362.399 174.886L233.797 249.151Z" fill="#FFF5E6"/>
<g clip-path="url(#clip1_6_150)">
<path d="M317.829 273.043C329.6 259.126 342.076 273.65 344.97 258.128C347.864 242.607 351.892 235.453 342.662 235.453C333.433 235.453 332.846 245.685 327.645 235.453C322.443 225.221 318.963 217.417 330.539 218.067C342.076 218.674 353.652 228.949 358.853 220.235C364.054 211.52 363.468 206.231 354.825 208.442C346.143 210.61 340.902 212.431 341.802 206.534C342.701 200.638 342.701 193.527 342.701 193.527C342.701 193.527 339.221 205.017 345.009 205.667C350.797 206.317 361.904 199.771 365.853 206.274C369.842 212.821 368.239 227.735 365.853 228.342C363.468 228.949 346.378 225.524 341.059 225.524C335.74 225.524 334.606 227.996 335.154 229.86C335.701 231.724 366.127 228.603 368.239 234.196C370.39 239.789 367.496 255.657 352.478 267.146C337.461 278.636 330.03 276.512 336.17 279.85C342.31 283.188 346.104 289.822 359.987 287.351C373.832 284.879 387.128 274.604 397.531 287.351C407.934 300.097 378.525 347.616 370.781 351.171C327.684 370.985 279.072 319.001 317.829 273.043Z" fill="url(#paint0_linear_6_150)"/>
<path d="M317.947 284.62C318.26 284.273 318.572 283.926 318.846 283.623C319.12 289.822 324.048 292.511 325.964 293.508C329.953 295.676 335.741 302.526 347.982 302.526C354.747 302.526 360.809 300.575 367.067 298.537C371.408 297.106 375.514 295.719 378.682 295.719C380.754 295.719 382.592 296.239 384.626 298.754C387.325 306.385 367.966 341.59 360.692 347.096C326.238 362.575 285.956 322.427 317.908 284.576L317.947 284.62ZM349.351 255.311C350.133 251.842 350.798 248.59 350.876 245.556C351.814 245.599 352.675 245.686 353.496 245.816C353.027 248.157 351.853 251.582 349.351 255.354V255.311Z" fill="white" fill-opacity="0.53"/>
</g>
<path d="M309.778 369.563C285.319 383.684 267.901 412.21 267.901 412.21L396.503 337.944C396.503 337.944 413.921 309.459 438.38 295.338L309.778 369.604V369.563Z" fill="#F0D2A5"/>
<path d="M407.043 478.866L408.63 466.902L537.233 392.636L535.645 404.641L407.043 478.866Z" fill="#E8C085"/>
<path d="M408.63 466.902C408.63 466.902 321.539 407.571 306.074 406.309C300.132 405.821 294.394 407.937 289.592 410.704L418.194 336.439C423.037 333.672 428.775 331.555 434.676 332.044C450.141 333.305 537.233 392.636 537.233 392.636L408.63 466.902Z" fill="#F0D2A5"/>
<path d="M407.043 478.866L284.912 432.801C284.912 432.801 280.679 423.93 276.406 421.447C276.406 421.447 281.819 415.181 289.592 410.704C294.435 407.937 300.173 405.821 306.074 406.309C321.539 407.571 408.631 466.902 408.631 466.902L407.043 478.906V478.866Z" fill="#ECC995"/>
<path d="M292.319 393.776C278.238 401.914 272.296 413.553 272.296 413.553L400.898 339.287C400.898 339.287 406.84 327.649 420.921 319.51L292.319 393.776Z" fill="#ECC995"/>
<path d="M296.389 396.543C284.383 403.461 274.819 417.337 274.819 417.337L403.422 343.072C403.422 343.072 413.026 329.195 424.991 322.277L296.389 396.543Z" fill="#E8C085"/>
<path d="M410.829 457.095C410.829 457.095 327.197 393.654 309.86 392.718C305.302 392.474 300.703 394.061 296.43 396.543L425.032 322.277C429.305 319.795 433.904 318.208 438.462 318.452C455.799 319.388 539.431 382.829 539.431 382.829L410.829 457.095Z" fill="#F7E3C6"/>
<path d="M398.212 413.553C398.212 413.553 354.015 384.823 319.829 386.085C308.434 386.491 299.359 389.706 292.318 393.776L420.921 319.51C427.961 315.441 437.037 312.267 448.432 311.819C482.617 310.558 526.814 339.287 526.814 339.287L398.212 413.553Z" fill="#FBECD6"/>
<path d="M360.649 358.576C360.649 358.576 343.923 358.169 324.348 363.378C319.26 364.721 314.377 366.877 309.737 369.563L438.34 295.298C442.979 292.612 447.863 290.455 452.95 289.112C472.525 283.904 489.251 284.311 489.251 284.311L360.649 358.576Z" fill="#FFF5E6"/>
</g>
<g opacity="0.6">
<g clip-path="url(#clip2_6_150)">
<path d="M182.812 51.1633C184.916 51.1776 186.121 51.2079 188.017 51.4163C190.883 50.9466 195 50.4057 198.59 49.9476C202.256 49.6079 205.5 49.5416 206.846 50.0232C206.837 50.295 205.023 51.2978 203.171 52.2044C202.243 52.6661 201.241 53.0666 200.444 53.4378C199.648 53.8089 198.988 54.0562 198.642 54.0782C196.958 54.3988 195.358 54.6566 193.824 54.8609C192.319 55.1372 190.878 55.3767 189.444 55.5828C188.035 55.8038 186.546 55.923 185.205 56.1643C183.809 56.3927 182.429 56.6118 181.049 56.831C175.398 57.7241 169.475 59.07 162.189 62.2695C161.501 62.5186 160.583 63.448 159.522 64.6085C159.011 65.1998 158.394 65.8225 157.893 66.5118C157.404 67.2086 156.899 67.9145 156.372 68.5891C156.372 68.5891 157.643 68.0481 159.051 67.3834C158.303 68.3185 157.293 69.2867 156.081 70.2677C155.448 70.7517 154.875 71.2894 154.287 71.8363C153.686 72.3758 153.053 72.9338 152.42 73.4917C151.045 74.5817 150.029 75.805 148.884 76.9543C147.698 78.0981 146.967 79.3197 146.268 80.449C147.65 79.6215 147.65 79.6216 148.661 79.1711C147.212 79.9042 145.68 80.9219 144.385 82.1876C143.765 82.8269 143.164 83.5144 142.573 84.2258C141.966 84.9465 141.381 85.6986 140.976 86.4805C140.05 88.0515 139.141 89.6872 138.631 91.3139C138.348 92.1291 137.997 92.9239 137.778 93.7022C137.587 94.4786 137.384 95.2477 137.19 95.9668C136.822 96.5489 136.442 97.0498 136.084 97.5081C135.768 97.9719 135.446 98.3951 135.136 98.8257C135.11 100.159 134.814 101.484 134.833 102.806C134.794 104.132 134.579 105.485 134.735 106.831C134.834 108.181 134.852 109.577 135.316 110.953C135.497 111.648 135.732 112.357 135.983 113.056C136.247 113.762 136.684 114.458 137.105 115.162C137.417 115.767 137.678 116.416 137.919 117.091C138.234 117.753 138.543 118.449 138.846 119.177C139.348 120.65 140.1 122.155 140.824 123.736C141.127 124.539 141.666 125.294 142.1 126.08C142.579 126.855 142.993 127.667 143.578 128.41C144.775 129.896 145.896 131.411 147.519 132.754C152.029 137.703 157.269 142.926 164.269 147.207C171.198 151.484 179.666 154.859 189.13 156.222C189.905 156.337 190.792 156.535 191.738 156.804C192.702 157.047 193.721 157.377 194.747 157.747C196.76 158.54 198.895 159.514 200.649 160.693C207.57 160.606 215.586 161.947 224.124 163.459C232.601 164.992 241.703 166.756 249.703 167.957C252.676 168.344 254.961 168.979 256.704 169.691C258.496 170.374 259.746 171.133 260.667 171.757C277.757 172.019 296.217 171.89 314.151 172.51C337.122 173.139 360.752 173.298 386.129 175.796C389.63 176.1 396.736 176.01 400.547 175.735C401.954 176.122 403.361 176.51 404.755 176.89C419.847 177.772 434.733 177.649 447.149 180.032C451.387 180.873 454.461 181.779 456.669 182.74C458.897 183.675 460.25 184.641 461.062 185.609C462.677 187.52 462.123 189.379 461.723 191.106C452.005 190.556 441.697 191.161 430.712 191.358C419.701 191.539 407.992 191.354 394.629 189.236C387.375 187.856 374.886 188.476 364.682 188.532C355.882 188.919 347.468 186.905 339.074 188.745C329.642 185.868 304.746 183.241 285.686 183.301C284.305 182.928 286.156 182.778 283.654 182.312C256.34 183.184 227.643 179.656 200.028 174.038C192.96 172.728 185.766 170.736 178.581 168.324C171.383 165.904 164.12 163.152 156.527 160.339C154.864 159.951 150.284 156.347 146.725 154.477C145.229 153.964 143.7 153.469 142.222 152.93C138.134 150.108 133.686 147.078 130.31 143.874C128.514 142.319 127.165 140.655 125.875 139.134C124.786 137.526 123.88 136.006 123.406 134.606C120.63 128.183 117.535 122.61 117.414 116.668C117.348 112.234 116.873 106.511 118.056 100.749C119.22 95.0122 121.89 89.2952 126.04 85.6703C126.884 84.7537 128.662 81.6986 130.064 79.7193C131.235 78.8806 132.405 78.042 133.605 77.2015C135.109 75.2814 134.52 73.6669 136.368 71.7415C142.781 65.6553 151.995 59.2843 161.713 54.903C162.865 54.3121 164.11 53.8303 165.313 53.343C166.53 52.863 167.714 52.4016 168.882 51.9493C171.151 51.0245 173.552 50.3789 175.703 49.7738C179.985 48.5156 183.911 48.0116 186.784 47.9524C185.254 48.7317 179.315 51.2128 182.729 51.2261L182.812 51.1633Z" fill="#2DA6DA"/>
<path d="M257.782 49.6568C256.742 50.0352 258.815 50.6596 260.27 50.8713C259.58 50.0851 259.441 49.3214 257.168 48.2494L261.173 49.3428C264.58 48.6498 257.36 48.0646 260.335 48.1386C262.559 48.7946 264.152 49.4002 262.42 49.7485C262.352 49.3584 261.173 49.3428 259.917 48.9131C258.932 49.6742 260.798 50.4926 261.462 51.2641C259.37 50.8134 257.38 50.2741 255.272 49.8327C256.165 49.702 256.93 49.7191 257.782 49.6568Z" fill="#2DA6DA"/>
<path d="M243.047 46.3765C243.562 46.4342 244.085 46.4585 244.578 46.5587C245.064 46.3223 244.981 46.0893 244.612 45.858C244.227 45.6358 243.519 45.4671 242.814 45.2818C243.644 45.4099 244.265 45.5101 244.698 45.6306C245.111 45.7769 245.358 45.901 245.493 46.0157C245.762 46.2451 245.567 46.4465 245.302 46.6442C244.745 47.0247 243.907 47.3903 245.567 48.0163C245.749 47.8075 244.926 47.4982 244.131 47.187C243.349 46.8833 242.567 46.6535 243.059 46.3839L243.047 46.3765Z" fill="#2DA6DA"/>
<path d="M253.356 44.7191C255.387 46.2421 259.033 45.7064 258.569 47.1002C256.498 46.3113 254.325 45.537 252.066 44.7682C252.517 44.7149 252.927 44.73 253.344 44.7117L253.356 44.7191Z" fill="#2DA6DA"/>
<path d="M197.818 49.8898C195.552 50.9459 196.707 50.4123 192.616 51.4118L198.41 49.8439L197.815 49.9064L197.818 49.8898Z" fill="#2DA6DA"/>
<path d="M132.883 109.086C133.444 108.006 134.028 107.032 134.52 105.949C135.027 104.857 135.601 103.637 135.825 102.086C135.799 103.641 134.931 105.208 134.376 106.476C133.764 107.748 133.065 108.729 132.883 109.086Z" fill="#2DA6DA"/>
<path d="M141.778 139.949C141.055 140.159 141.829 141.104 140.184 140.025C139.948 139.317 142.335 139.42 139.459 137.926C140.149 138.639 141.012 139.266 141.778 139.949Z" fill="#2DA6DA"/>
<path d="M140.917 143.57L141.224 145.244C141.423 145.174 141.412 144.484 140.917 143.57Z" fill="#2DA6DA"/>
<path d="M172.276 62.7549L171.78 62.7453C171.626 62.8783 171.479 63.052 171.338 63.1925C171.633 63.0669 171.927 62.9414 172.289 62.7623L172.276 62.7549Z" fill="#2DA6DA"/>
<path d="M165.604 65.6443C166.432 65.3286 167.223 64.9908 168.061 64.6992L170.67 63.8596C170.89 63.599 171.127 63.4032 171.354 63.1833C169.831 63.8554 169.104 63.9344 168.374 64.104C168.016 64.1926 167.654 64.2977 167.2 64.5156C166.784 64.7557 166.278 65.0919 165.62 65.635L165.604 65.6443Z" fill="#2DA6DA"/>
<path d="M170.889 62.7117L171.779 62.7456C173.176 61.4652 174.902 61.0022 176.745 60.4413C177.667 60.1609 178.647 59.8768 179.706 59.4726C180.778 59.0757 182.068 58.6568 183.434 57.9866C182.202 58.2539 180.992 58.5526 179.788 58.892C178.661 59.2759 177.544 59.6838 176.482 60.1047C175.419 60.5255 174.386 60.9446 173.423 61.3674C172.498 61.8123 171.682 62.2833 170.885 62.7284L170.889 62.7117Z" fill="#2DA6DA"/>
<path d="M174.499 59.8278L175.669 58.6933C177.247 58.1082 177.475 58.48 177.594 58.6779C178.506 58.1515 179.533 57.6918 180.56 57.2321C180.908 56.6758 178.44 57.227 175.813 58.3143C174.475 58.8349 173.025 59.4201 171.758 59.9443C170.517 60.4834 169.531 61.0227 168.907 61.3089L171.65 60.51C172.608 60.2685 173.558 60.0601 174.512 59.8352L174.499 59.8278Z" fill="#2DA6DA"/>
<path d="M204.104 42.4556C204.104 42.4556 203.999 42.4868 203.938 42.507C203.999 42.4868 204.056 42.4832 204.117 42.4629L204.104 42.4556Z" fill="#2DA6DA"/>
<path d="M191.496 43.4703L191.656 44.9477C194.242 44.1506 195.862 43.8669 197.579 43.6757C199.308 43.4919 201.069 43.2897 203.953 42.4984C204.014 42.4781 204.059 42.467 204.119 42.4467C201.613 41.5539 196.191 43.2625 191.512 43.461L191.496 43.4703Z" fill="#2DA6DA"/>
<path d="M159.135 67.7645C159.874 67.1752 160.693 66.6876 161.451 66.2203C162.18 65.7549 162.833 65.3189 163.396 64.9052C164.502 64.1034 165.113 63.3661 165.291 62.8041C164.04 63.3931 162.971 64.0692 161.797 64.7026C160.662 65.3582 159.433 65.9787 158.323 66.6491C161.558 65.4328 158.881 67.0821 159.123 67.7571L159.135 67.7645Z" fill="#2DA6DA"/>
<path d="M150.56 70.1089C151.34 69.3033 152.395 68.6198 153.29 67.8808L151.373 68.6025C151.55 68.7968 151.224 69.2366 150.56 70.1089Z" fill="#2DA6DA"/>
<path d="M151.373 68.6026C151.209 68.4157 150.434 68.5964 149.334 69.4388C149.961 69.136 150.681 68.8684 151.373 68.6026Z" fill="#2DA6DA"/>
<path d="M155.978 63.6337C152.614 64.4063 154.335 65.012 150.627 67.3596C151.201 67.7094 152.046 67.0887 152.995 66.2148C153.449 65.775 153.957 65.2743 154.446 64.7994C154.961 64.3394 155.524 63.9256 156.007 63.6319L155.978 63.6337Z" fill="#2DA6DA"/>
<path d="M142.045 74.2247L140.026 74.8872L141.414 75.4483L142.045 74.2247Z" fill="#2DA6DA"/>
<path d="M136.575 95.7594C135.807 93.1371 134.403 97.3684 133.404 97.6784C134.441 97.0208 135.532 96.3762 136.575 95.7594Z" fill="#2DA6DA"/>
<path d="M135.519 76.6443C136.271 76.4322 137.011 76.2126 137.776 76.0079L137.425 75.3809C138.148 74.6528 139.11 73.4905 140.37 72.9995C139.812 72.4925 139.022 73.0522 138.117 73.9151C137.267 74.7909 136.2 75.9107 135.506 76.6369L135.519 76.6443Z" fill="#2DA6DA"/>
<path d="M131.763 88.5863C130.845 89.5157 130.149 90.4804 129.328 91.4284L131.763 88.5863Z" fill="#2DA6DA"/>
<path d="M137.086 68.5728C136.615 68.2822 129.724 72.1716 135.931 67.3148C134.767 68.2681 133.353 69.4098 132.493 70.1137C131.62 70.8102 131.099 71.0077 131.372 69.9466C128.147 73.2005 132.689 70.5779 131.368 72.8808C132.139 70.9252 135.02 69.9286 137.07 68.5821L137.086 68.5728Z" fill="#2DA6DA"/>
<path d="M128.143 75.9872C126.487 77.5059 124.255 79.4311 124.388 80.4499C124.96 79.6164 125.868 78.8848 126.699 78.1828C127.518 77.4733 128.134 76.7767 128.143 75.9872Z" fill="#2DA6DA"/>
<path d="M123.081 76.8509L126.343 74.7453L123.492 75.8879L123.081 76.8509Z" fill="#2DA6DA"/>
<path d="M116.47 86.8122L118.039 83.7291C118.662 82.7034 119.326 81.6832 119.978 80.6556L117.638 83.3683C116.923 84.285 116.265 85.1979 115.591 86.1201C114.79 89.5734 116.315 87.9233 118.21 85.6004C117.606 86.2305 117.014 86.7201 116.486 86.8029L116.47 86.8122Z" fill="#2DA6DA"/>
<path d="M123.328 80.6323C123.531 80.0112 123.694 79.3846 123.926 78.7616C123.522 78.6393 121.728 81.3339 119.807 83.642C121.252 82.112 122.633 80.7669 123.34 80.6398L123.328 80.6323Z" fill="#2DA6DA"/>
<path d="M119.808 83.642C119.268 84.3091 118.728 84.9762 118.21 85.6008C118.744 85.0409 119.268 84.383 119.808 83.642Z" fill="#2DA6DA"/>
<path d="M127.032 121.407C126.456 119.874 126.219 118.278 125.893 116.704C125.765 118.57 126.066 120.055 127.032 121.407Z" fill="#2DA6DA"/>
<path d="M112.257 91.2879L111.875 92.1751L113.573 92.4535C114.001 90.6511 112.603 91.3399 112.257 91.2879Z" fill="#2DA6DA"/>
<path d="M106.247 98.9179C104.829 100.611 105.255 103.904 105.417 105.217C106.133 104.152 106.643 103.043 107.048 101.892C107.468 100.731 107.699 99.5161 108.277 98.2055C107.234 100.836 106.971 99.0034 106.235 98.9105L106.247 98.9179Z" fill="#2DA6DA"/>
<path d="M102.683 106.87L102.956 104.165L103.521 101.425C102.382 102.024 102.172 102.826 102.222 103.76C102.256 104.703 102.728 105.733 102.683 106.87Z" fill="#2DA6DA"/>
<path d="M103.561 115.337C103.805 115.773 104.317 115.33 104.808 116.186C105.134 115.746 105.159 115.096 105.077 114.402C105.041 113.698 105.017 112.927 105.099 112.272C104.579 113.283 103.953 114.326 103.561 115.337Z" fill="#2DA6DA"/>
<path d="M138.758 72.2719C137.515 73.6411 136.345 74.8496 135.39 76.0526C136.371 75.1602 137.503 74.2993 138.523 73.4291C139.585 72.5645 140.55 71.6814 141.744 70.8742C141.219 71.0883 140.694 71.3024 140.169 71.5166C139.683 71.7529 139.209 71.9967 138.758 72.2719Z" fill="#2DA6DA"/>
<path d="M585.936 281.486L587.765 279.882C585.173 282.578 581.728 285.115 578.364 287.679C574.657 290.1 570.982 292.577 566.803 294.708C576.519 290.492 586.445 284.643 592.937 278.214C599.455 271.801 602.328 265.093 600.631 260.179C602.878 259.741 606.135 256.394 607.836 253.073C608.292 252.247 608.72 251.422 609.08 250.652C609.354 249.886 609.574 249.182 609.733 248.572C610.051 247.352 610.107 246.535 609.844 246.494C609.714 245.236 609.362 244.018 609.113 242.784C608.806 241.555 608.689 240.305 608.305 239.105C608.741 240.778 608.866 242.512 609.212 244.208C608.853 242.505 608.712 240.78 608.305 239.105C604.413 223.745 597.126 208.494 583.295 194.562C582.403 193.567 581.011 192.505 579.561 191.225C578.826 190.597 578.044 189.924 577.222 189.228C576.324 188.562 575.388 187.873 574.429 187.154C573.454 186.443 572.44 185.71 571.417 184.953C570.362 184.215 569.173 183.51 568.018 182.769C566.848 182.038 565.668 181.283 564.472 180.537C563.183 179.83 561.894 179.123 560.621 178.407C559.316 177.709 558.062 176.966 556.71 176.296C555.341 175.635 553.985 174.982 552.638 174.352C550.016 173.023 547.195 171.912 544.612 170.827C542.064 169.706 539.49 168.793 537.202 167.952C534.929 167.102 532.91 166.343 531.138 165.782C529.1 165.122 527.074 164.47 525.007 163.812C527.221 164.598 529.434 165.383 531.648 166.168C529.258 165.712 526.935 165.276 524.638 164.855C522.341 164.434 520.005 164.138 517.766 163.787C513.322 163.05 508.79 162.631 504.497 162.074C505.661 162.69 505.645 163.069 508.639 164.17L504.656 163.182C502.357 163.295 498.929 163.126 495.54 162.832C492.186 162.502 488.727 162.278 486.434 162.284C487.714 161.841 484.386 161.379 481.41 161.009L482.387 161.481C471.134 160.248 457.487 160.219 447.196 159.985C445.764 159.952 444.765 159.745 444.175 159.552C440.796 159.651 437.443 159.766 434.084 159.913C435.123 159.165 426.105 159.278 430.991 158.811C423.236 159.69 415.933 159.242 408.572 160.219C383.38 160.635 356.937 161.64 331.785 161.027L332.237 161.343C323.426 161.188 314.863 161.896 305.21 159.887C303.256 159.831 301.113 159.72 298.96 159.586C296.83 159.409 294.671 159.234 292.637 159.075C288.627 158.68 284.994 158.467 282.939 158.795C274.948 156.952 271.158 156.667 263.659 154.332C264.112 155.019 262.155 154.535 260.412 154.119C258.627 153.699 257.313 153.346 258.532 154.272C261.958 157.062 263.215 156.44 266.457 158.626L266.607 158.361C275.727 162.278 286.202 165.204 297.262 167.378C308.316 169.585 319.996 170.972 331.895 171.877C348.214 172.229 365.584 172.893 382.276 172.556C400.293 172.135 419.518 171.284 434.595 170.754C438.201 170.582 440.515 171.216 443.324 171.638C456.929 171.513 473.707 172.519 487.542 174.024C487.28 173.983 487.046 173.94 486.895 173.909C488.731 174.137 490.432 174.399 492.031 174.676C493.626 174.969 495.075 175.362 496.545 175.712C498 176.072 499.471 176.422 500.986 176.761C502.463 177.152 503.986 177.532 505.671 177.877C505.824 177.67 506.878 177.891 507.49 177.893C507.519 178.04 508.189 178.26 509.317 178.542C510.41 178.859 511.973 179.244 513.857 179.667C515.741 180.09 517.958 180.557 520.189 181.18C522.435 181.793 524.998 182.313 527.302 183.07C529.642 183.793 532.093 184.451 534.256 185.201C536.417 185.968 538.442 186.694 540.214 187.329C543.609 188.716 545.933 189.818 546.238 190.16C546.847 190.401 547.498 190.647 548.065 190.956C550.483 192.611 553.01 194.217 554.99 196.081C556.013 196.985 557.02 197.899 558.044 198.804C558.946 199.75 559.847 200.695 560.736 201.633C562.61 203.454 563.972 205.422 565.631 207.174C567.15 208.992 568.537 210.753 570.144 212.328C572.055 213.505 574.034 214.924 575.903 215.874C576.079 217.342 577.555 217.142 578.381 218.708C578.175 219.938 578.27 220.934 578.342 221.751C578.414 222.569 578.624 223.188 578.877 223.575C579.385 224.348 580.073 224.247 580.129 223.06C580.665 223.831 581.185 224.612 581.632 225.405C581.989 226.221 582.346 227.036 582.694 227.828C583.443 229.424 583.789 231.046 584.317 232.533C585.075 233.857 585.51 235.235 586.086 236.62C586.617 237.794 586.215 238.56 585.416 239.317C585.778 240.856 585.711 241.427 585.568 242.028C585.441 242.619 585.148 243.263 584.857 244.941C584.198 245.41 584.727 247.415 584.843 249.495C584.916 250.534 585.187 251.577 585.108 252.437C585.075 253.286 585.005 253.948 584.846 254.188L584.835 253.646C584.491 254.629 584.051 255.52 583.546 256.374C582.93 257.219 582.278 258.025 581.646 258.804C580.984 259.586 580.451 260.368 579.728 261.17C579.035 261.97 578.393 262.8 577.863 263.713C574.417 268.723 570.007 273.786 564.44 278.421L562.333 280.141L561.287 280.997L560.107 281.811C558.524 282.874 557.033 283.971 555.428 285.002C553.732 285.98 552.065 286.957 550.431 287.916C548.783 288.867 547.087 289.698 545.369 290.497C545.642 290.784 546.355 290.402 547.113 290.009C547.859 289.608 548.662 289.204 549.249 289.487C541.259 293.536 531.736 296.22 522.453 298.618C520.689 298.911 518.492 299.083 517.659 299.046C514.611 299.502 516.011 299.775 513.799 300.178L513.321 299.625C510.239 300.783 508.536 299.855 505.591 300.593C505.467 300.872 504.372 301.089 503.293 301.224C503.208 300.547 500.008 301.728 500.148 301.07L500.122 301.129C499.469 301.195 499.008 301.299 498.217 301.267C497.583 301.455 494.296 302.346 490.841 303.14C487.413 303.95 483.92 304.648 483.235 304.807L482.655 304.712C480.842 304.811 479.95 305.311 480.937 305.438L478.759 305.436L479.024 305.387C478.297 305.392 477.586 305.388 476.879 305.367C476.507 305.3 476.199 304.974 476.912 304.666C475.629 304.904 474.207 305.043 473.146 304.856C476.116 305.407 480.175 305.996 483.776 306.523C482.15 306.84 479.517 306.539 477.861 306.636C476.961 306.43 475.615 306.17 474.1 305.979C472.684 305.715 471.04 305.524 469.813 305.24C469.217 305.229 468.271 306.012 467.181 305.531C466.927 304.922 465.714 305.385 464.986 304.873C466.411 304.717 467.379 305.017 468.695 305.13C468.8 304.507 465.971 304.408 465.263 304.091C464.994 304.157 464.405 304.039 463.7 303.927C462.982 303.808 462.44 303.588 461.79 303.564C462.331 303.34 462.215 303.2 461.943 303.061C461.789 302.898 461.504 302.752 461.471 302.548C460.997 302.348 460.699 302.417 460.479 302.677C460.255 302.806 460.146 302.928 460.162 303.067C460.252 303.193 460.441 303.321 460.631 303.448C460.964 303.715 461.256 303.976 460.497 304.147C460.686 303.757 459.298 303.492 459.013 303.272C458.517 303.558 458.94 303.654 458.191 303.776C457.678 303.48 456.877 303.424 457.19 303.05C457.421 303.036 457.466 303.173 457.549 303.258C457.453 303.165 457.799 303.143 458.257 303.131C458.76 303.107 459.519 303.083 460.265 303.052C461.19 302.977 461.866 302.942 462.465 302.863C463.063 302.784 463.332 302.718 462.951 302.701C462.913 302.901 461.037 303.036 459.643 303.026C459.317 303.022 458.875 303.026 458.593 303.011C458.356 302.985 458.103 302.968 457.863 302.958C457.622 302.949 457.411 302.938 457.283 302.938C457.129 302.923 457.052 302.878 457.132 302.98C457.145 303.135 456.835 303.196 456.524 303.257C456.201 303.31 455.922 303.353 456.003 303.528C456.358 303.53 456.701 303.525 457.031 303.512C457.066 303.625 457.044 303.742 456.99 303.877C456.952 304.002 456.93 304.119 456.853 304.222C456.696 304.446 456.405 304.629 456.101 304.656C455.524 304.323 457.321 304.308 458.746 304.225C459.543 304.15 460.353 304.082 460.83 304.044C461.355 303.977 461.592 303.93 461.138 303.926L461.522 304.222C461.305 304.244 461.049 304.244 460.738 304.23C460.472 304.206 460.241 304.147 460.011 304.088C459.552 303.952 459.072 303.786 459.238 303.512C458.796 303.811 458.171 303.654 457.591 303.559L457.601 303.435C457.136 303.333 456.79 302.985 456.252 303.414C457.138 304.073 455.611 304.614 453.78 304.886C451.942 305.192 449.732 305.209 451.179 306.654C451.126 305.811 451.571 305.791 452.132 306.059C452.389 306.207 452.796 306.387 453.258 306.579C453.735 306.763 454.094 307.044 454.665 307.188C454.607 307.34 454.675 307.582 454.945 307.886C455.214 308.189 455.638 308.581 456.465 308.874C458.054 309.2 457.64 308.832 458.104 308.712C458.71 309.118 460.431 309.501 459.83 309.893C461.498 309.656 461.717 310.521 463.504 310.556C465.096 310.496 463.562 310.33 464.724 310.207C465.829 310.309 467.143 310.44 468.414 310.564C469.708 310.646 470.945 310.732 471.854 310.814C472.39 311.216 474.348 311.921 472.466 312.534C468.876 312.401 474.242 311.583 470.463 311.618C471.65 312.561 467.059 311.776 466.038 312.351C466.993 312.865 469.472 312.93 471.561 312.879L471.198 312.763C472.134 312.711 473.527 312.648 474.907 312.65C476.291 312.636 477.677 312.68 478.603 312.9C478.044 313.224 478.841 313.444 477.455 313.549C478.294 313.553 479.146 313.565 480.004 313.543C480.353 313.43 480.718 313.309 480.013 313.271C481.294 312.976 482.457 313.075 483.341 313.216C483.44 313.366 486.94 312.856 490.292 312.224C493.657 311.599 496.868 310.886 496.66 311.006C498.491 310.807 498.925 311.224 500.72 310.69C500.819 310.544 496.433 311.374 492.281 312.024C488.125 312.69 484.196 313.211 485.445 313.082C486.198 313.24 491.538 312.482 496.712 311.553C501.921 310.664 506.947 309.465 507.559 309.689C508.914 309.455 510.54 309.064 510.162 308.809C512.473 308.555 509.58 309.544 511.271 309.56C511.297 309.501 511.098 309.423 511.639 309.348C512.2 309.394 512.738 309.41 513.301 309.439C516.755 308.275 522.205 307.691 525.577 306.055C524.679 306.662 523.735 307.577 521.418 308.456L520.931 308.396C520.624 308.588 518.653 309.149 518.81 309.443C521.205 309.127 523.203 308.581 525.475 307.639C525.952 307.601 526.519 307.54 526.919 307.531C526.884 307.492 526.829 307.479 526.826 307.422C527.713 307.398 527.646 307.452 527.409 307.648C527.374 307.683 527.339 307.718 527.275 307.755C528.21 308 530.438 307.217 532.889 306.231C535.354 305.253 538.016 304.057 540.193 303.54C541.265 302.995 540.199 303.359 541.527 302.667C545.832 301.44 548.876 300.556 553.104 298.841C554.018 297.928 553.934 297.769 551.994 298.164C553.057 297.743 554.055 297.285 555.079 296.842C554.267 297.888 555.922 297.421 557.526 296.925C559.117 296.421 560.711 295.901 559.807 297.059C560.36 296.917 561.128 296.622 561.916 296.227C562.661 295.826 563.454 295.324 564.139 294.795C563.991 294.525 563.747 294.089 565.701 292.946C568.828 291.555 568.117 291.921 570.629 290.693C571.564 290.568 570.979 291.172 571.399 291.285C574.097 288.78 575.258 289.783 578.284 287.577C579.931 286.108 583.358 283.285 582.541 282.943C584.824 281.047 585.382 281.184 585.956 281.608L585.936 281.486Z" fill="#2DA6DA"/>
<path d="M384.854 228.73L384.838 228.961L385.048 229.729C386.532 230.308 386.955 232.123 387.571 234.491C387.93 234.403 388.227 234.113 388.725 234.862C389.613 238.644 389.548 236.667 391.471 239.052C391.095 238.262 390.542 237.278 390.705 236.799C391.621 238.417 392.463 240.049 393.484 241.636C393.806 240.769 394.292 240.015 395.276 240.676C396.411 239.798 398.915 240.929 400.702 241.112C400.435 240.2 400.248 239.464 400.276 239.092C400.926 239.043 401.625 239.779 402.265 240.758C402.669 241.398 403.068 242.145 403.393 242.831C403.376 242.397 403.346 241.955 403.708 242.071L402.191 239.201C402.287 239.071 402.431 239.136 402.633 239.271L401.902 238.627L401.845 239.297C401.679 239.57 401.288 239.234 400.909 238.904C400.408 238.172 400.59 237.889 400.586 237.462L399.213 236.078C397.845 235.787 400.537 240.333 398.333 238.082L398.226 237.225C397.41 236.127 396.667 234.571 395.571 233.975C396.327 232.472 393.159 230.866 394.801 230.244C393.767 225.51 390.284 219.805 390.88 214.738C389.463 214.178 387.12 214.672 385.131 212.933C385.216 212.484 385.241 211.833 385.568 211.985L384.563 210.684C384.776 211.509 385.127 212.506 384.759 213.014C383.631 210.867 384.012 214.245 383.314 214.174L381.87 211.217L381.704 211.639C382.686 217.247 383.241 222.998 384.693 228.601L384.812 228.725L384.854 228.73Z" fill="#2DA6DA"/>
<path d="M390.966 130.164L389.586 130.457C387.011 118.72 384.341 105.913 379.643 92.7656C374.97 79.6333 368.228 66.0818 357.333 53.4762C346.506 40.8909 331.559 29.159 311.55 20.3785C301.591 16.0141 290.403 12.3441 278.1 9.82166C265.857 7.27888 252.672 5.87258 239.137 5.55692C240.48 4.55936 241.833 3.58585 243.208 2.64378C227.98 2.92054 211.383 4.47588 195.42 7.48674C187.429 8.93114 179.615 10.9396 172.259 13.0833C168.607 14.2439 165.051 15.4231 161.643 16.6504C159.979 17.315 158.331 17.9703 156.698 18.6164C155.092 19.2772 153.482 19.8808 152.004 20.6157C153.694 20.0399 155.454 19.6158 157.183 19.1362L162.388 17.7455C160.296 18.8646 157.287 20.1569 153.867 21.6727C150.536 23.3142 146.587 24.9128 142.843 26.9258C140.949 27.9008 138.978 28.8314 137.068 29.8156C135.261 30.8591 133.415 31.8804 131.617 32.8739C130.711 33.367 129.822 33.8509 128.948 34.3255C128.126 34.8297 127.317 35.3413 126.527 35.8271C124.947 36.7986 123.405 37.7184 121.936 38.5513L122.136 37.4291C129.617 32.4585 129.557 32.7006 127.659 33.3225C125.934 34.0074 122.715 35.3624 124.788 32.6994C125.543 32.0269 126.509 31.4396 127.356 30.8022L125.157 31.5089C124.281 32.1481 123.523 32.8373 122.717 33.4802C122.55 33.0141 121.624 32.7935 124.221 31.0424C122.855 31.7866 121.582 32.5661 120.254 33.3325C117.582 34.283 115.402 34.9639 113.638 35.4046C111.913 35.8676 110.626 36.1219 109.553 36.1489C107.433 36.2178 106.359 35.5053 105.412 34.497C104.51 35.3432 105.357 35.684 105.176 36.5584C105.093 36.991 104.742 37.564 103.799 38.4046C103.335 38.8203 102.715 39.3117 101.909 39.8807C101.157 40.4626 100.256 41.1609 99.1234 41.9479L99.1306 40.7146C96.8362 43.4163 94.3496 46.0069 92.6061 48.7311L87.699 51.7713C85.8471 54.6914 85.2648 56.6268 82.3749 59.391L84.2348 60.6125C78.956 66.8732 75.5915 74.2945 73.8153 81.5985C71.9047 88.9357 72.1908 96.1005 72.6164 102.533C74.268 103.653 74.4391 106.042 75.5559 108.847C75.7911 109.556 76.0487 110.295 76.316 111.059C76.4577 111.436 76.5962 111.83 76.7795 112.213C77.0076 112.585 77.2645 112.955 77.5055 113.334C78.514 114.84 79.75 116.347 81.3348 117.743C81.6239 116.524 81.9515 115.328 82.2919 114.14C82.2067 113.167 81.958 112.082 81.5682 110.915C81.3417 109.713 81.0638 108.407 80.6704 107.035C80.4577 106.358 80.2513 105.648 80.0322 104.931C79.8418 104.211 79.7762 103.435 79.6242 102.663C79.4066 101.116 78.9104 99.5364 78.8143 97.8742C77.9816 91.2619 79.309 83.7727 82.2406 77.7267L83.5739 78.2009C83.2336 79.4635 83.4022 80.5212 83.414 81.6546C83.397 82.7899 83.2392 83.9916 82.4575 85.5534C83.2714 85.7647 84.159 85.9631 85.0465 86.1615C87.6251 84.7321 89.2612 82.7955 90.0768 80.6069C90.4142 79.5088 90.95 78.3407 91.2103 77.1242C91.541 75.9115 91.6667 74.6544 91.8788 73.3917C92.1902 72.1309 92.444 70.8738 92.6946 69.6333C92.9164 68.3947 93.1287 67.2059 93.5782 66.1172C94.3779 63.9378 95.1269 62.0986 96.2396 61.1157C101.1 56.9773 101.132 58.6764 100.498 60.7302C100.103 61.758 99.7661 62.93 99.6168 63.564C99.4515 64.2074 99.4966 64.3442 100.103 63.3277C98.54 68.169 101.528 66.3109 105.384 63.1074C107.434 61.539 109.932 59.638 112.212 57.907C114.675 56.2631 116.965 54.852 118.475 54.1725C118.923 53.914 119.4 53.6536 119.851 53.3784C120.357 53.1162 120.865 52.8373 121.387 52.5658C122.42 51.9989 123.46 51.3987 124.506 50.7652C125.578 50.1465 126.528 49.4204 127.705 48.7704C128.857 48.1055 130.04 47.4222 131.205 46.6907C135.817 43.7761 141.25 40.8176 146.9 37.911C147.572 37.5232 148.33 37.2038 149.092 36.8678L151.319 35.8634C152.826 35.2006 154.247 34.4694 155.805 33.8362C158.996 32.6309 162.046 31.2702 165.314 30.2572C166.924 29.7276 168.473 29.1444 170.06 28.6573C171.658 28.1942 173.239 27.7404 174.775 27.2977C175.544 27.0763 176.312 26.8549 177.051 26.6354C177.826 26.4547 178.572 26.2758 179.318 26.0969C180.806 25.7558 182.253 25.4092 183.639 25.0828C192.739 22.2284 203.474 20.281 214.5 19.4986C225.528 18.6996 236.796 19.036 247.243 20.3203C257.721 21.5862 267.369 23.776 275.704 26.4272C284.094 29.0914 291.441 32.2245 297.83 35.1555C303.668 38.1379 312.843 41.2371 320.236 45.0987C327.622 48.9197 333.047 53.3995 331.912 57.5644C336.537 62.8756 340.452 68.4786 343.659 74.2826L341.943 74.3998C344.574 78.5228 347.228 82.7512 349.629 87.1846C352.107 91.5885 354.447 96.1162 356.502 100.72C360.735 109.886 363.991 119.319 366.058 128.195C367.649 135.984 371.905 137.777 368.007 142.101C367.029 158.361 374.194 176.57 377.196 192.192C378.576 191.899 380.373 193.823 380.681 190.787C377.7 183.046 380.244 173.211 383.999 172.332L383.957 175.392L386.466 169.545L384.906 166.299C385.756 165.275 386.437 164.764 387.036 164.611C387.786 158.506 390.671 152.857 392.304 146.376C390.823 142.197 390.077 137.296 390.979 130.171L390.966 130.164Z" fill="#2DA6DA"/>
<path d="M329.246 118.395L329.191 118.16L328.69 117.427C326.89 117.016 326.018 115.238 324.345 113.035C324.022 113.163 323.834 113.479 322.993 112.809C321.84 111.016 321.404 110.617 320.92 110.393C320.449 110.176 319.946 110.126 318.4 109.123C319.148 109.831 320.152 110.688 320.188 111.171C318.507 109.757 316.964 108.294 315.158 106.937C315.236 107.795 315.103 108.568 313.77 108.094C313.016 109.062 309.873 108.374 307.961 108.471C308.677 109.272 309.194 109.921 309.354 110.273C308.701 110.413 307.631 109.831 306.53 109.03C306.479 109.148 306.425 109.283 306.461 109.47C306.438 109.291 306.492 109.156 306.53 109.03C305.806 108.501 305.055 107.883 304.397 107.3C304.635 107.696 304.844 108.093 304.44 108.045L307.343 110.441C307.318 110.574 307.126 110.537 306.86 110.439L307.921 110.922L307.67 110.297C307.708 110.024 308.272 110.276 308.807 110.529C309.644 111.142 309.546 111.436 309.755 111.833L311.736 112.94C313.254 113.041 308.574 109.139 311.787 110.956L312.249 111.741C313.555 112.66 315.021 114.006 316.3 114.467C316.082 115.985 319.991 117.133 318.516 117.926C321.237 122.322 326.279 127.615 326.705 132.626C328.269 133.086 330.51 132.459 332.934 134.08C332.919 134.533 333.007 135.193 332.635 135.052L333.877 136.305C333.533 135.496 333.025 134.501 333.309 133.982C334.818 136.072 333.864 132.714 334.527 132.746C335.271 133.693 335.853 134.675 336.508 135.644L336.603 135.219C334.62 129.642 332.703 123.936 329.404 118.541L329.224 118.437L329.246 118.395Z" fill="#2DA6DA"/>
<path d="M323.894 217.603L325.29 217.375C325.973 229.478 326.473 242.769 329.827 256.396C331.598 263.236 334.385 270.053 338.241 276.712C342.187 283.348 347.42 289.73 353.696 295.792C378.977 319.935 424.42 337.71 478.544 339.96C477.159 340.952 475.803 341.868 474.383 342.821C489.531 342.665 506.116 341.546 522.268 338.662C538.408 335.846 553.951 331.3 566.223 325.844C564.488 326.357 562.763 326.894 561.034 327.374L555.736 328.655C557.89 327.59 560.981 326.383 564.379 324.762C566.107 323.986 567.941 323.179 569.861 322.367C571.701 321.453 573.614 320.526 575.572 319.588C576.558 319.123 577.544 318.658 578.529 318.192C579.505 317.703 580.417 317.177 581.38 316.68C583.28 315.672 585.161 314.689 587.024 313.733C588.783 312.717 590.511 311.719 592.171 310.776C593.819 309.825 595.489 308.979 596.922 308.107C596.849 308.49 596.802 308.887 596.687 309.264C588.773 314.041 589.077 313.939 590.885 313.265C592.649 312.603 595.983 311.314 593.718 313.94L591.172 315.869L593.304 315.142L595.853 313.197C596.004 313.672 596.888 313.887 594.24 315.608L598.322 313.385C601.068 312.495 603.267 311.863 605.009 311.39C606.76 310.942 608.149 310.747 609.209 310.713C611.355 310.659 612.381 311.399 613.267 312.428C614.227 311.578 613.396 311.228 613.635 310.35C613.762 309.906 614.155 309.339 615.073 308.483C616.019 307.626 617.57 306.508 619.924 304.912L619.83 306.151C622.432 303.479 624.647 300.75 626.669 298.057C628.3 297.041 630.002 296.029 631.585 294.967C633.53 292.008 634.199 290.067 636.973 287.236L635.142 286.013C637.753 282.847 639.937 279.38 641.646 275.787C643.34 272.203 644.524 268.454 645.289 264.888C646.829 257.706 647.385 250.677 647.084 243.891C645.435 242.681 645.152 240.208 643.592 237.037C642.782 235.461 641.635 233.709 639.579 232.023C637.536 230.345 634.426 228.734 630.229 227.9C631.768 229.084 632.985 230.322 633.637 231.604C635.675 233.611 637.521 236.173 638.69 239.082C639.887 241.989 640.537 245.227 640.732 248.609C641.123 255.373 639.767 262.716 636.989 268.777L635.624 268.321C636.003 265.807 635.221 264.081 636.612 260.968L634.055 260.342C628.814 263.189 628.212 268.142 627.348 273.202C626.994 275.731 626.477 278.296 625.856 280.505C625.166 282.71 624.263 284.534 623.176 285.532C620.839 287.636 619.613 288.24 619.046 288.079C618.52 287.923 618.656 286.986 618.927 285.942C619.525 283.849 620.58 281.3 619.309 283.337C620.156 280.908 619.684 280.173 618.695 280.433C617.661 280.705 616.024 281.976 613.996 283.575C610.047 286.818 604.102 291.198 600.953 292.483C597.145 294.458 592.948 297.059 588.179 299.828C587.005 300.535 585.763 301.222 584.516 301.942C583.268 302.662 581.812 303.355 580.475 304.097C579.109 304.841 577.742 305.586 576.344 306.348C574.86 307.043 573.401 307.752 571.925 308.47C569.072 309.999 565.81 311.201 562.77 312.585L561.606 313.095L560.396 313.542L557.992 314.426C556.389 314.996 554.84 315.653 553.233 316.166C546.787 318.244 540.468 320.026 534.84 321.098C525.708 323.897 514.909 325.734 503.822 326.315C492.742 326.936 481.422 326.422 470.835 325.056C460.186 323.711 450.404 321.48 441.3 318.976C439.06 318.33 436.929 317.635 434.773 316.999C433.696 316.673 432.632 316.355 431.581 316.043C430.581 315.688 429.565 315.341 428.578 314.993C426.572 314.315 424.62 313.65 422.71 312.991C420.867 312.277 419.075 311.594 417.29 310.951C416.473 310.609 415.594 310.286 414.659 309.968C413.771 309.622 412.841 309.27 411.867 308.929C409.934 308.238 407.781 307.586 405.589 306.911C401.432 305.417 396.683 304.042 392.747 302.286C388.57 300.669 385.14 298.726 382.542 296.82C380.053 294.866 378.761 292.753 378.975 290.734C373.678 285.737 369.097 280.489 365.531 274.921L367.257 274.754C365.793 272.801 364.563 270.742 363.079 268.74C361.839 266.658 360.586 264.568 359.336 262.461C358.786 261.386 358.252 260.302 357.706 259.211C357.143 258.129 356.536 257.058 356.152 255.932C355.299 253.685 354.197 251.553 353.513 249.163C350.347 239.856 348.598 230.129 347.982 220.963C347.649 212.922 343.77 210.867 348.249 206.638C349.949 198.312 349.65 189.348 348.409 180.468C347.201 171.571 344.971 162.803 343.184 154.846C341.801 155.156 339.937 153.212 339.734 156.29C343.004 164.161 339.859 174.239 336.052 175.015C336.137 173.974 336.234 172.941 336.274 171.911C335.387 173.874 334.372 175.837 333.431 177.787L334.687 181.134C333.767 182.154 333.047 182.644 332.451 182.78C331.118 188.955 327.6 194.57 325.108 201.073C325.981 205.381 325.975 210.42 323.974 217.631L323.894 217.603Z" fill="#2DA6DA"/>
</g>
</g>
<path fill-rule="evenodd" clip-rule="evenodd" d="M373.301 65.7575C369.382 65.7575 366.182 62.5572 366.182 58.6384C366.182 54.7197 369.382 51.5194 373.301 51.5194C377.219 51.5194 380.42 54.7197 380.42 58.6384C380.42 62.5572 377.219 65.7575 373.301 65.7575ZM415.818 78.6276C415.818 83.9179 420.128 88.2285 425.418 88.2285C430.709 88.2285 435.019 83.9179 435.019 78.6276C435.019 73.3373 430.709 69.0267 425.418 69.0267C420.128 69.0267 415.818 73.3373 415.818 78.6276ZM449.912 106.583C443.707 106.583 438.613 101.554 438.613 95.2837C438.613 89.0138 443.642 83.9847 449.912 83.9847C456.182 83.9847 461.211 89.0138 461.211 95.2837C461.211 97.1786 460.751 98.9601 459.937 100.524C461.629 99.7176 463.522 99.2664 465.521 99.2664C472.699 99.2664 478.518 105.085 478.518 112.264C478.518 119.442 472.699 125.261 465.521 125.261C458.343 125.261 452.524 119.442 452.524 112.264C452.524 109.874 453.169 107.635 454.294 105.711C452.949 106.273 451.468 106.583 449.912 106.583ZM327.517 61.3816C327.517 65.1697 330.586 68.2393 334.374 68.2393C338.163 68.2394 341.232 65.1697 341.232 61.3816C341.232 57.5935 338.163 54.5238 334.374 54.5238C330.586 54.5238 327.517 57.5934 327.517 61.3816ZM296.887 103.509C292.903 103.509 289.637 100.243 289.637 96.2593C289.637 92.2752 292.903 89.0096 296.887 89.0096C300.871 89.0096 304.137 92.2752 304.137 96.2593C304.137 100.243 300.871 103.509 296.887 103.509ZM265.731 140.35C265.731 144.726 269.323 148.318 273.699 148.318C278.075 148.318 281.667 144.726 281.667 140.35C281.667 135.974 278.075 132.382 273.699 132.382C269.323 132.382 265.731 135.974 265.731 140.35ZM260.44 182.15C255.607 182.15 251.754 178.231 251.754 173.463C251.754 168.695 255.672 164.777 260.44 164.777C265.208 164.777 269.127 168.695 269.127 173.463C269.127 178.231 265.208 182.15 260.44 182.15ZM307.27 189.851C303.482 189.851 300.412 186.78 300.412 182.993C300.412 179.205 303.482 176.135 307.27 176.135C311.057 176.135 314.128 179.205 314.128 182.993C314.128 186.78 311.057 189.851 307.27 189.851ZM352.988 124.349C349.396 124.349 346.522 121.475 346.522 117.883C346.522 114.291 349.396 111.417 352.988 111.417C356.58 111.417 359.454 114.291 359.454 117.883C359.454 121.475 356.58 124.349 352.988 124.349ZM360.759 110.827C360.759 114.681 363.894 117.816 367.748 117.816C371.601 117.816 374.736 114.681 374.736 110.827C374.736 106.974 371.601 103.839 367.748 103.839C363.894 103.839 360.759 106.974 360.759 110.827ZM363.505 146.222C359.847 146.222 356.843 143.218 356.843 139.56C356.843 135.903 359.847 132.898 363.505 132.898C367.162 132.898 370.167 135.903 370.167 139.56C370.167 143.218 367.162 146.222 363.505 146.222ZM402.364 248.763C397.639 248.763 393.808 244.932 393.808 240.207C393.808 235.481 397.639 231.651 402.364 231.651C407.089 231.651 410.92 235.481 410.92 240.207C410.92 244.932 407.089 248.763 402.364 248.763ZM427.378 262.937C422.023 262.937 417.712 258.626 417.712 253.271C417.712 247.915 422.023 243.604 427.378 243.604C432.734 243.604 437.045 247.915 437.045 253.271C437.045 258.626 432.734 262.937 427.378 262.937ZM483.874 236.292C476.768 236.292 471.008 230.531 471.008 223.425C471.008 216.319 476.768 210.559 483.874 210.559C490.98 210.559 496.741 216.319 496.741 223.425C496.741 230.531 490.98 236.292 483.874 236.292ZM468.003 192.01C468.003 199.801 474.319 206.117 482.11 206.117C489.901 206.117 496.218 199.801 496.218 192.01C496.218 184.218 489.901 177.902 482.11 177.902C474.319 177.902 468.003 184.218 468.003 192.01ZM438.092 186.195C438.092 192.988 443.578 198.474 450.37 198.474C457.163 198.474 462.649 192.988 462.649 186.195C462.649 179.403 457.163 173.916 450.37 173.916C443.578 173.916 438.092 179.403 438.092 186.195ZM461.278 223.228C454.485 223.228 448.999 217.741 448.999 210.949C448.999 204.156 454.485 198.67 461.278 198.67C468.07 198.67 473.556 204.156 473.556 210.949C473.556 217.741 468.07 223.228 461.278 223.228ZM468.917 278.806C468.917 284.423 473.424 288.93 479.04 288.93C484.657 288.93 489.164 284.423 489.164 278.806C489.164 273.189 484.657 268.683 479.04 268.683C473.424 268.683 468.917 273.189 468.917 278.806ZM451.48 350.064C445.928 350.064 441.356 345.557 441.356 339.941C441.356 334.324 445.863 329.817 451.48 329.817C457.097 329.817 461.603 334.324 461.603 339.941C461.603 345.558 457.097 350.064 451.48 350.064ZM405.238 355.096C405.238 361.758 410.658 367.179 417.32 367.179C423.982 367.179 429.403 361.758 429.403 355.096C429.403 348.434 423.982 343.014 417.32 343.014C410.658 343.014 405.238 348.434 405.238 355.096ZM351.944 373.973C343.454 373.973 336.596 367.115 336.596 358.624C336.596 350.134 343.454 343.276 351.944 343.276C360.435 343.276 367.293 350.134 367.293 358.624C367.293 367.115 360.435 373.973 351.944 373.973ZM300.607 342.75C292.744 342.75 286.369 336.375 286.369 328.512C286.369 320.648 292.744 314.274 300.607 314.274C308.471 314.274 314.845 320.648 314.845 328.512C314.845 336.375 308.471 342.75 300.607 342.75ZM266.646 303.43C260.115 303.43 254.824 298.14 254.824 291.608C254.824 285.077 260.115 279.787 266.646 279.787C273.177 279.787 278.468 285.077 278.468 291.608C278.468 298.14 273.177 303.43 266.646 303.43ZM234.579 272.083C234.579 278.092 239.477 282.99 245.486 282.99C251.495 282.99 256.393 278.092 256.393 272.083C256.393 266.074 251.495 261.176 245.486 261.176C239.477 261.176 234.579 266.074 234.579 272.083ZM227.849 243.543C222.102 243.543 217.465 238.905 217.465 233.158C217.465 227.41 222.102 222.773 227.849 222.773C232.412 222.773 236.274 225.695 237.673 229.774C237.613 229.322 237.582 228.86 237.582 228.39C237.582 222.708 242.153 218.136 247.836 218.136C253.518 218.136 258.09 222.708 258.09 228.39C258.09 234.072 253.518 238.644 247.836 238.644C243.331 238.644 239.525 235.771 238.14 231.75C238.202 232.21 238.234 232.68 238.234 233.158C238.234 238.905 233.597 243.543 227.849 243.543ZM328.692 265.877C328.692 271.287 333.078 275.674 338.489 275.674C343.9 275.674 348.286 271.287 348.286 265.877C348.286 260.466 343.9 256.08 338.489 256.08C333.078 256.08 328.692 260.466 328.692 265.877ZM358.147 272.34C358.147 277.826 362.588 282.267 368.074 282.267C373.561 282.267 378.002 277.826 378.002 272.34C378.002 266.854 373.561 262.412 368.074 262.412C362.588 262.412 358.147 266.854 358.147 272.34ZM356.385 304.082C356.385 310.864 361.882 316.361 368.663 316.361C369.278 316.361 369.881 316.316 370.471 316.229C364.753 317.857 360.565 323.119 360.565 329.359C360.565 336.898 366.677 343.009 374.216 343.009C381.755 343.009 387.866 336.898 387.866 329.359C387.866 321.82 381.755 315.709 374.216 315.709C373.501 315.709 372.799 315.764 372.113 315.87C377.215 314.379 380.942 309.666 380.942 304.082C380.942 297.301 375.445 291.804 368.663 291.804C361.882 291.804 356.385 297.301 356.385 304.082Z" fill="url(#paint1_radial_6_150)" fill-opacity="0.3" style="mix-blend-mode:color-dodge"/>
<circle opacity="0.3" cx="345.5" cy="317.5" r="266.5" fill="url(#paint2_radial_6_150)"/>
<defs>
<linearGradient id="paint0_linear_6_150" x1="351.708" y1="355.504" x2="351.708" y2="193.527" gradientUnits="userSpaceOnUse">
<stop stop-color="#5C49EA"/>
<stop offset="0.5" stop-color="#3DAFE9"/>
<stop offset="1" stop-color="#94FFED"/>
</linearGradient>
<radialGradient id="paint1_radial_6_150" cx="0" cy="0" r="1" gradientUnits="userSpaceOnUse" gradientTransform="translate(357.298 199.42) rotate(90.0642) scale(174.552 151.179)">
<stop stop-color="white"/>
<stop offset="1" stop-color="#999999" stop-opacity="0"/>
</radialGradient>
<radialGradient id="paint2_radial_6_150" cx="0" cy="0" r="1" gradientUnits="userSpaceOnUse" gradientTransform="translate(345.5 317.5) rotate(90) scale(266.5)">
<stop stop-color="#FFF6D3"/>
<stop offset="1" stop-color="#737373" stop-opacity="0"/>
</radialGradient>
<clipPath id="clip0_6_150">
<rect width="387.109" height="330.838" fill="white" transform="translate(152.321 169.229)"/>
</clipPath>
<clipPath id="clip1_6_150">
<rect width="96.0497" height="162.023" fill="white" transform="translate(303.672 193.484)"/>
</clipPath>
<clipPath id="clip2_6_150">
<rect width="571.138" height="255.863" fill="white" transform="matrix(0.866044 0.499967 -0.866044 0.499967 221.589 -32.5719)"/>
</clipPath>
</defs>
</svg>
