<svg width="191" height="58" viewBox="0 0 191 58" fill="none" xmlns="http://www.w3.org/2000/svg">
<rect x="0.5" y="1" width="190" height="56" rx="7.5" fill="#0F172A"/>
<rect x="0.5" y="1" width="190" height="56" rx="7.5" stroke="url(#paint0_linear_6_100)"/>
<path d="M54.064 26.324V32.004C53.312 32.26 51.888 32.612 50.464 32.612C48.496 32.612 47.072 32.116 46.08 31.156C45.088 30.228 44.544 28.82 44.56 27.236C44.576 23.652 47.184 21.604 50.72 21.604C52.112 21.604 53.184 21.876 53.712 22.132L53.2 24.084C52.608 23.828 51.872 23.62 50.688 23.62C48.656 23.62 47.12 24.772 47.12 27.108C47.12 29.332 48.512 30.644 50.512 30.644C51.072 30.644 51.52 30.58 51.712 30.484V28.228H50.048V26.324H54.064ZM62.888 29.364H57.848C57.928 30.372 58.92 30.852 60.056 30.852C60.888 30.852 61.56 30.74 62.216 30.532L62.536 32.18C61.736 32.5 60.76 32.66 59.704 32.66C57.048 32.66 55.528 31.124 55.528 28.676C55.528 26.692 56.76 24.5 59.48 24.5C62.008 24.5 62.968 26.468 62.968 28.404C62.968 28.82 62.92 29.188 62.888 29.364ZM57.832 27.7H60.712C60.712 27.108 60.456 26.116 59.336 26.116C58.312 26.116 57.896 27.044 57.832 27.7ZM64.7651 22.98L67.1491 22.436V24.676H68.8931V26.468H67.1491V29.3C67.1491 30.244 67.3731 30.676 68.1091 30.676C68.4131 30.676 68.6531 30.644 68.8291 30.612L68.8451 32.452C68.5251 32.58 67.9491 32.66 67.2611 32.66C66.4771 32.66 65.8211 32.388 65.4371 31.988C64.9891 31.524 64.7651 30.772 64.7651 29.668V26.468H63.7251V24.676H64.7651V22.98ZM73.6185 32.5V21.716H80.2105V23.716H76.0665V26.18H79.9385V28.164H76.0665V32.5H73.6185ZM81.6635 32.5V27.252C81.6635 26.1 81.6315 25.348 81.5995 24.676H83.6955L83.7755 26.116H83.8395C84.2395 24.98 85.1995 24.5 85.9515 24.5C86.1755 24.5 86.2875 24.5 86.4635 24.532V26.82C86.2875 26.788 86.0795 26.756 85.8075 26.756C84.9115 26.756 84.3035 27.236 84.1435 27.988C84.1115 28.148 84.0955 28.34 84.0955 28.532V32.5H81.6635ZM94.5286 29.364H89.4886C89.5686 30.372 90.5606 30.852 91.6966 30.852C92.5286 30.852 93.2006 30.74 93.8566 30.532L94.1766 32.18C93.3766 32.5 92.4006 32.66 91.3446 32.66C88.6886 32.66 87.1686 31.124 87.1686 28.676C87.1686 26.692 88.4006 24.5 91.1206 24.5C93.6486 24.5 94.6086 26.468 94.6086 28.404C94.6086 28.82 94.5606 29.188 94.5286 29.364ZM89.4726 27.7H92.3526C92.3526 27.108 92.0966 26.116 90.9766 26.116C89.9526 26.116 89.5366 27.044 89.4726 27.7ZM102.982 29.364H97.9418C98.0218 30.372 99.0138 30.852 100.15 30.852C100.982 30.852 101.654 30.74 102.31 30.532L102.63 32.18C101.83 32.5 100.854 32.66 99.7977 32.66C97.1418 32.66 95.6217 31.124 95.6217 28.676C95.6217 26.692 96.8538 24.5 99.5738 24.5C102.102 24.5 103.062 26.468 103.062 28.404C103.062 28.82 103.014 29.188 102.982 29.364ZM97.9258 27.7H100.806C100.806 27.108 100.55 26.116 99.4298 26.116C98.4058 26.116 97.9898 27.044 97.9258 27.7ZM113.437 29.732H110.349L109.581 32.5H107.053L110.349 21.716H113.549L116.893 32.5H114.269L113.437 29.732ZM110.701 27.908H113.085L112.413 25.62C112.221 24.98 112.029 24.18 111.869 23.54H111.837C111.677 24.18 111.517 24.996 111.341 25.62L110.701 27.908ZM125.399 24.676V29.988C125.399 31.012 125.431 31.844 125.463 32.5H123.351L123.239 31.396H123.191C122.887 31.876 122.151 32.676 120.743 32.676C119.159 32.676 117.991 31.684 117.991 29.268V24.676H120.439V28.884C120.439 30.02 120.807 30.708 121.655 30.708C122.327 30.708 122.711 30.244 122.871 29.86C122.935 29.716 122.951 29.524 122.951 29.332V24.676H125.399ZM132.503 21.14H134.935V30.164C134.935 31.044 134.967 31.972 134.999 32.5H132.839L132.727 31.348H132.695C132.199 32.228 131.255 32.676 130.247 32.676C128.391 32.676 126.903 31.092 126.903 28.66C126.887 26.02 128.535 24.5 130.407 24.5C131.367 24.5 132.119 24.836 132.471 25.38H132.503V21.14ZM132.503 29.012V27.988C132.503 27.86 132.487 27.684 132.471 27.556C132.327 26.9 131.799 26.356 131.047 26.356C129.943 26.356 129.367 27.348 129.367 28.58C129.367 29.908 130.023 30.74 131.031 30.74C131.735 30.74 132.295 30.26 132.439 29.572C132.487 29.396 132.503 29.22 132.503 29.012ZM139.314 32.5H136.882V24.676H139.314V32.5ZM138.098 21.268C138.882 21.268 139.378 21.796 139.394 22.5C139.394 23.172 138.882 23.716 138.082 23.716C137.314 23.716 136.802 23.172 136.818 22.5C136.802 21.796 137.314 21.268 138.098 21.268ZM141.609 22.98L143.993 22.436V24.676H145.737V26.468H143.993V29.3C143.993 30.244 144.217 30.676 144.953 30.676C145.257 30.676 145.497 30.644 145.673 30.612L145.689 32.452C145.369 32.58 144.793 32.66 144.105 32.66C143.321 32.66 142.665 32.388 142.281 31.988C141.833 31.524 141.609 30.772 141.609 29.668V26.468H140.569V24.676H141.609V22.98Z" fill="url(#paint1_linear_6_100)"/>
<defs>
<linearGradient id="paint0_linear_6_100" x1="95.5" y1="57.5" x2="95.5" y2="0.5" gradientUnits="userSpaceOnUse">
<stop stop-color="#5C49EA"/>
<stop offset="0.5" stop-color="#3DAFE9"/>
<stop offset="1" stop-color="#94FFED"/>
</linearGradient>
<linearGradient id="paint1_linear_6_100" x1="95.5" y1="40.5" x2="95.5" y2="17.5" gradientUnits="userSpaceOnUse">
<stop stop-color="#5C49EA"/>
<stop offset="0.5" stop-color="#3DAFE9"/>
<stop offset="1" stop-color="#94FFED"/>
</linearGradient>
</defs>
</svg>
