<svg width="416" height="312" viewBox="0 0 416 312" fill="none" xmlns="http://www.w3.org/2000/svg">
<g clip-path="url(#clip0_6_349)">
<path d="M273.171 271.41C235.07 293.435 173.262 293.435 135.161 271.41C97.0596 249.384 97.0318 213.704 135.161 191.678C173.262 169.652 235.07 169.652 273.171 191.678C311.272 213.704 311.3 249.384 273.171 271.41Z" fill="#FFF6D3"/>
<path d="M132.159 194.348C132.159 217.903 165.23 237.009 206.027 237.009C246.825 237.009 279.896 217.903 279.896 194.348V207.03C279.896 230.585 246.825 249.69 206.027 249.69C165.23 249.69 132.159 230.585 132.159 207.03V194.348Z" fill="#102A4B"/>
<path d="M206.027 237.009C246.824 237.009 279.896 217.909 279.896 194.348C279.896 170.787 246.824 151.687 206.027 151.687C165.231 151.687 132.159 170.787 132.159 194.348C132.159 217.909 165.231 237.009 206.027 237.009Z" fill="#0E3D5B"/>
<path d="M198.023 231.419C115.762 228.721 70.296 154.134 95.3913 97.0682C107.286 70.148 141.969 42.7551 169.538 35.5523C148.917 47.0657 148 66.4493 168.481 78.7135C188.769 90.8387 222.118 91.1725 242.961 79.4644C272.781 62.7228 258.524 34.1062 220.034 28.0714C222.146 28.0714 226.537 28.8501 232.373 30.5743C260.72 38.973 290.845 58.4122 309.771 85.1655C347.011 137.866 308.465 235.034 197.995 231.419H198.023Z" fill="#190623"/>
<path d="M177.763 189.87C139.884 188.619 109.481 171.933 90.4164 148.572C86.7757 131.441 88.1375 113.587 95.3909 97.0682C105.257 74.6532 130.963 51.849 155.336 40.725C178.597 50.4863 214.67 48.2893 232.373 30.5743C249.575 35.6635 279.478 49.0958 302.267 75.5432C310.549 128.021 268.334 192.818 177.763 189.87Z" fill="#250D2D"/>
<path d="M118.291 51.0703C118.291 79.075 157.588 101.796 206.083 101.796C254.578 101.796 293.875 79.075 293.875 51.0703V66.1433C293.875 94.148 254.578 116.869 206.083 116.869C157.588 116.869 118.291 94.148 118.291 66.1433V51.0703Z" fill="#08637D"/>
<path d="M206.027 101.879C254.513 101.879 293.819 79.1686 293.819 51.1537C293.819 23.1387 254.513 0.428101 206.027 0.428101C157.541 0.428101 118.236 23.1387 118.236 51.1537C118.236 79.1686 157.541 101.879 206.027 101.879Z" fill="#03899E"/>
<path d="M286.288 51.1536C286.288 53.3506 286.01 55.5198 285.509 57.6334C280.062 80.1873 246.546 97.513 206.027 97.513C165.508 97.513 131.992 80.1595 126.545 57.6334C126.017 55.5198 125.767 53.3506 125.767 51.1536C125.767 25.5405 161.701 4.76642 206.027 4.76642C250.354 4.76642 286.288 25.5405 286.288 51.1536Z" fill="#102A4B"/>
<path fill-rule="evenodd" clip-rule="evenodd" d="M126.545 57.6336C126.545 57.6334 126.545 57.6333 126.545 57.6331C126.545 57.6331 126.545 57.6331 126.545 57.6331C126.523 57.554 123.131 45.3208 132.937 38.9729C136.477 36.6811 139.874 35.7795 142.771 35.5642C143.156 35.2803 143.546 34.9991 143.942 34.7205C143.942 34.7197 143.942 34.7188 143.942 34.718C144.033 34.2017 143.942 33.331 143.835 32.3074C143.549 29.5813 143.15 25.7703 145.777 24.6785C145.922 24.6174 146.064 24.558 146.202 24.5001C149.522 23.1091 150.724 22.6051 149.417 20.8964C148.028 19.1165 143.581 15.5012 142.803 15.974C142.025 16.4467 139.746 17.7538 139.746 17.7538C139.746 17.7538 142.053 10.106 150.14 8.57649C157.365 7.2099 157.913 9.7283 158.543 12.6209C158.618 12.9659 158.694 13.3161 158.783 13.6657C159.259 15.5243 163.108 15.7042 166.638 15.8693C169.287 15.9931 171.757 16.1086 172.484 16.9195C174.179 18.8106 175.179 19.3668 175.179 19.3668C175.179 19.3668 175.846 12.5533 182.044 12.164C188.213 11.7747 189.353 17.7538 189.353 17.7538C189.353 17.7538 191.465 9.32736 202.164 9.52204C212.836 9.71671 214.365 17.7538 214.365 17.7538C214.365 17.7538 216.643 6.12921 227.232 8.18715C237.848 10.2729 239.154 19.1721 239.154 19.1721C239.154 19.1721 248.158 17.4201 249.77 21.6472C250.6 23.824 250.789 24.9978 250.777 25.6244C250.867 25.6595 250.957 25.6946 251.047 25.7298C252.42 24.1803 256.808 20.3388 264.361 23.733C273.643 27.9045 272.309 36.2475 272.309 36.2475C272.309 36.2475 273.532 33.9671 278.173 38.1386C282.651 42.1637 282.679 49.7878 282.675 50.318C282.683 50.3323 282.69 50.3465 282.698 50.3607C282.847 50.4475 283.723 50.9555 285.509 51.988C287.483 53.1282 284.815 60.0529 284.815 60.0529L284.811 60.0533C277.635 81.4147 245.085 97.5128 206.027 97.5128C165.526 97.5128 132.021 80.1743 126.552 57.6624C126.55 57.662 126.547 57.6616 126.545 57.6613V57.6336Z" fill="url(#paint0_linear_6_349)"/>
<path d="M135.327 219.404C135.327 219.404 120.431 226.607 117.902 239.233C115.373 251.859 112.344 254.89 113.345 256.419C114.345 257.949 114.873 258.45 116.763 258.45C118.653 258.45 119.653 256.809 119.653 256.809C119.653 256.809 127.991 243.682 130.13 241.263C132.27 238.871 149.695 236.09 151.335 232.809C152.975 229.527 135.3 219.404 135.3 219.404H135.327Z" fill="#13173A"/>
<path d="M206.027 311.428C206.027 311.428 202.081 311.428 201.581 307.089C201.025 302.167 203.22 286.204 200.58 277.11C197.94 268.016 195.244 248.827 195.244 248.827C195.244 248.827 194.494 244.072 198.69 241.736C201.998 239.9 206.055 239.622 206.055 239.622V311.4L206.027 311.428Z" fill="#102A4B"/>
<path d="M276.727 219.404C276.727 219.404 296.181 226.607 298.682 239.233C301.211 251.859 299.683 254.89 298.682 256.419C297.682 257.949 297.154 258.45 295.264 258.45C293.374 258.45 292.374 256.809 292.374 256.809C292.374 256.809 288.594 243.682 286.454 241.263C284.314 238.843 262.332 236.09 260.692 232.809C259.052 229.527 276.727 219.404 276.727 219.404Z" fill="#13173A"/>
<path d="M206.027 311.428C206.027 311.428 209.973 311.428 210.474 307.089C211.03 302.167 208.834 286.204 211.474 277.11C214.114 268.016 216.81 248.827 216.81 248.827C216.81 248.827 216.81 243.988 213.364 241.736C210.196 239.678 205.999 239.622 205.999 239.622V311.4L206.027 311.428Z" fill="#13173A"/>
<path d="M160.034 111.946C157.394 110.389 153.058 112.892 150.418 117.508C147.778 122.125 147.778 127.103 150.418 128.632L112.233 106.579C110.538 105.606 109.927 103.27 110.371 100.516C111.427 93.9533 117.903 87.5848 121.849 89.8652L160.034 111.946Z" fill="#603060"/>
<path d="M160.034 111.946C162.702 113.476 162.702 118.454 160.034 123.07C157.366 127.687 153.059 130.162 150.419 128.632C147.778 127.103 147.751 122.125 150.419 117.508C153.086 112.892 157.394 110.417 160.034 111.946Z" fill="#48224C"/>
<path d="M157.366 116.563C158.561 117.258 158.561 119.483 157.366 121.541C156.171 123.598 154.254 124.711 153.059 124.016C151.864 123.32 151.864 121.096 153.059 119.038C154.254 116.98 156.171 115.867 157.366 116.535V116.563Z" fill="#3C1B41"/>
<path d="M158.811 141.814C150.362 154.357 139.885 159.001 111.483 142.788C85.8874 128.16 86.3598 113.81 93.2242 102.547C99.6995 91.9787 108.481 92.229 113.484 93.5083C111.928 95.5384 110.733 98.0413 110.343 100.516C107.481 100.238 103.118 101.323 98.9491 108.22C89.7225 123.432 109.26 133.332 123.6 141.342C139.969 150.463 149.279 143.622 152.919 138.143C160.034 127.437 153.058 124.044 153.058 124.044L157.366 116.563C157.366 116.563 171.067 123.627 158.811 141.842V141.814Z" fill="#3C1B41"/>
<path opacity="0.18" d="M185.463 71.5662C185.463 77.3507 177.348 82.0506 167.343 82.0506C157.338 82.0506 149.195 77.3786 149.195 71.5662C149.195 61.5546 157.31 53.4341 167.343 53.4341C177.375 53.4341 185.463 61.5546 185.463 71.5662Z" fill="#03899E"/>
<path opacity="0.18" d="M270.28 65.4759C270.28 71.2604 262.165 75.9603 252.16 75.9603C242.155 75.9603 234.041 71.2882 234.041 65.4759C234.041 55.4643 242.155 47.3438 252.16 47.3438C262.165 47.3438 270.28 55.4643 270.28 65.4759Z" fill="#03899E"/>
<path opacity="0.18" d="M201.859 32.827C201.859 37.1375 195.828 40.6138 188.408 40.6138C180.988 40.6138 174.957 37.1375 174.957 32.827C174.957 25.4017 180.988 19.3669 188.408 19.3669C195.828 19.3669 201.859 25.4017 201.859 32.827Z" fill="#03899E"/>
<path opacity="0.18" d="M224.092 61.1931C224.092 64.141 219.951 66.5327 214.838 66.5327C209.724 66.5327 205.583 64.141 205.583 61.1931C205.583 56.0761 209.724 51.9324 214.838 51.9324C219.951 51.9324 224.092 56.0761 224.092 61.1931Z" fill="#03899E"/>
<path d="M182.044 69.9533C182.044 75.7378 173.929 80.4377 163.925 80.4377C153.92 80.4377 145.805 75.7656 145.805 69.9533C145.805 59.9416 153.92 51.8211 163.925 51.8211C173.929 51.8211 182.044 59.9416 182.044 69.9533Z" fill="#5CC1FF"/>
<path d="M266.89 63.863C266.89 69.6475 258.775 74.3474 248.77 74.3474C238.766 74.3474 230.651 69.6753 230.651 63.863C230.651 53.8513 238.766 45.703 248.77 45.703C258.775 45.703 266.89 53.8235 266.89 63.863Z" fill="#5CC1FF"/>
<path d="M198.468 31.214C198.468 35.5245 192.438 39.0008 185.018 39.0008C177.597 39.0008 171.567 35.5245 171.567 31.214C171.567 23.7887 177.597 17.7539 185.018 17.7539C192.438 17.7539 198.468 23.7887 198.468 31.214Z" fill="#5CC1FF"/>
<path d="M220.674 59.5801C220.674 62.528 216.533 64.9197 211.419 64.9197C206.306 64.9197 202.165 62.528 202.165 59.5801C202.165 54.4631 206.306 50.3194 211.419 50.3194C216.533 50.3194 220.674 54.4631 220.674 59.5801Z" fill="#5CC1FF"/>
<path d="M150.223 268.044C133.799 281.087 111.288 237.425 135.8 222.575C138.44 220.99 135.411 222.408 140.107 236.535C146.36 255.335 155.865 263.567 150.223 268.044Z" fill="#FFAB48"/>
<path d="M166.842 247.715C166.842 248.522 166.981 266.403 166.648 268.74C165.62 275.72 160.034 273.578 159.672 273.968C160.895 272.522 159.117 274.635 159.645 273.996C148.751 271.159 138.801 241.347 160.145 218.153C167.537 210.116 165.898 207.585 166.87 247.743L166.842 247.715Z" fill="#FFCA80"/>
<path d="M187.352 277.75C195.272 295.298 158.394 286.065 169.732 259.59C176.208 244.461 194.8 253.333 203.443 224.077C204.832 219.349 215.504 247.076 196.912 261.926C187.824 269.185 181.905 265.736 187.324 277.75H187.352Z" fill="#FFAB48"/>
<path d="M231.067 264.401C227.51 261.787 226.176 262.566 229.483 262.566C229.678 262.566 221.813 265.291 218.645 263.178C215.421 261.036 217.894 253.806 220.646 250.663C223.619 245.713 232.29 243.655 232.457 243.599C234.235 242.904 233.874 242.098 235.403 244.072C243.128 254.056 234.763 267.127 231.067 264.401Z" fill="#FFAB48"/>
<path d="M251.771 271.854C239.127 281.393 221.868 280.281 221.952 269.296C222.007 261.815 231.512 266.598 250.521 249.245C263.722 237.203 260.498 235.979 263.61 235.173C262.943 237.62 273.56 255.419 251.771 271.826V271.854Z" fill="#FFCA80"/>
<path d="M277.867 262.872C271.169 262.899 271.725 256.225 275.199 250.524C278.228 245.574 276.755 251.386 282.703 232.892C289.261 212.535 300.433 201.328 301.573 197.685C302.184 195.738 301.406 194.236 301.489 194.264C301.406 194.348 302.934 194.403 304.435 196.767C309.854 205.277 302.99 262.733 277.895 262.872H277.867Z" fill="#FFAB48"/>
<path d="M127.379 211.979C191.048 262.038 83.831 234.367 101.534 188.591C103.229 184.225 102.729 184.42 104.507 188.174C110.121 200.021 108.315 197.018 127.379 211.979Z" fill="#FFCA80"/>
<path d="M195.634 218.932C196.273 237.787 163.536 251.636 177.403 223.826C177.709 223.076 176.931 222.408 176.486 222.686C159.283 213.008 159.534 200.41 168.871 191.873C185.852 176.327 191.326 196.211 205.305 180.582C206.528 196.1 191.16 198.13 185.379 199.743C184.796 199.91 182.683 202.301 182.267 202.858C180.127 205.833 192.966 206 195.634 218.876V218.932Z" fill="#FFCA80"/>
<path d="M248.353 200.355C248.325 200.716 248.27 200.772 248.603 200.772C247.881 202.913 248.27 201.105 248.325 200.716C246.658 200.216 243.629 196.572 243.045 194.932C240.155 187.034 267.418 179.247 244.518 184.614C228.899 187.812 234.513 205.054 241.266 210.783C238.96 212.563 237.07 214.844 236.014 217.458C226.287 243.265 262.11 250.329 270.697 224.827C277.089 205.889 252.299 196.406 248.353 200.327V200.355Z" fill="#FFCA80"/>
<path d="M327.529 175.993C327.613 188.396 317.664 196.684 312.189 195.349C304.185 193.402 310.549 177.356 307.464 167.928C304.074 159.112 297.904 160.503 302.712 158.222C315.524 152.188 327.446 164.841 327.529 175.965V175.993Z" fill="#FFCA80"/>
<path d="M236.931 86.1389C236.931 86.1389 237.57 93.147 240.489 93.0636C243.407 92.9802 246.964 91.5619 249.215 93.0636C251.466 94.5653 248.548 117.731 248.742 124.795C248.937 131.859 247.881 133.833 247.436 136.67C246.408 143.15 251.799 149.518 261.888 143.956C271.976 138.394 267.362 128.327 262.582 127.075C257.775 125.824 257.774 120.262 257.774 111.669C257.774 103.075 261.86 91.4784 259.192 85.8886C256.524 80.3266 236.931 86.1389 236.931 86.1389Z" fill="url(#paint1_linear_6_349)"/>
<path d="M157.394 63.974C158.683 63.974 159.728 62.9281 159.728 61.638C159.728 60.3478 158.683 59.3019 157.394 59.3019C156.104 59.3019 155.059 60.3478 155.059 61.638C155.059 62.9281 156.104 63.974 157.394 63.974Z" fill="white"/>
<path d="M209.807 55.7701C209.807 56.5488 209.196 57.1606 208.418 57.1606C207.64 57.1606 207.028 56.5488 207.028 55.7701C207.028 54.9914 207.64 54.3796 208.418 54.3796C209.196 54.3796 209.807 54.9914 209.807 55.7701Z" fill="white"/>
<path d="M248.742 57.6333C248.742 58.9126 247.686 59.9694 246.408 59.9694C245.13 59.9694 244.074 58.9126 244.074 57.6333C244.074 56.3541 245.13 55.2973 246.408 55.2973C247.686 55.2973 248.742 56.3541 248.742 57.6333Z" fill="white"/>
<path d="M181.905 27.6263C181.905 28.5441 181.155 29.2671 180.265 29.2671C179.376 29.2671 178.626 28.5163 178.626 27.6263C178.626 26.7364 179.376 25.9855 180.265 25.9855C181.155 25.9855 181.905 26.7364 181.905 27.6263Z" fill="white"/>
<path d="M152.503 28.9334C152.503 29.8511 151.753 30.5742 150.863 30.5742C149.974 30.5742 149.224 29.8233 149.224 28.9334C149.224 28.0435 149.974 27.2926 150.863 27.2926C151.753 27.2926 152.503 28.0435 152.503 28.9334Z" fill="white"/>
<path opacity="0.47" d="M219.423 30.3796C219.423 35.1907 213.642 37.5546 210.224 34.2174C213.698 35.6635 217.644 33.105 217.644 29.2394C217.644 27.7654 217.033 26.4027 216.06 25.4294C218.033 26.2081 219.423 28.1548 219.423 30.4074V30.3796Z" fill="#03899E"/>
<path opacity="0.47" d="M241.517 22.7319C241.517 27.543 235.736 29.9069 232.318 26.5697C235.792 28.0158 239.738 25.4573 239.738 21.5917C239.738 20.1177 239.127 18.755 238.154 17.7817C240.127 18.5604 241.517 20.5071 241.517 22.7597V22.7319Z" fill="#03899E"/>
<path opacity="0.18" d="M160.979 32.6321C160.979 37.4433 155.198 39.8071 151.78 36.4699C155.254 37.916 159.2 35.3575 159.2 31.4919C159.2 30.018 158.589 28.6553 157.616 27.6819C159.589 28.4606 160.979 30.4073 160.979 32.6599V32.6321Z" fill="#03899E"/>
<path opacity="0.47" d="M197.996 55.5477C197.996 60.3588 192.216 62.7227 188.797 59.3855C192.271 60.8316 196.218 58.273 196.218 54.4074C196.218 52.9335 195.606 51.5708 194.634 50.5975C196.607 51.3762 197.996 53.3229 197.996 55.5755V55.5477Z" fill="#03899E"/>
<path opacity="0.47" d="M209.891 82.1341C209.891 86.9452 204.11 89.3091 200.692 85.9719C204.166 87.418 208.112 84.8595 208.112 80.9939C208.112 79.5199 207.501 78.1573 206.528 77.1839C208.501 77.9626 209.891 79.9093 209.891 82.1619V82.1341Z" fill="#5CC1FF"/>
<path style="mix-blend-mode:color-dodge" d="M206.154 281.52C254.517 277.669 291.62 248.085 289.024 215.443C286.428 182.8 245.117 159.461 196.753 163.312C148.389 167.163 111.287 196.747 113.883 229.39C116.479 262.032 157.79 285.372 206.154 281.52Z" fill="url(#paint2_radial_6_349)"/>
<path d="M145.778 13.1096C145.778 13.1096 154.977 17.4758 154.198 11.9694C153.448 6.46304 146.639 9.35529 145.778 13.1096Z" fill="white"/>
<path d="M260.582 137.81C260.582 139.896 258.887 141.592 256.802 141.592C254.718 141.592 253.023 139.896 253.023 137.81C253.023 135.724 254.718 134.028 256.802 134.028C258.887 134.028 260.582 135.724 260.582 137.81Z" fill="#5CC1FF"/>
</g>
<defs>
<linearGradient id="paint0_linear_6_349" x1="206" y1="104.337" x2="206.098" y2="7.94293" gradientUnits="userSpaceOnUse">
<stop stop-color="#5C49EA"/>
<stop offset="0.5" stop-color="#3DAFE9"/>
<stop offset="1" stop-color="#94FFED"/>
</linearGradient>
<linearGradient id="paint1_linear_6_349" x1="275.5" y1="116.337" x2="231" y2="116.337" gradientUnits="userSpaceOnUse">
<stop stop-color="#94FFED"/>
<stop offset="0.5" stop-color="#3DAFE9"/>
<stop offset="1" stop-color="#5C49EA"/>
</linearGradient>
<radialGradient id="paint2_radial_6_349" cx="0" cy="0" r="1" gradientUnits="userSpaceOnUse" gradientTransform="translate(192.592 174.672) rotate(85.4531) scale(59.3873 87.8601)">
<stop stop-color="#CB3737"/>
<stop offset="1"/>
</radialGradient>
<clipPath id="clip0_6_349">
<rect width="415.918" height="311" fill="white" transform="translate(0.0411987 0.428101)"/>
</clipPath>
</defs>
</svg>
