<svg width="1200" height="500" viewBox="0 0 1200 500" fill="none" xmlns="http://www.w3.org/2000/svg">
<g clip-path="url(#clip0_6_319)">
<rect width="1200" height="499" transform="translate(0 0.428101)" fill="#0F172A"/>
<circle opacity="0.35" cx="816" cy="241" r="238" fill="url(#paint0_radial_6_319)"/>
<g opacity="0.2">
<path d="M1073.77 484.066C1072.73 485.108 1072.73 486.796 1073.77 487.838C1074.81 488.879 1076.5 488.879 1077.54 487.838C1078.58 486.796 1078.58 485.108 1077.54 484.066C1076.5 483.025 1074.81 483.025 1073.77 484.066ZM1137.65 547.942C1136.6 548.983 1136.6 550.672 1137.65 551.713C1138.69 552.755 1140.38 552.755 1141.42 551.713C1142.46 550.672 1142.46 548.983 1141.42 547.942C1140.38 546.901 1138.69 546.901 1137.65 547.942ZM1075.3 486.306L1139.18 550.181L1139.89 549.474L1076.01 485.598L1075.3 486.306Z" fill="#43B3EF"/>
<path d="M1060.59 411.647C1059.86 410.371 1058.23 409.934 1056.95 410.67C1055.67 411.407 1055.24 413.038 1055.97 414.313C1056.71 415.589 1058.34 416.026 1059.62 415.289C1060.89 414.553 1061.33 412.922 1060.59 411.647ZM982.361 456.813C981.625 455.538 979.994 455.101 978.719 455.837C977.443 456.574 977.006 458.205 977.742 459.48C978.479 460.756 980.11 461.193 981.385 460.456C982.661 459.72 983.098 458.089 982.361 456.813ZM1058.03 412.547L979.802 457.714L980.302 458.58L1058.53 413.413L1058.03 412.547Z" fill="#0080FF"/>
<path d="M986.939 407.915C986.171 409.171 986.566 410.813 987.822 411.582C989.078 412.351 990.719 411.956 991.488 410.7C992.257 409.444 991.862 407.802 990.606 407.033C989.35 406.264 987.708 406.659 986.939 407.915ZM1035.99 437.938C1035.22 439.194 1035.61 440.836 1036.87 441.605C1038.13 442.374 1039.77 441.979 1040.54 440.723C1041.31 439.466 1040.91 437.825 1039.65 437.056C1038.4 436.287 1036.76 436.682 1035.99 437.938ZM988.953 409.734L1038 439.757L1038.52 438.904L989.475 408.881L988.953 409.734Z" fill="#0080FF"/>
<path d="M985.068 444.269C986.046 445.371 987.731 445.471 988.832 444.494C989.934 443.516 990.035 441.831 989.057 440.729C988.079 439.627 986.394 439.527 985.292 440.505C984.191 441.482 984.09 443.168 985.068 444.269ZM1007.97 423.947C1008.94 425.048 1010.63 425.149 1011.73 424.171C1012.83 423.194 1012.93 421.508 1011.96 420.407C1010.98 419.305 1009.29 419.205 1008.19 420.182C1007.09 421.16 1006.99 422.845 1007.97 423.947ZM987.394 442.873L1010.29 422.551L1009.63 421.803L986.731 442.125L987.394 442.873Z" fill="#0080FF"/>
<path d="M1220.8 414.205C1221.63 415.424 1221.31 417.082 1220.09 417.909C1218.87 418.736 1217.21 418.419 1216.39 417.201C1215.56 415.982 1215.88 414.324 1217.1 413.496C1218.31 412.669 1219.97 412.987 1220.8 414.205ZM1162.65 453.676C1163.48 454.895 1163.16 456.553 1161.94 457.38C1160.72 458.207 1159.06 457.89 1158.24 456.672C1157.41 455.453 1157.73 453.795 1158.95 452.968C1160.17 452.14 1161.82 452.458 1162.65 453.676ZM1218.87 416.117L1160.73 455.588L1160.16 454.76L1218.31 415.289L1218.87 416.117Z" fill="#C883CC"/>
<circle cx="2.97221" cy="2.97221" r="2.97221" transform="matrix(-1 0 0 1 1203.87 424.591)" fill="#C883CC"/>
<circle cx="3.43756" cy="3.43756" r="3.43756" transform="matrix(-1 0 0 1 1185.45 457.218)" fill="#43B3EF"/>
<line y1="-0.5" x2="30.9614" y2="-0.5" transform="matrix(0.707107 0.707107 0.707107 -0.707107 1182.5 460.656)" stroke="#43B3EF"/>
<path d="M1158.45 342.761C1159.92 342.761 1161.12 343.955 1161.12 345.428C1161.12 346.901 1159.92 348.095 1158.45 348.095C1156.98 348.095 1155.78 346.901 1155.78 345.428C1155.78 343.955 1156.98 342.761 1158.45 342.761ZM1158.45 391.87C1159.92 391.87 1161.12 393.064 1161.12 394.537C1161.12 396.01 1159.92 397.203 1158.45 397.203C1156.98 397.203 1155.78 396.01 1155.78 394.537C1155.78 393.064 1156.98 391.87 1158.45 391.87ZM1182.5 366.318L1182.83 365.94L1183.2 366.265L1182.88 366.642L1182.5 366.318ZM1158.78 345.051L1182.83 365.94L1182.17 366.695L1158.12 345.806L1158.78 345.051ZM1182.88 366.642L1158.83 394.861L1158.07 394.212L1182.12 365.993L1182.88 366.642Z" fill="#43B3EF"/>
<circle cx="1156" cy="426.543" r="7.60032" fill="#43B3EF"/>
<circle cx="1107.59" cy="474.948" r="7.60032" fill="#43B3EF"/>
<path d="M1156.28 426.826L1087.97 415.335L1107.88 475.23" stroke="#43B3EF" stroke-width="2"/>
<circle cx="1058.28" cy="412.98" r="8.49783" stroke="#0080FF"/>
<circle cx="1158.45" cy="394.537" r="8.74783" stroke="#43B3EF" stroke-width="0.5"/>
</g>
<g opacity="0.2">
<line y1="-0.5" x2="30.9614" y2="-0.5" transform="matrix(-0.707107 -0.707107 -0.707107 0.707107 491.781 170.542)" stroke="#3DAFE9"/>
<path d="M643.772 351.53C642.731 350.488 642.731 348.8 643.772 347.758C644.813 346.717 646.502 346.717 647.543 347.758C648.585 348.8 648.585 350.488 647.543 351.53C646.502 352.571 644.813 352.571 643.772 351.53ZM707.648 287.654C706.606 286.613 706.606 284.924 707.648 283.883C708.689 282.841 710.377 282.841 711.419 283.883C712.46 284.924 712.46 286.613 711.419 287.654C710.377 288.695 708.689 288.695 707.648 287.654ZM645.304 349.29L709.18 285.415L709.887 286.122L646.011 349.998L645.304 349.29Z" fill="#3DAFE9"/>
<path d="M630.592 423.947C629.856 425.223 628.225 425.66 626.949 424.923C625.674 424.187 625.237 422.556 625.973 421.281C626.71 420.005 628.34 419.568 629.616 420.304C630.891 421.041 631.328 422.672 630.592 423.947ZM552.361 378.78C551.624 380.056 549.993 380.493 548.718 379.756C547.442 379.02 547.005 377.389 547.742 376.114C548.478 374.838 550.109 374.401 551.385 375.138C552.66 375.874 553.097 377.505 552.361 378.78ZM628.033 423.047L549.801 377.88L550.301 377.014L628.533 422.181L628.033 423.047Z" fill="#0080FF"/>
<path d="M556.94 427.681C556.171 426.425 556.566 424.783 557.822 424.014C559.078 423.245 560.72 423.64 561.489 424.896C562.257 426.153 561.862 427.794 560.606 428.563C559.35 429.332 557.709 428.937 556.94 427.681ZM605.988 397.658C605.219 396.402 605.614 394.76 606.87 393.991C608.126 393.222 609.768 393.617 610.537 394.874C611.305 396.13 610.91 397.771 609.654 398.54C608.398 399.309 606.757 398.914 605.988 397.658ZM558.953 425.862L608.001 395.839L608.523 396.692L559.475 426.715L558.953 425.862Z" fill="#0080FF"/>
<path d="M555.068 391.327C556.046 390.225 557.731 390.125 558.833 391.102C559.934 392.08 560.035 393.765 559.057 394.867C558.08 395.968 556.394 396.069 555.293 395.091C554.191 394.114 554.091 392.428 555.068 391.327ZM577.967 411.649C578.945 410.547 580.631 410.447 581.732 411.424C582.834 412.402 582.934 414.087 581.957 415.189C580.979 416.29 579.293 416.391 578.192 415.413C577.09 414.436 576.99 412.75 577.967 411.649ZM557.395 392.723L580.294 413.045L579.63 413.793L556.731 393.471L557.395 392.723Z" fill="#0080FF"/>
<path d="M431.148 210.646C430.107 209.605 430.107 207.916 431.148 206.875C432.19 205.833 433.878 205.833 434.919 206.875C435.961 207.916 435.961 209.605 434.919 210.646C433.878 211.687 432.19 211.687 431.148 210.646ZM563.202 144.793C562.16 143.752 562.16 142.063 563.202 141.022C564.243 139.98 565.931 139.98 566.973 141.022C568.014 142.063 568.014 143.752 566.973 144.793C565.931 145.834 564.243 145.834 563.202 144.793ZM439.202 120.525L438.703 120.49L438.724 120.181L439.011 120.063L439.202 120.525ZM495.578 97.2913L495.387 96.8291L495.631 96.7285L495.852 96.8733L495.578 97.2913ZM432.535 208.726L438.703 120.49L439.7 120.56L433.533 208.795L432.535 208.726ZM439.011 120.063L495.387 96.8291L495.768 97.7536L439.392 120.987L439.011 120.063ZM495.852 96.8733L565.361 142.489L564.813 143.325L495.303 97.7094L495.852 96.8733Z" fill="#C78FF7" fill-opacity="0.95"/>
<circle cx="2.97221" cy="2.97221" r="2.97221" transform="matrix(1 1.74846e-07 1.74846e-07 -1 436.139 123.952)" fill="#C78FF7" fill-opacity="0.95"/>
<path d="M453.485 216.99C452.658 215.772 452.975 214.113 454.194 213.286C455.413 212.459 457.071 212.777 457.898 213.995C458.725 215.214 458.408 216.872 457.189 217.699C455.971 218.526 454.312 218.209 453.485 216.99ZM511.635 177.519C510.808 176.301 511.125 174.642 512.343 173.815C513.562 172.988 515.22 173.305 516.048 174.524C516.875 175.743 516.557 177.401 515.339 178.228C514.12 179.055 512.462 178.738 511.635 177.519ZM455.411 215.079L513.56 175.608L514.122 176.435L455.973 215.906L455.411 215.079Z" fill="#3DAFE9"/>
<circle cx="2.97221" cy="2.97221" r="2.97221" transform="matrix(1 1.74846e-07 1.74846e-07 -1 470.414 206.606)" fill="#3DAFE9"/>
<circle cx="3.43756" cy="3.43756" r="3.43756" transform="matrix(1 1.74846e-07 1.74846e-07 -1 488.83 173.979)" fill="#3DAFE9"/>
<circle cx="3.43756" cy="3.43756" r="3.43756" transform="matrix(1 1.74846e-07 1.74846e-07 -1 466.976 152.084)" fill="#3DAFE9"/>
<circle cx="5.94441" cy="5.94441" r="5.94441" transform="matrix(-0.0948536 -0.995491 -0.995491 0.0948536 531.483 102.802)" fill="#5C49EA"/>
<circle cx="5.94441" cy="5.94441" r="5.94441" transform="matrix(-0.0948536 -0.995491 -0.995491 0.0948536 497.389 144.082)" fill="#5C49EA"/>
<line y1="-0.5" x2="53.54" y2="-0.5" transform="matrix(-0.636847 0.77099 0.77099 0.636847 525.004 97.4487)" stroke="#5C49EA"/>
<path d="M515.834 288.435C514.361 288.435 513.168 287.241 513.168 285.768C513.168 284.296 514.361 283.102 515.834 283.102C517.307 283.102 518.501 284.296 518.501 285.768C518.501 287.241 517.307 288.435 515.834 288.435ZM515.834 239.326C514.361 239.326 513.168 238.132 513.168 236.66C513.168 235.187 514.361 233.993 515.834 233.993C517.307 233.993 518.501 235.187 518.501 236.66C518.501 238.132 517.307 239.326 515.834 239.326ZM491.784 264.879L491.456 265.256L491.082 264.931L491.403 264.554L491.784 264.879ZM515.506 286.146L491.456 265.256L492.112 264.501L516.162 285.391L515.506 286.146ZM491.403 264.554L515.454 236.335L516.215 236.984L492.164 265.203L491.403 264.554Z" fill="#3DAFE9"/>
<path d="M729.319 333.029C730.36 331.987 730.36 330.299 729.319 329.257C728.277 328.216 726.589 328.216 725.547 329.257C724.506 330.299 724.506 331.987 725.547 333.029C726.589 334.07 728.277 334.07 729.319 333.029ZM597.968 201.678C599.009 200.636 599.009 198.948 597.968 197.906C596.926 196.865 595.238 196.865 594.196 197.906C593.155 198.948 593.155 200.636 594.196 201.678C595.238 202.719 596.926 202.719 597.968 201.678ZM727.786 330.79L596.435 199.438L595.728 200.146L727.079 331.497L727.786 330.79Z" fill="#3DAFE9"/>
<path d="M645.202 211.38C644.364 212.591 644.666 214.252 645.877 215.091C647.088 215.929 648.749 215.627 649.587 214.416C650.426 213.205 650.124 211.544 648.913 210.705C647.702 209.867 646.041 210.169 645.202 211.38ZM797.935 317.111C797.097 318.322 797.399 319.983 798.61 320.821C799.82 321.66 801.482 321.357 802.32 320.146C803.158 318.936 802.856 317.274 801.645 316.436C800.434 315.598 798.773 315.9 797.935 317.111ZM647.11 213.309L799.843 319.04L800.412 318.218L647.679 212.487L647.11 213.309Z" fill="#5C49EA"/>
<path d="M786.443 277.194C787.212 275.937 786.817 274.296 785.56 273.527C784.304 272.758 782.663 273.153 781.894 274.409C781.125 275.665 781.52 277.307 782.776 278.076C784.032 278.845 785.674 278.45 786.443 277.194ZM685.583 215.456C686.351 214.2 685.956 212.558 684.7 211.789C683.444 211.02 681.803 211.415 681.034 212.671C680.265 213.928 680.66 215.569 681.916 216.338C683.172 217.107 684.814 216.712 685.583 215.456ZM784.429 275.375L683.569 213.637L683.047 214.49L783.907 276.228L784.429 275.375Z" fill="#5C49EA"/>
<path d="M790.802 421.391C791.629 420.172 791.311 418.514 790.093 417.687C788.874 416.86 787.216 417.177 786.389 418.396C785.562 419.614 785.879 421.273 787.097 422.1C788.316 422.927 789.974 422.61 790.802 421.391ZM732.652 381.92C733.479 380.701 733.162 379.043 731.943 378.216C730.725 377.389 729.066 377.706 728.239 378.925C727.412 380.143 727.73 381.801 728.948 382.629C730.167 383.456 731.825 383.138 732.652 381.92ZM788.876 419.48L730.727 380.009L730.165 380.836L788.314 420.307L788.876 419.48Z" fill="#C883CC"/>
<path d="M790.589 205.778C789.611 204.676 787.926 204.576 786.824 205.553C785.722 206.531 785.622 208.216 786.6 209.318C787.577 210.419 789.263 210.52 790.364 209.542C791.466 208.565 791.566 206.879 790.589 205.778ZM743.5 247.567C742.522 246.466 740.837 246.365 739.735 247.343C738.634 248.32 738.533 250.006 739.511 251.107C740.488 252.209 742.174 252.309 743.275 251.332C744.377 250.354 744.477 248.669 743.5 247.567ZM788.262 207.174L741.173 248.963L741.837 249.711L788.926 207.922L788.262 207.174Z" fill="#5C49EA"/>
<circle cx="770.897" cy="408.034" r="2.97221" transform="rotate(-180 770.897 408.034)" fill="#C883CC"/>
<circle cx="752.016" cy="374.941" r="3.43756" transform="rotate(-180 752.016 374.941)" fill="#3DAFE9"/>
<circle cx="773.87" cy="353.047" r="3.43756" transform="rotate(-180 773.87 353.047)" fill="#3DAFE9"/>
<path d="M756.154 164.301C757.195 163.259 757.195 161.571 756.154 160.529C755.112 159.488 753.424 159.488 752.383 160.529C751.341 161.571 751.341 163.259 752.383 164.301C753.424 165.342 755.112 165.342 756.154 164.301ZM624.1 98.4475C625.142 97.4061 625.142 95.7177 624.1 94.6763C623.059 93.6349 621.371 93.6349 620.329 94.6763C619.288 95.7177 619.288 97.4061 620.329 98.4475C621.371 99.4889 623.059 99.4889 624.1 98.4475ZM748.1 74.1797L748.599 74.1449L748.577 73.8356L748.291 73.7175L748.1 74.1797ZM691.724 50.9459L691.915 50.4837L691.671 50.383L691.45 50.5279L691.724 50.9459ZM754.767 162.38L748.599 74.1449L747.602 74.2146L753.769 162.45L754.767 162.38ZM748.291 73.7175L691.915 50.4837L691.534 51.4082L747.91 74.642L748.291 73.7175ZM691.45 50.5279L621.94 96.1439L622.489 96.9799L691.999 51.364L691.45 50.5279Z" fill="#3DAFE9"/>
<circle cx="748.191" cy="74.6353" r="2.97221" transform="rotate(-180 748.191 74.6353)" fill="#3DAFE9"/>
<circle cx="781.198" cy="377.449" r="5.94441" transform="rotate(-180 781.198 377.449)" fill="#C883CC"/>
<circle cx="819.058" cy="339.59" r="5.94441" transform="rotate(-180 819.058 339.59)" fill="#C883CC"/>
<line x1="780.845" y1="377.095" x2="818.703" y2="339.237" stroke="#C883CC"/>
<line x1="752.148" y1="374.587" x2="774.041" y2="352.694" stroke="#3DAFE9"/>
<path d="M728.451 492.834C729.924 492.834 731.118 491.64 731.118 490.167C731.118 488.695 729.924 487.501 728.451 487.501C726.979 487.501 725.785 488.695 725.785 490.167C725.785 491.64 726.979 492.834 728.451 492.834ZM728.451 443.725C729.924 443.725 731.118 442.532 731.118 441.059C731.118 439.586 729.924 438.392 728.451 438.392C726.979 438.392 725.785 439.586 725.785 441.059C725.785 442.532 726.979 443.725 728.451 443.725ZM752.502 469.278L752.83 469.655L753.204 469.331L752.882 468.954L752.502 469.278ZM728.779 490.545L752.83 469.655L752.174 468.9L728.124 489.79L728.779 490.545ZM752.882 468.954L728.832 440.734L728.071 441.383L752.121 469.602L752.882 468.954Z" fill="#3DAFE9"/>
<circle cx="7.60032" cy="7.60032" r="7.60032" transform="matrix(1 1.74846e-07 1.74846e-07 -1 718.397 416.653)" fill="#3DAFE9"/>
<circle cx="7.60032" cy="7.60032" r="7.60032" transform="matrix(1 1.74846e-07 1.74846e-07 -1 669.994 368.249)" fill="#3DAFE9"/>
<path d="M726.281 408.771L657.967 420.261L677.877 360.366" stroke="#3DAFE9" stroke-width="2"/>
<circle cx="8.99783" cy="8.99783" r="8.49783" transform="matrix(1 1.74846e-07 1.74846e-07 -1 619.287 431.614)" stroke="#0080FF"/>
<circle cx="8.99783" cy="8.99783" r="8.74783" transform="matrix(1 1.74846e-07 1.74846e-07 -1 719.454 450.058)" stroke="#3DAFE9" stroke-width="0.5"/>
</g>
</g>
<defs>
<radialGradient id="paint0_radial_6_319" cx="0" cy="0" r="1" gradientUnits="userSpaceOnUse" gradientTransform="translate(816 241) rotate(90) scale(238)">
<stop stop-color="#FFF6D3"/>
<stop offset="1" stop-color="#737373" stop-opacity="0"/>
</radialGradient>
<clipPath id="clip0_6_319">
<rect width="1200" height="499" fill="white" transform="translate(0 0.428101)"/>
</clipPath>
</defs>
</svg>
