<svg width="398" height="49" viewBox="0 0 398 49" fill="none" xmlns="http://www.w3.org/2000/svg">
<path d="M16.841 26.7882H8.28102L5.96102 34.4282H0.881016L9.52102 7.46822H15.801L24.561 34.4282H19.281L16.841 26.7882ZM9.08102 23.0682H16.001L13.881 16.4282C13.361 14.7882 12.921 12.9482 12.521 11.3882H12.441C12.041 12.9482 11.641 14.8282 11.161 16.4282L9.08102 23.0682ZM31.9554 34.4282H27.7554C27.8354 33.1082 27.9154 30.9482 27.9154 28.9482V6.02822H32.8354V17.6282H32.9154C34.1154 15.7482 36.2354 14.5082 39.1554 14.5082C43.9154 14.5082 47.3154 18.4682 47.2754 24.3882C47.2754 31.3882 42.8354 34.8682 38.4354 34.8682C35.9154 34.8682 33.6754 33.9082 32.2754 31.5082H32.1954L31.9554 34.4282ZM32.8354 23.2282V26.3882C32.8354 26.7882 32.8754 27.1882 32.9554 27.5482C33.4754 29.5082 35.1954 30.9882 37.3154 30.9882C40.3954 30.9882 42.2754 28.5082 42.2754 24.5882C42.2754 21.1482 40.6354 18.3482 37.3554 18.3482C35.3554 18.3482 33.5554 19.7882 32.9954 21.9482C32.9154 22.3082 32.8354 22.7482 32.8354 23.2282ZM60.1538 14.5082C65.9538 14.5082 69.8338 18.5882 69.8338 24.5082C69.8338 31.6682 64.7938 34.8682 59.8338 34.8682C54.3138 34.8682 50.0738 31.0682 50.0738 24.8282C50.0738 18.4282 54.2738 14.5082 60.1538 14.5082ZM60.0338 18.1082C56.5538 18.1082 55.1538 21.4682 55.1538 24.7082C55.1538 28.4682 56.9938 31.3082 59.9938 31.3082C62.7938 31.3082 64.7538 28.5482 64.7538 24.6282C64.7538 21.5882 63.3938 18.1082 60.0338 18.1082ZM91.332 14.9482V28.5882C91.332 30.9082 91.412 32.8282 91.492 34.4282H87.172L86.932 31.4682H86.852C86.012 32.8682 84.092 34.8682 80.612 34.8682C77.052 34.8682 73.812 32.7482 73.812 26.3882V14.9482H78.732V25.5482C78.732 28.7882 79.772 30.8682 82.372 30.8682C84.332 30.8682 85.612 29.4682 86.132 28.2282C86.292 27.7882 86.412 27.2682 86.412 26.7082V14.9482H91.332ZM97.5054 10.5482L102.305 9.38822V14.9482H106.985V18.6282H102.305V27.2282C102.305 29.5882 102.945 30.8282 104.825 30.8282C105.665 30.8282 106.305 30.7082 106.745 30.5882L106.825 34.3482C106.105 34.6282 104.825 34.8282 103.265 34.8282C101.465 34.8282 99.9454 34.2282 99.0254 33.2282C97.9854 32.1082 97.5054 30.3482 97.5054 27.7882V18.6282H94.7054V14.9482H97.5054V10.5482Z" fill="white"/>
<path d="M119.881 34.3482V7.82822C122.041 7.46822 124.801 7.26822 127.721 7.26822C132.761 7.26822 136.241 8.30822 138.721 10.3882C141.321 12.5082 142.921 15.7082 142.921 20.3082C142.921 25.1082 141.281 28.7082 138.721 31.0282C136.041 33.4682 131.761 34.7082 126.521 34.7082C123.641 34.7082 121.481 34.5482 119.881 34.3482ZM124.801 11.3882V30.6682C125.481 30.7882 126.521 30.7882 127.521 30.7882C133.921 30.8282 137.721 27.3082 137.721 20.4682C137.761 14.5082 134.321 11.1082 128.161 11.1082C126.601 11.1082 125.481 11.2282 124.801 11.3882ZM163.506 26.0682H150.466C150.586 29.5882 153.346 31.1082 156.466 31.1082C158.746 31.1082 160.386 30.7882 161.866 30.2282L162.586 33.6282C160.906 34.3082 158.586 34.8282 155.786 34.8282C149.466 34.8282 145.746 30.9482 145.746 24.9882C145.746 19.5882 149.026 14.5082 155.266 14.5082C161.586 14.5082 163.666 19.7082 163.666 23.9882C163.666 24.9082 163.586 25.6282 163.506 26.0682ZM150.466 22.6282H159.026C159.066 20.8282 158.266 17.8682 154.986 17.8682C151.946 17.8682 150.666 20.6282 150.466 22.6282ZM165.294 14.9482H170.614L173.774 24.8282C174.334 26.5482 174.734 28.1082 175.094 29.7082H175.214C175.574 28.1082 176.014 26.5882 176.534 24.8282L179.614 14.9482H184.814L177.374 34.4282H172.534L165.294 14.9482ZM199.406 7.02822C207.286 7.02822 211.926 12.9882 211.926 20.6682C211.926 29.7082 206.446 34.8682 199.006 34.8682C191.406 34.8682 186.606 29.0682 186.606 21.1482C186.606 12.8682 191.806 7.02822 199.406 7.02822ZM199.286 10.9882C194.406 10.9882 191.806 15.5082 191.806 21.0682C191.806 26.5482 194.566 30.9082 199.286 30.9082C204.046 30.9082 206.726 26.5082 206.726 20.8682C206.726 15.7882 204.206 10.9882 199.286 10.9882ZM216.087 42.3482V21.4282C216.087 18.8682 216.007 16.7882 215.927 14.9482H220.247L220.487 17.9482H220.567C222.007 15.7482 224.287 14.5082 227.247 14.5082C231.727 14.5082 235.447 18.3482 235.447 24.4282C235.447 31.4682 231.007 34.8682 226.567 34.8682C224.127 34.8682 222.087 33.8282 221.087 32.2682H221.007V42.3482H216.087ZM221.007 23.2682V26.2682C221.007 26.7482 221.047 27.1882 221.167 27.6282C221.647 29.6282 223.407 31.0682 225.487 31.0682C228.607 31.0682 230.447 28.4682 230.447 24.6282C230.447 21.1882 228.767 18.3882 225.607 18.3882C223.567 18.3882 221.687 19.8682 221.207 22.0282C221.087 22.4282 221.007 22.8682 221.007 23.2682ZM238.286 33.4682L239.246 29.9082C240.366 30.5882 242.486 31.3082 244.246 31.3082C246.406 31.3082 247.366 30.4282 247.366 29.1482C247.366 27.8282 246.566 27.1482 244.166 26.3082C240.366 24.9882 238.766 22.9082 238.806 20.6282C238.806 17.1882 241.646 14.5082 246.166 14.5082C248.326 14.5082 250.206 15.0682 251.326 15.6682L250.366 19.1482C249.526 18.6682 247.966 18.0282 246.246 18.0282C244.486 18.0282 243.526 18.8682 243.526 20.0682C243.526 21.3082 244.446 21.9082 246.926 22.7882C250.446 24.0682 252.086 25.8682 252.126 28.7482C252.126 32.2682 249.366 34.8282 244.206 34.8282C241.846 34.8282 239.726 34.2682 238.286 33.4682Z" fill="white"/>
<path d="M291.217 0.483238C290.266 0.559039 288.252 0.519623 287.196 0.437758C286.263 0.371053 285.401 0.656065 284.767 1.23822C284.059 1.88707 283.849 2.68147 283.788 3.27575C283.723 2.69359 283.514 1.91739 282.821 1.28066C282.375 0.871339 281.586 0.398341 280.358 0.486271C279.406 0.562071 277.393 0.522655 276.337 0.44079C275.404 0.377117 274.542 0.659097 273.907 1.24125C273.199 1.8901 272.99 2.6845 272.928 3.27878C272.864 2.69663 272.654 1.92042 271.962 1.2837C271.515 0.874371 270.727 0.401373 269.498 0.489303C268.547 0.565104 266.533 0.525687 265.477 0.443822C264.544 0.377117 263.682 0.662129 263.048 1.24428C262.041 2.16602 262.041 3.3849 262.041 3.90338V28.6691C262.041 30.5702 263.423 32.5107 266.272 34.6028C267.368 35.4093 270.117 37.2831 271.962 37.2831C273.279 37.2831 274.754 36.5524 277.556 34.912C279 35.9126 281.269 37.2831 282.824 37.2831C283.813 37.2831 284.933 36.9799 292.175 32.7866C292.483 32.6077 292.698 32.4834 292.775 32.4409L292.819 32.4167C293.967 31.7708 294.678 30.5065 294.678 29.1117V3.89731C294.678 3.38793 294.678 2.19028 293.684 1.28066C293.237 0.871339 292.452 0.398341 291.221 0.486271L291.217 0.483238ZM291.495 30.3761C290.999 30.6429 283.834 34.9029 282.796 34.9029C282.165 34.9029 280.318 33.9266 278.649 32.729C278.2 32.3742 277.882 32.1074 277.658 32.1074C277.297 32.1074 273.196 34.9029 271.934 34.9029C270.671 34.9029 264.634 31.1311 264.634 28.8661V4.10349C264.634 3.61533 264.634 3.17266 265.265 3.2151C266.392 3.30303 268.556 3.34851 269.68 3.26059C270.311 3.21511 270.311 3.61533 270.311 4.10349V27.2258C270.311 28.8237 273.87 30.8218 274.908 30.8218C275.315 30.8218 275.493 30.6005 275.493 30.2002V4.10349C275.493 3.61533 275.493 3.17266 276.124 3.2151C277.251 3.30303 279.416 3.34851 280.54 3.26059C281.171 3.21511 281.171 3.61533 281.171 4.10349V27.2258C281.171 28.8237 284.73 30.8218 285.768 30.8218C286.174 30.8218 286.353 30.6005 286.353 30.2002V4.10349C286.353 3.61533 286.353 3.17266 286.984 3.2151C288.111 3.30303 290.275 3.34851 291.402 3.26059C292.033 3.21511 292.033 3.61533 292.033 4.10349V29.3119C292.033 29.8 291.809 30.2002 291.492 30.3761H291.495Z" fill="white"/>
<path d="M329.123 25.1849H332.953C333.131 25.1849 333.224 25.097 333.224 24.9181V18.9723C333.224 17.8626 330.203 15.5552 329.437 15.5552C329.076 15.5552 328.852 15.822 328.852 16.3102V24.9211C328.852 25.0546 328.941 25.188 329.123 25.188V25.1849Z" fill="white"/>
<path d="M348.82 23.4988L350.488 22.8317C351.886 22.2981 353.013 20.7457 353.013 18.881C353.013 16.5736 349.814 14.8423 348.912 14.8423C348.506 14.8423 348.37 15.1091 348.37 15.7731V23.053C348.37 23.4078 348.552 23.5867 348.82 23.4957V23.4988Z" fill="white"/>
<path d="M367.7 30.4209H371.394C371.708 30.4209 371.936 30.1541 371.936 29.6659V19.0144C371.936 16.707 368.645 14.8423 367.746 14.8423C367.339 14.8423 367.204 15.1091 367.204 15.7731V28.068C367.204 30.0207 366.394 30.4209 367.7 30.4209Z" fill="white"/>
<path d="M394.28 20.7154C394.662 20.5789 395.084 20.4122 395.57 20.203C397.064 19.5723 397.476 18.5111 397.59 17.935C397.766 17.0314 397.47 16.0976 396.799 15.4336C396.165 14.809 395.447 13.9539 394.751 13.1292C392.676 10.6642 390.718 8.33252 388.187 8.33252C386.182 8.33252 383.467 10.3306 382.026 11.5222C380.573 12.7229 379.627 13.7477 379.011 14.6028C377.198 11.1129 372.777 8.42348 370.794 8.42348C369.34 8.42348 368.167 8.851 367.277 9.34522C365.707 7.85952 364.165 8.45987 363.567 8.79642C363.253 8.96925 362.964 9.13298 362.693 9.28458C361.708 9.84247 361.113 10.179 360.26 10.4398C359.361 10.7066 358.666 11.2766 358.296 12.0195C356.119 9.85763 353.108 8.42348 351.233 8.42348C350.094 8.42348 349.13 8.81158 348.363 9.27548C346.821 7.87771 345.312 8.46593 344.705 8.80552L344.598 8.86919C343.271 9.69997 342.566 10.0456 341.356 10.458C340.235 10.8127 339.437 11.6405 339.219 12.6896C339.185 12.8503 339.173 13.011 339.166 13.1717C338.6 12.5501 337.91 11.9164 337.094 11.2645C335.721 10.1699 333.104 8.33252 330.995 8.33252C329.07 8.33252 326.65 10.0911 324.96 11.5647C324.039 12.3682 323.282 13.1413 322.685 13.8811C322.808 13.5112 322.931 13.1413 323.045 12.7775C323.34 11.8436 323.146 10.8309 322.528 10.0547C321.862 9.22091 320.788 8.78126 319.649 8.87525H319.609C319.094 8.91164 315.815 8.95409 315.135 8.95409C314.033 8.95409 312.795 8.93286 311.6 8.90861C310.381 8.88738 309.119 8.86313 307.97 8.86313C306.628 8.86313 305.479 9.65752 305.023 10.8976C304.882 10.4853 304.639 10.0517 304.22 9.66965C303.586 9.0875 302.727 8.80552 301.769 8.87222C300.771 8.95106 299.189 8.9935 298.197 8.91467C296.987 8.82977 296.205 9.29974 295.756 9.7121C294.761 10.6247 294.761 11.8194 294.761 12.3318V33.3681C294.761 33.8774 294.761 35.0751 295.756 35.9877C296.202 36.3971 296.99 36.8701 298.219 36.7821C299.189 36.7063 300.771 36.7488 301.791 36.8276C301.88 36.8337 301.966 36.8367 302.052 36.8367C302.884 36.8367 303.647 36.5547 304.22 36.0272C304.263 35.9877 304.303 35.9453 304.343 35.9059C304.937 36.4789 305.75 36.7943 306.637 36.7943C306.738 36.7943 306.843 36.7912 306.948 36.7821C307.695 36.7276 309.343 36.7003 311.893 36.7003C313.007 36.7003 314.556 36.7276 315.923 36.7548C316.936 36.773 317.811 36.7912 318.294 36.7912C319.633 36.7912 320.776 35.9999 321.237 34.7689C321.379 35.1782 321.619 35.6057 322.035 35.9877C322.481 36.3971 323.27 36.8701 324.498 36.7821C325.468 36.7063 327.051 36.7488 328.07 36.8276C329.003 36.8913 329.865 36.6093 330.499 36.0272C330.748 35.7967 330.939 35.5481 331.081 35.2964C331.219 35.5329 331.398 35.7664 331.638 35.9847C332.085 36.394 332.87 36.867 334.101 36.7791C335.071 36.7033 336.654 36.7458 337.673 36.8246C337.762 36.8307 337.849 36.8337 337.935 36.8337C338.766 36.8337 339.527 36.5517 340.102 36.0241C340.46 35.6967 340.69 35.3298 340.838 34.972C340.986 35.3146 341.208 35.6663 341.553 35.9817C341.999 36.391 342.787 36.864 344.016 36.7761C344.986 36.7003 346.568 36.7427 347.587 36.8216C348.52 36.8852 349.382 36.6032 350.017 36.0211C351.014 35.1054 351.024 33.8987 351.024 33.3741C351.448 34.1594 351.916 34.9659 352.449 35.7937C353.12 36.8488 354.17 37.428 355.263 37.428C355.741 37.428 356.23 37.3158 356.698 37.0884L356.729 37.0732C357.93 36.4638 358.838 35.9483 359.842 35.1933C360.396 36.1333 361.421 36.7397 362.647 36.7397H369.858C371.782 36.7397 374.202 34.9811 375.892 33.5045C376.862 32.6586 377.651 31.849 378.263 31.0728C378.965 32.1249 380.055 33.2286 381.542 34.3838C382.977 35.4966 385.696 37.3613 387.793 37.3613C389.717 37.3613 392.137 35.6027 393.828 34.1261C396.435 31.852 397.756 29.8175 397.756 28.0802C397.756 24.8571 396.599 22.3921 394.296 20.7123L394.28 20.7154ZM308.401 21.8554C307.302 24.0354 306.178 26.261 305.221 28.4713V17.8258C305.618 18.0047 306.058 18.1048 306.523 18.1048H306.649C307.24 18.0745 308.001 18.029 308.823 17.9805C309.313 17.9501 309.839 17.9198 310.369 17.8895C309.756 19.1751 309.088 20.4971 308.404 21.8554H308.401ZM301.948 34.4596C300.821 34.3717 299.109 34.3262 297.982 34.4141C297.351 34.4596 297.351 34.0594 297.351 33.5712V12.5349C297.351 12.0468 297.351 11.6465 297.982 11.692C299.109 11.7799 300.821 11.7375 301.948 11.6465C302.579 11.6011 302.579 12.0468 302.579 12.5349V33.5712C302.579 34.0594 302.579 34.502 301.948 34.4596ZM320.021 30.9546C319.436 31.9764 319.165 32.8617 318.759 34.0624C318.67 34.3292 318.488 34.4171 318.263 34.4171C317.182 34.4171 313.848 34.3292 311.862 34.3292C307.985 34.3292 307.942 34.3292 306.723 34.4171C306.181 34.4626 305.956 34.1958 306.046 33.8411C307.804 28.0256 311.905 21.5461 314.248 15.7337C314.337 15.5124 314.248 15.379 313.977 15.379C311.994 15.379 308.389 15.6458 306.495 15.7337C306.178 15.7337 305.953 15.5124 306.178 15.1122C306.763 14.0904 307.034 13.205 307.44 12.0043C307.53 11.7375 307.711 11.6496 307.936 11.6496C310.19 11.6496 312.85 11.7375 315.101 11.7375C315.643 11.7375 319.427 11.692 319.833 11.6496C320.375 11.6041 320.6 11.9588 320.511 12.2257C318.753 18.0411 315.012 24.563 312.669 30.333C312.579 30.5543 312.669 30.6877 312.94 30.6877C314.922 30.6877 317.761 30.4209 319.701 30.333C320.015 30.333 320.243 30.5543 320.015 30.9546H320.021ZM320.08 14.0115C320.08 14.0115 320.052 14.0115 320.037 14.0146C320.052 14.0146 320.067 14.0146 320.08 14.0115ZM319.729 27.5496H319.609C318.885 27.586 318.063 27.6405 317.195 27.6982C316.995 27.7103 316.791 27.7254 316.588 27.7376C317.105 26.6127 317.653 25.4575 318.22 24.2689C319.181 22.2496 320.154 20.1969 321.031 18.1563V27.8255C320.634 27.6466 320.194 27.5465 319.729 27.5465V27.5496ZM337.821 34.4596C336.694 34.3717 334.982 34.3262 333.855 34.4141C333.224 34.4596 333.224 34.0594 333.224 33.5712V28.5562C333.224 28.3773 333.135 28.2894 332.953 28.2894H329.123C328.941 28.2894 328.852 28.3773 328.852 28.5562V33.5712C328.852 34.0594 328.852 34.502 328.221 34.4596C327.094 34.3717 325.382 34.3262 324.255 34.4141C323.624 34.4596 323.624 34.0594 323.624 33.5712V17.8167C323.624 15.7762 329.301 11.1159 330.97 11.1159C332.864 11.1159 338.452 15.3335 338.452 17.3286V33.5712C338.452 34.0594 338.452 34.502 337.821 34.4596ZM379.806 25.3119V24.3417C380.015 24.5994 380.234 24.8389 380.465 25.0603C380.277 25.1361 380.065 25.2179 379.806 25.3119ZM358.284 25.6091C358.077 25.221 357.877 24.8693 357.69 24.56C358.268 23.9596 358.86 23.2501 359.38 22.4497V27.4586C358.9 26.7158 358.539 26.0912 358.284 25.6121V25.6091ZM358.733 32.9496C357.696 33.7925 356.886 34.2807 355.488 34.9902C355.128 35.1691 354.857 34.9902 354.632 34.6355C352.92 31.9733 351.883 29.4871 350.845 27.3555C350.395 26.4247 349.807 26.0245 349.312 26.2458L348.68 26.5126C348.366 26.646 348.366 26.734 348.366 27.1797V33.5712C348.366 34.0594 348.366 34.502 347.735 34.4596C346.608 34.3717 344.896 34.3262 343.769 34.4141C343.138 34.4596 343.138 34.0594 343.138 33.5712V16.707C343.138 15.3305 342.867 14.4876 341.922 13.7326C341.651 13.5112 341.697 13.2444 342.147 13.111C343.588 12.6229 344.49 12.1802 345.977 11.2463C346.291 11.0674 346.427 11.2008 346.744 11.5556C347.375 12.2651 347.689 13.0201 347.96 13.0201C348.32 13.0201 349.536 11.2008 351.205 11.2008C353.188 11.2008 358.327 14.53 358.327 17.6803C358.327 20.2545 356.433 22.5619 354.54 24.1173C354.269 24.3386 354.361 24.5175 354.586 24.8268C354.811 25.1361 355.353 25.8911 355.938 27.0008C356.387 27.8437 357.379 29.575 359.094 31.749C359.543 32.325 359.183 32.5919 358.733 32.9466V32.9496ZM369.818 34.3717H362.607C362.2 34.3717 361.975 34.1503 361.975 33.7501V16.707C361.975 15.3305 361.705 14.4876 360.759 13.7326C360.488 13.5112 360.535 13.2444 360.984 13.111C362.425 12.6683 363.284 12.0892 364.814 11.2463C365.128 11.0674 365.264 11.2008 365.581 11.5556C366.212 12.2651 366.526 13.0201 366.797 13.0201C367.157 13.0201 368.374 11.2008 370.763 11.2008C372.025 11.2008 377.164 14.6634 377.164 17.8137V27.6678C377.164 29.7084 371.486 34.3686 369.818 34.3686V34.3717ZM387.756 34.9932C385.862 34.9932 379.914 30.6423 379.914 28.6472C379.914 28.3379 379.96 28.2045 380.32 28.0711C382.078 27.4495 382.257 27.2737 383.836 26.5187C384.197 26.3398 384.332 26.6521 384.514 26.9189C385.145 27.8073 387.217 30.9576 389.788 30.9576C390.148 30.9576 390.555 30.6908 390.555 30.2026C390.555 25.6303 388.347 26.2519 385.145 25.0542C382.577 24.0779 380.459 22.8348 380.459 17.8198C380.459 15.7792 386.5 11.119 388.165 11.119C390.059 11.119 392.627 15.2031 394.927 17.465C395.152 17.6864 394.837 17.9077 394.52 18.0411C393.079 18.6627 392.356 18.8385 391.321 19.0629C390.376 19.2842 389.699 18.6202 389.024 17.8652C387.177 15.8247 386.681 15.1122 385.915 15.1122C385.554 15.1122 385.148 15.4214 385.148 15.9096C385.148 19.9028 386.589 20.6578 389.97 21.6796C392.537 22.477 395.108 24.0324 395.108 28.2924C395.108 30.333 389.431 34.9932 387.762 34.9932H387.756Z" fill="white"/>
<path d="M291.217 0.483238C290.266 0.559039 288.252 0.519623 287.196 0.437758C286.263 0.371053 285.401 0.656065 284.767 1.23822C284.059 1.88707 283.849 2.68147 283.788 3.27575C283.723 2.69359 283.514 1.91739 282.821 1.28066C282.375 0.871339 281.586 0.398341 280.358 0.486271C279.406 0.562071 277.393 0.522655 276.337 0.44079C275.404 0.377117 274.542 0.659097 273.907 1.24125C273.199 1.8901 272.99 2.6845 272.928 3.27878C272.864 2.69663 272.654 1.92042 271.962 1.2837C271.515 0.874371 270.727 0.401373 269.498 0.489303C268.547 0.565104 266.533 0.525687 265.477 0.443822C264.544 0.377117 263.682 0.662129 263.048 1.24428C262.041 2.16602 262.041 3.3849 262.041 3.90338V28.6691C262.041 30.5702 263.423 32.5107 266.272 34.6028C267.368 35.4093 270.117 37.2831 271.962 37.2831C273.279 37.2831 274.754 36.5524 277.556 34.912C279 35.9126 281.269 37.2831 282.824 37.2831C283.813 37.2831 284.933 36.9799 292.175 32.7866C292.483 32.6077 292.698 32.4834 292.775 32.4409L292.819 32.4167C293.967 31.7708 294.678 30.5065 294.678 29.1117V3.89731C294.678 3.38793 294.678 2.19028 293.684 1.28066C293.237 0.871339 292.452 0.398341 291.221 0.486271L291.217 0.483238ZM291.495 30.3761C290.999 30.6429 283.834 34.9029 282.796 34.9029C282.165 34.9029 280.318 33.9266 278.649 32.729C278.2 32.3742 277.882 32.1074 277.658 32.1074C277.297 32.1074 273.196 34.9029 271.934 34.9029C270.671 34.9029 264.634 31.1311 264.634 28.8661V4.10349C264.634 3.61533 264.634 3.17266 265.265 3.2151C266.392 3.30303 268.556 3.34851 269.68 3.26059C270.311 3.21511 270.311 3.61533 270.311 4.10349V27.2258C270.311 28.8237 273.87 30.8218 274.908 30.8218C275.315 30.8218 275.493 30.6005 275.493 30.2002V4.10349C275.493 3.61533 275.493 3.17266 276.124 3.2151C277.251 3.30303 279.416 3.34851 280.54 3.26059C281.171 3.21511 281.171 3.61533 281.171 4.10349V27.2258C281.171 28.8237 284.73 30.8218 285.768 30.8218C286.174 30.8218 286.353 30.6005 286.353 30.2002V4.10349C286.353 3.61533 286.353 3.17266 286.984 3.2151C288.111 3.30303 290.275 3.34851 291.402 3.26059C292.033 3.21511 292.033 3.61533 292.033 4.10349V29.3119C292.033 29.8 291.809 30.2002 291.492 30.3761H291.495Z" fill="white"/>
<path d="M394.28 20.7154C394.662 20.5789 395.084 20.4122 395.57 20.203C397.064 19.5723 397.476 18.5111 397.59 17.935C397.766 17.0314 397.47 16.0976 396.799 15.4336C396.165 14.809 395.447 13.9539 394.751 13.1292C392.676 10.6642 390.718 8.33252 388.187 8.33252C386.182 8.33252 383.467 10.3306 382.026 11.5222C380.573 12.7229 379.627 13.7477 379.011 14.6028C377.198 11.1129 372.777 8.42348 370.794 8.42348C369.34 8.42348 368.167 8.851 367.277 9.34522C365.707 7.85952 364.165 8.45987 363.567 8.79642C363.253 8.96925 362.964 9.13298 362.693 9.28458C361.708 9.84247 361.113 10.179 360.26 10.4398C359.361 10.7066 358.666 11.2766 358.296 12.0195C356.119 9.85763 353.108 8.42348 351.233 8.42348C350.094 8.42348 349.13 8.81158 348.363 9.27548C346.821 7.87771 345.312 8.46593 344.705 8.80552L344.598 8.86919C343.271 9.69997 342.566 10.0456 341.356 10.458C340.235 10.8127 339.437 11.6405 339.219 12.6896C339.185 12.8503 339.173 13.011 339.166 13.1717C338.6 12.5501 337.91 11.9164 337.094 11.2645C335.721 10.1699 333.104 8.33252 330.995 8.33252C329.07 8.33252 326.65 10.0911 324.96 11.5647C324.039 12.3682 323.282 13.1413 322.685 13.8811C322.808 13.5112 322.931 13.1413 323.045 12.7775C323.34 11.8436 323.146 10.8309 322.528 10.0547C321.862 9.22091 320.788 8.78126 319.649 8.87525H319.609C319.094 8.91164 315.815 8.95409 315.135 8.95409C314.033 8.95409 312.795 8.93286 311.6 8.90861C310.381 8.88738 309.119 8.86313 307.97 8.86313C306.628 8.86313 305.479 9.65752 305.023 10.8976C304.882 10.4853 304.639 10.0517 304.22 9.66965C303.586 9.0875 302.727 8.80552 301.769 8.87222C300.771 8.95106 299.189 8.9935 298.197 8.91467C296.987 8.82977 296.205 9.29974 295.756 9.7121C294.761 10.6247 294.761 11.8194 294.761 12.3318V33.3681C294.761 33.8774 294.761 35.0751 295.756 35.9877C296.202 36.3971 296.99 36.8701 298.219 36.7821C299.189 36.7063 300.771 36.7488 301.791 36.8276C301.88 36.8337 301.966 36.8367 302.052 36.8367C302.884 36.8367 303.647 36.5547 304.22 36.0272C304.263 35.9877 304.303 35.9453 304.343 35.9059C304.937 36.4789 305.75 36.7943 306.637 36.7943C306.738 36.7943 306.843 36.7912 306.948 36.7821C307.695 36.7276 309.343 36.7003 311.893 36.7003C313.007 36.7003 314.556 36.7276 315.923 36.7548C316.936 36.773 317.811 36.7912 318.294 36.7912C319.633 36.7912 320.776 35.9999 321.237 34.7689C321.379 35.1782 321.619 35.6057 322.035 35.9877C322.481 36.3971 323.27 36.8701 324.498 36.7821C325.468 36.7063 327.051 36.7488 328.07 36.8276C329.003 36.8913 329.865 36.6093 330.499 36.0272C330.748 35.7967 330.939 35.5481 331.081 35.2964C331.219 35.5329 331.398 35.7664 331.638 35.9847C332.085 36.394 332.87 36.867 334.101 36.7791C335.071 36.7033 336.654 36.7458 337.673 36.8246C337.762 36.8307 337.849 36.8337 337.935 36.8337C338.766 36.8337 339.527 36.5517 340.102 36.0241C340.46 35.6967 340.69 35.3298 340.838 34.972C340.986 35.3146 341.208 35.6663 341.553 35.9817C341.999 36.391 342.787 36.864 344.016 36.7761C344.986 36.7003 346.568 36.7427 347.587 36.8216C348.52 36.8852 349.382 36.6032 350.017 36.0211C351.014 35.1054 351.024 33.8987 351.024 33.3741C351.448 34.1594 351.916 34.9659 352.449 35.7937C353.12 36.8488 354.17 37.428 355.263 37.428C355.741 37.428 356.23 37.3158 356.698 37.0884L356.729 37.0732C357.93 36.4638 358.838 35.9483 359.842 35.1933C360.396 36.1333 361.421 36.7397 362.647 36.7397H369.858C371.782 36.7397 374.202 34.9811 375.892 33.5045C376.862 32.6586 377.651 31.849 378.263 31.0728C378.965 32.1249 380.055 33.2286 381.542 34.3838C382.977 35.4966 385.696 37.3613 387.793 37.3613C389.717 37.3613 392.137 35.6027 393.828 34.1261C396.435 31.852 397.756 29.8175 397.756 28.0802C397.756 24.8571 396.599 22.3921 394.296 20.7123L394.28 20.7154ZM308.401 21.8554C307.302 24.0354 306.178 26.261 305.221 28.4713V17.8258C305.618 18.0047 306.058 18.1048 306.523 18.1048H306.649C307.24 18.0745 308.001 18.029 308.823 17.9805C309.313 17.9501 309.839 17.9198 310.369 17.8895C309.756 19.1751 309.088 20.4971 308.404 21.8554H308.401ZM301.948 34.4596C300.821 34.3717 299.109 34.3262 297.982 34.4141C297.351 34.4596 297.351 34.0594 297.351 33.5712V12.5349C297.351 12.0468 297.351 11.6465 297.982 11.692C299.109 11.7799 300.821 11.7375 301.948 11.6465C302.579 11.6011 302.579 12.0468 302.579 12.5349V33.5712C302.579 34.0594 302.579 34.502 301.948 34.4596ZM320.021 30.9546C319.436 31.9764 319.165 32.8617 318.759 34.0624C318.67 34.3292 318.488 34.4171 318.263 34.4171C317.182 34.4171 313.848 34.3292 311.862 34.3292C307.985 34.3292 307.942 34.3292 306.723 34.4171C306.181 34.4626 305.956 34.1958 306.046 33.8411C307.804 28.0256 311.905 21.5461 314.248 15.7337C314.337 15.5124 314.248 15.379 313.977 15.379C311.994 15.379 308.389 15.6458 306.495 15.7337C306.178 15.7337 305.953 15.5124 306.178 15.1122C306.763 14.0904 307.034 13.205 307.44 12.0043C307.53 11.7375 307.711 11.6496 307.936 11.6496C310.19 11.6496 312.85 11.7375 315.101 11.7375C315.643 11.7375 319.427 11.692 319.833 11.6496C320.375 11.6041 320.6 11.9588 320.511 12.2257C318.753 18.0411 315.012 24.563 312.669 30.333C312.579 30.5543 312.669 30.6877 312.94 30.6877C314.922 30.6877 317.761 30.4209 319.701 30.333C320.015 30.333 320.243 30.5543 320.015 30.9546H320.021ZM320.08 14.0115C320.08 14.0115 320.052 14.0115 320.037 14.0146C320.052 14.0146 320.067 14.0146 320.08 14.0115ZM319.729 27.5496H319.609C318.885 27.586 318.063 27.6405 317.195 27.6982C316.995 27.7103 316.791 27.7254 316.588 27.7376C317.105 26.6127 317.653 25.4575 318.22 24.2689C319.181 22.2496 320.154 20.1969 321.031 18.1563V27.8255C320.634 27.6466 320.194 27.5465 319.729 27.5465V27.5496ZM337.821 34.4596C336.694 34.3717 334.982 34.3262 333.855 34.4141C333.224 34.4596 333.224 34.0594 333.224 33.5712V28.5562C333.224 28.3773 333.135 28.2894 332.953 28.2894H329.123C328.941 28.2894 328.852 28.3773 328.852 28.5562V33.5712C328.852 34.0594 328.852 34.502 328.221 34.4596C327.094 34.3717 325.382 34.3262 324.255 34.4141C323.624 34.4596 323.624 34.0594 323.624 33.5712V17.8167C323.624 15.7762 329.301 11.1159 330.97 11.1159C332.864 11.1159 338.452 15.3335 338.452 17.3286V33.5712C338.452 34.0594 338.452 34.502 337.821 34.4596ZM379.806 25.3119V24.3417C380.015 24.5994 380.234 24.8389 380.465 25.0603C380.277 25.1361 380.065 25.2179 379.806 25.3119ZM358.284 25.6091C358.077 25.221 357.877 24.8693 357.69 24.56C358.268 23.9596 358.86 23.2501 359.38 22.4497V27.4586C358.9 26.7158 358.539 26.0912 358.284 25.6121V25.6091ZM358.733 32.9496C357.696 33.7925 356.886 34.2807 355.488 34.9902C355.128 35.1691 354.857 34.9902 354.632 34.6355C352.92 31.9733 351.883 29.4871 350.845 27.3555C350.395 26.4247 349.807 26.0245 349.312 26.2458L348.68 26.5126C348.366 26.646 348.366 26.734 348.366 27.1797V33.5712C348.366 34.0594 348.366 34.502 347.735 34.4596C346.608 34.3717 344.896 34.3262 343.769 34.4141C343.138 34.4596 343.138 34.0594 343.138 33.5712V16.707C343.138 15.3305 342.867 14.4876 341.922 13.7326C341.651 13.5112 341.697 13.2444 342.147 13.111C343.588 12.6229 344.49 12.1802 345.977 11.2463C346.291 11.0674 346.427 11.2008 346.744 11.5556C347.375 12.2651 347.689 13.0201 347.96 13.0201C348.32 13.0201 349.536 11.2008 351.205 11.2008C353.188 11.2008 358.327 14.53 358.327 17.6803C358.327 20.2545 356.433 22.5619 354.54 24.1173C354.269 24.3386 354.361 24.5175 354.586 24.8268C354.811 25.1361 355.353 25.8911 355.938 27.0008C356.387 27.8437 357.379 29.575 359.094 31.749C359.543 32.325 359.183 32.5919 358.733 32.9466V32.9496ZM369.818 34.3717H362.607C362.2 34.3717 361.975 34.1503 361.975 33.7501V16.707C361.975 15.3305 361.705 14.4876 360.759 13.7326C360.488 13.5112 360.535 13.2444 360.984 13.111C362.425 12.6683 363.284 12.0892 364.814 11.2463C365.128 11.0674 365.264 11.2008 365.581 11.5556C366.212 12.2651 366.526 13.0201 366.797 13.0201C367.157 13.0201 368.374 11.2008 370.763 11.2008C372.025 11.2008 377.164 14.6634 377.164 17.8137V27.6678C377.164 29.7084 371.486 34.3686 369.818 34.3686V34.3717ZM387.756 34.9932C385.862 34.9932 379.914 30.6423 379.914 28.6472C379.914 28.3379 379.96 28.2045 380.32 28.0711C382.078 27.4495 382.257 27.2737 383.836 26.5187C384.197 26.3398 384.332 26.6521 384.514 26.9189C385.145 27.8073 387.217 30.9576 389.788 30.9576C390.148 30.9576 390.555 30.6908 390.555 30.2026C390.555 25.6303 388.347 26.2519 385.145 25.0542C382.577 24.0779 380.459 22.8348 380.459 17.8198C380.459 15.7792 386.5 11.119 388.165 11.119C390.059 11.119 392.627 15.2031 394.927 17.465C395.152 17.6864 394.837 17.9077 394.52 18.0411C393.079 18.6627 392.356 18.8385 391.321 19.0629C390.376 19.2842 389.699 18.6202 389.024 17.8652C387.177 15.8247 386.681 15.1122 385.915 15.1122C385.554 15.1122 385.148 15.4214 385.148 15.9096C385.148 19.9028 386.589 20.6578 389.97 21.6796C392.537 22.477 395.108 24.0324 395.108 28.2924C395.108 30.333 389.431 34.9932 387.762 34.9932H387.756Z" fill="white"/>
</svg>
