<svg width="1200" height="500" viewBox="0 0 1200 500" fill="none" xmlns="http://www.w3.org/2000/svg">
<g clip-path="url(#clip0_6_319)">
<rect width="1200" height="499" transform="translate(0 0.428101)" fill="#0F172A"/>
<circle opacity="0.35" cx="936" cy="267.428" r="238" fill="url(#paint0_radial_6_319)"/>
<g clip-path="url(#clip1_6_319)">
<path d="M1023.17 365.41C985.07 387.435 923.262 387.435 885.161 365.41C847.06 343.384 847.032 307.704 885.161 285.678C923.262 263.652 985.07 263.652 1023.17 285.678C1061.27 307.704 1061.3 343.384 1023.17 365.41Z" fill="#FFF6D3"/>
<path d="M882.159 288.348C882.159 311.903 915.23 331.009 956.027 331.009C996.825 331.009 1029.9 311.903 1029.9 288.348V301.03C1029.9 324.585 996.825 343.69 956.027 343.69C915.23 343.69 882.159 324.585 882.159 301.03V288.348Z" fill="#102A4B"/>
<path d="M956.027 331.009C996.824 331.009 1029.9 311.909 1029.9 288.348C1029.9 264.787 996.824 245.687 956.027 245.687C915.231 245.687 882.159 264.787 882.159 288.348C882.159 311.909 915.231 331.009 956.027 331.009Z" fill="#0E3D5B"/>
<path d="M948.023 325.419C865.762 322.721 820.296 248.134 845.391 191.068C857.286 164.148 891.969 136.755 919.538 129.552C898.917 141.066 898 160.449 918.481 172.714C938.769 184.839 972.118 185.172 992.961 173.464C1022.78 156.723 1008.52 128.106 970.034 122.071C972.146 122.071 976.537 122.85 982.373 124.574C1010.72 132.973 1040.85 152.412 1059.77 179.165C1097.01 231.866 1058.46 329.034 947.995 325.419H948.023Z" fill="#190623"/>
<path d="M927.763 283.87C889.884 282.619 859.481 265.933 840.416 242.572C836.776 225.441 838.138 207.587 845.391 191.068C855.257 168.653 880.963 145.849 905.336 134.725C928.597 144.486 964.67 142.289 982.373 124.574C999.575 129.664 1029.48 143.096 1052.27 169.543C1060.55 222.021 1018.33 286.818 927.763 283.87Z" fill="#250D2D"/>
<path d="M868.291 145.07C868.291 173.075 907.588 195.796 956.083 195.796C1004.58 195.796 1043.87 173.075 1043.87 145.07V160.143C1043.87 188.148 1004.58 210.869 956.083 210.869C907.588 210.869 868.291 188.148 868.291 160.143V145.07Z" fill="#08637D"/>
<path d="M956.027 195.879C1004.51 195.879 1043.82 173.169 1043.82 145.154C1043.82 117.139 1004.51 94.4281 956.027 94.4281C907.541 94.4281 868.236 117.139 868.236 145.154C868.236 173.169 907.541 195.879 956.027 195.879Z" fill="#03899E"/>
<path d="M1036.29 145.154C1036.29 147.351 1036.01 149.52 1035.51 151.633C1030.06 174.187 996.546 191.513 956.027 191.513C915.508 191.513 881.992 174.16 876.545 151.633C876.017 149.52 875.767 147.351 875.767 145.154C875.767 119.541 911.701 98.7664 956.027 98.7664C1000.35 98.7664 1036.29 119.541 1036.29 145.154Z" fill="#102A4B"/>
<path fill-rule="evenodd" clip-rule="evenodd" d="M876.545 151.634C876.545 151.633 876.545 151.633 876.545 151.633C876.545 151.633 876.545 151.633 876.545 151.633C876.523 151.554 873.131 139.321 882.937 132.973C886.477 130.681 889.874 129.779 892.771 129.564C893.156 129.28 893.546 128.999 893.942 128.721C893.942 128.72 893.942 128.719 893.942 128.718C894.033 128.202 893.942 127.331 893.835 126.307C893.549 123.581 893.15 119.77 895.777 118.679C895.922 118.617 896.064 118.558 896.202 118.5C899.522 117.109 900.724 116.605 899.417 114.896C898.028 113.117 893.581 109.501 892.803 109.974C892.025 110.447 889.746 111.754 889.746 111.754C889.746 111.754 892.053 104.106 900.14 102.576C907.365 101.21 907.913 103.728 908.543 106.621C908.618 106.966 908.694 107.316 908.783 107.666C909.259 109.524 913.108 109.704 916.638 109.869C919.287 109.993 921.757 110.109 922.484 110.92C924.179 112.811 925.179 113.367 925.179 113.367C925.179 113.367 925.846 106.553 932.044 106.164C938.213 105.775 939.353 111.754 939.353 111.754C939.353 111.754 941.465 103.327 952.164 103.522C962.836 103.717 964.365 111.754 964.365 111.754C964.365 111.754 966.643 100.129 977.232 102.187C987.848 104.273 989.154 113.172 989.154 113.172C989.154 113.172 998.158 111.42 999.77 115.647C1000.6 117.824 1000.79 118.998 1000.78 119.624C1000.87 119.659 1000.96 119.695 1001.05 119.73C1002.42 118.18 1006.81 114.339 1014.36 117.733C1023.64 121.904 1022.31 130.248 1022.31 130.248C1022.31 130.248 1023.53 127.967 1028.17 132.139C1032.65 136.164 1032.68 143.788 1032.68 144.318C1032.68 144.332 1032.69 144.346 1032.7 144.361C1032.85 144.448 1033.72 144.956 1035.51 145.988C1037.48 147.128 1034.81 154.053 1034.81 154.053L1034.81 154.053C1027.63 175.415 995.085 191.513 956.027 191.513C915.526 191.513 882.021 174.174 876.552 151.662C876.55 151.662 876.547 151.662 876.545 151.661V151.634Z" fill="url(#paint1_linear_6_319)"/>
<path d="M885.327 313.404C885.327 313.404 870.431 320.607 867.902 333.233C865.373 345.859 862.344 348.89 863.345 350.419C864.345 351.949 864.873 352.45 866.763 352.45C868.653 352.45 869.653 350.809 869.653 350.809C869.653 350.809 877.991 337.682 880.13 335.263C882.27 332.871 899.695 330.09 901.335 326.809C902.975 323.527 885.3 313.404 885.3 313.404H885.327Z" fill="#13173A"/>
<path d="M956.027 405.428C956.027 405.428 952.081 405.428 951.581 401.089C951.025 396.167 953.22 380.204 950.58 371.11C947.94 362.016 945.244 342.827 945.244 342.827C945.244 342.827 944.494 338.072 948.69 335.736C951.998 333.9 956.055 333.622 956.055 333.622V405.4L956.027 405.428Z" fill="#102A4B"/>
<path d="M1026.73 313.404C1026.73 313.404 1046.18 320.607 1048.68 333.233C1051.21 345.859 1049.68 348.89 1048.68 350.419C1047.68 351.949 1047.15 352.45 1045.26 352.45C1043.37 352.45 1042.37 350.809 1042.37 350.809C1042.37 350.809 1038.59 337.682 1036.45 335.263C1034.31 332.843 1012.33 330.09 1010.69 326.809C1009.05 323.527 1026.73 313.404 1026.73 313.404Z" fill="#13173A"/>
<path d="M956.027 405.428C956.027 405.428 959.973 405.428 960.474 401.089C961.03 396.167 958.834 380.204 961.474 371.11C964.114 362.016 966.81 342.827 966.81 342.827C966.81 342.827 966.81 337.988 963.364 335.736C960.196 333.678 955.999 333.622 955.999 333.622V405.4L956.027 405.428Z" fill="#13173A"/>
<path d="M910.034 205.946C907.394 204.389 903.058 206.892 900.418 211.508C897.778 216.125 897.778 221.103 900.418 222.632L862.233 200.579C860.538 199.606 859.927 197.27 860.371 194.516C861.427 187.953 867.903 181.585 871.849 183.865L910.034 205.946Z" fill="#603060"/>
<path d="M910.034 205.946C912.702 207.476 912.702 212.454 910.034 217.07C907.366 221.687 903.059 224.162 900.419 222.632C897.778 221.103 897.751 216.125 900.419 211.508C903.086 206.892 907.394 204.417 910.034 205.946Z" fill="#48224C"/>
<path d="M907.366 210.563C908.561 211.258 908.561 213.483 907.366 215.541C906.171 217.598 904.254 218.711 903.059 218.016C901.864 217.32 901.864 215.096 903.059 213.038C904.254 210.98 906.171 209.867 907.366 210.535V210.563Z" fill="#3C1B41"/>
<path d="M908.811 235.814C900.362 248.357 889.885 253.001 861.483 236.788C835.887 222.16 836.36 207.81 843.224 196.547C849.699 185.979 858.481 186.229 863.484 187.508C861.928 189.538 860.733 192.041 860.343 194.516C857.481 194.238 853.118 195.323 848.949 202.22C839.723 217.432 859.26 227.332 873.6 235.342C889.969 244.463 899.279 237.622 902.919 232.143C910.034 221.437 903.058 218.044 903.058 218.044L907.366 210.563C907.366 210.563 921.067 217.627 908.811 235.842V235.814Z" fill="#3C1B41"/>
<path opacity="0.18" d="M935.463 165.566C935.463 171.351 927.348 176.051 917.343 176.051C907.338 176.051 899.195 171.379 899.195 165.566C899.195 155.555 907.31 147.434 917.343 147.434C927.375 147.434 935.463 155.555 935.463 165.566Z" fill="#03899E"/>
<path opacity="0.18" d="M1020.28 159.476C1020.28 165.26 1012.16 169.96 1002.16 169.96C992.155 169.96 984.041 165.288 984.041 159.476C984.041 149.464 992.155 141.344 1002.16 141.344C1012.16 141.344 1020.28 149.464 1020.28 159.476Z" fill="#03899E"/>
<path opacity="0.18" d="M951.859 126.827C951.859 131.138 945.828 134.614 938.408 134.614C930.988 134.614 924.957 131.138 924.957 126.827C924.957 119.402 930.988 113.367 938.408 113.367C945.828 113.367 951.859 119.402 951.859 126.827Z" fill="#03899E"/>
<path opacity="0.18" d="M974.092 155.193C974.092 158.141 969.951 160.533 964.838 160.533C959.724 160.533 955.583 158.141 955.583 155.193C955.583 150.076 959.724 145.932 964.838 145.932C969.951 145.932 974.092 150.076 974.092 155.193Z" fill="#03899E"/>
<path d="M932.044 163.953C932.044 169.738 923.929 174.438 913.925 174.438C903.92 174.438 895.805 169.766 895.805 163.953C895.805 153.942 903.92 145.821 913.925 145.821C923.929 145.821 932.044 153.942 932.044 163.953Z" fill="#5CC1FF"/>
<path d="M1016.89 157.863C1016.89 163.647 1008.78 168.347 998.77 168.347C988.766 168.347 980.651 163.675 980.651 157.863C980.651 147.851 988.766 139.703 998.77 139.703C1008.78 139.703 1016.89 147.824 1016.89 157.863Z" fill="#5CC1FF"/>
<path d="M948.468 125.214C948.468 129.525 942.438 133.001 935.018 133.001C927.597 133.001 921.567 129.525 921.567 125.214C921.567 117.789 927.597 111.754 935.018 111.754C942.438 111.754 948.468 117.789 948.468 125.214Z" fill="#5CC1FF"/>
<path d="M970.674 153.58C970.674 156.528 966.533 158.92 961.419 158.92C956.306 158.92 952.165 156.528 952.165 153.58C952.165 148.463 956.306 144.319 961.419 144.319C966.533 144.319 970.674 148.463 970.674 153.58Z" fill="#5CC1FF"/>
<path d="M900.223 362.044C883.799 375.087 861.288 331.425 885.8 316.575C888.44 314.99 885.411 316.408 890.107 330.535C896.36 349.335 905.865 357.567 900.223 362.044Z" fill="#FFAB48"/>
<path d="M916.842 341.715C916.842 342.522 916.981 360.403 916.648 362.74C915.62 369.72 910.034 367.578 909.672 367.968C910.895 366.522 909.117 368.635 909.645 367.996C898.751 365.159 888.801 335.347 910.145 312.153C917.537 304.116 915.898 301.585 916.87 341.743L916.842 341.715Z" fill="#FFCA80"/>
<path d="M937.352 371.75C945.272 389.298 908.394 380.065 919.732 353.59C926.208 338.461 944.8 347.333 953.443 318.077C954.832 313.349 965.504 341.076 946.912 355.926C937.824 363.185 931.905 359.736 937.324 371.75H937.352Z" fill="#FFAB48"/>
<path d="M981.067 358.401C977.51 355.787 976.176 356.566 979.483 356.566C979.678 356.566 971.813 359.291 968.645 357.178C965.421 355.036 967.894 347.806 970.646 344.663C973.619 339.713 982.29 337.655 982.457 337.599C984.235 336.904 983.874 336.098 985.403 338.072C993.128 348.056 984.763 361.127 981.067 358.401Z" fill="#FFAB48"/>
<path d="M1001.77 365.854C989.127 375.393 971.868 374.281 971.952 363.296C972.007 355.815 981.512 360.598 1000.52 343.245C1013.72 331.203 1010.5 329.979 1013.61 329.173C1012.94 331.62 1023.56 349.419 1001.77 365.826V365.854Z" fill="#FFCA80"/>
<path d="M1027.87 356.872C1021.17 356.899 1021.73 350.225 1025.2 344.524C1028.23 339.574 1026.76 345.386 1032.7 326.892C1039.26 306.535 1050.43 295.328 1051.57 291.685C1052.18 289.738 1051.41 288.236 1051.49 288.264C1051.41 288.348 1052.93 288.403 1054.44 290.767C1059.85 299.277 1052.99 356.733 1027.89 356.872H1027.87Z" fill="#FFAB48"/>
<path d="M877.379 305.979C941.048 356.038 833.831 328.367 851.534 282.591C853.229 278.225 852.729 278.42 854.507 282.174C860.121 294.021 858.315 291.018 877.379 305.979Z" fill="#FFCA80"/>
<path d="M945.634 312.932C946.273 331.787 913.536 345.636 927.403 317.826C927.709 317.076 926.931 316.408 926.486 316.686C909.283 307.008 909.534 294.41 918.871 285.873C935.852 270.327 941.326 290.211 955.305 274.582C956.528 290.1 941.16 292.13 935.379 293.743C934.796 293.91 932.683 296.301 932.267 296.858C930.127 299.833 942.966 300 945.634 312.876V312.932Z" fill="#FFCA80"/>
<path d="M998.353 294.355C998.325 294.716 998.27 294.772 998.603 294.772C997.881 296.913 998.27 295.105 998.325 294.716C996.658 294.216 993.629 290.572 993.045 288.932C990.155 281.034 1017.42 273.247 994.518 278.614C978.899 281.812 984.513 299.054 991.266 304.783C988.96 306.563 987.07 308.844 986.014 311.458C976.287 337.265 1012.11 344.329 1020.7 318.827C1027.09 299.889 1002.3 290.406 998.353 294.327V294.355Z" fill="#FFCA80"/>
<path d="M1077.53 269.993C1077.61 282.396 1067.66 290.684 1062.19 289.349C1054.18 287.402 1060.55 271.356 1057.46 261.928C1054.07 253.112 1047.9 254.503 1052.71 252.222C1065.52 246.188 1077.45 258.841 1077.53 269.965V269.993Z" fill="#FFCA80"/>
<path d="M986.931 180.139C986.931 180.139 987.57 187.147 990.489 187.064C993.407 186.98 996.964 185.562 999.215 187.064C1001.47 188.565 998.548 211.731 998.742 218.795C998.937 225.859 997.881 227.833 997.436 230.67C996.408 237.15 1001.8 243.518 1011.89 237.956C1021.98 232.394 1017.36 222.327 1012.58 221.075C1007.77 219.824 1007.77 214.262 1007.77 205.669C1007.77 197.075 1011.86 185.478 1009.19 179.889C1006.52 174.327 986.931 180.139 986.931 180.139Z" fill="url(#paint2_linear_6_319)"/>
<path d="M907.394 157.974C908.683 157.974 909.728 156.928 909.728 155.638C909.728 154.348 908.683 153.302 907.394 153.302C906.104 153.302 905.059 154.348 905.059 155.638C905.059 156.928 906.104 157.974 907.394 157.974Z" fill="white"/>
<path d="M959.807 149.77C959.807 150.549 959.196 151.161 958.418 151.161C957.64 151.161 957.028 150.549 957.028 149.77C957.028 148.991 957.64 148.38 958.418 148.38C959.196 148.38 959.807 148.991 959.807 149.77Z" fill="white"/>
<path d="M998.742 151.633C998.742 152.913 997.686 153.969 996.408 153.969C995.13 153.969 994.074 152.913 994.074 151.633C994.074 150.354 995.13 149.297 996.408 149.297C997.686 149.297 998.742 150.354 998.742 151.633Z" fill="white"/>
<path d="M931.905 121.626C931.905 122.544 931.155 123.267 930.265 123.267C929.376 123.267 928.626 122.516 928.626 121.626C928.626 120.736 929.376 119.986 930.265 119.986C931.155 119.986 931.905 120.736 931.905 121.626Z" fill="white"/>
<path d="M902.503 122.933C902.503 123.851 901.753 124.574 900.863 124.574C899.974 124.574 899.224 123.823 899.224 122.933C899.224 122.043 899.974 121.293 900.863 121.293C901.753 121.293 902.503 122.043 902.503 122.933Z" fill="white"/>
<path opacity="0.47" d="M969.423 124.38C969.423 129.191 963.642 131.555 960.224 128.217C963.698 129.663 967.644 127.105 967.644 123.239C967.644 121.765 967.033 120.403 966.06 119.429C968.033 120.208 969.423 122.155 969.423 124.407V124.38Z" fill="#03899E"/>
<path opacity="0.47" d="M991.517 116.732C991.517 121.543 985.736 123.907 982.318 120.57C985.792 122.016 989.738 119.457 989.738 115.592C989.738 114.118 989.127 112.755 988.154 111.782C990.127 112.56 991.517 114.507 991.517 116.76V116.732Z" fill="#03899E"/>
<path opacity="0.18" d="M910.979 126.632C910.979 131.443 905.198 133.807 901.78 130.47C905.254 131.916 909.2 129.358 909.2 125.492C909.2 124.018 908.589 122.655 907.616 121.682C909.589 122.461 910.979 124.407 910.979 126.66V126.632Z" fill="#03899E"/>
<path opacity="0.47" d="M947.996 149.548C947.996 154.359 942.216 156.723 938.797 153.385C942.271 154.832 946.218 152.273 946.218 148.407C946.218 146.934 945.606 145.571 944.634 144.597C946.607 145.376 947.996 147.323 947.996 149.575V149.548Z" fill="#03899E"/>
<path opacity="0.47" d="M959.891 176.134C959.891 180.945 954.11 183.309 950.692 179.972C954.166 181.418 958.112 178.859 958.112 174.994C958.112 173.52 957.501 172.157 956.528 171.184C958.501 171.963 959.891 173.909 959.891 176.162V176.134Z" fill="#5CC1FF"/>
<path style="mix-blend-mode:color-dodge" d="M956.154 375.52C1004.52 371.669 1041.62 342.085 1039.02 309.443C1036.43 276.8 995.117 253.461 946.753 257.312C898.389 261.163 861.287 290.747 863.883 323.39C866.479 356.032 907.79 379.372 956.154 375.52Z" fill="url(#paint3_radial_6_319)"/>
<path d="M895.778 107.11C895.778 107.11 904.977 111.476 904.198 105.969C903.448 100.463 896.639 103.355 895.778 107.11Z" fill="white"/>
<path d="M1010.58 231.81C1010.58 233.896 1008.89 235.592 1006.8 235.592C1004.72 235.592 1003.02 233.896 1003.02 231.81C1003.02 229.724 1004.72 228.028 1006.8 228.028C1008.89 228.028 1010.58 229.724 1010.58 231.81Z" fill="#5CC1FF"/>
</g>
<g opacity="0.2">
<path d="M1073.77 484.066C1072.73 485.108 1072.73 486.796 1073.77 487.838C1074.81 488.879 1076.5 488.879 1077.54 487.838C1078.58 486.796 1078.58 485.108 1077.54 484.066C1076.5 483.025 1074.81 483.025 1073.77 484.066ZM1137.65 547.942C1136.6 548.983 1136.6 550.672 1137.65 551.713C1138.69 552.755 1140.38 552.755 1141.42 551.713C1142.46 550.672 1142.46 548.983 1141.42 547.942C1140.38 546.901 1138.69 546.901 1137.65 547.942ZM1075.3 486.306L1139.18 550.181L1139.89 549.474L1076.01 485.598L1075.3 486.306Z" fill="#43B3EF"/>
<path d="M1060.59 411.647C1059.86 410.371 1058.23 409.934 1056.95 410.67C1055.67 411.407 1055.24 413.038 1055.97 414.313C1056.71 415.589 1058.34 416.026 1059.62 415.289C1060.89 414.553 1061.33 412.922 1060.59 411.647ZM982.361 456.813C981.625 455.538 979.994 455.101 978.719 455.837C977.443 456.574 977.006 458.205 977.742 459.48C978.479 460.756 980.11 461.193 981.385 460.456C982.661 459.72 983.098 458.089 982.361 456.813ZM1058.03 412.547L979.802 457.714L980.302 458.58L1058.53 413.413L1058.03 412.547Z" fill="#0080FF"/>
<path d="M986.939 407.915C986.171 409.171 986.566 410.813 987.822 411.582C989.078 412.351 990.719 411.956 991.488 410.7C992.257 409.444 991.862 407.802 990.606 407.033C989.35 406.264 987.708 406.659 986.939 407.915ZM1035.99 437.938C1035.22 439.194 1035.61 440.836 1036.87 441.605C1038.13 442.374 1039.77 441.979 1040.54 440.723C1041.31 439.466 1040.91 437.825 1039.65 437.056C1038.4 436.287 1036.76 436.682 1035.99 437.938ZM988.953 409.734L1038 439.757L1038.52 438.904L989.475 408.881L988.953 409.734Z" fill="#0080FF"/>
<path d="M985.068 444.269C986.046 445.371 987.731 445.471 988.832 444.494C989.934 443.516 990.035 441.831 989.057 440.729C988.079 439.627 986.394 439.527 985.292 440.505C984.191 441.482 984.09 443.168 985.068 444.269ZM1007.97 423.947C1008.94 425.048 1010.63 425.149 1011.73 424.171C1012.83 423.194 1012.93 421.508 1011.96 420.407C1010.98 419.305 1009.29 419.205 1008.19 420.182C1007.09 421.16 1006.99 422.845 1007.97 423.947ZM987.394 442.873L1010.29 422.551L1009.63 421.803L986.731 442.125L987.394 442.873Z" fill="#0080FF"/>
<path d="M1220.8 414.205C1221.63 415.424 1221.31 417.082 1220.09 417.909C1218.87 418.736 1217.21 418.419 1216.39 417.201C1215.56 415.982 1215.88 414.324 1217.1 413.496C1218.31 412.669 1219.97 412.987 1220.8 414.205ZM1162.65 453.676C1163.48 454.895 1163.16 456.553 1161.94 457.38C1160.72 458.207 1159.06 457.89 1158.24 456.672C1157.41 455.453 1157.73 453.795 1158.95 452.968C1160.17 452.14 1161.82 452.458 1162.65 453.676ZM1218.87 416.117L1160.73 455.588L1160.16 454.76L1218.31 415.289L1218.87 416.117Z" fill="#C883CC"/>
<circle cx="2.97221" cy="2.97221" r="2.97221" transform="matrix(-1 0 0 1 1203.87 424.591)" fill="#C883CC"/>
<circle cx="3.43756" cy="3.43756" r="3.43756" transform="matrix(-1 0 0 1 1185.45 457.218)" fill="#43B3EF"/>
<line y1="-0.5" x2="30.9614" y2="-0.5" transform="matrix(0.707107 0.707107 0.707107 -0.707107 1182.5 460.656)" stroke="#43B3EF"/>
<path d="M1158.45 342.761C1159.92 342.761 1161.12 343.955 1161.12 345.428C1161.12 346.901 1159.92 348.095 1158.45 348.095C1156.98 348.095 1155.78 346.901 1155.78 345.428C1155.78 343.955 1156.98 342.761 1158.45 342.761ZM1158.45 391.87C1159.92 391.87 1161.12 393.064 1161.12 394.537C1161.12 396.01 1159.92 397.203 1158.45 397.203C1156.98 397.203 1155.78 396.01 1155.78 394.537C1155.78 393.064 1156.98 391.87 1158.45 391.87ZM1182.5 366.318L1182.83 365.94L1183.2 366.265L1182.88 366.642L1182.5 366.318ZM1158.78 345.051L1182.83 365.94L1182.17 366.695L1158.12 345.806L1158.78 345.051ZM1182.88 366.642L1158.83 394.861L1158.07 394.212L1182.12 365.993L1182.88 366.642Z" fill="#43B3EF"/>
<circle cx="1156" cy="426.543" r="7.60032" fill="#43B3EF"/>
<circle cx="1107.59" cy="474.948" r="7.60032" fill="#43B3EF"/>
<path d="M1156.28 426.826L1087.97 415.335L1107.88 475.23" stroke="#43B3EF" stroke-width="2"/>
<circle cx="1058.28" cy="412.98" r="8.49783" stroke="#0080FF"/>
<circle cx="1158.45" cy="394.537" r="8.74783" stroke="#43B3EF" stroke-width="0.5"/>
</g>
<g opacity="0.2">
<line y1="-0.5" x2="30.9614" y2="-0.5" transform="matrix(-0.707107 -0.707107 -0.707107 0.707107 491.781 170.542)" stroke="#3DAFE9"/>
<path d="M643.772 351.53C642.731 350.488 642.731 348.8 643.772 347.758C644.813 346.717 646.502 346.717 647.543 347.758C648.585 348.8 648.585 350.488 647.543 351.53C646.502 352.571 644.813 352.571 643.772 351.53ZM707.648 287.654C706.606 286.613 706.606 284.924 707.648 283.883C708.689 282.841 710.377 282.841 711.419 283.883C712.46 284.924 712.46 286.613 711.419 287.654C710.377 288.695 708.689 288.695 707.648 287.654ZM645.304 349.29L709.18 285.415L709.887 286.122L646.011 349.998L645.304 349.29Z" fill="#3DAFE9"/>
<path d="M630.592 423.947C629.856 425.223 628.225 425.66 626.949 424.923C625.674 424.187 625.237 422.556 625.973 421.281C626.71 420.005 628.34 419.568 629.616 420.304C630.891 421.041 631.328 422.672 630.592 423.947ZM552.361 378.78C551.624 380.056 549.993 380.493 548.718 379.756C547.442 379.02 547.005 377.389 547.742 376.114C548.478 374.838 550.109 374.401 551.385 375.138C552.66 375.874 553.097 377.505 552.361 378.78ZM628.033 423.047L549.801 377.88L550.301 377.014L628.533 422.181L628.033 423.047Z" fill="#0080FF"/>
<path d="M556.94 427.681C556.171 426.425 556.566 424.783 557.822 424.014C559.078 423.245 560.72 423.64 561.489 424.896C562.257 426.153 561.862 427.794 560.606 428.563C559.35 429.332 557.709 428.937 556.94 427.681ZM605.988 397.658C605.219 396.402 605.614 394.76 606.87 393.991C608.126 393.222 609.768 393.617 610.537 394.874C611.305 396.13 610.91 397.771 609.654 398.54C608.398 399.309 606.757 398.914 605.988 397.658ZM558.953 425.862L608.001 395.839L608.523 396.692L559.475 426.715L558.953 425.862Z" fill="#0080FF"/>
<path d="M555.068 391.327C556.046 390.225 557.731 390.125 558.833 391.102C559.934 392.08 560.035 393.765 559.057 394.867C558.08 395.968 556.394 396.069 555.293 395.091C554.191 394.114 554.091 392.428 555.068 391.327ZM577.967 411.649C578.945 410.547 580.631 410.447 581.732 411.424C582.834 412.402 582.934 414.087 581.957 415.189C580.979 416.29 579.293 416.391 578.192 415.413C577.09 414.436 576.99 412.75 577.967 411.649ZM557.395 392.723L580.294 413.045L579.63 413.793L556.731 393.471L557.395 392.723Z" fill="#0080FF"/>
<path d="M431.148 210.646C430.107 209.605 430.107 207.916 431.148 206.875C432.19 205.833 433.878 205.833 434.919 206.875C435.961 207.916 435.961 209.605 434.919 210.646C433.878 211.687 432.19 211.687 431.148 210.646ZM563.202 144.793C562.16 143.752 562.16 142.063 563.202 141.022C564.243 139.98 565.931 139.98 566.973 141.022C568.014 142.063 568.014 143.752 566.973 144.793C565.931 145.834 564.243 145.834 563.202 144.793ZM439.202 120.525L438.703 120.49L438.724 120.181L439.011 120.063L439.202 120.525ZM495.578 97.2913L495.387 96.8291L495.631 96.7285L495.852 96.8733L495.578 97.2913ZM432.535 208.726L438.703 120.49L439.7 120.56L433.533 208.795L432.535 208.726ZM439.011 120.063L495.387 96.8291L495.768 97.7536L439.392 120.987L439.011 120.063ZM495.852 96.8733L565.361 142.489L564.813 143.325L495.303 97.7094L495.852 96.8733Z" fill="#C78FF7" fill-opacity="0.95"/>
<circle cx="2.97221" cy="2.97221" r="2.97221" transform="matrix(1 1.74846e-07 1.74846e-07 -1 436.139 123.952)" fill="#C78FF7" fill-opacity="0.95"/>
<path d="M453.485 216.99C452.658 215.772 452.975 214.113 454.194 213.286C455.413 212.459 457.071 212.777 457.898 213.995C458.725 215.214 458.408 216.872 457.189 217.699C455.971 218.526 454.312 218.209 453.485 216.99ZM511.635 177.519C510.808 176.301 511.125 174.642 512.343 173.815C513.562 172.988 515.22 173.305 516.048 174.524C516.875 175.743 516.557 177.401 515.339 178.228C514.12 179.055 512.462 178.738 511.635 177.519ZM455.411 215.079L513.56 175.608L514.122 176.435L455.973 215.906L455.411 215.079Z" fill="#3DAFE9"/>
<circle cx="2.97221" cy="2.97221" r="2.97221" transform="matrix(1 1.74846e-07 1.74846e-07 -1 470.414 206.606)" fill="#3DAFE9"/>
<circle cx="3.43756" cy="3.43756" r="3.43756" transform="matrix(1 1.74846e-07 1.74846e-07 -1 488.83 173.979)" fill="#3DAFE9"/>
<circle cx="3.43756" cy="3.43756" r="3.43756" transform="matrix(1 1.74846e-07 1.74846e-07 -1 466.976 152.084)" fill="#3DAFE9"/>
<circle cx="5.94441" cy="5.94441" r="5.94441" transform="matrix(-0.0948536 -0.995491 -0.995491 0.0948536 531.483 102.802)" fill="#5C49EA"/>
<circle cx="5.94441" cy="5.94441" r="5.94441" transform="matrix(-0.0948536 -0.995491 -0.995491 0.0948536 497.389 144.082)" fill="#5C49EA"/>
<line y1="-0.5" x2="53.54" y2="-0.5" transform="matrix(-0.636847 0.77099 0.77099 0.636847 525.004 97.4487)" stroke="#5C49EA"/>
<path d="M515.834 288.435C514.361 288.435 513.168 287.241 513.168 285.768C513.168 284.296 514.361 283.102 515.834 283.102C517.307 283.102 518.501 284.296 518.501 285.768C518.501 287.241 517.307 288.435 515.834 288.435ZM515.834 239.326C514.361 239.326 513.168 238.132 513.168 236.66C513.168 235.187 514.361 233.993 515.834 233.993C517.307 233.993 518.501 235.187 518.501 236.66C518.501 238.132 517.307 239.326 515.834 239.326ZM491.784 264.879L491.456 265.256L491.082 264.931L491.403 264.554L491.784 264.879ZM515.506 286.146L491.456 265.256L492.112 264.501L516.162 285.391L515.506 286.146ZM491.403 264.554L515.454 236.335L516.215 236.984L492.164 265.203L491.403 264.554Z" fill="#3DAFE9"/>
<path d="M729.319 333.029C730.36 331.987 730.36 330.299 729.319 329.257C728.277 328.216 726.589 328.216 725.547 329.257C724.506 330.299 724.506 331.987 725.547 333.029C726.589 334.07 728.277 334.07 729.319 333.029ZM597.968 201.678C599.009 200.636 599.009 198.948 597.968 197.906C596.926 196.865 595.238 196.865 594.196 197.906C593.155 198.948 593.155 200.636 594.196 201.678C595.238 202.719 596.926 202.719 597.968 201.678ZM727.786 330.79L596.435 199.438L595.728 200.146L727.079 331.497L727.786 330.79Z" fill="#3DAFE9"/>
<path d="M645.202 211.38C644.364 212.591 644.666 214.252 645.877 215.091C647.088 215.929 648.749 215.627 649.587 214.416C650.426 213.205 650.124 211.544 648.913 210.705C647.702 209.867 646.041 210.169 645.202 211.38ZM797.935 317.111C797.097 318.322 797.399 319.983 798.61 320.821C799.82 321.66 801.482 321.357 802.32 320.146C803.158 318.936 802.856 317.274 801.645 316.436C800.434 315.598 798.773 315.9 797.935 317.111ZM647.11 213.309L799.843 319.04L800.412 318.218L647.679 212.487L647.11 213.309Z" fill="#5C49EA"/>
<path d="M786.443 277.194C787.212 275.937 786.817 274.296 785.56 273.527C784.304 272.758 782.663 273.153 781.894 274.409C781.125 275.665 781.52 277.307 782.776 278.076C784.032 278.845 785.674 278.45 786.443 277.194ZM685.583 215.456C686.351 214.2 685.956 212.558 684.7 211.789C683.444 211.02 681.803 211.415 681.034 212.671C680.265 213.928 680.66 215.569 681.916 216.338C683.172 217.107 684.814 216.712 685.583 215.456ZM784.429 275.375L683.569 213.637L683.047 214.49L783.907 276.228L784.429 275.375Z" fill="#5C49EA"/>
<path d="M790.802 421.391C791.629 420.172 791.311 418.514 790.093 417.687C788.874 416.86 787.216 417.177 786.389 418.396C785.562 419.614 785.879 421.273 787.097 422.1C788.316 422.927 789.974 422.61 790.802 421.391ZM732.652 381.92C733.479 380.701 733.162 379.043 731.943 378.216C730.725 377.389 729.066 377.706 728.239 378.925C727.412 380.143 727.73 381.801 728.948 382.629C730.167 383.456 731.825 383.138 732.652 381.92ZM788.876 419.48L730.727 380.009L730.165 380.836L788.314 420.307L788.876 419.48Z" fill="#C883CC"/>
<path d="M790.589 205.778C789.611 204.676 787.926 204.576 786.824 205.553C785.722 206.531 785.622 208.216 786.6 209.318C787.577 210.419 789.263 210.52 790.364 209.542C791.466 208.565 791.566 206.879 790.589 205.778ZM743.5 247.567C742.522 246.466 740.837 246.365 739.735 247.343C738.634 248.32 738.533 250.006 739.511 251.107C740.488 252.209 742.174 252.309 743.275 251.332C744.377 250.354 744.477 248.669 743.5 247.567ZM788.262 207.174L741.173 248.963L741.837 249.711L788.926 207.922L788.262 207.174Z" fill="#5C49EA"/>
<circle cx="770.897" cy="408.034" r="2.97221" transform="rotate(-180 770.897 408.034)" fill="#C883CC"/>
<circle cx="752.016" cy="374.941" r="3.43756" transform="rotate(-180 752.016 374.941)" fill="#3DAFE9"/>
<circle cx="773.87" cy="353.047" r="3.43756" transform="rotate(-180 773.87 353.047)" fill="#3DAFE9"/>
<path d="M756.154 164.301C757.195 163.259 757.195 161.571 756.154 160.529C755.112 159.488 753.424 159.488 752.383 160.529C751.341 161.571 751.341 163.259 752.383 164.301C753.424 165.342 755.112 165.342 756.154 164.301ZM624.1 98.4475C625.142 97.4061 625.142 95.7177 624.1 94.6763C623.059 93.6349 621.371 93.6349 620.329 94.6763C619.288 95.7177 619.288 97.4061 620.329 98.4475C621.371 99.4889 623.059 99.4889 624.1 98.4475ZM748.1 74.1797L748.599 74.1449L748.577 73.8356L748.291 73.7175L748.1 74.1797ZM691.724 50.9459L691.915 50.4837L691.671 50.383L691.45 50.5279L691.724 50.9459ZM754.767 162.38L748.599 74.1449L747.602 74.2146L753.769 162.45L754.767 162.38ZM748.291 73.7175L691.915 50.4837L691.534 51.4082L747.91 74.642L748.291 73.7175ZM691.45 50.5279L621.94 96.1439L622.489 96.9799L691.999 51.364L691.45 50.5279Z" fill="#3DAFE9"/>
<circle cx="748.191" cy="74.6353" r="2.97221" transform="rotate(-180 748.191 74.6353)" fill="#3DAFE9"/>
<circle cx="781.198" cy="377.449" r="5.94441" transform="rotate(-180 781.198 377.449)" fill="#C883CC"/>
<circle cx="819.058" cy="339.59" r="5.94441" transform="rotate(-180 819.058 339.59)" fill="#C883CC"/>
<line x1="780.845" y1="377.095" x2="818.703" y2="339.237" stroke="#C883CC"/>
<line x1="752.148" y1="374.587" x2="774.041" y2="352.694" stroke="#3DAFE9"/>
<path d="M728.451 492.834C729.924 492.834 731.118 491.64 731.118 490.167C731.118 488.695 729.924 487.501 728.451 487.501C726.979 487.501 725.785 488.695 725.785 490.167C725.785 491.64 726.979 492.834 728.451 492.834ZM728.451 443.725C729.924 443.725 731.118 442.532 731.118 441.059C731.118 439.586 729.924 438.392 728.451 438.392C726.979 438.392 725.785 439.586 725.785 441.059C725.785 442.532 726.979 443.725 728.451 443.725ZM752.502 469.278L752.83 469.655L753.204 469.331L752.882 468.954L752.502 469.278ZM728.779 490.545L752.83 469.655L752.174 468.9L728.124 489.79L728.779 490.545ZM752.882 468.954L728.832 440.734L728.071 441.383L752.121 469.602L752.882 468.954Z" fill="#3DAFE9"/>
<circle cx="7.60032" cy="7.60032" r="7.60032" transform="matrix(1 1.74846e-07 1.74846e-07 -1 718.397 416.653)" fill="#3DAFE9"/>
<circle cx="7.60032" cy="7.60032" r="7.60032" transform="matrix(1 1.74846e-07 1.74846e-07 -1 669.994 368.249)" fill="#3DAFE9"/>
<path d="M726.281 408.771L657.967 420.261L677.877 360.366" stroke="#3DAFE9" stroke-width="2"/>
<circle cx="8.99783" cy="8.99783" r="8.49783" transform="matrix(1 1.74846e-07 1.74846e-07 -1 619.287 431.614)" stroke="#0080FF"/>
<circle cx="8.99783" cy="8.99783" r="8.74783" transform="matrix(1 1.74846e-07 1.74846e-07 -1 719.454 450.058)" stroke="#3DAFE9" stroke-width="0.5"/>
</g>
</g>
<defs>
<radialGradient id="paint0_radial_6_319" cx="0" cy="0" r="1" gradientUnits="userSpaceOnUse" gradientTransform="translate(936 267.428) rotate(90) scale(238)">
<stop stop-color="#FFF6D3"/>
<stop offset="1" stop-color="#737373" stop-opacity="0"/>
</radialGradient>
<linearGradient id="paint1_linear_6_319" x1="956" y1="198.337" x2="956.098" y2="101.943" gradientUnits="userSpaceOnUse">
<stop stop-color="#5C49EA"/>
<stop offset="0.5" stop-color="#3DAFE9"/>
<stop offset="1" stop-color="#94FFED"/>
</linearGradient>
<linearGradient id="paint2_linear_6_319" x1="1025.5" y1="210.337" x2="981" y2="210.337" gradientUnits="userSpaceOnUse">
<stop stop-color="#94FFED"/>
<stop offset="0.5" stop-color="#3DAFE9"/>
<stop offset="1" stop-color="#5C49EA"/>
</linearGradient>
<radialGradient id="paint3_radial_6_319" cx="0" cy="0" r="1" gradientUnits="userSpaceOnUse" gradientTransform="translate(942.592 268.672) rotate(85.4531) scale(59.3873 87.8601)">
<stop stop-color="#CB3737"/>
<stop offset="1"/>
</radialGradient>
<clipPath id="clip0_6_319">
<rect width="1200" height="499" fill="white" transform="translate(0 0.428101)"/>
</clipPath>
<clipPath id="clip1_6_319">
<rect width="415.918" height="311" fill="white" transform="translate(750.041 94.4281)"/>
</clipPath>
</defs>
</svg>
