<svg width="1200" height="613" viewBox="0 0 1200 613" fill="none" xmlns="http://www.w3.org/2000/svg">
<g clip-path="url(#clip0_32_100)">
<rect width="1200" height="612" transform="translate(0 0.428078)" fill="#0F172A"/>
<g opacity="0.3" filter="url(#filter0_f_32_100)">
<line y1="-0.5" x2="30.9614" y2="-0.5" transform="matrix(0.707107 0.707107 0.707107 -0.707107 187.221 298.874)" stroke="#3DAFE9"/>
<path d="M35.2303 117.886C36.2717 118.927 36.2717 120.616 35.2303 121.657C34.1889 122.698 32.5005 122.698 31.4591 121.657C30.4177 120.616 30.4177 118.927 31.4591 117.886C32.5005 116.844 34.1889 116.844 35.2303 117.886ZM-28.6453 181.761C-27.6039 182.803 -27.6039 184.491 -28.6453 185.533C-29.6867 186.574 -31.3751 186.574 -32.4165 185.533C-33.4579 184.491 -33.4579 182.803 -32.4165 181.761C-31.3751 180.72 -29.6867 180.72 -28.6453 181.761ZM33.6983 120.125L-30.1773 184L-30.8844 183.293L32.9912 119.418L33.6983 120.125Z" fill="#3DAFE9"/>
<path d="M48.4084 45.4658C49.1448 44.1904 50.7757 43.7534 52.0511 44.4898C53.3266 45.2261 53.7636 46.8571 53.0272 48.1325C52.2908 49.4079 50.6599 49.8449 49.3844 49.1086C48.109 48.3722 47.672 46.7413 48.4084 45.4658ZM126.64 90.6327C127.376 89.3573 129.007 88.9203 130.282 89.6566C131.558 90.393 131.995 92.0239 131.258 93.2994C130.522 94.5748 128.891 95.0118 127.616 94.2754C126.34 93.5391 125.903 91.9082 126.64 90.6327ZM50.9678 46.3662L129.199 91.533L128.699 92.3991L50.4678 47.2322L50.9678 46.3662Z" fill="#0080FF"/>
<path d="M122.062 41.7346C122.83 42.9907 122.435 44.6323 121.179 45.4012C119.923 46.1701 118.282 45.7751 117.513 44.519C116.744 43.2629 117.139 41.6213 118.395 40.8524C119.651 40.0835 121.293 40.4785 122.062 41.7346ZM73.0136 71.7574C73.7825 73.0136 73.3875 74.6552 72.1314 75.424C70.8752 76.1929 69.2336 75.7979 68.4648 74.5418C67.6959 73.2857 68.0909 71.6441 69.347 70.8752C70.6031 70.1063 72.2447 70.5013 73.0136 71.7574ZM120.048 43.5533L71.0002 73.5761L70.4781 72.7232L119.526 42.7003L120.048 43.5533Z" fill="#0080FF"/>
<path d="M123.933 78.0884C122.955 79.1899 121.27 79.2904 120.168 78.3128C119.067 77.3353 118.966 75.6498 119.944 74.5483C120.922 73.4467 122.607 73.3463 123.709 74.3238C124.81 75.3014 124.911 76.9868 123.933 78.0884ZM101.034 57.7663C100.056 58.8678 98.3708 58.9683 97.2692 57.9907C96.1677 57.0131 96.0672 55.3277 97.0448 54.2262C98.0223 53.1246 99.7078 53.0241 100.809 54.0017C101.911 54.9793 102.011 56.6647 101.034 57.7663ZM121.607 76.6923L98.7074 56.3702L99.3712 55.6222L122.27 75.9444L121.607 76.6923Z" fill="#0080FF"/>
<path d="M247.853 258.769C248.894 259.81 248.894 261.499 247.853 262.54C246.812 263.581 245.123 263.581 244.082 262.54C243.04 261.499 243.04 259.81 244.082 258.769C245.123 257.727 246.812 257.727 247.853 258.769ZM115.8 324.622C116.841 325.663 116.841 327.352 115.8 328.393C114.758 329.435 113.07 329.435 112.028 328.393C110.987 327.352 110.987 325.663 112.028 324.622C113.07 323.581 114.758 323.581 115.8 324.622ZM239.8 348.89L240.298 348.925L240.277 349.234L239.99 349.352L239.8 348.89ZM183.423 372.124L183.614 372.586L183.37 372.686L183.149 372.542L183.423 372.124ZM246.466 260.689L240.298 348.925L239.301 348.855L245.469 260.62L246.466 260.689ZM239.99 349.352L183.614 372.586L183.233 371.661L239.609 348.427L239.99 349.352ZM183.149 372.542L113.64 326.926L114.188 326.09L183.698 371.705L183.149 372.542Z" fill="#C78FF7" fill-opacity="0.95"/>
<circle cx="2.97221" cy="2.97221" r="2.97221" transform="matrix(-1 0 0 1 242.862 345.462)" fill="#C78FF7" fill-opacity="0.95"/>
<path d="M225.517 252.425C226.344 253.643 226.027 255.301 224.808 256.129C223.59 256.956 221.931 256.638 221.104 255.42C220.277 254.201 220.594 252.543 221.813 251.716C223.031 250.889 224.69 251.206 225.517 252.425ZM167.367 291.896C168.195 293.114 167.877 294.773 166.659 295.6C165.44 296.427 163.782 296.109 162.955 294.891C162.128 293.672 162.445 292.014 163.663 291.187C164.882 290.36 166.54 290.677 167.367 291.896ZM223.591 254.336L165.442 293.807L164.88 292.98L223.03 253.509L223.591 254.336Z" fill="#3DAFE9"/>
<circle cx="2.97221" cy="2.97221" r="2.97221" transform="matrix(-1 0 0 1 208.587 262.81)" fill="#3DAFE9"/>
<circle cx="3.43756" cy="3.43756" r="3.43756" transform="matrix(-1 0 0 1 190.171 295.437)" fill="#3DAFE9"/>
<circle cx="3.43756" cy="3.43756" r="3.43756" transform="matrix(-1 0 0 1 212.025 317.33)" fill="#3DAFE9"/>
<circle cx="5.94441" cy="5.94441" r="5.94441" transform="matrix(0.0948538 0.995491 0.995491 -0.0948538 147.517 366.612)" fill="#5C49EA"/>
<circle cx="5.94441" cy="5.94441" r="5.94441" transform="matrix(0.0948538 0.995491 0.995491 -0.0948538 181.612 325.332)" fill="#5C49EA"/>
<line y1="-0.5" x2="53.54" y2="-0.5" transform="matrix(0.636847 -0.77099 -0.77099 -0.636847 153.997 371.965)" stroke="#5C49EA"/>
<path d="M163.168 180.98C164.641 180.98 165.835 182.174 165.835 183.647C165.835 185.12 164.641 186.313 163.168 186.313C161.695 186.313 160.501 185.12 160.501 183.647C160.501 182.174 161.695 180.98 163.168 180.98ZM163.168 230.089C164.641 230.089 165.835 231.283 165.835 232.756C165.835 234.228 164.641 235.422 163.168 235.422C161.695 235.422 160.501 234.228 160.501 232.756C160.501 231.283 161.695 230.089 163.168 230.089ZM187.218 204.536L187.546 204.159L187.92 204.484L187.599 204.861L187.218 204.536ZM163.496 183.269L187.546 204.159L186.891 204.914L162.84 184.024L163.496 183.269ZM187.599 204.861L163.549 233.08L162.787 232.431L186.838 204.212L187.599 204.861Z" fill="#3DAFE9"/>
<path d="M-50.3182 136.386C-51.3596 137.428 -51.3596 139.116 -50.3182 140.157C-49.2768 141.199 -47.5884 141.199 -46.547 140.157C-45.5056 139.116 -45.5056 137.428 -46.547 136.386C-47.5884 135.345 -49.2768 135.345 -50.3182 136.386ZM81.0328 267.737C79.9914 268.779 79.9914 270.467 81.0328 271.508C82.0742 272.55 83.7626 272.55 84.804 271.508C85.8454 270.467 85.8454 268.779 84.804 267.737C83.7626 266.696 82.0742 266.696 81.0328 267.737ZM-48.7862 138.625L82.5649 269.976L83.272 269.269L-48.0791 137.918L-48.7862 138.625Z" fill="#3DAFE9"/>
<path d="M33.8 258.036C34.6383 256.825 34.3362 255.164 33.1252 254.325C31.9143 253.487 30.2531 253.789 29.4149 255C28.5766 256.211 28.8787 257.872 30.0896 258.71C31.3005 259.549 32.9617 259.247 33.8 258.036ZM-118.933 152.305C-118.094 151.094 -118.396 149.433 -119.607 148.595C-120.818 147.756 -122.479 148.059 -123.318 149.269C-124.156 150.48 -123.854 152.142 -122.643 152.98C-121.432 153.818 -119.771 153.516 -118.933 152.305ZM31.892 256.107L-120.841 150.376L-121.41 151.198L31.3228 256.929L31.892 256.107Z" fill="#5C49EA"/>
<path d="M-77.153 305.114C-78.1944 306.155 -78.1944 307.844 -77.153 308.885C-76.1116 309.927 -74.4232 309.927 -73.3818 308.885C-72.3404 307.844 -72.3404 306.155 -73.3818 305.114C-74.4232 304.073 -76.1116 304.073 -77.153 305.114ZM54.9004 370.967C53.859 372.008 53.859 373.697 54.9004 374.738C55.9418 375.78 57.6302 375.78 58.6716 374.738C59.713 373.697 59.713 372.008 58.6716 370.967C57.6302 369.926 55.9418 369.926 54.9004 370.967ZM-69.0996 395.235L-69.5983 395.27L-69.5767 395.579L-69.2901 395.697L-69.0996 395.235ZM-12.7234 418.469L-12.914 418.931L-12.6699 419.032L-12.4491 418.887L-12.7234 418.469ZM-75.7662 307.034L-69.5983 395.27L-68.6008 395.2L-74.7686 306.965L-75.7662 307.034ZM-69.2901 395.697L-12.914 418.931L-12.5329 418.006L-68.909 394.773L-69.2901 395.697ZM-12.4491 418.887L57.0603 373.271L56.5117 372.435L-12.9978 418.051L-12.4491 418.887Z" fill="#3DAFE9"/>
<circle cx="7.60032" cy="7.60032" r="7.60032" transform="matrix(-1 0 0 1 9.00879 101.167)" fill="#3DAFE9"/>
<path d="M-47.2793 60.6449L21.0353 49.1547L1.1253 109.049" stroke="#3DAFE9" stroke-width="2"/>
<circle cx="8.99783" cy="8.99783" r="8.49783" transform="matrix(-1 0 0 1 59.715 37.8013)" stroke="#0080FF"/>
</g>
<g clip-path="url(#clip1_32_100)">
<path d="M649.616 409.239C651.163 408.344 652.099 406.309 652.099 406.309L780.701 332.044C780.701 332.044 779.765 334.079 778.219 334.974L649.616 409.239Z" fill="#42294D"/>
<path d="M726.533 462.548C731.01 459.984 731.01 454.246 731.01 454.246L859.612 379.981C859.612 379.981 859.612 385.678 855.136 388.282L726.533 462.548Z" fill="#42294D"/>
<path d="M827.259 492.783L828.927 483.179L957.529 408.954L955.861 418.517L827.259 492.783Z" fill="#42294D"/>
<path d="M828.928 483.179L720.918 440.37L849.52 366.145L957.53 408.954L828.928 483.179Z" fill="#603060"/>
<path d="M720.918 440.37C720.918 440.37 701.342 440.37 681.157 420.796C660.971 401.223 655.273 381.649 655.273 381.649L783.876 307.384C783.876 307.384 789.573 326.957 809.759 346.531C829.945 366.104 849.52 366.104 849.52 366.104L720.918 440.37Z" fill="#603060"/>
<path d="M655.273 381.69L585.193 273.771L713.796 199.505L783.876 307.424L655.273 381.69Z" fill="#603060"/>
<path d="M827.259 492.783L731.01 454.287C731.01 454.287 731.01 459.984 726.534 462.588C724.784 463.606 722.383 464.094 719.005 463.606C706.999 461.856 706.999 453.025 706.999 453.025C706.999 453.025 669.761 430.278 660.93 418.314L652.099 406.35C651.611 407.408 648.355 413.309 643.878 406.35C639.076 398.822 643.227 382.992 643.227 382.992L580.798 282.398L585.234 273.771L655.273 381.69C655.273 381.69 660.971 401.263 681.157 420.837C701.342 440.41 720.918 440.41 720.918 440.41L828.927 483.22L827.259 492.783Z" fill="#4C2B53"/>
<path d="M861.363 483.179C860.711 485.58 837.392 499.375 828.927 500.026C820.503 500.637 790.672 486.15 788.474 483.179C786.277 480.209 785.666 470.646 786.236 466.251C786.317 465.6 786.765 464.908 787.457 464.135C791.445 459.658 803.939 453.636 803.939 453.636L820.34 444.48C862.177 464.704 859.857 462.1 862.054 464.298C867.426 469.588 861.892 481.023 861.363 483.179Z" fill="#E07743"/>
<path d="M862.014 464.298C861.689 465.234 861.444 465.925 861.322 466.332C860.671 468.774 837.352 482.569 828.887 483.179C820.463 483.83 790.632 469.262 788.393 466.332C787.986 465.803 787.62 465.03 787.376 464.135C791.364 459.659 803.858 453.636 803.858 453.636L820.259 444.48C862.096 464.704 859.776 462.1 861.973 464.298H862.014Z" fill="#F69E44"/>
<path d="M916.263 412.21C916.263 412.21 932.989 420.186 933.6 421.284C934.21 422.383 935.024 430.522 933.6 431.376C932.175 432.19 928.96 434.062 928.96 434.062C928.96 434.062 931.076 437.196 938.646 434.062C946.216 430.929 958.547 423.685 961.233 418.639C963.919 413.593 959.646 404.682 959.646 404.682C959.646 404.682 931.443 386.532 926.356 390.561C921.268 394.59 916.263 412.251 916.263 412.251V412.21Z" fill="#E07743"/>
<path d="M913.251 398.944C913.251 398.944 929.978 406.92 930.588 408.018C931.199 409.117 932.013 417.256 930.588 418.11C929.164 418.965 925.949 420.796 925.949 420.796C925.949 420.796 928.065 423.93 935.635 420.796C943.204 417.663 955.535 410.419 958.221 405.373C960.907 400.327 956.634 391.416 956.634 391.416C956.634 391.416 928.431 373.266 923.344 377.295C918.257 381.324 913.251 398.985 913.251 398.985V398.944Z" fill="#F69E44"/>
<path d="M582.873 266.812C582.873 266.812 574.246 278.817 576.769 283.008C579.292 287.2 596.955 312.674 596.955 312.674C596.955 312.674 605.42 304.942 605.745 305.471C606.071 306 630.814 293.507 630.814 293.507C630.814 293.507 611.036 259.203 608.309 257.331C605.582 255.418 582.833 265.103 582.833 266.812H582.873Z" fill="#E07743"/>
<path d="M603.304 258.267C603.304 258.267 581.409 263.76 583.932 267.993C586.455 272.184 611.28 308.605 611.28 308.605C611.28 308.605 619.745 300.873 620.071 301.402C620.396 301.931 645.14 289.438 645.14 289.438C645.14 289.438 625.361 255.133 622.635 253.262C619.908 251.349 603.263 256.598 603.263 258.267H603.304Z" fill="#F69E44"/>
<path d="M676.721 395.566C676.721 395.566 677.657 372.208 668.216 350.112C658.733 328.015 603.833 272.184 603.833 272.184L732.435 197.959C732.435 197.959 787.335 253.831 796.818 275.887C806.3 297.943 805.324 321.341 805.324 321.341L676.721 395.607V395.566Z" fill="#F0D2A5"/>
<path d="M603.833 272.184H591.827L720.429 197.959H732.435L603.833 272.184Z" fill="#F3DBB6"/>
<path d="M700.325 375.789L670.128 395.566C670.128 395.566 681.808 401.67 691.128 412.21C700.447 422.709 709.685 433.086 709.685 433.086L832.631 358.983L801.335 327.69L700.325 375.83V375.789Z" fill="#E8C085"/>
<path d="M676.721 395.566H670.087L591.827 272.184H603.833C603.833 272.184 658.733 328.056 668.215 350.112C677.698 372.208 676.721 395.566 676.721 395.566Z" fill="#ECC995"/>
<path d="M679.57 399.798C679.57 399.798 683.029 365.331 673.547 337.822C664.064 310.273 591.827 256.11 591.827 256.11L720.429 181.844C720.429 181.844 792.667 236.048 802.149 263.557C811.631 291.106 808.172 325.533 808.172 325.533L679.57 399.798Z" fill="#F7E3C6"/>
<path d="M683.965 399.798C683.965 399.798 685.552 359.919 677.657 335.299C669.762 310.68 620.519 243.454 620.519 243.454L749.162 169.229C749.162 169.229 798.405 236.455 806.3 261.074C814.195 285.694 812.608 325.574 812.608 325.574L684.006 399.839L683.965 399.798Z" fill="#FBECD6"/>
<path d="M657.797 249.151C657.797 249.151 683.355 292.368 688.401 337.497C690.436 355.809 688.401 406.228 688.401 406.228L817.003 331.962C817.003 331.962 819.038 281.543 817.003 263.231C811.957 218.102 786.399 174.886 786.399 174.886L657.797 249.151Z" fill="#FFF5E6"/>
<g clip-path="url(#clip2_32_100)">
<path d="M741.829 273.043C753.6 259.126 766.076 273.65 768.97 258.128C771.864 242.607 775.892 235.453 766.662 235.453C757.433 235.453 756.846 245.685 751.645 235.453C746.443 225.221 742.963 217.417 754.539 218.067C766.076 218.674 777.652 228.949 782.853 220.235C788.054 211.52 787.468 206.231 778.825 208.442C770.143 210.61 764.902 212.431 765.802 206.534C766.701 200.638 766.701 193.527 766.701 193.527C766.701 193.527 763.221 205.017 769.009 205.667C774.797 206.317 785.904 199.771 789.853 206.274C793.843 212.821 792.239 227.735 789.853 228.342C787.468 228.949 770.378 225.524 765.059 225.524C759.74 225.524 758.606 227.996 759.154 229.86C759.701 231.724 790.127 228.603 792.239 234.196C794.39 239.789 791.496 255.657 776.478 267.147C761.461 278.636 754.03 276.512 760.17 279.85C766.31 283.188 770.104 289.822 783.987 287.351C797.832 284.879 811.128 274.604 821.531 287.351C831.934 300.097 802.525 347.616 794.781 351.171C751.684 370.985 703.072 319.001 741.829 273.043Z" fill="url(#paint0_linear_32_100)"/>
<path d="M741.947 284.62C742.26 284.273 742.572 283.926 742.846 283.623C743.12 289.822 748.048 292.511 749.964 293.508C753.953 295.676 759.741 302.526 771.982 302.526C778.747 302.526 784.809 300.575 791.067 298.537C795.408 297.106 799.514 295.719 802.682 295.719C804.754 295.719 806.592 296.239 808.626 298.754C811.325 306.385 791.966 341.59 784.692 347.096C750.238 362.575 709.956 322.427 741.908 284.576L741.947 284.62ZM773.351 255.311C774.133 251.842 774.798 248.59 774.876 245.556C775.814 245.599 776.675 245.686 777.496 245.816C777.027 248.157 775.853 251.582 773.351 255.354V255.311Z" fill="white" fill-opacity="0.53"/>
</g>
<path d="M733.778 369.563C709.319 383.684 691.901 412.21 691.901 412.21L820.503 337.944C820.503 337.944 837.921 309.459 862.38 295.338L733.778 369.604V369.563Z" fill="#F0D2A5"/>
<path d="M831.043 478.866L832.63 466.902L961.233 392.636L959.646 404.641L831.043 478.866Z" fill="#E8C085"/>
<path d="M832.63 466.902C832.63 466.902 745.539 407.571 730.074 406.309C724.132 405.821 718.394 407.937 713.592 410.704L842.194 336.439C847.037 333.672 852.775 331.555 858.676 332.044C874.141 333.305 961.233 392.636 961.233 392.636L832.63 466.902Z" fill="#F0D2A5"/>
<path d="M831.043 478.866L708.912 432.801C708.912 432.801 704.679 423.93 700.406 421.447C700.406 421.447 705.819 415.181 713.592 410.704C718.435 407.937 724.173 405.821 730.074 406.309C745.539 407.571 832.631 466.902 832.631 466.902L831.043 478.906V478.866Z" fill="#ECC995"/>
<path d="M716.319 393.776C702.238 401.914 696.296 413.553 696.296 413.553L824.898 339.287C824.898 339.287 830.84 327.649 844.921 319.51L716.319 393.776Z" fill="#ECC995"/>
<path d="M720.389 396.543C708.383 403.461 698.819 417.337 698.819 417.337L827.422 343.072C827.422 343.072 837.026 329.195 848.991 322.277L720.389 396.543Z" fill="#E8C085"/>
<path d="M834.829 457.095C834.829 457.095 751.197 393.654 733.86 392.718C729.302 392.474 724.703 394.061 720.43 396.543L849.032 322.277C853.305 319.795 857.904 318.208 862.462 318.452C879.799 319.388 963.431 382.829 963.431 382.829L834.829 457.095Z" fill="#F7E3C6"/>
<path d="M822.212 413.553C822.212 413.553 778.015 384.823 743.829 386.085C732.434 386.491 723.359 389.706 716.318 393.776L844.921 319.51C851.961 315.441 861.037 312.267 872.432 311.819C906.617 310.558 950.814 339.287 950.814 339.287L822.212 413.553Z" fill="#FBECD6"/>
<path d="M784.649 358.576C784.649 358.576 767.923 358.169 748.348 363.378C743.26 364.721 738.377 366.877 733.737 369.563L862.34 295.298C866.979 292.612 871.863 290.455 876.95 289.112C896.525 283.904 913.251 284.311 913.251 284.311L784.649 358.576Z" fill="#FFF5E6"/>
</g>
<g opacity="0.6">
<g clip-path="url(#clip3_32_100)">
<path d="M606.812 51.1633C608.916 51.1776 610.121 51.2079 612.017 51.4163C614.883 50.9466 619 50.4057 622.59 49.9476C626.256 49.6079 629.5 49.5416 630.846 50.0232C630.837 50.295 629.023 51.2978 627.171 52.2044C626.243 52.6661 625.241 53.0666 624.444 53.4378C623.648 53.8089 622.988 54.0562 622.642 54.0782C620.958 54.3988 619.358 54.6566 617.824 54.8609C616.319 55.1372 614.878 55.3767 613.444 55.5828C612.035 55.8038 610.546 55.923 609.205 56.1643C607.809 56.3927 606.429 56.6118 605.049 56.831C599.398 57.7241 593.475 59.07 586.189 62.2695C585.501 62.5186 584.583 63.448 583.522 64.6085C583.011 65.1998 582.394 65.8225 581.893 66.5118C581.404 67.2086 580.899 67.9145 580.372 68.5891C580.372 68.5891 581.643 68.0481 583.051 67.3834C582.303 68.3185 581.293 69.2867 580.081 70.2677C579.448 70.7517 578.875 71.2894 578.287 71.8363C577.686 72.3758 577.053 72.9338 576.42 73.4917C575.045 74.5817 574.029 75.805 572.884 76.9543C571.698 78.0981 570.967 79.3197 570.268 80.449C571.65 79.6215 571.65 79.6216 572.661 79.1711C571.212 79.9042 569.68 80.9219 568.385 82.1876C567.765 82.8269 567.164 83.5144 566.573 84.2258C565.966 84.9465 565.381 85.6986 564.976 86.4805C564.05 88.0515 563.141 89.6872 562.631 91.3139C562.348 92.1291 561.997 92.9239 561.778 93.7022C561.587 94.4786 561.384 95.2477 561.19 95.9668C560.822 96.5489 560.442 97.0498 560.084 97.5081C559.768 97.9719 559.446 98.3951 559.136 98.8257C559.11 100.159 558.814 101.484 558.833 102.806C558.794 104.132 558.579 105.485 558.735 106.831C558.834 108.181 558.852 109.577 559.316 110.953C559.497 111.648 559.732 112.357 559.983 113.056C560.247 113.762 560.684 114.458 561.105 115.162C561.417 115.767 561.678 116.416 561.919 117.091C562.234 117.753 562.543 118.449 562.846 119.177C563.348 120.65 564.1 122.155 564.824 123.736C565.127 124.539 565.666 125.294 566.1 126.08C566.579 126.855 566.993 127.667 567.578 128.41C568.775 129.896 569.896 131.411 571.519 132.754C576.029 137.703 581.269 142.926 588.269 147.207C595.198 151.484 603.666 154.859 613.13 156.222C613.905 156.337 614.792 156.535 615.738 156.804C616.702 157.047 617.721 157.377 618.747 157.747C620.76 158.54 622.895 159.514 624.649 160.693C631.57 160.606 639.586 161.947 648.124 163.459C656.601 164.992 665.703 166.756 673.703 167.957C676.676 168.344 678.961 168.979 680.704 169.691C682.496 170.374 683.746 171.133 684.667 171.757C701.757 172.019 720.217 171.89 738.151 172.51C761.122 173.139 784.752 173.298 810.129 175.796C813.63 176.1 820.736 176.01 824.547 175.735C825.954 176.122 827.361 176.51 828.755 176.89C843.847 177.772 858.733 177.649 871.149 180.032C875.387 180.873 878.461 181.779 880.669 182.74C882.897 183.675 884.25 184.641 885.062 185.609C886.677 187.52 886.123 189.379 885.723 191.106C876.005 190.556 865.697 191.161 854.712 191.358C843.701 191.539 831.992 191.354 818.629 189.236C811.375 187.856 798.886 188.476 788.682 188.532C779.882 188.919 771.468 186.905 763.074 188.745C753.642 185.868 728.746 183.241 709.686 183.301C708.305 182.928 710.156 182.778 707.654 182.312C680.34 183.184 651.643 179.656 624.028 174.038C616.96 172.728 609.766 170.736 602.581 168.324C595.383 165.904 588.12 163.152 580.527 160.339C578.864 159.951 574.284 156.347 570.725 154.477C569.229 153.964 567.7 153.469 566.222 152.93C562.134 150.108 557.686 147.078 554.31 143.874C552.514 142.319 551.165 140.655 549.875 139.134C548.786 137.526 547.88 136.006 547.406 134.606C544.63 128.183 541.535 122.61 541.414 116.668C541.348 112.234 540.873 106.511 542.056 100.749C543.22 95.0122 545.89 89.2952 550.04 85.6703C550.884 84.7537 552.662 81.6986 554.064 79.7193C555.235 78.8806 556.405 78.042 557.605 77.2015C559.109 75.2814 558.52 73.6669 560.368 71.7415C566.781 65.6553 575.995 59.2842 585.713 54.903C586.865 54.3121 588.11 53.8303 589.313 53.343C590.53 52.863 591.714 52.4016 592.882 51.9493C595.151 51.0245 597.552 50.3789 599.703 49.7738C603.985 48.5156 607.911 48.0116 610.784 47.9524C609.254 48.7317 603.315 51.2128 606.729 51.2261L606.812 51.1633Z" fill="#2DA6DA"/>
<path d="M681.782 49.6568C680.742 50.0352 682.815 50.6596 684.27 50.8713C683.58 50.0851 683.441 49.3214 681.168 48.2494L685.173 49.3428C688.58 48.6498 681.36 48.0646 684.335 48.1386C686.559 48.7946 688.152 49.4002 686.42 49.7485C686.352 49.3584 685.173 49.3428 683.917 48.9131C682.932 49.6742 684.798 50.4926 685.462 51.2641C683.37 50.8134 681.38 50.2741 679.272 49.8327C680.165 49.702 680.93 49.7191 681.782 49.6568Z" fill="#2DA6DA"/>
<path d="M667.047 46.3765C667.562 46.4342 668.085 46.4585 668.578 46.5587C669.064 46.3223 668.981 46.0893 668.612 45.858C668.227 45.6358 667.519 45.4671 666.814 45.2818C667.644 45.4099 668.265 45.5101 668.698 45.6306C669.111 45.7769 669.358 45.901 669.493 46.0157C669.762 46.2451 669.567 46.4465 669.302 46.6442C668.745 47.0247 667.907 47.3903 669.567 48.0163C669.749 47.8075 668.926 47.4982 668.131 47.187C667.349 46.8833 666.567 46.6535 667.059 46.3839L667.047 46.3765Z" fill="#2DA6DA"/>
<path d="M677.356 44.7191C679.387 46.2421 683.033 45.7064 682.569 47.1002C680.498 46.3113 678.325 45.537 676.066 44.7682C676.517 44.7149 676.927 44.73 677.344 44.7117L677.356 44.7191Z" fill="#2DA6DA"/>
<path d="M621.818 49.8898C619.552 50.9459 620.707 50.4123 616.616 51.4118L622.41 49.8439L621.815 49.9064L621.818 49.8898Z" fill="#2DA6DA"/>
<path d="M556.883 109.086C557.444 108.006 558.028 107.032 558.52 105.949C559.027 104.857 559.601 103.637 559.825 102.086C559.799 103.641 558.931 105.208 558.376 106.476C557.764 107.748 557.065 108.729 556.883 109.086Z" fill="#2DA6DA"/>
<path d="M565.778 139.949C565.055 140.159 565.829 141.104 564.184 140.025C563.948 139.317 566.335 139.42 563.459 137.926C564.149 138.639 565.012 139.266 565.778 139.949Z" fill="#2DA6DA"/>
<path d="M564.917 143.57L565.224 145.244C565.423 145.174 565.412 144.484 564.917 143.57Z" fill="#2DA6DA"/>
<path d="M596.276 62.7549L595.78 62.7453C595.626 62.8783 595.479 63.052 595.338 63.1925C595.633 63.0669 595.927 62.9414 596.289 62.7623L596.276 62.7549Z" fill="#2DA6DA"/>
<path d="M589.604 65.6443C590.432 65.3286 591.223 64.9908 592.061 64.6992L594.67 63.8596C594.89 63.599 595.127 63.4032 595.354 63.1833C593.831 63.8554 593.104 63.9344 592.374 64.104C592.016 64.1926 591.654 64.2977 591.2 64.5156C590.784 64.7557 590.278 65.0919 589.62 65.635L589.604 65.6443Z" fill="#2DA6DA"/>
<path d="M594.889 62.7117L595.779 62.7456C597.176 61.4652 598.902 61.0022 600.745 60.4413C601.667 60.1609 602.647 59.8768 603.706 59.4726C604.778 59.0757 606.068 58.6568 607.434 57.9866C606.202 58.2539 604.992 58.5526 603.788 58.892C602.661 59.2759 601.544 59.6838 600.482 60.1047C599.419 60.5255 598.386 60.9446 597.423 61.3674C596.498 61.8123 595.682 62.2833 594.885 62.7284L594.889 62.7117Z" fill="#2DA6DA"/>
<path d="M598.499 59.8278L599.669 58.6933C601.247 58.1082 601.475 58.48 601.594 58.6779C602.506 58.1515 603.533 57.6918 604.56 57.2321C604.908 56.6758 602.44 57.227 599.813 58.3143C598.475 58.8349 597.025 59.4201 595.758 59.9443C594.517 60.4834 593.531 61.0227 592.907 61.3089L595.65 60.51C596.608 60.2685 597.558 60.0601 598.512 59.8352L598.499 59.8278Z" fill="#2DA6DA"/>
<path d="M628.104 42.4556C628.104 42.4556 627.999 42.4868 627.938 42.507C627.999 42.4868 628.056 42.4832 628.117 42.4629L628.104 42.4556Z" fill="#2DA6DA"/>
<path d="M615.496 43.4703L615.656 44.9477C618.242 44.1506 619.862 43.8669 621.579 43.6757C623.308 43.4919 625.069 43.2897 627.953 42.4984C628.014 42.4781 628.059 42.467 628.119 42.4467C625.613 41.5539 620.191 43.2625 615.512 43.461L615.496 43.4703Z" fill="#2DA6DA"/>
<path d="M583.135 67.7645C583.874 67.1752 584.693 66.6876 585.451 66.2203C586.18 65.7549 586.833 65.3189 587.396 64.9052C588.502 64.1034 589.113 63.3661 589.291 62.8041C588.04 63.3931 586.971 64.0692 585.797 64.7026C584.662 65.3582 583.433 65.9787 582.323 66.6491C585.558 65.4328 582.881 67.0821 583.123 67.7571L583.135 67.7645Z" fill="#2DA6DA"/>
<path d="M574.56 70.1089C575.34 69.3033 576.395 68.6198 577.29 67.8808L575.373 68.6025C575.55 68.7968 575.224 69.2366 574.56 70.1089Z" fill="#2DA6DA"/>
<path d="M575.373 68.6026C575.209 68.4157 574.434 68.5964 573.334 69.4388C573.961 69.136 574.681 68.8684 575.373 68.6026Z" fill="#2DA6DA"/>
<path d="M579.978 63.6337C576.614 64.4063 578.335 65.012 574.627 67.3596C575.201 67.7094 576.046 67.0887 576.995 66.2148C577.449 65.775 577.957 65.2743 578.446 64.7994C578.961 64.3394 579.524 63.9256 580.007 63.6319L579.978 63.6337Z" fill="#2DA6DA"/>
<path d="M566.045 74.2247L564.026 74.8872L565.414 75.4483L566.045 74.2247Z" fill="#2DA6DA"/>
<path d="M560.575 95.7594C559.807 93.1371 558.403 97.3684 557.404 97.6784C558.441 97.0208 559.532 96.3762 560.575 95.7594Z" fill="#2DA6DA"/>
<path d="M559.519 76.6443C560.271 76.4322 561.011 76.2126 561.776 76.0079L561.425 75.3809C562.148 74.6528 563.11 73.4905 564.37 72.9995C563.812 72.4925 563.022 73.0522 562.117 73.9151C561.267 74.7909 560.2 75.9107 559.506 76.6369L559.519 76.6443Z" fill="#2DA6DA"/>
<path d="M555.763 88.5863C554.845 89.5157 554.149 90.4804 553.328 91.4284Z" fill="#2DA6DA"/>
<path d="M561.086 68.5728C560.615 68.2822 553.724 72.1716 559.931 67.3148C558.767 68.2681 557.353 69.4098 556.493 70.1137C555.62 70.8102 555.099 71.0077 555.372 69.9466C552.147 73.2005 556.689 70.5779 555.368 72.8808C556.139 70.9252 559.02 69.9286 561.07 68.5821L561.086 68.5728Z" fill="#2DA6DA"/>
<path d="M552.143 75.9872C550.487 77.5059 548.255 79.4311 548.388 80.4499C548.96 79.6164 549.868 78.8848 550.699 78.1828C551.518 77.4733 552.134 76.7767 552.143 75.9872Z" fill="#2DA6DA"/>
<path d="M547.081 76.8509L550.343 74.7453L547.492 75.8879L547.081 76.8509Z" fill="#2DA6DA"/>
<path d="M540.47 86.8122L542.039 83.7291C542.662 82.7034 543.326 81.6832 543.978 80.6556L541.638 83.3683C540.923 84.285 540.265 85.1979 539.591 86.1201C538.79 89.5734 540.315 87.9233 542.21 85.6004C541.606 86.2305 541.014 86.7201 540.486 86.8029L540.47 86.8122Z" fill="#2DA6DA"/>
<path d="M547.328 80.6323C547.531 80.0112 547.694 79.3846 547.926 78.7616C547.522 78.6393 545.728 81.3339 543.807 83.642C545.252 82.112 546.633 80.7669 547.34 80.6398L547.328 80.6323Z" fill="#2DA6DA"/>
<path d="M543.808 83.642C543.268 84.3091 542.728 84.9762 542.21 85.6008C542.744 85.0409 543.268 84.383 543.808 83.642Z" fill="#2DA6DA"/>
<path d="M551.032 121.407C550.456 119.874 550.219 118.278 549.893 116.704C549.765 118.57 550.066 120.055 551.032 121.407Z" fill="#2DA6DA"/>
<path d="M536.257 91.2879L535.875 92.1751L537.573 92.4535C538.001 90.6511 536.603 91.3399 536.257 91.2879Z" fill="#2DA6DA"/>
<path d="M530.247 98.9179C528.829 100.611 529.255 103.904 529.417 105.217C530.133 104.152 530.643 103.043 531.048 101.892C531.468 100.731 531.699 99.5161 532.277 98.2055C531.234 100.836 530.971 99.0034 530.235 98.9105L530.247 98.9179Z" fill="#2DA6DA"/>
<path d="M526.683 106.87L526.956 104.165L527.521 101.425C526.382 102.024 526.172 102.826 526.222 103.76C526.256 104.703 526.728 105.733 526.683 106.87Z" fill="#2DA6DA"/>
<path d="M527.561 115.337C527.805 115.773 528.317 115.33 528.808 116.186C529.134 115.746 529.159 115.096 529.077 114.402C529.041 113.698 529.017 112.927 529.099 112.272C528.579 113.283 527.953 114.326 527.561 115.337Z" fill="#2DA6DA"/>
<path d="M562.758 72.2719C561.515 73.6411 560.345 74.8496 559.39 76.0526C560.371 75.1602 561.503 74.2993 562.523 73.4291C563.585 72.5645 564.55 71.6814 565.744 70.8742C565.219 71.0883 564.694 71.3024 564.169 71.5166C563.683 71.7529 563.209 71.9967 562.758 72.2719Z" fill="#2DA6DA"/>
<path d="M1009.94 281.486L1011.77 279.882C1009.17 282.578 1005.73 285.115 1002.36 287.679C998.657 290.1 994.982 292.577 990.803 294.708C1000.52 290.492 1010.45 284.643 1016.94 278.214C1023.46 271.801 1026.33 265.093 1024.63 260.179C1026.88 259.741 1030.14 256.394 1031.84 253.073C1032.29 252.247 1032.72 251.422 1033.08 250.652C1033.35 249.886 1033.57 249.182 1033.73 248.572C1034.05 247.352 1034.11 246.535 1033.84 246.494C1033.71 245.236 1033.36 244.018 1033.11 242.784C1032.81 241.555 1032.69 240.305 1032.31 239.105C1032.74 240.778 1032.87 242.512 1033.21 244.208C1032.85 242.505 1032.71 240.78 1032.31 239.105C1028.41 223.745 1021.13 208.494 1007.3 194.562C1006.4 193.567 1005.01 192.505 1003.56 191.225C1002.83 190.597 1002.04 189.924 1001.22 189.228C1000.32 188.562 999.388 187.873 998.429 187.154C997.454 186.443 996.44 185.71 995.417 184.953C994.362 184.215 993.173 183.51 992.018 182.769C990.848 182.038 989.668 181.283 988.472 180.537C987.183 179.83 985.894 179.123 984.621 178.407C983.316 177.709 982.062 176.966 980.71 176.296C979.341 175.635 977.985 174.982 976.638 174.352C974.016 173.023 971.195 171.912 968.612 170.827C966.064 169.706 963.49 168.793 961.202 167.952C958.929 167.102 956.91 166.343 955.138 165.782C953.1 165.122 951.074 164.47 949.007 163.812C951.221 164.598 953.434 165.383 955.648 166.168C953.258 165.712 950.935 165.276 948.638 164.855C946.341 164.434 944.005 164.138 941.766 163.787C937.322 163.05 932.79 162.631 928.497 162.074C929.661 162.69 929.645 163.069 932.639 164.17L928.656 163.182C926.357 163.295 922.929 163.126 919.54 162.832C916.186 162.502 912.727 162.278 910.434 162.284C911.714 161.841 908.386 161.379 905.41 161.009L906.387 161.481C895.134 160.248 881.487 160.219 871.196 159.985C869.764 159.952 868.765 159.745 868.175 159.552C864.796 159.651 861.443 159.766 858.084 159.913C859.123 159.165 850.105 159.278 854.991 158.811C847.236 159.69 839.933 159.242 832.572 160.219C807.38 160.635 780.937 161.64 755.785 161.027L756.237 161.343C747.426 161.188 738.863 161.896 729.21 159.887C727.256 159.831 725.113 159.72 722.96 159.586C720.83 159.409 718.671 159.234 716.637 159.075C712.627 158.68 708.994 158.467 706.939 158.795C698.948 156.952 695.158 156.667 687.659 154.332C688.112 155.019 686.155 154.535 684.412 154.119C682.627 153.699 681.313 153.346 682.532 154.272C685.958 157.062 687.215 156.44 690.457 158.626L690.607 158.361C699.727 162.278 710.202 165.204 721.262 167.378C732.316 169.585 743.996 170.972 755.895 171.877C772.214 172.229 789.584 172.893 806.276 172.556C824.293 172.135 843.518 171.284 858.595 170.754C862.201 170.582 864.515 171.216 867.324 171.638C880.929 171.513 897.707 172.519 911.542 174.024C911.28 173.983 911.046 173.94 910.895 173.909C912.731 174.137 914.432 174.399 916.031 174.676C917.626 174.969 919.075 175.362 920.545 175.712C922 176.072 923.471 176.422 924.986 176.761C926.463 177.152 927.986 177.532 929.671 177.877C929.824 177.67 930.878 177.891 931.49 177.893C931.519 178.04 932.189 178.26 933.317 178.542C934.41 178.859 935.973 179.244 937.857 179.667C939.741 180.09 941.958 180.557 944.189 181.18C946.435 181.793 948.998 182.313 951.302 183.07C953.642 183.793 956.093 184.451 958.256 185.201C960.417 185.968 962.442 186.694 964.214 187.329C967.609 188.716 969.933 189.818 970.238 190.16C970.847 190.401 971.498 190.647 972.065 190.956C974.483 192.611 977.01 194.217 978.99 196.081C980.013 196.985 981.02 197.899 982.044 198.804C982.946 199.75 983.847 200.695 984.736 201.633C986.61 203.454 987.972 205.422 989.631 207.174C991.15 208.992 992.537 210.753 994.144 212.328C996.055 213.505 998.034 214.924 999.903 215.874C1000.08 217.342 1001.56 217.142 1002.38 218.708C1002.18 219.938 1002.27 220.934 1002.34 221.751C1002.41 222.569 1002.62 223.188 1002.88 223.575C1003.38 224.348 1004.07 224.247 1004.13 223.06C1004.67 223.831 1005.19 224.612 1005.63 225.405C1005.99 226.221 1006.35 227.036 1006.69 227.828C1007.44 229.424 1007.79 231.046 1008.32 232.533C1009.08 233.857 1009.51 235.235 1010.09 236.62C1010.62 237.794 1010.22 238.56 1009.42 239.317C1009.78 240.856 1009.71 241.427 1009.57 242.028C1009.44 242.619 1009.15 243.263 1008.86 244.941C1008.2 245.41 1008.73 247.415 1008.84 249.495C1008.92 250.534 1009.19 251.577 1009.11 252.437C1009.07 253.286 1009.01 253.947 1008.85 254.188L1008.84 253.646C1008.49 254.629 1008.05 255.52 1007.55 256.374C1006.93 257.219 1006.28 258.025 1005.65 258.804C1004.98 259.586 1004.45 260.368 1003.73 261.17C1003.04 261.97 1002.39 262.8 1001.86 263.713C998.417 268.723 994.007 273.786 988.44 278.421L986.333 280.141L985.287 280.997L984.107 281.811C982.524 282.874 981.033 283.971 979.428 285.002C977.732 285.98 976.065 286.957 974.431 287.916C972.783 288.867 971.087 289.698 969.369 290.498C969.642 290.784 970.355 290.402 971.113 290.009C971.859 289.608 972.662 289.204 973.249 289.487C965.259 293.536 955.736 296.22 946.453 298.618C944.689 298.911 942.492 299.083 941.659 299.046C938.611 299.502 940.011 299.775 937.799 300.178L937.321 299.625C934.239 300.783 932.536 299.855 929.591 300.593C929.467 300.872 928.372 301.089 927.293 301.224C927.208 300.547 924.008 301.728 924.148 301.07L924.122 301.129C923.469 301.195 923.008 301.299 922.217 301.267C921.583 301.455 918.296 302.346 914.841 303.14C911.413 303.95 907.92 304.648 907.235 304.807L906.655 304.712C904.842 304.811 903.95 305.311 904.937 305.438L902.759 305.436L903.024 305.387C902.297 305.392 901.586 305.388 900.879 305.367C900.507 305.3 900.199 304.974 900.912 304.666C899.629 304.904 898.207 305.043 897.146 304.856C900.116 305.407 904.175 305.996 907.776 306.523C906.15 306.84 903.517 306.539 901.861 306.636C900.961 306.43 899.615 306.17 898.1 305.979C896.684 305.715 895.04 305.524 893.813 305.24C893.217 305.229 892.271 306.012 891.181 305.531C890.927 304.922 889.714 305.385 888.986 304.873C890.411 304.717 891.379 305.017 892.695 305.13C892.8 304.507 889.971 304.408 889.263 304.091C888.994 304.157 888.405 304.039 887.7 303.927C886.982 303.808 886.44 303.588 885.79 303.564C886.331 303.34 886.215 303.2 885.943 303.061C885.789 302.898 885.504 302.752 885.471 302.548C884.997 302.348 884.699 302.417 884.479 302.677C884.255 302.806 884.146 302.928 884.162 303.067C884.252 303.193 884.441 303.321 884.631 303.448C884.964 303.715 885.256 303.976 884.497 304.147C884.686 303.757 883.298 303.492 883.013 303.272C882.517 303.558 882.94 303.654 882.191 303.776C881.678 303.48 880.877 303.424 881.19 303.05C881.421 303.036 881.466 303.173 881.549 303.258C881.453 303.165 881.799 303.143 882.257 303.131C882.76 303.107 883.519 303.083 884.265 303.052C885.19 302.977 885.866 302.942 886.465 302.863C887.063 302.784 887.332 302.718 886.951 302.701C886.913 302.901 885.037 303.036 883.643 303.026C883.317 303.022 882.875 303.026 882.593 303.011C882.356 302.985 882.103 302.968 881.863 302.958C881.622 302.949 881.411 302.938 881.283 302.938C881.129 302.923 881.052 302.878 881.132 302.98C881.145 303.135 880.835 303.196 880.524 303.257C880.201 303.31 879.922 303.353 880.003 303.528C880.358 303.531 880.701 303.525 881.031 303.512C881.066 303.625 881.044 303.742 880.99 303.877C880.952 304.002 880.93 304.119 880.853 304.222C880.696 304.446 880.405 304.629 880.101 304.656C879.524 304.323 881.321 304.308 882.746 304.225C883.543 304.15 884.353 304.082 884.83 304.044C885.355 303.977 885.592 303.93 885.138 303.926L885.522 304.222C885.305 304.244 885.049 304.244 884.738 304.23C884.472 304.206 884.241 304.147 884.011 304.088C883.552 303.952 883.072 303.786 883.238 303.512C882.796 303.811 882.171 303.654 881.591 303.559L881.601 303.435C881.136 303.333 880.79 302.985 880.252 303.414C881.138 304.073 879.611 304.614 877.78 304.886C875.942 305.192 873.732 305.209 875.179 306.654C875.126 305.811 875.571 305.791 876.132 306.059C876.389 306.207 876.796 306.387 877.258 306.579C877.735 306.763 878.094 307.044 878.665 307.188C878.607 307.34 878.675 307.582 878.945 307.886C879.214 308.189 879.638 308.581 880.465 308.874C882.054 309.2 881.64 308.832 882.104 308.712C882.71 309.118 884.431 309.501 883.83 309.893C885.498 309.656 885.717 310.521 887.504 310.556C889.096 310.496 887.562 310.33 888.724 310.207C889.829 310.309 891.143 310.44 892.414 310.564C893.708 310.646 894.945 310.732 895.854 310.814C896.39 311.216 898.348 311.921 896.466 312.534C892.876 312.401 898.242 311.583 894.463 311.618C895.65 312.561 891.059 311.776 890.038 312.351C890.993 312.865 893.472 312.93 895.561 312.879L895.198 312.763C896.134 312.711 897.527 312.648 898.907 312.65C900.291 312.636 901.677 312.68 902.603 312.9C902.044 313.224 902.841 313.444 901.455 313.549C902.294 313.553 903.146 313.565 904.004 313.543C904.353 313.43 904.718 313.309 904.013 313.271C905.294 312.976 906.457 313.075 907.341 313.216C907.44 313.366 910.94 312.856 914.292 312.224C917.657 311.599 920.868 310.886 920.66 311.006C922.491 310.807 922.925 311.224 924.72 310.69C924.819 310.544 920.433 311.374 916.281 312.024C912.125 312.69 908.196 313.211 909.445 313.082C910.198 313.24 915.538 312.482 920.712 311.553C925.921 310.664 930.947 309.465 931.559 309.689C932.914 309.455 934.54 309.064 934.162 308.809C936.473 308.555 933.58 309.544 935.271 309.56C935.297 309.501 935.098 309.423 935.639 309.348C936.2 309.394 936.738 309.41 937.301 309.439C940.755 308.275 946.205 307.691 949.577 306.055C948.679 306.662 947.735 307.577 945.418 308.456L944.931 308.396C944.624 308.588 942.653 309.149 942.81 309.443C945.205 309.127 947.203 308.581 949.475 307.639C949.952 307.601 950.519 307.54 950.919 307.531C950.884 307.492 950.829 307.479 950.826 307.422C951.713 307.398 951.646 307.452 951.409 307.648C951.374 307.683 951.339 307.718 951.275 307.755C952.21 308 954.438 307.217 956.889 306.231C959.354 305.253 962.016 304.057 964.193 303.54C965.265 302.995 964.199 303.359 965.527 302.667C969.832 301.44 972.876 300.556 977.104 298.841C978.018 297.928 977.934 297.769 975.994 298.164C977.057 297.743 978.055 297.285 979.079 296.842C978.267 297.888 979.922 297.421 981.526 296.925C983.117 296.421 984.711 295.901 983.807 297.059C984.36 296.917 985.128 296.622 985.916 296.227C986.661 295.826 987.454 295.324 988.139 294.795C987.991 294.525 987.747 294.089 989.701 292.946C992.828 291.555 992.117 291.921 994.629 290.693C995.564 290.568 994.979 291.172 995.399 291.285C998.097 288.78 999.258 289.783 1002.28 287.577C1003.93 286.108 1007.36 283.285 1006.54 282.943C1008.82 281.047 1009.38 281.184 1009.96 281.608L1009.94 281.486Z" fill="#2DA6DA"/>
<path d="M808.854 228.73L808.838 228.961L809.048 229.729C810.532 230.308 810.955 232.123 811.571 234.491C811.93 234.403 812.227 234.113 812.725 234.862C813.613 238.644 813.548 236.667 815.471 239.052C815.095 238.262 814.542 237.278 814.705 236.799C815.621 238.417 816.463 240.049 817.485 241.636C817.806 240.769 818.292 240.015 819.276 240.676C820.411 239.798 822.915 240.929 824.702 241.112C824.435 240.2 824.248 239.464 824.276 239.092C824.926 239.043 825.625 239.779 826.265 240.758C826.669 241.398 827.068 242.145 827.393 242.831C827.376 242.397 827.346 241.955 827.708 242.071L826.191 239.201C826.287 239.071 826.431 239.136 826.633 239.271L825.902 238.627L825.846 239.297C825.679 239.57 825.288 239.234 824.91 238.904C824.409 238.172 824.591 237.889 824.586 237.462L823.213 236.078C821.845 235.787 824.538 240.333 822.333 238.082L822.226 237.225C821.41 236.127 820.667 234.571 819.571 233.975C820.327 232.472 817.159 230.866 818.801 230.244C817.767 225.51 814.284 219.805 814.88 214.738C813.463 214.178 811.12 214.672 809.131 212.933C809.216 212.484 809.241 211.833 809.568 211.985L808.563 210.684C808.776 211.509 809.127 212.506 808.759 213.014C807.631 210.867 808.012 214.245 807.314 214.174L805.87 211.217L805.704 211.639C806.686 217.247 807.241 222.998 808.693 228.601L808.812 228.725L808.854 228.73Z" fill="#2DA6DA"/>
<path d="M814.966 130.164L813.586 130.457C811.011 118.72 808.341 105.913 803.643 92.7656C798.97 79.6333 792.228 66.0818 781.333 53.4762C770.506 40.8909 755.559 29.159 735.55 20.3785C725.591 16.0141 714.403 12.3441 702.1 9.82166C689.857 7.27888 676.672 5.87258 663.137 5.55692C664.48 4.55936 665.833 3.58585 667.208 2.64378C651.98 2.92054 635.383 4.47588 619.42 7.48673C611.429 8.93114 603.615 10.9396 596.259 13.0833C592.607 14.2439 589.051 15.4231 585.643 16.6504C583.979 17.315 582.331 17.9703 580.699 18.6164C579.092 19.2772 577.482 19.8808 576.004 20.6157C577.694 20.0399 579.455 19.6158 581.183 19.1362L586.388 17.7455C584.296 18.8646 581.288 20.1569 577.867 21.6727C574.536 23.3142 570.587 24.9128 566.844 26.9258C564.949 27.9008 562.978 28.8314 561.068 29.8156C559.261 30.8591 557.415 31.8804 555.617 32.8739C554.711 33.367 553.822 33.8509 552.948 34.3255C552.126 34.8297 551.317 35.3413 550.527 35.8271C548.947 36.7986 547.405 37.7184 545.936 38.5513L546.136 37.4291C553.617 32.4585 553.557 32.7006 551.659 33.3225C549.934 34.0074 546.715 35.3624 548.788 32.6994C549.543 32.0269 550.509 31.4396 551.356 30.8022L549.157 31.5089C548.281 32.1481 547.523 32.8373 546.718 33.4802C546.55 33.0141 545.624 32.7935 548.221 31.0424C546.855 31.7866 545.582 32.5661 544.254 33.3325C541.582 34.283 539.402 34.9639 537.638 35.4046C535.913 35.8676 534.626 36.1219 533.553 36.1489C531.433 36.2178 530.359 35.5053 529.412 34.497C528.51 35.3432 529.357 35.684 529.176 36.5584C529.093 36.991 528.742 37.564 527.799 38.4046C527.335 38.8203 526.715 39.3117 525.909 39.8807C525.158 40.4626 524.256 41.1609 523.123 41.9479L523.131 40.7146C520.836 43.4163 518.35 46.0069 516.606 48.7311L511.699 51.7713C509.847 54.6914 509.265 56.6268 506.375 59.391L508.235 60.6125C502.956 66.8732 499.592 74.2945 497.815 81.5985C495.905 88.9357 496.191 96.1005 496.617 102.533C498.268 103.653 498.439 106.042 499.556 108.847C499.791 109.556 500.049 110.295 500.316 111.059C500.458 111.436 500.596 111.83 500.78 112.213C501.008 112.585 501.265 112.955 501.506 113.334C502.514 114.84 503.75 116.347 505.335 117.743C505.624 116.524 505.952 115.328 506.292 114.14C506.207 113.167 505.958 112.082 505.568 110.915C505.342 109.713 505.064 108.407 504.67 107.035C504.458 106.358 504.251 105.648 504.032 104.931C503.842 104.211 503.776 103.435 503.624 102.663C503.407 101.116 502.91 99.5365 502.814 97.8742C501.982 91.2619 503.309 83.7727 506.241 77.7267L507.574 78.2009C507.234 79.4635 507.402 80.5212 507.414 81.6546C507.397 82.7899 507.239 83.9916 506.458 85.5534C507.272 85.7647 508.159 85.9631 509.047 86.1615C511.625 84.7321 513.261 82.7955 514.077 80.6069C514.414 79.5088 514.95 78.3407 515.21 77.1242C515.541 75.9115 515.667 74.6544 515.879 73.3917C516.19 72.1309 516.444 70.8738 516.695 69.6333C516.917 68.3947 517.129 67.2059 517.578 66.1172C518.378 63.9378 519.127 62.0986 520.24 61.1157C525.1 56.9773 525.132 58.6764 524.499 60.7302C524.103 61.758 523.766 62.93 523.617 63.564C523.452 64.2074 523.497 64.3442 524.103 63.3277C522.54 68.169 525.528 66.3109 529.384 63.1074C531.434 61.539 533.932 59.638 536.212 57.907C538.675 56.2631 540.965 54.852 542.476 54.1725C542.923 53.914 543.4 53.6536 543.851 53.3784C544.357 53.1162 544.865 52.8373 545.387 52.5658C546.42 51.9989 547.46 51.3987 548.506 50.7652C549.578 50.1465 550.528 49.4204 551.705 48.7704C552.857 48.1055 554.04 47.4222 555.205 46.6907C559.817 43.7761 565.25 40.8176 570.9 37.911C571.572 37.5232 572.331 37.2038 573.092 36.8678L575.319 35.8634C576.826 35.2006 578.247 34.4694 579.806 33.8362C582.996 32.6309 586.046 31.2702 589.314 30.2572C590.924 29.7276 592.473 29.1444 594.06 28.6573C595.658 28.1942 597.239 27.7404 598.775 27.2977C599.544 27.0763 600.312 26.8549 601.051 26.6354C601.826 26.4547 602.572 26.2758 603.318 26.0969C604.806 25.7558 606.253 25.4092 607.64 25.0828C616.739 22.2284 627.474 20.281 638.5 19.4986C649.528 18.6996 660.796 19.036 671.243 20.3203C681.721 21.5862 691.369 23.776 699.704 26.4272C708.094 29.0914 715.441 32.2245 721.83 35.1555C727.668 38.1379 736.843 41.2371 744.236 45.0987C751.622 48.9197 757.047 53.3995 755.912 57.5644C760.537 62.8756 764.452 68.4786 767.66 74.2826L765.943 74.3998C768.574 78.5228 771.228 82.7512 773.629 87.1846C776.107 91.5885 778.447 96.1162 780.502 100.72C784.735 109.886 787.991 119.319 790.058 128.195C791.649 135.984 795.906 137.777 792.007 142.101C791.029 158.361 798.194 176.57 801.196 192.192C802.576 191.899 804.373 193.823 804.681 190.787C801.701 183.046 804.244 173.211 807.999 172.332L807.957 175.392L810.466 169.545L808.906 166.299C809.756 165.275 810.437 164.764 811.036 164.611C811.786 158.506 814.671 152.857 816.304 146.376C814.823 142.197 814.077 137.296 814.979 130.171L814.966 130.164Z" fill="#2DA6DA"/>
<path d="M753.246 118.395L753.191 118.16L752.69 117.427C750.89 117.016 750.018 115.238 748.345 113.035C748.022 113.163 747.834 113.479 746.993 112.809C745.84 111.016 745.404 110.617 744.92 110.393C744.449 110.176 743.946 110.126 742.4 109.123C743.148 109.831 744.152 110.688 744.188 111.171C742.507 109.757 740.964 108.294 739.158 106.937C739.236 107.795 739.103 108.568 737.77 108.094C737.016 109.062 733.873 108.374 731.961 108.471C732.677 109.272 733.194 109.921 733.354 110.273C732.701 110.413 731.631 109.831 730.53 109.03C730.479 109.148 730.425 109.283 730.461 109.47C730.438 109.291 730.492 109.156 730.53 109.03C729.806 108.501 729.055 107.883 728.397 107.3C728.635 107.696 728.844 108.093 728.44 108.045L731.343 110.441C731.318 110.574 731.126 110.537 730.86 110.439L731.921 110.922L731.67 110.297C731.708 110.024 732.272 110.276 732.807 110.529C733.644 111.142 733.546 111.436 733.755 111.833L735.736 112.94C737.254 113.041 732.574 109.139 735.787 110.956L736.249 111.741C737.555 112.66 739.021 114.006 740.3 114.467C740.082 115.985 743.991 117.133 742.516 117.926C745.237 122.322 750.279 127.615 750.705 132.626C752.269 133.086 754.51 132.459 756.934 134.08C756.919 134.533 757.007 135.193 756.635 135.052L757.877 136.305C757.533 135.496 757.025 134.501 757.309 133.982C758.818 136.072 757.864 132.714 758.527 132.746C759.271 133.693 759.853 134.675 760.508 135.644L760.603 135.219C758.62 129.642 756.703 123.936 753.404 118.541L753.224 118.437L753.246 118.395Z" fill="#2DA6DA"/>
<path d="M747.894 217.603L749.29 217.375C749.973 229.478 750.473 242.769 753.827 256.396C755.598 263.236 758.385 270.053 762.241 276.712C766.187 283.348 771.42 289.73 777.696 295.792C802.977 319.935 848.42 337.71 902.544 339.96C901.159 340.952 899.803 341.868 898.383 342.821C913.531 342.665 930.116 341.546 946.268 338.662C962.408 335.846 977.951 331.3 990.223 325.844C988.488 326.357 986.763 326.894 985.034 327.374L979.736 328.655C981.89 327.59 984.981 326.383 988.379 324.762C990.107 323.986 991.941 323.179 993.861 322.367C995.701 321.453 997.614 320.526 999.572 319.588C1000.56 319.123 1001.54 318.658 1002.53 318.192C1003.5 317.703 1004.42 317.177 1005.38 316.68C1007.28 315.672 1009.16 314.689 1011.02 313.733C1012.78 312.717 1014.51 311.719 1016.17 310.776C1017.82 309.825 1019.49 308.979 1020.92 308.107C1020.85 308.49 1020.8 308.887 1020.69 309.264C1012.77 314.041 1013.08 313.939 1014.89 313.265C1016.65 312.603 1019.98 311.314 1017.72 313.94L1015.17 315.869L1017.3 315.142L1019.85 313.197C1020 313.672 1020.89 313.887 1018.24 315.608L1022.32 313.385C1025.07 312.495 1027.27 311.863 1029.01 311.39C1030.76 310.942 1032.15 310.747 1033.21 310.713C1035.36 310.659 1036.38 311.399 1037.27 312.428C1038.23 311.578 1037.4 311.228 1037.63 310.35C1037.76 309.906 1038.16 309.339 1039.07 308.483C1040.02 307.626 1041.57 306.508 1043.92 304.912L1043.83 306.151C1046.43 303.479 1048.65 300.75 1050.67 298.057C1052.3 297.041 1054 296.029 1055.59 294.967C1057.53 292.008 1058.2 290.067 1060.97 287.236L1059.14 286.013C1061.75 282.847 1063.94 279.38 1065.65 275.787C1067.34 272.203 1068.52 268.454 1069.29 264.888C1070.83 257.706 1071.38 250.677 1071.08 243.891C1069.44 242.681 1069.15 240.208 1067.59 237.037C1066.78 235.461 1065.64 233.709 1063.58 232.023C1061.54 230.345 1058.43 228.734 1054.23 227.9C1055.77 229.084 1056.98 230.322 1057.64 231.604C1059.67 233.611 1061.52 236.173 1062.69 239.082C1063.89 241.989 1064.54 245.227 1064.73 248.609C1065.12 255.373 1063.77 262.716 1060.99 268.777L1059.62 268.321C1060 265.807 1059.22 264.081 1060.61 260.968L1058.05 260.342C1052.81 263.189 1052.21 268.142 1051.35 273.202C1050.99 275.731 1050.48 278.296 1049.86 280.505C1049.17 282.71 1048.26 284.534 1047.18 285.532C1044.84 287.636 1043.61 288.24 1043.05 288.079C1042.52 287.923 1042.66 286.986 1042.93 285.942C1043.52 283.849 1044.58 281.3 1043.31 283.337C1044.16 280.908 1043.68 280.173 1042.69 280.433C1041.66 280.705 1040.02 281.976 1038 283.575C1034.05 286.818 1028.1 291.198 1024.95 292.483C1021.15 294.458 1016.95 297.059 1012.18 299.828C1011 300.535 1009.76 301.222 1008.52 301.942C1007.27 302.662 1005.81 303.355 1004.47 304.097C1003.11 304.841 1001.74 305.586 1000.34 306.348C998.86 307.043 997.401 307.752 995.925 308.47C993.072 309.999 989.81 311.201 986.77 312.585L985.606 313.095L984.396 313.542L981.992 314.426C980.389 314.996 978.84 315.653 977.233 316.166C970.787 318.244 964.468 320.026 958.84 321.098C949.708 323.897 938.909 325.734 927.822 326.315C916.742 326.936 905.422 326.422 894.835 325.056C884.186 323.711 874.404 321.48 865.3 318.976C863.06 318.33 860.929 317.635 858.772 316.999C857.696 316.673 856.632 316.355 855.581 316.043C854.581 315.688 853.565 315.341 852.578 314.993C850.572 314.315 848.62 313.65 846.71 312.991C844.867 312.277 843.075 311.594 841.29 310.951C840.473 310.609 839.594 310.286 838.659 309.968C837.771 309.622 836.841 309.27 835.867 308.929C833.934 308.238 831.781 307.586 829.589 306.911C825.432 305.417 820.683 304.042 816.747 302.286C812.57 300.669 809.14 298.726 806.542 296.82C804.053 294.866 802.761 292.753 802.975 290.734C797.678 285.737 793.097 280.489 789.531 274.921L791.257 274.754C789.793 272.801 788.563 270.742 787.079 268.74C785.839 266.658 784.586 264.568 783.336 262.461C782.786 261.386 782.252 260.302 781.706 259.211C781.143 258.129 780.536 257.058 780.152 255.932C779.299 253.685 778.197 251.553 777.513 249.163C774.347 239.856 772.598 230.129 771.982 220.963C771.649 212.922 767.77 210.867 772.249 206.638C773.949 198.312 773.65 189.348 772.409 180.468C771.201 171.571 768.971 162.803 767.184 154.846C765.801 155.156 763.937 153.212 763.734 156.29C767.004 164.161 763.859 174.239 760.052 175.015C760.137 173.974 760.234 172.941 760.274 171.911C759.387 173.874 758.372 175.837 757.431 177.787L758.687 181.134C757.767 182.154 757.047 182.644 756.451 182.78C755.118 188.955 751.6 194.57 749.108 201.073C749.981 205.381 749.975 210.42 747.974 217.631L747.894 217.603Z" fill="#2DA6DA"/>
</g>
</g>
<path fill-rule="evenodd" clip-rule="evenodd" d="M797.301 65.7575C793.382 65.7575 790.182 62.5572 790.182 58.6384C790.182 54.7197 793.382 51.5194 797.301 51.5194C801.219 51.5194 804.42 54.7197 804.42 58.6384C804.42 62.5572 801.219 65.7575 797.301 65.7575ZM839.818 78.6276C839.818 83.9179 844.128 88.2285 849.418 88.2285C854.709 88.2285 859.019 83.9179 859.019 78.6276C859.019 73.3373 854.709 69.0267 849.418 69.0267C844.128 69.0267 839.818 73.3373 839.818 78.6276ZM873.912 106.583C867.707 106.583 862.613 101.554 862.613 95.2837C862.613 89.0138 867.642 83.9847 873.912 83.9847C880.182 83.9847 885.211 89.0138 885.211 95.2837C885.211 97.1786 884.751 98.9601 883.937 100.524C885.629 99.7176 887.522 99.2664 889.521 99.2664C896.699 99.2664 902.518 105.085 902.518 112.264C902.518 119.442 896.699 125.261 889.521 125.261C882.343 125.261 876.524 119.442 876.524 112.264C876.524 109.874 877.169 107.635 878.294 105.711C876.949 106.273 875.468 106.583 873.912 106.583ZM751.517 61.3816C751.517 65.1697 754.586 68.2393 758.374 68.2393C762.163 68.2394 765.232 65.1697 765.232 61.3816C765.232 57.5935 762.163 54.5238 758.374 54.5238C754.586 54.5238 751.517 57.5934 751.517 61.3816ZM720.887 103.509C716.903 103.509 713.637 100.243 713.637 96.2593C713.637 92.2752 716.903 89.0096 720.887 89.0096C724.871 89.0096 728.137 92.2752 728.137 96.2593C728.137 100.243 724.871 103.509 720.887 103.509ZM689.731 140.35C689.731 144.726 693.323 148.318 697.699 148.318C702.075 148.318 705.667 144.726 705.667 140.35C705.667 135.974 702.075 132.382 697.699 132.382C693.323 132.382 689.731 135.974 689.731 140.35ZM684.44 182.15C679.607 182.15 675.754 178.231 675.754 173.463C675.754 168.695 679.672 164.777 684.44 164.777C689.208 164.777 693.127 168.695 693.127 173.463C693.127 178.231 689.208 182.15 684.44 182.15ZM731.27 189.851C727.482 189.851 724.412 186.78 724.412 182.993C724.412 179.205 727.482 176.135 731.27 176.135C735.057 176.135 738.128 179.205 738.128 182.993C738.128 186.78 735.057 189.851 731.27 189.851ZM776.988 124.349C773.396 124.349 770.522 121.475 770.522 117.883C770.522 114.291 773.396 111.417 776.988 111.417C780.58 111.417 783.454 114.291 783.454 117.883C783.454 121.475 780.58 124.349 776.988 124.349ZM784.759 110.827C784.759 114.681 787.894 117.816 791.748 117.816C795.601 117.816 798.736 114.681 798.736 110.827C798.736 106.974 795.601 103.839 791.748 103.839C787.894 103.839 784.759 106.974 784.759 110.827ZM787.505 146.222C783.847 146.222 780.843 143.218 780.843 139.56C780.843 135.903 783.847 132.898 787.505 132.898C791.162 132.898 794.167 135.903 794.167 139.56C794.167 143.218 791.162 146.222 787.505 146.222ZM826.364 248.763C821.639 248.763 817.808 244.932 817.808 240.207C817.808 235.481 821.639 231.651 826.364 231.651C831.089 231.651 834.92 235.481 834.92 240.207C834.92 244.932 831.089 248.763 826.364 248.763ZM851.378 262.937C846.023 262.937 841.712 258.626 841.712 253.271C841.712 247.915 846.023 243.604 851.378 243.604C856.734 243.604 861.045 247.915 861.045 253.271C861.045 258.626 856.734 262.937 851.378 262.937ZM907.874 236.292C900.768 236.292 895.008 230.531 895.008 223.425C895.008 216.319 900.768 210.559 907.874 210.559C914.98 210.559 920.741 216.319 920.741 223.425C920.741 230.531 914.98 236.292 907.874 236.292ZM892.003 192.01C892.003 199.801 898.319 206.117 906.11 206.117C913.901 206.117 920.218 199.801 920.218 192.01C920.218 184.218 913.901 177.902 906.11 177.902C898.319 177.902 892.003 184.218 892.003 192.01ZM862.092 186.195C862.092 192.988 867.578 198.474 874.37 198.474C881.163 198.474 886.649 192.988 886.649 186.195C886.649 179.403 881.163 173.916 874.37 173.916C867.578 173.916 862.092 179.403 862.092 186.195ZM885.278 223.228C878.485 223.228 872.999 217.741 872.999 210.949C872.999 204.156 878.485 198.67 885.278 198.67C892.07 198.67 897.556 204.156 897.556 210.949C897.556 217.741 892.07 223.228 885.278 223.228ZM892.917 278.806C892.917 284.423 897.424 288.93 903.04 288.93C908.657 288.93 913.164 284.423 913.164 278.806C913.164 273.189 908.657 268.683 903.04 268.683C897.424 268.683 892.917 273.189 892.917 278.806ZM875.48 350.064C869.928 350.064 865.356 345.557 865.356 339.941C865.356 334.324 869.863 329.817 875.48 329.817C881.097 329.817 885.603 334.324 885.603 339.941C885.603 345.558 881.097 350.064 875.48 350.064ZM829.238 355.096C829.238 361.758 834.658 367.179 841.32 367.179C847.982 367.179 853.403 361.758 853.403 355.096C853.403 348.434 847.982 343.014 841.32 343.014C834.658 343.014 829.238 348.434 829.238 355.096ZM775.944 373.973C767.454 373.973 760.596 367.115 760.596 358.624C760.596 350.134 767.454 343.276 775.944 343.276C784.435 343.276 791.293 350.134 791.293 358.624C791.293 367.115 784.435 373.973 775.944 373.973ZM724.607 342.75C716.744 342.75 710.369 336.375 710.369 328.512C710.369 320.648 716.744 314.274 724.607 314.274C732.471 314.274 738.845 320.648 738.845 328.512C738.845 336.375 732.471 342.75 724.607 342.75ZM690.646 303.43C684.115 303.43 678.824 298.14 678.824 291.608C678.824 285.077 684.115 279.787 690.646 279.787C697.177 279.787 702.468 285.077 702.468 291.608C702.468 298.14 697.177 303.43 690.646 303.43ZM658.579 272.083C658.579 278.092 663.477 282.99 669.486 282.99C675.495 282.99 680.393 278.092 680.393 272.083C680.393 266.074 675.495 261.176 669.486 261.176C663.477 261.176 658.579 266.074 658.579 272.083ZM651.849 243.543C646.102 243.543 641.465 238.905 641.465 233.158C641.465 227.41 646.102 222.773 651.849 222.773C656.412 222.773 660.274 225.695 661.673 229.774C661.613 229.322 661.582 228.86 661.582 228.39C661.582 222.708 666.153 218.136 671.836 218.136C677.518 218.136 682.09 222.708 682.09 228.39C682.09 234.072 677.518 238.644 671.836 238.644C667.331 238.644 663.525 235.771 662.14 231.75C662.202 232.21 662.234 232.68 662.234 233.158C662.234 238.905 657.597 243.543 651.849 243.543ZM752.692 265.877C752.692 271.287 757.078 275.674 762.489 275.674C767.9 275.674 772.286 271.287 772.286 265.877C772.286 260.466 767.9 256.08 762.489 256.08C757.078 256.08 752.692 260.466 752.692 265.877ZM782.147 272.34C782.147 277.826 786.588 282.267 792.074 282.267C797.56 282.267 802.002 277.826 802.002 272.34C802.002 266.854 797.56 262.412 792.074 262.412C786.588 262.412 782.147 266.854 782.147 272.34ZM780.385 304.082C780.385 310.864 785.882 316.361 792.663 316.361C793.278 316.361 793.881 316.316 794.471 316.229C788.753 317.857 784.565 323.119 784.565 329.359C784.565 336.898 790.677 343.009 798.216 343.009C805.755 343.009 811.866 336.898 811.866 329.359C811.866 321.82 805.755 315.709 798.216 315.709C797.501 315.709 796.799 315.764 796.113 315.87C801.215 314.379 804.942 309.666 804.942 304.082C804.942 297.301 799.445 291.804 792.663 291.804C785.882 291.804 780.385 297.301 780.385 304.082Z" fill="url(#paint1_radial_32_100)" fill-opacity="0.3" style="mix-blend-mode:color-dodge"/>
<circle opacity="0.3" cx="769.5" cy="317.5" r="266.5" fill="url(#paint2_radial_32_100)"/>
</g>
<defs>
<filter id="filter0_f_32_100" x="-148.9" y="-26.3193" width="400.434" height="448.251" filterUnits="userSpaceOnUse" color-interpolation-filters="sRGB">
<feFlood flood-opacity="0" result="BackgroundImageFix"/>
<feBlend mode="normal" in="SourceGraphic" in2="BackgroundImageFix" result="shape"/>
<feGaussianBlur stdDeviation="1.45" result="effect1_foregroundBlur_32_100"/>
</filter>
<linearGradient id="paint0_linear_32_100" x1="775.708" y1="355.504" x2="775.708" y2="193.527" gradientUnits="userSpaceOnUse">
<stop stop-color="#5C49EA"/>
<stop offset="0.5" stop-color="#3DAFE9"/>
<stop offset="1" stop-color="#94FFED"/>
</linearGradient>
<radialGradient id="paint1_radial_32_100" cx="0" cy="0" r="1" gradientUnits="userSpaceOnUse" gradientTransform="translate(781.298 199.42) rotate(90.0642) scale(174.552 151.179)">
<stop stop-color="white"/>
<stop offset="1" stop-color="#999999" stop-opacity="0"/>
</radialGradient>
<radialGradient id="paint2_radial_32_100" cx="0" cy="0" r="1" gradientUnits="userSpaceOnUse" gradientTransform="translate(769.5 317.5) rotate(90) scale(266.5)">
<stop stop-color="#FFF6D3"/>
<stop offset="1" stop-color="#737373" stop-opacity="0"/>
</radialGradient>
<clipPath id="clip0_32_100">
<rect width="1200" height="612" fill="white" transform="translate(0 0.428078)"/>
</clipPath>
<clipPath id="clip1_32_100">
<rect width="387.109" height="330.838" fill="white" transform="translate(576.321 169.229)"/>
</clipPath>
<clipPath id="clip2_32_100">
<rect width="96.0497" height="162.023" fill="white" transform="translate(727.672 193.484)"/>
</clipPath>
<clipPath id="clip3_32_100">
<rect width="571.138" height="255.863" fill="white" transform="matrix(0.866044 0.499967 -0.866044 0.499967 645.589 -32.5719)"/>
</clipPath>
</defs>
</svg>
