<svg width="56" height="57" viewBox="0 0 56 57" fill="none" xmlns="http://www.w3.org/2000/svg">
<g clip-path="url(#clip0_2025_935)">
<g clip-path="url(#clip1_2025_935)">
<path d="M28.6612 21.9098C28.296 21.5446 27.704 21.5446 27.3388 21.9098C26.9738 22.2747 26.9735 22.8664 27.3382 23.2316L30.2059 26.1046C30.835 26.7348 30.3887 27.811 29.4982 27.811H21.4375C20.9197 27.811 20.5 28.2308 20.5 28.7485C20.5 29.2663 20.9197 29.686 21.4375 29.686H29.4982C30.3887 29.686 30.835 30.7623 30.2059 31.3925L27.3382 34.2654C26.9735 34.6307 26.9738 35.2223 27.3388 35.5873C27.7039 35.9525 28.2961 35.9525 28.6612 35.5873L34.7929 29.4556C35.1834 29.0651 35.1834 28.432 34.7929 28.0414L28.6612 21.9098Z" fill="#F2F2F2"/>
</g>
</g>
<rect x="0.5" y="1.24854" width="55" height="55" rx="27.5" stroke="#F2F2F2"/>
<defs>
<clipPath id="clip0_2025_935">
<rect y="0.748535" width="56" height="56" rx="28" fill="white"/>
</clipPath>
<clipPath id="clip1_2025_935">
<rect width="15" height="15" fill="white" transform="translate(20.5 21.2485)"/>
</clipPath>
</defs>
</svg>
