<svg width="56" height="57" viewBox="0 0 56 57" fill="none" xmlns="http://www.w3.org/2000/svg">
<g clip-path="url(#clip0_2025_931)">
<g clip-path="url(#clip1_2025_931)">
<path d="M27.3388 35.5873C27.7039 35.9525 28.296 35.9525 28.6612 35.5873C29.0262 35.2223 29.0265 34.6307 28.6618 34.2654L25.7941 31.3925C25.165 30.7623 25.6113 29.686 26.5018 29.686H34.5625C35.0803 29.686 35.5 29.2663 35.5 28.7485C35.5 28.2308 35.0803 27.811 34.5625 27.811H26.5018C25.6113 27.811 25.1649 26.7348 25.794 26.1046L28.6618 23.2316C29.0265 22.8664 29.0262 22.2747 28.6612 21.9098C28.296 21.5446 27.704 21.5446 27.3388 21.9098L21.2071 28.0414C20.8166 28.432 20.8166 29.0651 21.2071 29.4556L27.3388 35.5873Z" fill="#F2F2F2"/>
</g>
</g>
<rect x="0.5" y="1.24854" width="55" height="55" rx="27.5" stroke="#F2F2F2"/>
<defs>
<clipPath id="clip0_2025_931">
<rect y="0.748535" width="56" height="56" rx="28" fill="white"/>
</clipPath>
<clipPath id="clip1_2025_931">
<rect width="15" height="15" fill="white" transform="translate(20.5 21.2485)"/>
</clipPath>
</defs>
</svg>
