<svg width="209" height="137" viewBox="0 0 209 137" fill="none" xmlns="http://www.w3.org/2000/svg">
<g filter="url(#filter0_d_2025_832)">
<path d="M26.1402 26.4892C26.8766 25.2137 28.5075 24.7767 29.7829 25.5131C31.0584 26.2495 31.4954 27.8804 30.759 29.1558C30.0226 30.4313 28.3917 30.8683 27.1163 30.1319C25.8408 29.3955 25.4038 27.7646 26.1402 26.4892ZM195.753 124.415C196.489 123.14 198.12 122.703 199.396 123.439C200.671 124.176 201.108 125.806 200.372 127.082C199.635 128.357 198.005 128.794 196.729 128.058C195.454 127.322 195.017 125.691 195.753 124.415ZM28.6996 27.3895L198.312 125.316L197.812 126.182L28.1996 28.2555L28.6996 27.3895Z" fill="white"/>
<path d="M180.47 18.463C181.239 19.7192 180.844 21.3607 179.588 22.1296C178.332 22.8985 176.691 22.5035 175.922 21.2474C175.153 19.9913 175.548 18.3497 176.804 17.5808C178.06 16.8119 179.702 17.2069 180.47 18.463ZM74.1298 83.5553C74.8987 84.8114 74.5037 86.453 73.2476 87.2219C71.9915 87.9908 70.3499 87.5958 69.581 86.3397C68.8121 85.0836 69.2071 83.442 70.4632 82.6731C71.7194 81.9042 73.361 82.2992 74.1298 83.5553ZM178.457 20.2817L72.1165 85.374L71.5944 84.5211L177.935 19.4288L178.457 20.2817Z" fill="white"/>
<path d="M184.855 93.5882C183.878 94.6897 182.192 94.7902 181.091 93.8126C179.989 92.8351 179.889 91.1496 180.866 90.0481C181.844 88.9465 183.529 88.846 184.631 89.8236C185.732 90.8012 185.833 92.4866 184.855 93.5882ZM135.208 49.5279C134.23 50.6294 132.545 50.7299 131.443 49.7523C130.342 48.7748 130.241 47.0893 131.219 45.9878C132.196 44.8862 133.882 44.7857 134.983 45.7633C136.085 46.7409 136.185 48.4263 135.208 49.5279ZM182.529 92.1921L132.881 48.1318L133.545 47.3838L183.193 91.4441L182.529 92.1921Z" fill="white"/>
<circle cx="19.5081" cy="19.5081" r="19.0081" transform="matrix(-1 -2.62268e-07 -2.62268e-07 1 47.9537 8.30957)" stroke="white"/>
</g>
<defs>
<filter id="filter0_d_2025_832" x="0.9375" y="0.30957" width="207.792" height="136.106" filterUnits="userSpaceOnUse" color-interpolation-filters="sRGB">
<feFlood flood-opacity="0" result="BackgroundImageFix"/>
<feColorMatrix in="SourceAlpha" type="matrix" values="0 0 0 0 0 0 0 0 0 0 0 0 0 0 0 0 0 0 127 0" result="hardAlpha"/>
<feOffset/>
<feGaussianBlur stdDeviation="4"/>
<feComposite in2="hardAlpha" operator="out"/>
<feColorMatrix type="matrix" values="0 0 0 0 1 0 0 0 0 1 0 0 0 0 1 0 0 0 0.5 0"/>
<feBlend mode="normal" in2="BackgroundImageFix" result="effect1_dropShadow_2025_832"/>
<feBlend mode="normal" in="SourceGraphic" in2="effect1_dropShadow_2025_832" result="shape"/>
</filter>
</defs>
</svg>
