<svg width="209" height="168" viewBox="0 0 209 168" fill="none" xmlns="http://www.w3.org/2000/svg">
<g filter="url(#filter0_d_2025_791)">
<path d="M200.416 42.8894C200.416 41.4166 199.223 40.2227 197.75 40.2227C196.277 40.2227 195.083 41.4166 195.083 42.8894C195.083 44.3622 196.277 45.5561 197.75 45.5561C199.223 45.5561 200.416 44.3622 200.416 42.8894ZM132.548 42.8894C132.548 41.4166 131.354 40.2227 129.881 40.2227C128.408 40.2227 127.214 41.4166 127.214 42.8894C127.214 44.3622 128.408 45.5561 129.881 45.5561C131.354 45.5561 132.548 44.3622 132.548 42.8894ZM168.88 9.6514L169.258 9.32352L168.933 8.94955L168.556 9.27085L168.88 9.6514ZM198.127 42.5615L169.258 9.32352L168.503 9.97927L197.372 43.2173L198.127 42.5615ZM168.556 9.27085L129.557 42.5089L130.205 43.2699L169.204 10.0319L168.556 9.27085Z" fill="white"/>
<circle cx="10.5037" cy="10.5037" r="10.5037" transform="matrix(1.31134e-07 -1 -1 -1.31134e-07 96.153 56.7837)" fill="white"/>
<circle cx="10.5037" cy="10.5037" r="10.5037" transform="matrix(1.31134e-07 -1 -1 -1.31134e-07 29.2572 123.677)" fill="white"/>
<path d="M85.2596 45.8865L101.139 140.298L18.3639 112.782" stroke="white"/>
<circle cx="12.4351" cy="12.4351" r="11.9351" transform="matrix(1.31134e-07 -1 -1 -1.31134e-07 142.319 55.323)" stroke="white"/>
</g>
<defs>
<filter id="filter0_d_2025_791" x="0.249756" y="0.949463" width="208.167" height="148.085" filterUnits="userSpaceOnUse" color-interpolation-filters="sRGB">
<feFlood flood-opacity="0" result="BackgroundImageFix"/>
<feColorMatrix in="SourceAlpha" type="matrix" values="0 0 0 0 0 0 0 0 0 0 0 0 0 0 0 0 0 0 127 0" result="hardAlpha"/>
<feOffset/>
<feGaussianBlur stdDeviation="4"/>
<feComposite in2="hardAlpha" operator="out"/>
<feColorMatrix type="matrix" values="0 0 0 0 1 0 0 0 0 1 0 0 0 0 1 0 0 0 0.5 0"/>
<feBlend mode="normal" in2="BackgroundImageFix" result="effect1_dropShadow_2025_791"/>
<feBlend mode="normal" in="SourceGraphic" in2="effect1_dropShadow_2025_791" result="shape"/>
</filter>
</defs>
</svg>
