<svg width="200" height="190" viewBox="0 0 200 190" fill="none" xmlns="http://www.w3.org/2000/svg">
<g filter="url(#filter0_d_2025_776)">
<path d="M43.1729 155.577C42.1328 154.534 42.1328 152.844 43.1729 151.801C44.2129 150.758 45.8991 150.758 46.9391 151.801C47.9791 152.844 47.9791 154.534 46.9391 155.577C45.8991 156.62 44.2129 156.62 43.1729 155.577ZM187.367 83.4794C186.327 82.4367 186.327 80.746 187.367 79.7032C188.407 78.6604 190.093 78.6604 191.133 79.7032C192.173 80.746 192.173 82.4367 191.133 83.4794C190.093 84.5222 188.407 84.5222 187.367 83.4794ZM51.7909 57.0867L51.2927 57.0518L51.3143 56.7421L51.6006 56.6239L51.7909 57.0867ZM113.35 31.6498L113.16 31.1869L113.403 31.0862L113.624 31.2312L113.35 31.6498ZM44.5579 153.654L51.2927 57.0518L52.289 57.1217L45.5541 153.724L44.5579 153.654ZM51.6006 56.6239L113.16 31.1869L113.54 32.1127L51.9811 57.5496L51.6006 56.6239ZM113.624 31.2312L189.524 81.1727L188.976 82.0099L113.076 32.0684L113.624 31.2312Z" fill="white"/>
<path d="M67.5938 162.56C66.7682 161.341 67.0859 159.68 68.3034 158.852C69.5209 158.023 71.1772 158.34 72.0029 159.559C72.8285 160.779 72.5108 162.439 71.2933 163.268C70.0758 164.097 68.4194 163.78 67.5938 162.56ZM131.089 119.346C130.264 118.127 130.581 116.466 131.799 115.638C133.016 114.809 134.673 115.126 135.498 116.346C136.324 117.565 136.006 119.226 134.789 120.054C133.571 120.883 131.915 120.566 131.089 119.346ZM69.518 160.646L133.014 117.432L133.574 118.26L70.0786 161.474L69.518 160.646Z" fill="white"/>
<ellipse cx="3.24546" cy="3.25404" rx="3.24546" ry="3.25404" transform="matrix(1 1.75308e-07 1.74384e-07 -1 85.874 151.33)" fill="white"/>
<ellipse cx="6.50793" cy="6.49107" rx="6.50793" ry="6.49107" transform="matrix(-0.0946056 -0.995515 -0.995467 0.0951023 152.557 37.6833)" fill="white"/>
<ellipse cx="6.50793" cy="6.49107" rx="6.50793" ry="6.49107" transform="matrix(-0.0946056 -0.995515 -0.995467 0.0951023 115.329 82.8779)" fill="white"/>
<line y1="-0.5" x2="58.5396" y2="-0.5" transform="matrix(-0.636005 0.772008 0.769971 0.637688 145.483 31.8218)" stroke="white"/>
</g>
<defs>
<filter id="filter0_d_2025_776" x="34.3928" y="17.3135" width="165.52" height="154.416" filterUnits="userSpaceOnUse" color-interpolation-filters="sRGB">
<feFlood flood-opacity="0" result="BackgroundImageFix"/>
<feColorMatrix in="SourceAlpha" type="matrix" values="0 0 0 0 0 0 0 0 0 0 0 0 0 0 0 0 0 0 127 0" result="hardAlpha"/>
<feOffset/>
<feGaussianBlur stdDeviation="4"/>
<feComposite in2="hardAlpha" operator="out"/>
<feColorMatrix type="matrix" values="0 0 0 0 1 0 0 0 0 1 0 0 0 0 1 0 0 0 0.5 0"/>
<feBlend mode="normal" in2="BackgroundImageFix" result="effect1_dropShadow_2025_776"/>
<feBlend mode="normal" in="SourceGraphic" in2="effect1_dropShadow_2025_776" result="shape"/>
</filter>
</defs>
</svg>
