<svg width="220" height="166" viewBox="0 0 220 166" fill="none" xmlns="http://www.w3.org/2000/svg">
<g filter="url(#filter0_d_2025_821)">
<path d="M211.005 149.34C211.843 148.129 211.541 146.468 210.33 145.63C209.119 144.791 207.458 145.094 206.62 146.304C205.782 147.515 206.084 149.177 207.295 150.015C208.506 150.853 210.167 150.551 211.005 149.34ZM13.2551 12.4456C14.0933 11.2347 13.7913 9.57346 12.5803 8.73519C11.3694 7.89692 9.70823 8.19902 8.86996 9.40993C8.03169 10.6209 8.33377 12.282 9.54469 13.1203C10.7556 13.9586 12.4168 13.6565 13.2551 12.4456ZM209.097 147.411L11.3471 10.5166L10.7779 11.3389L208.528 148.233L209.097 147.411Z" fill="white"/>
<path d="M29.4509 64.986C28.6821 66.2421 29.077 67.8837 30.3332 68.6526C31.5893 69.4215 33.2309 69.0265 33.9997 67.7704C34.7686 66.5142 34.3737 64.8727 33.1175 64.1038C31.8614 63.3349 30.2198 63.7299 29.4509 64.986ZM160.039 144.921C159.27 146.177 159.665 147.818 160.922 148.587C162.178 149.356 163.819 148.961 164.588 147.705C165.357 146.449 164.962 144.807 163.706 144.039C162.45 143.27 160.808 143.665 160.039 144.921ZM31.4643 66.8046L162.053 146.739L162.575 145.886L31.9864 65.9517L31.4643 66.8046Z" fill="white"/>
<path d="M24.0011 156.519C24.9787 157.62 26.6641 157.721 27.7656 156.743C28.8672 155.766 28.9677 154.08 27.9901 152.979C27.0125 151.877 25.3271 151.777 24.2256 152.754C23.124 153.732 23.0235 155.417 24.0011 156.519ZM84.9694 102.412C85.947 103.513 87.6324 103.614 88.7339 102.636C89.8355 101.659 89.936 99.9734 88.9584 98.8718C87.9808 97.7703 86.2954 97.6698 85.1939 98.6474C84.0923 99.6249 83.9918 101.31 84.9694 102.412ZM26.3275 155.123L87.2958 101.016L86.632 100.268L25.6637 154.375L26.3275 155.123Z" fill="white"/>
</g>
<defs>
<filter id="filter0_d_2025_821" x="0.39563" y="0.260742" width="219.084" height="165.155" filterUnits="userSpaceOnUse" color-interpolation-filters="sRGB">
<feFlood flood-opacity="0" result="BackgroundImageFix"/>
<feColorMatrix in="SourceAlpha" type="matrix" values="0 0 0 0 0 0 0 0 0 0 0 0 0 0 0 0 0 0 127 0" result="hardAlpha"/>
<feOffset/>
<feGaussianBlur stdDeviation="4"/>
<feComposite in2="hardAlpha" operator="out"/>
<feColorMatrix type="matrix" values="0 0 0 0 1 0 0 0 0 1 0 0 0 0 1 0 0 0 0.5 0"/>
<feBlend mode="normal" in2="BackgroundImageFix" result="effect1_dropShadow_2025_821"/>
<feBlend mode="normal" in="SourceGraphic" in2="effect1_dropShadow_2025_821" result="shape"/>
</filter>
</defs>
</svg>
