<svg width="143" height="22" viewBox="0 0 143 22" fill="none" xmlns="http://www.w3.org/2000/svg">
<g clip-path="url(#clip0_6_1430)">
<path d="M86.0532 0.777457C85.5446 0.817979 84.4682 0.796908 83.9036 0.753144C83.4049 0.717485 82.944 0.869847 82.6049 1.18105C82.2264 1.52792 82.1144 1.95259 82.0815 2.27028C82.047 1.95907 81.935 1.54413 81.5647 1.20375C81.326 0.984929 80.9047 0.732073 80.2479 0.779078C79.7393 0.8196 78.6629 0.798529 78.0983 0.754765C77.5996 0.720727 77.1387 0.871468 76.7996 1.18267C76.421 1.52954 76.3091 1.95421 76.2762 2.2719C76.2416 1.96069 76.1297 1.54575 75.7594 1.20537C75.5207 0.98655 75.0993 0.733694 74.4426 0.780699C73.934 0.821221 72.8575 0.800149 72.293 0.756386C71.7942 0.720727 71.3334 0.873089 70.9943 1.1843C70.4561 1.67704 70.4561 2.32863 70.4561 2.6058V15.8451C70.4561 16.8614 71.1951 17.8987 72.7176 19.0171C73.3036 19.4483 74.7734 20.45 75.7594 20.45C76.4638 20.45 77.2523 20.0593 78.7501 19.1824C79.522 19.7173 80.7351 20.45 81.5663 20.45C82.0947 20.45 82.6938 20.2879 86.5651 18.0462C86.7297 17.9506 86.845 17.8841 86.8861 17.8614L86.9091 17.8485C87.5231 17.5032 87.9033 16.8273 87.9033 16.0817V2.60256C87.9033 2.33025 87.9033 1.69001 87.3717 1.20375C87.133 0.984929 86.7133 0.732073 86.0549 0.779078L86.0532 0.777457ZM86.2014 16.7576C85.9364 16.9003 82.1062 19.1776 81.5515 19.1776C81.2141 19.1776 80.2265 18.6557 79.3344 18.0154C79.0941 17.8258 78.9246 17.6831 78.8044 17.6831C78.6118 17.6831 76.4194 19.1776 75.7445 19.1776C75.0697 19.1776 71.842 17.1612 71.842 15.9504V2.71278C71.842 2.45182 71.842 2.21517 72.1794 2.23786C72.7818 2.28487 73.9389 2.30918 74.5397 2.26217C74.8771 2.23786 74.8771 2.45182 74.8771 2.71278V15.0735C74.8771 15.9277 76.7799 16.9959 77.3346 16.9959C77.5518 16.9959 77.6473 16.8776 77.6473 16.6636V2.71278C77.6473 2.45182 77.6473 2.21517 77.9847 2.23786C78.5871 2.28487 79.7443 2.30918 80.345 2.26217C80.6825 2.23786 80.6825 2.45182 80.6825 2.71278V15.0735C80.6825 15.9277 82.5852 16.9959 83.1399 16.9959C83.3571 16.9959 83.4526 16.8776 83.4526 16.6636V2.71278C83.4526 2.45182 83.4526 2.21517 83.79 2.23786C84.3925 2.28487 85.5496 2.30918 86.152 2.26217C86.4894 2.23786 86.4894 2.45182 86.4894 2.71278V16.1887C86.4894 16.4497 86.3693 16.6636 86.1997 16.7576H86.2014Z" fill="white"/>
<path d="M106.317 13.9828H108.364C108.46 13.9828 108.509 13.9358 108.509 13.8402V10.6617C108.509 10.0684 106.894 8.83496 106.485 8.83496C106.292 8.83496 106.172 8.9776 106.172 9.23856V13.8418C106.172 13.9131 106.22 13.9845 106.317 13.9845V13.9828Z" fill="white"/>
<path d="M116.846 13.0817L117.738 12.7251C118.485 12.4398 119.087 11.6099 119.087 10.6131C119.087 9.37962 117.377 8.4541 116.895 8.4541C116.678 8.4541 116.605 8.59674 116.605 8.95171V12.8434C116.605 13.0331 116.702 13.1287 116.846 13.0801V13.0817Z" fill="white"/>
<path d="M126.939 16.7821H128.914C129.082 16.7821 129.204 16.6395 129.204 16.3785V10.6844C129.204 9.45094 127.444 8.4541 126.963 8.4541C126.746 8.4541 126.674 8.59674 126.674 8.95171V15.5243C126.674 16.5682 126.241 16.7821 126.939 16.7821Z" fill="white"/>
<path d="M141.148 11.5938C141.352 11.5208 141.578 11.4317 141.838 11.3198C142.636 10.9827 142.857 10.4154 142.918 10.1074C143.012 9.6244 142.854 9.12517 142.495 8.7702C142.156 8.4363 141.772 7.97922 141.4 7.53834C140.291 6.22057 139.244 4.97412 137.891 4.97412C136.819 4.97412 135.368 6.04227 134.597 6.67928C133.82 7.32114 133.315 7.869 132.986 8.32608C132.016 6.46046 129.653 5.02275 128.593 5.02275C127.816 5.02275 127.189 5.25129 126.713 5.51549C125.874 4.72127 125.049 5.0422 124.73 5.22211C124.562 5.3145 124.407 5.40203 124.262 5.48307C123.736 5.78131 123.418 5.96123 122.962 6.10063C122.481 6.24326 122.109 6.54799 121.912 6.9451C120.748 5.78942 119.138 5.02275 118.136 5.02275C117.527 5.02275 117.012 5.23022 116.602 5.47821C115.777 4.73099 114.971 5.04544 114.647 5.22698L114.589 5.26102C113.88 5.70513 113.503 5.88991 112.856 6.11035C112.257 6.29999 111.83 6.74249 111.713 7.30331C111.695 7.38922 111.689 7.47512 111.685 7.56103C111.383 7.22875 111.014 6.88999 110.578 6.5415C109.844 5.95637 108.445 4.97412 107.317 4.97412C106.288 4.97412 104.995 5.91423 104.091 6.70197C103.599 7.1315 103.194 7.54482 102.875 7.94031C102.94 7.74257 103.006 7.54482 103.067 7.35032C103.225 6.85109 103.121 6.30972 102.791 5.89478C102.435 5.44904 101.861 5.21401 101.252 5.26426H101.23C100.955 5.28371 99.2024 5.3064 98.8387 5.3064C98.2494 5.3064 97.5878 5.29505 96.9491 5.28209C96.2973 5.27074 95.6225 5.25777 95.0085 5.25777C94.2909 5.25777 93.6769 5.68244 93.4333 6.34538C93.3576 6.12494 93.2276 5.89315 93.0037 5.68893C92.6647 5.37772 92.2054 5.22698 91.6935 5.26264C91.1603 5.30478 90.3142 5.32747 89.7842 5.28533C89.1374 5.23994 88.7193 5.49118 88.479 5.71162C87.9473 6.1995 87.9473 6.83812 87.9473 7.11205V18.3576C87.9473 18.63 87.9473 19.2702 88.479 19.7581C88.7176 19.9769 89.139 20.2298 89.7957 20.1828C90.3142 20.1422 91.1603 20.1649 91.7051 20.2071C91.7528 20.2103 91.7989 20.2119 91.845 20.2119C92.2894 20.2119 92.6976 20.0612 93.0037 19.7792C93.0268 19.7581 93.0482 19.7354 93.0696 19.7143C93.3872 20.0207 93.8218 20.1892 94.2958 20.1892C94.3501 20.1892 94.4061 20.1876 94.4621 20.1828C94.8615 20.1536 95.7426 20.139 97.1055 20.139C97.7013 20.139 98.5292 20.1536 99.2601 20.1682C99.8016 20.1779 100.269 20.1876 100.527 20.1876C101.243 20.1876 101.854 19.7646 102.101 19.1065C102.177 19.3253 102.305 19.5539 102.527 19.7581C102.766 19.9769 103.187 20.2298 103.844 20.1828C104.363 20.1422 105.209 20.1649 105.753 20.2071C106.252 20.2411 106.713 20.0904 107.052 19.7792C107.185 19.656 107.287 19.5231 107.363 19.3885C107.437 19.515 107.533 19.6398 107.661 19.7565C107.9 19.9753 108.319 20.2281 108.978 20.1811C109.496 20.1406 110.342 20.1633 110.887 20.2054C110.935 20.2087 110.981 20.2103 111.027 20.2103C111.471 20.2103 111.878 20.0596 112.186 19.7775C112.377 19.6025 112.5 19.4064 112.579 19.2151C112.658 19.3982 112.777 19.5863 112.961 19.7548C113.2 19.9737 113.621 20.2265 114.278 20.1795C114.796 20.139 115.642 20.1617 116.187 20.2038C116.686 20.2379 117.147 20.0871 117.486 19.7759C118.019 19.2864 118.024 18.6413 118.024 18.3609C118.251 18.7807 118.501 19.2118 118.786 19.6543C119.145 20.2184 119.706 20.528 120.291 20.528C120.546 20.528 120.807 20.468 121.058 20.3465L121.074 20.3384C121.716 20.0126 122.202 19.737 122.738 19.3334C123.034 19.8359 123.583 20.1601 124.238 20.1601H128.092C129.121 20.1601 130.415 19.22 131.319 18.4306C131.837 17.9784 132.258 17.5456 132.586 17.1307C132.961 17.6931 133.544 18.2831 134.339 18.9006C135.106 19.4955 136.559 20.4923 137.68 20.4923C138.709 20.4923 140.003 19.5522 140.906 18.7629C142.3 17.5472 143.007 16.4596 143.007 15.5309C143.007 13.8079 142.388 12.4901 141.157 11.5921L141.148 11.5938ZM95.239 12.2032C94.6513 13.3686 94.0506 14.5583 93.5387 15.7399V10.0491C93.751 10.1447 93.9864 10.1982 94.2349 10.1982H94.3024C94.6184 10.182 95.025 10.1577 95.4645 10.1317C95.7262 10.1155 96.0076 10.0993 96.2907 10.0831C95.9632 10.7704 95.606 11.4771 95.2406 12.2032H95.239ZM91.789 18.9412C91.1866 18.8942 90.2714 18.8698 89.669 18.9169C89.3316 18.9412 89.3316 18.7272 89.3316 18.4662V7.22065C89.3316 6.95969 89.3316 6.74573 89.669 6.77005C90.2714 6.81705 91.1866 6.79436 91.789 6.74573C92.1264 6.72142 92.1264 6.95969 92.1264 7.22065V18.4662C92.1264 18.7272 92.1264 18.9639 91.789 18.9412ZM101.451 17.0674C101.138 17.6137 100.993 18.087 100.776 18.7288C100.728 18.8715 100.631 18.9185 100.511 18.9185C99.9333 18.9185 98.1507 18.8715 97.089 18.8715C95.0168 18.8715 94.9937 18.8715 94.3419 18.9185C94.0522 18.9428 93.9321 18.8001 93.9798 18.6105C94.9196 15.5017 97.1121 12.0379 98.3647 8.93067C98.4124 8.81234 98.3646 8.74102 98.2198 8.74102C97.1598 8.74102 95.2324 8.88366 94.2201 8.93067C94.0506 8.93067 93.9304 8.81234 94.0506 8.59839C94.3633 8.05215 94.5082 7.57886 94.7254 6.937C94.7732 6.79436 94.8703 6.74735 94.9904 6.74735C96.1953 6.74735 97.6174 6.79436 98.8206 6.79436C99.1103 6.79436 101.133 6.77005 101.35 6.74735C101.64 6.72304 101.76 6.91268 101.713 7.05532C100.773 10.1641 98.7729 13.6506 97.5203 16.7352C97.4725 16.8535 97.5203 16.9248 97.6651 16.9248C98.7251 16.9248 100.243 16.7822 101.28 16.7352C101.448 16.7352 101.569 16.8535 101.448 17.0674H101.451ZM101.482 8.01001C101.482 8.01001 101.467 8.01001 101.459 8.01163C101.467 8.01163 101.476 8.01163 101.482 8.01001ZM101.294 15.2472H101.23C100.843 15.2666 100.404 15.2958 99.9398 15.3266C99.8329 15.3331 99.7242 15.3412 99.6156 15.3477C99.8921 14.7464 100.185 14.1288 100.488 13.4934C101.001 12.4139 101.522 11.3166 101.991 10.2257V15.3947C101.778 15.2991 101.543 15.2456 101.294 15.2456V15.2472ZM110.966 18.9412C110.364 18.8942 109.449 18.8698 108.846 18.9169C108.509 18.9412 108.509 18.7272 108.509 18.4662V15.7853C108.509 15.6897 108.461 15.6427 108.364 15.6427H106.316C106.219 15.6427 106.171 15.6897 106.171 15.7853V18.4662C106.171 18.7272 106.171 18.9639 105.834 18.9412C105.232 18.8942 104.316 18.8698 103.714 18.9169C103.377 18.9412 103.377 18.7272 103.377 18.4662V10.0442C103.377 8.95336 106.412 6.46208 107.304 6.46208C108.316 6.46208 111.304 8.71671 111.304 9.78324V18.4662C111.304 18.7272 111.304 18.9639 110.966 18.9412ZM133.411 14.051V13.5323C133.523 13.6701 133.639 13.7981 133.763 13.9165C133.662 13.957 133.549 14.0007 133.411 14.051ZM121.905 14.2098C121.795 14.0024 121.688 13.8143 121.588 13.649C121.897 13.3281 122.213 12.9488 122.491 12.5209V15.1986C122.234 14.8015 122.042 14.4676 121.905 14.2115V14.2098ZM122.146 18.134C121.591 18.5846 121.158 18.8455 120.411 19.2248C120.218 19.3204 120.073 19.2248 119.953 19.0352C119.038 17.6121 118.483 16.2829 117.929 15.1435C117.688 14.6459 117.374 14.4319 117.109 14.5502L116.772 14.6929C116.604 14.7642 116.604 14.8112 116.604 15.0495V18.4662C116.604 18.7272 116.604 18.9639 116.266 18.9412C115.664 18.8942 114.749 18.8698 114.146 18.9169C113.809 18.9412 113.809 18.7272 113.809 18.4662V9.45097C113.809 8.71509 113.664 8.26449 113.159 7.86089C113.014 7.74257 113.038 7.59993 113.279 7.52861C114.049 7.26765 114.531 7.03101 115.326 6.53178C115.494 6.43615 115.567 6.50746 115.736 6.69711C116.074 7.07639 116.242 7.47999 116.386 7.47999C116.579 7.47999 117.229 6.50746 118.121 6.50746C119.181 6.50746 121.928 8.28718 121.928 9.97127C121.928 11.3474 120.916 12.5809 119.904 13.4124C119.759 13.5307 119.808 13.6263 119.928 13.7917C120.049 13.957 120.338 14.3606 120.651 14.9538C120.891 15.4044 121.421 16.3299 122.338 17.4921C122.578 17.8001 122.386 17.9427 122.146 18.1323V18.134ZM128.071 18.8942H124.216C123.999 18.8942 123.879 18.7758 123.879 18.5619V9.45097C123.879 8.71509 123.734 8.26449 123.229 7.86089C123.084 7.74257 123.108 7.59993 123.349 7.52861C124.119 7.29197 124.578 6.98238 125.396 6.53178C125.564 6.43615 125.637 6.50746 125.806 6.69711C126.144 7.07639 126.312 7.47999 126.456 7.47999C126.649 7.47999 127.299 6.50746 128.576 6.50746C129.251 6.50746 131.998 8.3585 131.998 10.0426V15.3104C131.998 16.4013 128.963 18.8925 128.071 18.8925V18.8942ZM137.66 19.2264C136.648 19.2264 133.468 16.9005 133.468 15.834C133.468 15.6686 133.493 15.5973 133.685 15.526C134.625 15.1937 134.721 15.0997 135.565 14.6961C135.758 14.6005 135.83 14.7674 135.927 14.9101C136.265 15.385 137.372 17.0691 138.747 17.0691C138.939 17.0691 139.157 16.9264 139.157 16.6655C139.157 14.2212 137.977 14.5535 136.265 13.9132C134.892 13.3913 133.76 12.7267 133.76 10.0458C133.76 8.95498 136.989 6.4637 137.879 6.4637C138.892 6.4637 140.264 8.64701 141.494 9.85618C141.614 9.97451 141.446 10.0928 141.277 10.1641C140.506 10.4964 140.12 10.5904 139.567 10.7104C139.061 10.8287 138.699 10.4737 138.339 10.0701C137.351 8.97929 137.086 8.59839 136.676 8.59839C136.484 8.59839 136.266 8.76372 136.266 9.02468C136.266 11.1594 137.037 11.563 138.844 12.1092C140.217 12.5355 141.591 13.367 141.591 15.6443C141.591 16.7352 138.556 19.2264 137.664 19.2264H137.66Z" fill="white"/>
<path d="M9.36092 5.80885C8.15608 4.70017 6.3307 4.10693 3.78439 4.10693C2.38367 4.10693 1.09158 4.22364 0.00195312 4.39869V17.7368C0.907235 17.8389 1.9623 17.8876 3.23628 17.8876C5.90275 17.8876 8.03098 17.1955 9.3313 15.9328C10.6069 14.6799 11.3114 12.8823 11.3114 10.6601C11.3114 8.4379 10.5938 6.9078 9.36257 5.80885H9.36092ZM3.5737 16.4726C2.89556 16.4726 2.23718 16.4612 1.78618 16.3899V5.6808C2.26022 5.58679 2.94988 5.5025 3.86998 5.5025C7.61949 5.5025 9.45804 7.52211 9.43664 10.7249C9.43664 14.3897 7.38412 16.4807 3.5737 16.4709V16.4726Z" fill="white"/>
<path d="M17.7654 7.81885C14.8817 7.81885 13.1172 10.1205 13.1172 13.0688C13.1172 16.0172 14.9426 17.9785 17.9777 17.9785C19.5463 17.9785 20.6442 17.6413 21.273 17.3577L20.9586 16.1015C20.2953 16.3722 19.5085 16.5991 18.223 16.5991C16.419 16.5991 14.8784 15.6136 14.8422 13.2228H21.7684C21.8079 13.0316 21.8293 12.7641 21.8293 12.3929C21.8293 10.6019 20.9866 7.81885 17.7638 7.81885H17.7654ZM20.0994 11.9504H14.8636C15.0068 10.7186 15.7886 9.08637 17.6222 9.08637C19.6369 9.08637 20.1175 10.8353 20.0994 11.9504Z" fill="white"/>
<path d="M28.5909 13.4933C28.2732 14.388 27.9901 15.1968 27.7646 16.0056H27.7103C27.4898 15.1984 27.2346 14.3945 26.9005 13.4933L24.9632 8.03906H23.0391L26.8001 17.7659H28.5135L32.3997 8.03906H30.5216L28.5893 13.4933H28.5909Z" fill="white"/>
<path d="M39.9266 3.99023C36.2511 3.99023 33.5518 6.81379 33.5518 11.1091C33.5518 15.4044 36.0882 17.9897 39.7389 17.9897C43.3897 17.9897 46.1253 15.5065 46.1253 10.8546C46.1253 6.82676 43.6843 3.99186 39.9249 3.99186L39.9266 3.99023ZM39.8361 16.5649C37.0313 16.5649 35.4331 13.9683 35.4331 11.0686C35.4331 8.16884 36.9046 5.41498 39.8591 5.41498C42.8136 5.41498 44.2473 8.23205 44.2473 10.9308C44.2473 14.0105 42.6605 16.5649 39.8377 16.5649H39.8361Z" fill="white"/>
<path d="M53.7848 7.819C52.18 7.819 50.9965 8.51112 50.2789 9.69759H50.2378L50.139 8.03944H48.5342C48.5819 8.95848 48.6165 9.96828 48.6165 11.2082V21.7488H50.4024V16.455H50.4435C51.0328 17.421 52.1668 17.9867 53.4885 17.9867C55.8028 17.9867 57.9804 16.2589 57.9804 12.7529C57.9804 9.80133 56.1781 7.81738 53.7881 7.81738L53.7848 7.819ZM53.1643 16.6025C51.8903 16.6025 50.8023 15.7645 50.4781 14.5278C50.427 14.3009 50.4007 14.0577 50.4007 13.8081V12.1257C50.4007 11.8923 50.4567 11.6345 50.5159 11.4076C50.8566 10.0785 52.0105 9.2243 53.2334 9.2243C55.1345 9.2243 56.1682 10.8938 56.1682 12.834C56.1682 15.0643 55.0687 16.6025 53.1643 16.6025Z" fill="white"/>
<path d="M63.6328 12.1253C62.3374 11.631 61.758 11.2711 61.758 10.4672C61.758 9.73456 62.3341 9.1316 63.3941 9.1316C64.3159 9.1316 65.0401 9.46874 65.4203 9.70376L65.8664 8.41841C65.3183 8.08776 64.4525 7.82031 63.4468 7.82031C61.3218 7.82031 60.0298 9.10566 60.0298 10.673C60.0248 11.8385 60.8708 12.7948 62.6551 13.4318C63.9686 13.9164 64.4903 14.3621 64.4903 15.2131C64.4903 16.0641 63.883 16.6622 62.5711 16.6622C61.6757 16.6622 60.7309 16.3023 60.1911 15.9684L59.7549 17.3024C60.4495 17.7044 61.4486 17.9799 62.53 17.9799C64.864 17.9799 66.2235 16.7724 66.2235 15.0494C66.2186 13.5971 65.3347 12.751 63.6311 12.127L63.6328 12.1253Z" fill="white"/>
</g>
<defs>
<clipPath id="clip0_6_1430">
<rect width="143" height="21" fill="white" transform="translate(0 0.748535)"/>
</clipPath>
</defs>
</svg>
