<svg width="28" height="29" viewBox="0 0 28 29" fill="none" xmlns="http://www.w3.org/2000/svg">
<circle cx="14" cy="14.7485" r="14" fill="url(#paint0_linear_6_1474)"/>
<path fill-rule="evenodd" clip-rule="evenodd" d="M14.6088 7.9751C11.0179 7.9751 8.12891 10.8641 8.12891 14.455C8.12891 17.3169 9.99188 19.7469 12.5568 20.6109C12.8808 20.6649 12.9888 20.4759 12.9888 20.2869C12.9888 20.1249 12.9888 19.7199 12.9888 19.1799C11.1799 19.5849 10.8019 18.3159 10.8019 18.3159C10.5049 17.5599 10.0729 17.3709 10.0729 17.3709C9.47888 16.966 10.1269 16.966 10.1269 16.966C10.7749 17.02 11.1259 17.6409 11.1259 17.6409C11.6928 18.6399 12.6378 18.3429 13.0158 18.1809C13.0698 17.7489 13.2318 17.4789 13.4208 17.3169C11.9898 17.155 10.4779 16.588 10.4779 14.104C10.4779 13.402 10.7209 12.808 11.1529 12.376C11.0989 12.214 10.8559 11.566 11.2069 10.6481C11.2069 10.6481 11.7468 10.4861 12.9888 11.323C13.5018 11.188 14.0688 11.107 14.6088 11.107C15.1488 11.107 15.7158 11.188 16.2288 11.323C17.4708 10.4861 18.0107 10.6481 18.0107 10.6481C18.3617 11.539 18.1457 12.187 18.0647 12.376C18.4697 12.835 18.7397 13.402 18.7397 14.104C18.7397 16.588 17.2278 17.128 15.7698 17.2899C16.0128 17.4789 16.2018 17.8839 16.2018 18.4779C16.2018 19.3419 16.2018 20.0439 16.2018 20.2599C16.2018 20.4219 16.3098 20.6379 16.6608 20.5839C19.2257 19.7469 21.0887 17.3169 21.0887 14.455C21.0887 10.8641 18.1997 7.9751 14.6088 7.9751Z" fill="#0F172A"/>
<defs>
<linearGradient id="paint0_linear_6_1474" x1="14" y1="28.7485" x2="14" y2="0.748535" gradientUnits="userSpaceOnUse">
<stop stop-color="#5C49EA"/>
<stop offset="0.5" stop-color="#3DAFE9"/>
<stop offset="1" stop-color="#94FFED"/>
</linearGradient>
</defs>
</svg>
