<svg width="28" height="29" viewBox="0 0 28 29" fill="none" xmlns="http://www.w3.org/2000/svg">
<circle cx="14" cy="14.7485" r="14" fill="url(#paint0_linear_6_1467)"/>
<path d="M14.0008 9.19574C15.8095 9.19574 16.0237 9.20252 16.7382 9.2351C17.1678 9.24035 17.5933 9.31924 17.9962 9.46832C18.2884 9.58101 18.5538 9.75364 18.7753 9.9751C18.9967 10.1966 19.1694 10.4619 19.282 10.7541C19.4311 11.1571 19.51 11.5826 19.5153 12.0122C19.5475 12.7267 19.5546 12.9409 19.5546 14.7496C19.5546 16.5583 19.5479 16.7725 19.5153 17.487C19.51 17.9166 19.4311 18.3422 19.282 18.7451C19.1694 19.0373 18.9967 19.3027 18.7753 19.5241C18.5538 19.7456 18.2884 19.9182 17.9962 20.0309C17.5933 20.18 17.1678 20.2589 16.7382 20.2641C16.024 20.2964 15.8098 20.3035 14.0008 20.3035C12.1917 20.3035 11.9775 20.2967 11.2633 20.2641C10.8337 20.2589 10.4082 20.18 10.0053 20.0309C9.71307 19.9182 9.44769 19.7456 9.22624 19.5241C9.00479 19.3027 8.83216 19.0373 8.71947 18.7451C8.57038 18.3422 8.4915 17.9166 8.48624 17.487C8.45398 16.7725 8.44689 16.5583 8.44689 14.7496C8.44689 12.9409 8.45366 12.7267 8.48624 12.0122C8.4915 11.5826 8.57038 11.1571 8.71947 10.7541C8.83216 10.4619 9.00479 10.1966 9.22624 9.9751C9.44769 9.75364 9.71307 9.58101 10.0053 9.46832C10.4082 9.31924 10.8337 9.24035 11.2633 9.2351C11.9779 9.20284 12.192 9.19574 14.0008 9.19574ZM14.0008 7.9751C12.162 7.9751 11.9304 7.98284 11.2079 8.01574C10.6456 8.02693 10.0893 8.13338 9.56269 8.33058C9.11092 8.5008 8.70172 8.76754 8.36366 9.11219C8.01869 9.45038 7.75172 9.85981 7.5814 10.3119C7.3842 10.8385 7.27775 11.3948 7.26656 11.957C7.2343 12.679 7.22656 12.9106 7.22656 14.7493C7.22656 16.588 7.2343 16.8196 7.26721 17.5422C7.27839 18.1044 7.38485 18.6607 7.58205 19.1874C7.75218 19.6394 8.01892 20.0488 8.36366 20.387C8.70191 20.7318 9.11133 20.9985 9.56334 21.1686C10.09 21.3658 10.6463 21.4723 11.2085 21.4835C11.9311 21.5157 12.1617 21.5241 14.0014 21.5241C15.8411 21.5241 16.0717 21.5164 16.7943 21.4835C17.3565 21.4723 17.9128 21.3658 18.4395 21.1686C18.8893 20.9943 19.2978 20.7279 19.6389 20.3867C19.98 20.0454 20.246 19.6367 20.4201 19.1867C20.6173 18.6601 20.7238 18.1038 20.735 17.5415C20.7672 16.8196 20.775 16.588 20.775 14.7493C20.775 12.9106 20.7672 12.679 20.7343 11.9564C20.7231 11.3941 20.6167 10.8379 20.4195 10.3112C20.2493 9.85922 19.9826 9.4498 19.6379 9.11155C19.2996 8.76681 18.8902 8.50007 18.4382 8.32994C17.9115 8.13274 17.3553 8.02628 16.793 8.0151C16.0711 7.98284 15.8395 7.9751 14.0008 7.9751Z" fill="#0F172A"/>
<path d="M14.0021 11.272C13.3141 11.272 12.6416 11.476 12.0695 11.8582C11.4974 12.2405 11.0515 12.7838 10.7882 13.4194C10.5249 14.0551 10.4561 14.7545 10.5903 15.4293C10.7245 16.1041 11.0558 16.724 11.5423 17.2105C12.0288 17.697 12.6487 18.0283 13.3235 18.1625C13.9983 18.2968 14.6977 18.2279 15.3334 17.9646C15.969 17.7013 16.5123 17.2554 16.8946 16.6833C17.2768 16.1113 17.4809 15.4387 17.4809 14.7507C17.4809 13.8281 17.1144 12.9432 16.462 12.2909C15.8096 11.6385 14.9248 11.272 14.0021 11.272ZM14.0021 17.0087C13.5555 17.0087 13.119 16.8763 12.7476 16.6282C12.3763 16.3801 12.0869 16.0274 11.916 15.6148C11.7451 15.2022 11.7003 14.7482 11.7875 14.3102C11.8746 13.8721 12.0897 13.4698 12.4055 13.154C12.7213 12.8382 13.1236 12.6231 13.5616 12.536C13.9996 12.4489 14.4537 12.4936 14.8663 12.6645C15.2789 12.8354 15.6315 13.1248 15.8797 13.4962C16.1278 13.8675 16.2602 14.3041 16.2602 14.7507C16.2602 15.3496 16.0223 15.9239 15.5988 16.3474C15.1754 16.7708 14.601 17.0087 14.0021 17.0087Z" fill="#0F172A"/>
<path d="M17.6176 11.9466C18.0665 11.9466 18.4305 11.5827 18.4305 11.1337C18.4305 10.6847 18.0665 10.3208 17.6176 10.3208C17.1686 10.3208 16.8047 10.6847 16.8047 11.1337C16.8047 11.5827 17.1686 11.9466 17.6176 11.9466Z" fill="#0F172A"/>
<defs>
<linearGradient id="paint0_linear_6_1467" x1="14" y1="28.7485" x2="14" y2="0.748535" gradientUnits="userSpaceOnUse">
<stop stop-color="#5C49EA"/>
<stop offset="0.5" stop-color="#3DAFE9"/>
<stop offset="1" stop-color="#94FFED"/>
</linearGradient>
</defs>
</svg>
