<svg width="388" height="331" viewBox="0 0 388 331" fill="none" xmlns="http://www.w3.org/2000/svg">
<g clip-path="url(#clip0_6_152)">
<path d="M73.3309 240.128C74.8781 239.232 75.8146 237.196 75.8146 237.196L204.48 162.894C204.48 162.894 203.544 164.93 201.996 165.826L73.3309 240.128Z" fill="#42294D"/>
<path d="M150.286 293.462C154.764 290.897 154.764 285.157 154.764 285.157L283.43 210.855C283.43 210.855 283.43 216.555 278.951 219.16L150.286 293.462Z" fill="#42294D"/>
<path d="M251.06 323.712L252.73 314.104L381.395 239.843L379.726 249.41L251.06 323.712Z" fill="#42294D"/>
<path d="M252.73 314.104L144.668 271.273L273.333 197.012L381.396 239.843L252.73 314.104Z" fill="#603060"/>
<path d="M144.667 271.273C144.667 271.273 125.082 271.273 104.887 251.69C84.6911 232.107 78.9908 212.524 78.9908 212.524L207.656 138.222C207.656 138.222 213.357 157.805 233.552 177.388C253.748 196.971 273.332 196.971 273.332 196.971L144.667 271.273Z" fill="#603060"/>
<path d="M78.9908 212.565L8.8763 104.593L137.542 30.2908L207.656 138.263L78.9908 212.565Z" fill="#603060"/>
<path d="M251.06 323.712L154.765 285.197C154.765 285.197 154.765 290.897 150.286 293.503C148.535 294.521 146.133 295.009 142.753 294.521C130.742 292.77 130.742 283.935 130.742 283.935C130.742 283.935 93.486 261.176 84.6504 249.207L75.8148 237.237C75.3262 238.296 72.0689 244.199 67.59 237.237C62.7854 229.705 66.9386 213.868 66.9386 213.868L4.47882 113.224L8.91696 104.593L78.9907 212.565C78.9907 212.565 84.6911 232.148 104.887 251.731C125.082 271.314 144.667 271.314 144.667 271.314L252.73 314.145L251.06 323.712Z" fill="#4C2B53"/>
<path d="M285.181 314.104C284.53 316.506 261.199 330.308 252.73 330.959C244.301 331.57 214.456 317.076 212.257 314.104C210.058 311.132 209.448 301.564 210.018 297.167C210.099 296.516 210.547 295.824 211.239 295.05C215.23 290.572 227.73 284.546 227.73 284.546L244.139 275.386C285.995 295.62 283.675 293.014 285.873 295.213C291.248 300.506 285.71 311.946 285.181 314.104Z" fill="#E07743"/>
<path d="M285.833 295.213C285.507 296.149 285.263 296.842 285.141 297.249C284.489 299.691 261.159 313.493 252.689 314.104C244.261 314.755 214.416 300.18 212.176 297.249C211.769 296.719 211.403 295.946 211.158 295.05C215.148 290.572 227.649 284.546 227.649 284.546L244.057 275.386C285.914 295.62 283.594 293.014 285.792 295.213H285.833Z" fill="#F69E44"/>
<path d="M340.108 243.1C340.108 243.1 356.843 251.08 357.454 252.179C358.064 253.278 358.879 261.421 357.454 262.276C356.029 263.09 352.812 264.963 352.812 264.963C352.812 264.963 354.929 268.098 362.502 264.963C370.076 261.828 382.413 254.581 385.1 249.532C387.788 244.484 383.512 235.568 383.512 235.568C383.512 235.568 355.296 217.41 350.206 221.44C345.116 225.471 340.108 243.14 340.108 243.14V243.1Z" fill="#E07743"/>
<path d="M337.095 229.827C337.095 229.827 353.83 237.807 354.441 238.906C355.051 240.006 355.866 248.148 354.441 249.003C353.015 249.858 349.799 251.69 349.799 251.69C349.799 251.69 351.916 254.825 359.489 251.69C367.063 248.555 379.4 241.308 382.087 236.26C384.775 231.211 380.499 222.295 380.499 222.295C380.499 222.295 352.283 204.137 347.193 208.168C342.103 212.198 337.095 229.868 337.095 229.868V229.827Z" fill="#F69E44"/>
<path d="M6.55541 97.6307C6.55541 97.6307 -2.07657 109.641 0.447876 113.835C2.97232 118.028 20.6435 143.515 20.6435 143.515C20.6435 143.515 29.1126 135.779 29.4383 136.308C29.764 136.838 54.5199 124.339 54.5199 124.339C54.5199 124.339 34.7315 90.0173 32.0035 88.1445C29.2754 86.231 6.51469 95.9208 6.51469 97.6307H6.55541Z" fill="#E07743"/>
<path d="M26.9956 89.0812C26.9956 89.0812 5.08995 94.5775 7.6144 98.8117C10.1388 103.005 34.9762 139.444 34.9762 139.444C34.9762 139.444 43.4453 131.708 43.771 132.237C44.0967 132.767 68.8526 120.268 68.8526 120.268C68.8526 120.268 49.0642 85.9462 46.3362 84.0734C43.6081 82.1599 26.9549 87.4119 26.9549 89.0812H26.9956Z" fill="#F69E44"/>
<path d="M100.449 226.448C100.449 226.448 101.386 203.078 91.9394 180.971C82.4523 158.864 27.5252 103.005 27.5252 103.005L156.191 28.7436C156.191 28.7436 211.118 84.6431 220.605 106.71C230.092 128.776 229.115 152.187 229.115 152.187L100.449 226.489V226.448Z" fill="#F0D2A5"/>
<path d="M27.525 103.005H15.5135L144.179 28.7436H156.19L27.525 103.005Z" fill="#F3DBB6"/>
<path d="M124.065 206.661L93.8528 226.448C93.8528 226.448 105.539 232.555 114.863 243.1C124.187 253.604 133.43 263.986 133.43 263.986L256.435 189.847L225.124 158.538L124.065 206.702V206.661Z" fill="#E8C085"/>
<path d="M100.449 226.448H93.8121L15.5135 103.005H27.525C27.525 103.005 82.452 158.904 91.9391 180.971C101.426 203.078 100.449 226.448 100.449 226.448Z" fill="#ECC995"/>
<path d="M103.299 230.682C103.299 230.682 106.76 196.198 97.273 168.675C87.786 141.112 15.5135 86.9229 15.5135 86.9229L144.179 12.6209C144.179 12.6209 216.451 66.8512 225.938 94.3735C235.425 121.936 231.964 156.38 231.964 156.38L103.299 230.682Z" fill="#F7E3C6"/>
<path d="M107.697 230.682C107.697 230.682 109.285 190.783 101.385 166.151C93.4864 141.52 44.219 74.2612 44.219 74.2612L172.925 0C172.925 0 222.193 67.2585 230.092 91.8902C237.991 116.522 236.403 156.421 236.403 156.421L107.737 230.723L107.697 230.682Z" fill="#FBECD6"/>
<path d="M81.5156 79.961C81.5156 79.961 107.086 123.199 112.135 168.35C114.171 186.671 112.135 237.115 112.135 237.115L240.8 162.813C240.8 162.813 242.836 112.369 240.8 94.0478C235.751 48.8967 210.181 5.65903 210.181 5.65903L81.5156 79.961Z" fill="#FFF5E6"/>
<g clip-path="url(#clip1_6_152)">
<path d="M165.589 103.865C177.366 89.9403 189.848 104.472 192.743 88.9426C195.638 73.4134 199.668 66.2561 190.434 66.2561C181.2 66.2561 180.613 76.4932 175.41 66.2561C170.206 56.0189 166.723 48.2109 178.305 48.8616C189.848 49.4689 201.429 59.7494 206.633 51.0305C211.837 42.3115 211.25 37.0195 202.603 39.2317C193.917 41.4006 188.674 43.2225 189.574 37.3231C190.474 31.4237 190.474 24.3098 190.474 24.3098C190.474 24.3098 186.991 35.8049 192.782 36.4555C198.573 37.1062 209.685 30.5562 213.637 37.0628C217.628 43.6129 216.024 58.5348 213.637 59.1421C211.25 59.7494 194.152 56.3226 188.83 56.3226C183.509 56.3226 182.374 58.7951 182.922 60.6603C183.47 62.5256 213.911 59.4024 216.024 64.9981C218.176 70.5938 215.28 86.4701 200.255 97.9652C185.23 109.46 177.796 107.335 183.939 110.675C190.082 114.015 193.878 120.652 207.768 118.179C221.619 115.707 234.922 105.426 245.33 118.179C255.738 130.932 226.314 178.474 218.567 182.031C175.449 201.855 126.813 149.845 165.589 103.865Z" fill="url(#paint0_linear_6_152)"/>
<path d="M165.707 115.447C166.02 115.1 166.333 114.753 166.607 114.449C166.88 120.652 171.811 123.342 173.728 124.339C177.719 126.508 183.51 133.362 195.756 133.362C202.526 133.362 208.59 131.41 214.851 129.371C219.194 127.94 223.302 126.552 226.471 126.552C228.545 126.552 230.384 127.072 232.419 129.588C235.119 137.223 215.751 172.445 208.473 177.954C174.002 193.44 133.7 153.272 165.668 115.404L165.707 115.447ZM197.126 86.1236C197.908 82.6534 198.574 79.4001 198.652 76.3636C199.591 76.407 200.452 76.4938 201.273 76.6239C200.804 78.9663 199.63 82.3931 197.126 86.167V86.1236Z" fill="white" fill-opacity="0.53"/>
</g>
<path d="M157.534 200.432C133.063 214.56 115.636 243.1 115.636 243.1L244.301 168.798C244.301 168.798 261.728 140.298 286.199 126.171L157.534 200.473V200.432Z" fill="#F0D2A5"/>
<path d="M254.847 309.788L256.435 297.819L385.1 223.517L383.512 235.527L254.847 309.788Z" fill="#E8C085"/>
<path d="M256.435 297.819C256.435 297.819 169.301 238.458 153.828 237.196C147.884 236.708 142.142 238.825 137.338 241.593L266.003 167.291C270.849 164.523 276.59 162.406 282.494 162.894C297.966 164.156 385.1 223.517 385.1 223.517L256.435 297.819Z" fill="#F0D2A5"/>
<path d="M254.847 309.788L132.656 263.701C132.656 263.701 128.421 254.825 124.146 252.342C124.146 252.342 129.561 246.072 137.338 241.593C142.183 238.825 147.925 236.708 153.828 237.196C169.301 238.458 256.435 297.819 256.435 297.819L254.847 309.829V309.788Z" fill="#ECC995"/>
<path d="M140.066 224.657C125.978 232.799 120.033 244.443 120.033 244.443L248.699 170.141C248.699 170.141 254.643 158.497 268.732 150.355L140.066 224.657Z" fill="#ECC995"/>
<path d="M144.138 227.425C132.127 234.346 122.558 248.23 122.558 248.23L251.224 173.928C251.224 173.928 260.833 160.044 272.804 153.123L144.138 227.425Z" fill="#E8C085"/>
<path d="M258.634 288.007C258.634 288.007 174.961 224.535 157.616 223.598C153.055 223.354 148.454 224.942 144.179 227.425L272.845 153.123C277.12 150.64 281.721 149.052 286.281 149.296C303.626 150.233 387.3 213.705 387.3 213.705L258.634 288.007Z" fill="#F7E3C6"/>
<path d="M246.011 244.443C246.011 244.443 201.793 215.699 167.59 216.962C156.19 217.369 147.11 220.585 140.066 224.656L268.731 150.354C275.775 146.283 284.855 143.107 296.256 142.66C330.458 141.398 374.677 170.141 374.677 170.141L246.011 244.443Z" fill="#FBECD6"/>
<path d="M208.43 189.44C208.43 189.44 191.695 189.032 172.111 194.244C167.021 195.587 162.135 197.745 157.493 200.432L286.159 126.13C290.8 123.443 295.686 121.285 300.776 119.942C320.361 114.73 337.095 115.138 337.095 115.138L208.43 189.44Z" fill="#FFF5E6"/>
</g>
<defs>
<linearGradient id="paint0_linear_6_152" x1="199.484" y1="186.366" x2="199.484" y2="24.3098" gradientUnits="userSpaceOnUse">
<stop stop-color="#5C49EA"/>
<stop offset="0.5" stop-color="#3DAFE9"/>
<stop offset="1" stop-color="#94FFED"/>
</linearGradient>
<clipPath id="clip0_6_152">
<rect width="387.109" height="330.838" fill="white" transform="scale(1.00049)"/>
</clipPath>
<clipPath id="clip1_6_152">
<rect width="96.0497" height="162.023" fill="white" transform="translate(151.425 24.2668) scale(1.00049)"/>
</clipPath>
</defs>
</svg>
