<svg width="149" height="72" viewBox="0 0 149 72" fill="none" xmlns="http://www.w3.org/2000/svg">
<g clip-path="url(#clip0_6_33)">
<path d="M59.3018 13.5289C60.6445 13.3095 62.2371 13.1653 63.9618 13.1653C67.0982 13.1653 69.347 13.9088 70.8319 15.2942C72.3473 16.6674 73.233 18.6297 73.233 21.3619C73.233 24.0941 72.3636 26.3916 70.7933 27.9578C69.1905 29.5362 66.5701 30.4016 63.2853 30.4016C61.715 30.4016 60.415 30.3407 59.3018 30.2127V13.5289ZM61.5018 28.5287C62.0583 28.618 62.8689 28.6323 63.7038 28.6323C68.3963 28.6444 70.9253 26.0301 70.9253 21.4452C70.9517 17.4414 68.6868 14.9143 64.0674 14.9143C62.9339 14.9143 62.0848 15.02 61.5018 15.1378V28.5307V28.5287Z" fill="white"/>
<path d="M77.5798 24.5676C77.6225 27.5578 79.5218 28.7908 81.7442 28.7908C83.3266 28.7908 84.2956 28.5064 85.1142 28.1672L85.5022 29.7395C84.7283 30.0929 83.3754 30.5155 81.4435 30.5155C77.7058 30.5155 75.457 28.025 75.457 24.3746C75.457 20.7242 77.6286 17.8071 81.1815 17.8071C85.1508 17.8071 86.1888 21.2889 86.1888 23.5295C86.1888 23.9947 86.1624 24.3258 86.1137 24.5676H77.5819H77.5798ZM84.0559 22.977C84.0782 21.5835 83.4851 19.3957 81.0047 19.3957C78.7458 19.3957 77.785 21.4372 77.6083 22.977H84.0579H84.0559Z" fill="white"/>
<path d="M90.0484 18.0854L92.4352 24.9068C92.8456 26.0343 93.1604 27.0378 93.4326 28.0494H93.4976C93.7759 27.0398 94.1253 26.0261 94.5154 24.9068L96.8962 18.0854H99.2099L94.4219 30.2514H92.3113L87.6777 18.0854H90.0463H90.0484Z" fill="white"/>
<path d="M116.113 21.6037C116.113 27.4216 112.569 30.5275 108.246 30.5275C103.923 30.5275 100.624 27.0458 100.624 21.9226C100.624 16.7994 103.95 13.019 108.475 13.019C113.001 13.019 116.111 16.5658 116.111 21.6037H116.113ZM102.94 21.8718C102.94 25.4999 104.91 28.746 108.364 28.746C111.817 28.746 113.796 25.5527 113.796 21.6991C113.796 18.323 112.034 14.7985 108.39 14.7985C104.746 14.7985 102.938 18.1605 102.938 21.8698L102.94 21.8718Z" fill="white"/>
<path d="M119.177 22.0485C119.177 20.4966 119.136 19.233 119.075 18.0853H121.052L121.174 20.1594H121.224C122.11 18.6764 123.567 17.809 125.543 17.809C128.489 17.809 130.707 20.2894 130.707 23.9824C130.707 28.3682 128.026 30.5275 125.175 30.5275C123.548 30.5275 122.151 29.8186 121.426 28.6099H121.375V35.2302H119.175V22.0465L119.177 22.0485ZM121.377 25.3008C121.377 25.6136 121.409 25.9163 121.472 26.2007C121.87 27.7466 123.211 28.7948 124.781 28.7948C127.128 28.7948 128.481 26.8711 128.481 24.082C128.481 21.6545 127.209 19.5662 124.867 19.5662C123.359 19.5662 121.939 20.6327 121.519 22.2964C121.446 22.5828 121.377 22.9038 121.377 23.1963V25.3008Z" fill="white"/>
<path d="M133.433 27.9985C134.099 28.4149 135.263 28.8659 136.366 28.8659C137.981 28.8659 138.731 28.0716 138.731 27.0539C138.731 26.0362 138.087 25.4328 136.47 24.8254C134.272 24.0291 133.232 22.8327 133.236 21.3762C133.236 19.4159 134.829 17.809 137.445 17.809C138.682 17.809 139.749 18.1442 140.425 18.5566L139.875 20.1655C139.407 19.8709 138.516 19.4484 137.378 19.4484C136.072 19.4484 135.363 20.202 135.363 21.1182C135.363 22.1257 136.078 22.5747 137.673 23.1922C139.769 23.9743 140.86 25.0306 140.864 26.8487C140.864 29.004 139.188 30.5154 136.314 30.5154C134.981 30.5154 133.75 30.17 132.895 29.6683L133.431 27.9985H133.433Z" fill="white"/>
<path d="M78.7181 33.6477C78.0905 33.6985 76.7619 33.6721 76.0652 33.6172C75.4497 33.5725 74.8809 33.7635 74.4624 34.1535C73.9952 34.5882 73.857 35.1205 73.8164 35.5186C73.7738 35.1286 73.6356 34.6085 73.1786 34.182C72.884 33.9077 72.364 33.5908 71.5535 33.6497C70.9258 33.7005 69.5972 33.6741 68.9005 33.6193C68.285 33.5746 67.7162 33.7655 67.2977 34.1555C66.8305 34.5903 66.6923 35.1225 66.6517 35.5206C66.6091 35.1306 66.4709 34.6106 66.0139 34.184C65.7193 33.9097 65.1993 33.5929 64.3888 33.6518C63.7611 33.7025 62.4325 33.6761 61.7358 33.6213C61.1203 33.5766 60.5515 33.7675 60.133 34.1576C59.4687 34.7751 59.4688 35.5917 59.4688 35.9391V52.5314C59.4688 53.8051 60.3808 55.1052 62.2599 56.5069C62.983 57.0472 64.7971 58.3026 66.0139 58.3026C66.8833 58.3026 67.8563 57.813 69.7049 56.7141C70.6576 57.3844 72.1547 58.3026 73.1806 58.3026C73.8327 58.3026 74.5721 58.0995 79.3479 55.2921C79.553 55.1722 79.6952 55.0869 79.746 55.0585L79.7765 55.0422C80.5322 54.6096 81.0035 53.7604 81.0035 52.828V35.9391C81.0035 35.5978 81.0035 34.7975 80.3473 34.186C80.0528 33.9118 79.5327 33.5949 78.7222 33.6538L78.7181 33.6477ZM79.2727 52.824C79.2727 52.8869 79.2666 52.9479 79.2544 53.0048C79.2422 53.3115 79.098 53.5614 78.901 53.6751C78.5739 53.8539 73.8469 56.708 73.1623 56.708C72.7459 56.708 71.527 56.0539 70.426 55.2515C70.1295 55.0138 69.9202 54.835 69.7719 54.835C69.5343 54.835 66.8285 56.708 65.9956 56.708C65.1627 56.708 61.1792 54.1809 61.1792 52.6635V36.0711C61.1792 35.9574 61.1792 35.8457 61.1975 35.7522C61.2096 35.5064 61.2726 35.3155 61.6098 35.3398C62.3533 35.3988 63.7814 35.4292 64.5249 35.3703C64.9413 35.3398 64.9413 35.608 64.9413 35.935V51.4264C64.9413 52.4969 67.2896 53.8356 67.9742 53.8356C68.1895 53.8356 68.3073 53.7381 68.3459 53.5614C68.3459 53.5614 68.3459 53.5593 68.3459 53.5573V36.0732C68.3459 35.9574 68.3459 35.8477 68.3642 35.7522C68.3764 35.5064 68.4414 35.3155 68.7766 35.3398C69.52 35.3988 70.9481 35.4292 71.6916 35.3703C72.108 35.3398 72.108 35.608 72.108 35.935V51.4264C72.108 52.4969 74.4563 53.8356 75.1409 53.8356C75.3562 53.8356 75.474 53.7381 75.5126 53.5614C75.5126 53.5614 75.5126 53.5593 75.5126 53.5573V36.0732C75.5126 35.9574 75.5126 35.8477 75.5309 35.7522C75.5431 35.5064 75.6081 35.3155 75.9433 35.3398C76.6868 35.3988 78.1148 35.4292 78.8563 35.3703C79.2727 35.3398 79.2727 35.608 79.2727 35.935V52.824Z" fill="white"/>
<path d="M78.8566 35.3685C78.1131 35.4274 76.6851 35.399 75.9436 35.338C75.6064 35.3137 75.5434 35.5046 75.5312 35.7504C75.5638 35.5757 75.6592 35.4559 75.9294 35.4762C76.6729 35.5351 78.101 35.5655 78.8444 35.5066C79.2609 35.4762 79.2609 35.7443 79.2609 36.0714V52.9603C79.2609 52.9745 79.2609 52.9887 79.2588 53.005C79.269 52.9461 79.2771 52.8872 79.2771 52.8242V35.9353C79.2771 35.6082 79.2771 35.3401 78.8607 35.3705L78.8566 35.3685Z" fill="white"/>
<path d="M68.7623 35.4759C69.5058 35.5349 70.9339 35.5653 71.6753 35.5064C72.0918 35.4759 72.0918 35.7441 72.0918 36.0711V51.5625C72.0918 52.633 74.4401 53.9717 75.1246 53.9717C75.3907 53.9717 75.5086 53.8254 75.5106 53.5593C75.472 53.7361 75.3542 53.8336 75.1389 53.8336C74.4543 53.8336 72.106 52.4949 72.106 51.4243V35.933C72.106 35.606 72.106 35.3378 71.6896 35.3683C70.9461 35.4272 69.518 35.3988 68.7745 35.3378C68.4393 35.3134 68.3743 35.5044 68.3622 35.7502C68.3947 35.5755 68.4901 35.4556 68.7603 35.4759H68.7623Z" fill="white"/>
<path d="M61.5956 35.4759C62.3391 35.5349 63.7672 35.5653 64.5086 35.5064C64.925 35.4759 64.925 35.7441 64.925 36.0711V51.5625C64.925 52.633 67.2733 53.9717 67.9579 53.9717C68.224 53.9717 68.3418 53.8254 68.3439 53.5593C68.3053 53.7361 68.1874 53.8336 67.9721 53.8336C67.2875 53.8336 64.9393 52.4949 64.9393 51.4243V35.933C64.9393 35.606 64.9393 35.3378 64.5228 35.3683C63.7793 35.4272 62.3513 35.3988 61.6078 35.3378C61.2706 35.3134 61.2076 35.5044 61.1954 35.7502C61.2279 35.5755 61.3214 35.4556 61.5936 35.4739L61.5956 35.4759Z" fill="white"/>
<path d="M86.8432 55.4365L86.8635 55.3634C87.154 54.3883 87.5319 53.395 87.9585 52.3996V45.2654C87.5989 45.1008 87.2922 44.8368 87.087 44.4874C86.7295 43.88 86.7335 43.1243 87.0992 42.4682C87.3694 41.9908 87.5095 41.5662 87.7208 40.9243L87.8021 40.6805C87.8081 40.6623 87.8163 40.644 87.8224 40.6237C87.7289 40.3474 87.5684 40.0569 87.2922 39.8009C86.8737 39.4109 86.3049 39.222 85.6752 39.2667C85.017 39.3195 83.9729 39.348 83.3188 39.2951C82.5225 39.2362 82.0045 39.5531 81.7079 39.8294C81.0518 40.4408 81.0518 41.2412 81.0518 41.5845V55.6782C81.0518 56.0195 81.0518 56.8219 81.7079 57.4334C82.0024 57.7076 82.5225 58.0265 83.333 57.9656C83.9729 57.9148 85.017 57.9432 85.6894 57.9961C85.7483 58.0001 85.8052 58.0022 85.8621 58.0022C86.4105 58.0022 86.9123 57.8132 87.2922 57.4598C87.3206 57.4334 87.347 57.4049 87.3734 57.3785C87.3308 57.3359 87.2881 57.2952 87.2495 57.2485C86.827 56.7508 86.6787 56.0906 86.8412 55.4365H86.8432ZM86.2298 55.6782C86.2298 55.792 86.2298 55.9037 86.2115 55.9972C86.1993 56.243 86.1363 56.4339 85.7991 56.4095C85.0556 56.3506 83.9262 56.3202 83.1827 56.3791C82.7662 56.4095 82.7662 56.1414 82.7662 55.8144V41.7206C82.7662 41.6068 82.7662 41.5012 82.7845 41.4118C82.7967 41.1681 82.8577 40.9934 83.1969 41.0177C83.9404 41.0767 85.0698 41.0482 85.8133 40.9873C86.2298 40.9568 86.2298 41.2554 86.2298 41.5825V55.6762V55.6782Z" fill="white"/>
<path d="M85.8138 40.9891C85.0703 41.048 83.9408 41.0785 83.1973 41.0196C82.8581 40.9952 82.7951 41.1699 82.785 41.4137C82.8175 41.2471 82.9109 41.1374 83.1831 41.1577C83.9266 41.2166 85.0561 41.1882 85.7995 41.1273C86.216 41.0968 86.216 41.3954 86.216 41.7225V55.8162C86.216 55.8792 86.216 55.9401 86.2119 55.997C86.2302 55.9015 86.2302 55.7918 86.2302 55.6781V41.5843C86.2302 41.2573 86.2302 40.9607 85.8138 40.9891Z" fill="white"/>
<path d="M98.388 51.9667C98.126 51.8469 97.8355 51.7798 97.5288 51.7798H97.4475C96.9701 51.8042 96.4298 51.8408 95.8569 51.8794C95.7229 51.8875 95.5888 51.8977 95.4547 51.9058C95.796 51.1521 96.1576 50.3782 96.5314 49.5819C97.1652 48.229 97.8071 46.8537 98.386 45.4846V45.1189C98.386 44.3653 98.7537 43.5284 99.4769 42.6203C99.5581 42.3725 99.6394 42.1247 99.7125 41.8809C99.9075 41.2552 99.7816 40.5768 99.3712 40.0567C98.9325 39.4981 98.2215 39.2015 97.4719 39.2645H97.4455C97.1042 39.2889 94.9428 39.3173 94.4918 39.3173C93.7646 39.3173 92.948 39.3031 92.1598 39.2868C91.3554 39.2726 90.5225 39.2564 89.7648 39.2564C88.8771 39.2564 88.1214 39.7906 87.8208 40.6194C87.9549 41.0094 87.9549 41.3751 87.9549 41.5782V45.2591C88.2169 45.3789 88.5074 45.446 88.8141 45.446H88.8954C89.2874 45.4257 89.7872 45.3952 90.3316 45.3627C90.6546 45.3424 91.0019 45.3221 91.3513 45.3018C90.9471 46.1631 90.5063 47.0487 90.0533 47.9608C89.3281 49.4214 88.5886 50.9124 87.9549 52.3913V55.6699C87.9549 56.0031 87.9548 56.7628 87.3718 57.3702C87.7639 57.7541 88.3002 57.9654 88.8852 57.9654C88.9523 57.9654 89.0213 57.9634 89.0904 57.9573C89.5833 57.9207 90.6708 57.9024 92.3528 57.9024C93.0882 57.9024 94.1099 57.9207 95.0098 57.939C95.6782 57.9512 96.2551 57.9634 96.574 57.9634C97.4577 57.9634 98.2113 57.4332 98.516 56.6084C98.386 56.2265 98.384 55.869 98.384 55.6699V51.9586L98.388 51.9667ZM97.7603 42.7097C97.7603 42.7097 97.7421 42.7097 97.7319 42.7097C97.7421 42.7097 97.7522 42.7097 97.7603 42.7077V42.7097ZM88.8344 54.5202C88.8344 54.5202 88.8243 54.5202 88.8202 54.5202C88.8243 54.5202 88.8304 54.5202 88.8344 54.5202ZM97.7217 54.0611C97.3358 54.7457 97.157 55.3388 96.8889 56.1432C96.83 56.322 96.7101 56.3809 96.5618 56.3809C95.8488 56.3809 93.6488 56.322 92.3386 56.322C89.7811 56.322 89.7506 56.322 88.9482 56.3809C88.5907 56.4114 88.4424 56.2326 88.5013 55.995C88.5013 55.9889 88.5054 55.9828 88.5074 55.9767C88.5054 55.9381 88.5074 55.8995 88.5175 55.8568C89.6775 51.9627 92.3812 47.6236 93.9271 43.7315C93.9109 43.6665 93.8499 43.6259 93.7362 43.6259C92.428 43.6259 90.0492 43.8046 88.7999 43.8635C88.6171 43.8635 88.481 43.7477 88.55 43.5385C88.5419 43.4755 88.5561 43.4004 88.6049 43.309C88.9909 42.6244 89.1696 42.0312 89.4378 41.2268C89.4967 41.048 89.6165 40.9891 89.7648 40.9891C91.2518 40.9891 93.0069 41.048 94.4918 41.048C94.8494 41.048 97.3459 41.0176 97.6141 40.9891C97.9716 40.9587 98.1199 41.1963 98.061 41.3751C98.059 41.3832 98.0569 41.3893 98.0529 41.3974C98.059 41.436 98.0569 41.4767 98.0447 41.5132C96.8848 45.4074 94.4187 49.7749 92.8728 53.6385C92.8891 53.7036 92.95 53.7442 93.0638 53.7442C94.372 53.7442 96.2449 53.5654 97.5247 53.5065C97.7075 53.5065 97.8436 53.6223 97.7746 53.8315C97.7827 53.8945 97.7685 53.9697 97.7197 54.0611H97.7217Z" fill="white"/>
<path d="M87.9569 52.3994C87.5303 53.3968 87.1525 54.3881 86.862 55.3632L86.8417 55.4363C86.6791 56.0904 86.8274 56.7506 87.25 57.2483C87.2886 57.295 87.3312 57.3357 87.3739 57.3783C87.9548 56.7709 87.9569 56.0112 87.9569 55.6781V52.3994Z" fill="white"/>
<path d="M87.7212 40.9241C87.5079 41.566 87.3678 41.9906 87.0996 42.468C86.734 43.1241 86.7299 43.8798 87.0874 44.4872C87.2926 44.8366 87.5994 45.1006 87.9589 45.2652V41.5843C87.9589 41.3812 87.9589 41.0155 87.8248 40.6255C87.8187 40.6438 87.8106 40.6621 87.8045 40.6824L87.7233 40.9261L87.7212 40.9241Z" fill="white"/>
<path d="M93.9271 43.7295C92.3812 47.6236 89.6775 51.9627 88.5175 55.8548C88.5074 55.8975 88.5054 55.9381 88.5074 55.9746C89.6693 52.0845 92.3691 47.7496 93.9129 43.8595C93.9332 43.8067 93.9352 43.764 93.9251 43.7274L93.9271 43.7295Z" fill="white"/>
<path d="M97.5285 53.5064C96.2508 53.5653 94.3758 53.744 93.0676 53.744C92.9538 53.744 92.8929 53.7034 92.8766 53.6384C92.8766 53.6384 92.8766 53.6425 92.8746 53.6445C92.8157 53.7928 92.8746 53.8822 93.0534 53.8822C94.3616 53.8822 96.2345 53.7034 97.5143 53.6445C97.6524 53.6445 97.7621 53.7115 97.7784 53.8314C97.8495 53.6221 97.7134 53.5064 97.5285 53.5064Z" fill="white"/>
<path d="M89.4256 41.3649C89.4845 41.1862 89.6043 41.1273 89.7526 41.1273C91.2396 41.1273 92.9947 41.1862 94.4797 41.1862C94.8372 41.1862 97.3338 41.1557 97.6019 41.1273C97.8843 41.1029 98.0346 41.2491 98.0549 41.3995C98.0569 41.3913 98.059 41.3852 98.063 41.3771C98.1219 41.1984 97.9736 40.9607 97.6161 40.9912C97.348 41.0216 94.8514 41.0501 94.4939 41.0501C93.0069 41.0501 91.2518 40.9912 89.7668 40.9912C89.6186 40.9912 89.4987 41.0501 89.4398 41.2288C89.1717 42.0312 88.9929 42.6264 88.6069 43.311C88.5561 43.4024 88.5419 43.4776 88.5521 43.5405C88.5622 43.5121 88.5744 43.4816 88.5927 43.4491C88.9787 42.7646 89.1574 42.1714 89.4256 41.367V41.3649Z" fill="white"/>
<path d="M103.936 43.7437C103.743 43.7437 103.609 43.8635 103.566 44.0829C103.566 44.0931 103.566 44.1012 103.566 44.1113V49.8805C103.566 49.9698 103.625 50.0592 103.745 50.0592H106.272C106.358 50.0592 106.412 50.0267 106.435 49.9658V46.0351C106.435 45.2916 104.442 43.7457 103.936 43.7457V43.7437Z" fill="white"/>
<path d="M111.261 44.3794C111.261 43.8614 111.21 43.8207 111.098 43.7293L111.08 43.7151C110.59 43.3068 110.332 42.738 110.351 42.1469C109.977 41.7304 109.522 41.3059 108.983 40.8691C108.077 40.1358 106.351 38.9048 104.959 38.9048C103.69 38.9048 102.093 40.083 100.978 41.0702C100.37 41.6086 99.8707 42.1266 99.4766 42.6222C99.1638 43.5648 98.792 44.5236 98.3857 45.4865V51.9666C98.7453 52.1311 99.052 52.3952 99.2572 52.7446C99.6147 53.352 99.6107 54.1077 99.245 54.7638C98.9748 55.2412 98.8347 55.6657 98.6234 56.3077L98.5422 56.5514C98.534 56.5738 98.5259 56.5941 98.5178 56.6164C98.6112 56.8907 98.7697 57.1771 99.0439 57.433C99.3385 57.7073 99.8585 58.0262 100.669 57.9653C101.309 57.9145 102.353 57.9429 103.025 57.9957C103.084 57.9998 103.141 58.0018 103.198 58.0018C103.747 58.0018 104.248 57.8129 104.628 57.4594C104.793 57.3051 104.919 57.1385 105.012 56.9699C105.104 57.1283 105.221 57.2847 105.38 57.431C105.674 57.7052 106.194 58.0221 107.005 57.9632C107.645 57.9124 108.689 57.9409 109.361 57.9937C109.977 58.0384 110.546 57.8474 110.964 57.4574C111.2 57.238 111.352 56.9922 111.45 56.7525C111.267 56.3178 111.265 55.8973 111.265 55.6739V44.3753L111.261 44.3794ZM109.898 55.6779C109.898 55.7937 109.898 55.9034 109.879 55.9989C109.867 56.2447 109.802 56.4356 109.467 56.4113C108.723 56.3523 107.594 56.3219 106.851 56.3808C106.434 56.4113 106.434 56.1431 106.434 55.8161V52.4562C106.434 52.3383 106.375 52.2774 106.255 52.2774H103.728C103.643 52.2774 103.588 52.3099 103.566 52.3708V55.6779C103.566 55.7917 103.566 55.9034 103.547 55.9969C103.535 56.2426 103.472 56.4336 103.135 56.4092C102.392 56.3503 101.262 56.3198 100.519 56.3788C100.102 56.4092 100.102 56.1411 100.102 55.814V45.259C100.102 45.2082 100.108 45.1533 100.119 45.0964C100.161 43.7171 103.868 40.6315 104.963 40.6315C106.213 40.6315 109.9 43.4571 109.9 44.7938V55.6759L109.898 55.6779Z" fill="white"/>
<path d="M98.3877 45.4868C98.794 44.5239 99.1657 43.5651 99.4785 42.6226C98.7554 43.5326 98.3877 44.3675 98.3877 45.1212V45.4868Z" fill="white"/>
<path d="M98.6234 56.3079C98.8367 55.666 98.9769 55.2414 99.245 54.764C99.6107 54.1079 99.6147 53.3522 99.2572 52.7448C99.052 52.3954 98.7473 52.1313 98.3857 51.9668V55.6781C98.3857 55.8772 98.3857 56.2327 98.5178 56.6166C98.5259 56.5943 98.534 56.574 98.5422 56.5516L98.6234 56.3079Z" fill="white"/>
<path d="M106.27 50.0572H103.743C103.623 50.0572 103.564 49.9678 103.564 49.8785V44.1093C103.564 44.1093 103.564 44.091 103.564 44.0809C103.554 44.1317 103.548 44.1845 103.548 44.2454V50.0146C103.548 50.1039 103.607 50.1933 103.727 50.1933H106.254C106.373 50.1933 106.432 50.1344 106.432 50.0146V49.9617C106.408 50.0227 106.355 50.0552 106.27 50.0552V50.0572Z" fill="white"/>
<path d="M104.962 40.6314C103.867 40.6314 100.16 43.7171 100.117 45.0964C100.379 43.6602 103.887 40.7675 104.948 40.7675C106.197 40.7675 109.884 43.5932 109.884 44.9298V55.812C109.884 55.8749 109.884 55.9359 109.88 55.9948C109.898 55.8993 109.898 55.7896 109.898 55.6738V44.7917C109.898 43.453 106.211 40.6294 104.962 40.6294V40.6314Z" fill="white"/>
<path d="M103.55 55.8162C103.55 55.8792 103.55 55.9401 103.546 55.997C103.564 55.9015 103.564 55.7918 103.564 55.6781V52.371C103.554 52.3953 103.55 52.4218 103.55 52.4563V55.8162Z" fill="white"/>
<path d="M116.78 43.2661C116.581 43.2661 116.481 43.3657 116.443 43.5993C116.44 43.646 116.438 43.6988 116.438 43.7536V48.631C116.438 48.8687 116.558 48.9885 116.735 48.9276L117.836 48.4807C118.665 48.1597 119.349 47.2842 119.477 46.2015C119.484 46.1263 119.486 46.0491 119.486 45.9719C119.486 44.426 117.375 43.2661 116.78 43.2661Z" fill="white"/>
<path d="M123.691 51.717C123.374 51.2193 123.136 50.8008 122.968 50.4799C122.831 50.2199 122.699 49.9842 122.575 49.777C122.957 49.3748 123.347 48.8995 123.691 48.3632V44.3796C123.691 43.8616 123.64 43.821 123.528 43.7296L123.51 43.7154C122.931 43.2339 122.673 42.527 122.815 41.8241C122.848 41.6657 122.903 41.5154 122.972 41.3752C121.535 39.9268 119.549 38.966 118.312 38.966C117.56 38.966 116.924 39.226 116.418 39.5368C115.401 38.6003 114.405 38.9944 114.005 39.2219L113.934 39.2646C113.056 39.8232 112.593 40.0548 111.795 40.329C111.053 40.5667 110.529 41.1213 110.385 41.8241C110.363 41.9318 110.355 42.0395 110.351 42.1471C111.196 43.0877 111.624 43.9734 111.624 44.7961V55.6782C111.624 55.9016 111.624 56.3221 111.446 56.7569C111.543 56.9864 111.689 57.222 111.917 57.4333C112.211 57.7075 112.731 58.0265 113.542 57.9655C114.182 57.9147 115.226 57.9432 115.898 57.996C116.514 58.0407 117.083 57.8497 117.501 57.4597C118.159 56.8462 118.165 56.0377 118.165 55.6843C118.446 56.2084 118.754 56.7508 119.106 57.3053C119.549 58.0122 120.241 58.4002 120.963 58.4002C121.279 58.4002 121.6 58.3251 121.909 58.1707L121.927 58.1605C122.72 57.7522 123.319 57.4069 123.981 56.9011C123.794 56.5801 123.689 56.2043 123.689 55.7919V51.7129L123.691 51.717ZM123.262 55.3999C122.577 55.9646 122.043 56.2917 121.121 56.767C120.883 56.8848 120.705 56.767 120.556 56.5293C119.427 54.7458 118.742 53.08 118.058 51.652C117.761 51.0283 117.373 50.7602 117.046 50.9085L116.63 51.0873C116.51 51.138 116.459 51.1827 116.439 51.266C116.439 51.3046 116.439 51.3452 116.439 51.396V55.6782C116.439 55.794 116.439 55.9037 116.42 55.9991C116.408 56.2449 116.343 56.4359 116.008 56.4115C115.265 56.3526 114.135 56.3221 113.392 56.381C112.975 56.4115 112.975 56.1434 112.975 55.8163V44.5178C112.975 43.5955 112.796 43.0308 112.173 42.525C112.067 42.4376 112.037 42.3381 112.089 42.2548C112.051 42.1431 112.124 42.0354 112.337 41.9704C113.288 41.6434 113.883 41.3468 114.864 40.7211C115.072 40.6033 115.161 40.6906 115.37 40.9283C115.787 41.4036 115.994 41.9095 116.173 41.9095C116.41 41.9095 117.213 40.6906 118.314 40.6906C119.622 40.6906 123.012 42.9211 123.012 45.0317C123.012 45.1739 123 45.3161 122.984 45.4563C122.856 47.0651 121.678 48.4993 120.499 49.4804C120.459 49.515 120.43 49.5475 120.412 49.58C120.428 49.649 120.477 49.7242 120.544 49.8176C120.692 50.0248 121.05 50.5307 121.436 51.2741C121.732 51.8389 122.387 52.9988 123.518 54.4553C123.652 54.63 123.676 54.762 123.636 54.8778C123.66 55.085 123.477 55.2272 123.264 55.3979L123.262 55.3999ZM121.621 50.6688C121.621 50.6688 121.621 50.6688 121.619 50.6688C121.619 50.6688 121.619 50.6688 121.621 50.6688Z" fill="white"/>
<path d="M111.624 44.7939C111.624 43.9712 111.196 43.0856 110.351 42.145C110.332 42.7362 110.59 43.3049 111.08 43.7132L111.098 43.7275C111.21 43.8168 111.261 43.8595 111.261 44.3775V55.6761C111.261 55.8995 111.261 56.32 111.445 56.7547C111.622 56.32 111.624 55.9016 111.624 55.6761V44.7939Z" fill="white"/>
<path d="M117.837 48.4809L116.735 48.9278C116.557 48.9867 116.439 48.8689 116.439 48.6312V43.7538C116.439 43.699 116.439 43.6462 116.443 43.5995C116.429 43.6807 116.423 43.7762 116.423 43.892V48.7693C116.423 49.007 116.543 49.1268 116.719 49.0659L117.82 48.619C118.686 48.2838 119.393 47.3474 119.478 46.2017C119.35 47.2844 118.665 48.1599 117.837 48.4809Z" fill="white"/>
<path d="M112.319 42.1084C113.27 41.7814 113.865 41.4848 114.846 40.8591C115.053 40.7393 115.143 40.8286 115.352 41.0663C115.769 41.5417 115.976 42.0475 116.155 42.0475C116.392 42.0475 117.195 40.8286 118.296 40.8286C119.604 40.8286 122.994 43.0591 122.994 45.1697C122.994 45.2652 122.988 45.3607 122.982 45.4561C122.998 45.316 123.01 45.1738 123.01 45.0316C123.01 42.921 119.62 40.6905 118.312 40.6905C117.211 40.6905 116.408 41.9093 116.171 41.9093C115.992 41.9093 115.785 41.4035 115.368 40.9282C115.161 40.6905 115.072 40.6011 114.863 40.721C113.881 41.3446 113.286 41.6432 112.336 41.9703C112.124 42.0333 112.049 42.1429 112.088 42.2547C112.124 42.1958 112.199 42.145 112.319 42.1084Z" fill="white"/>
<path d="M123.517 54.4593C122.387 53.0028 121.733 51.8429 121.434 51.2782C121.048 50.5347 120.691 50.0289 120.543 49.8217C120.476 49.7282 120.429 49.6531 120.411 49.584C120.352 49.6916 120.413 49.7993 120.526 49.9598C120.675 50.167 121.032 50.6728 121.418 51.4163C121.715 51.981 122.369 53.1409 123.5 54.5974C123.584 54.7071 123.624 54.7986 123.634 54.8818C123.675 54.7681 123.651 54.636 123.517 54.4593Z" fill="white"/>
<path d="M116.423 55.8164C116.423 55.8794 116.423 55.9403 116.419 55.9992C116.437 55.9038 116.437 55.7941 116.437 55.6783V51.3961C116.437 51.3453 116.437 51.3047 116.437 51.2661C116.421 51.3271 116.421 51.4083 116.421 51.5343V55.8164H116.423Z" fill="white"/>
<path d="M131.973 46.0615C131.973 44.5156 129.801 43.2663 129.208 43.2663C129.009 43.2663 128.91 43.3658 128.871 43.5995C128.869 43.6462 128.867 43.699 128.867 43.7538V51.9911C128.867 52.2024 128.853 52.3852 128.832 52.5457C128.8 52.9012 128.735 53.153 128.704 53.3298C128.7 53.5126 128.804 53.5695 129.194 53.5695H131.632C131.8 53.5695 131.928 53.4496 131.971 53.2302C131.971 53.2201 131.971 53.212 131.971 53.1998V46.0635L131.973 46.0615Z" fill="white"/>
<path d="M136.913 50.3721L136.936 50.364C137.019 50.3335 137.094 50.3071 137.167 50.2807V49.6306C136.389 48.6515 135.881 47.2498 135.881 45.121C135.881 44.8345 135.881 44.1682 136.639 43.1038C135.443 40.7657 132.523 38.9638 131.217 38.9638C130.258 38.9638 129.484 39.2503 128.897 39.5814C127.863 38.586 126.844 38.9882 126.45 39.2137C126.24 39.3295 126.051 39.4392 125.873 39.5428C125.223 39.9166 124.831 40.142 124.268 40.3167C123.675 40.4955 123.216 40.8774 122.972 41.3751C123.994 42.405 124.737 43.6807 124.737 45.0336C124.737 46.3032 124.286 47.4266 123.689 48.363V51.7189C124.004 52.2105 124.396 52.7793 124.879 53.4029C125.105 53.6954 126.12 55.2027 124.371 56.6003L124.365 56.6064C124.233 56.7141 124.107 56.8136 123.981 56.9091C124.347 57.5368 125.022 57.9431 125.832 57.9431H130.59C131.859 57.9431 133.456 56.7649 134.571 55.7756C135.211 55.2088 135.731 54.6664 136.135 54.1464C135.729 53.5268 135.522 52.9377 135.522 52.3791C135.522 51.0871 136.393 50.5691 136.911 50.3741L136.913 50.3721ZM125.277 43.6198C125.277 43.6198 125.292 43.6157 125.298 43.6137C125.292 43.6157 125.284 43.6177 125.277 43.6198ZM135.438 51.723C135.438 51.7737 135.432 51.8286 135.422 51.8855C135.38 53.2648 131.672 56.3504 130.577 56.3504H125.82C125.552 56.3504 125.403 56.2022 125.403 55.934V44.5156C125.403 43.5934 125.225 43.0286 124.601 42.5228C124.495 42.4355 124.465 42.3359 124.518 42.2526C124.479 42.1409 124.552 42.0333 124.766 41.9682C125.716 41.6717 126.281 41.2837 127.293 40.7189C127.5 40.6011 127.589 40.6885 127.798 40.9261C128.215 41.4015 128.422 41.9073 128.601 41.9073C128.838 41.9073 129.641 40.6885 131.217 40.6885C132.05 40.6885 135.44 43.0083 135.44 45.1189V51.7209L135.438 51.723Z" fill="white"/>
<path d="M124.374 56.5963C126.121 55.1987 125.107 53.6914 124.882 53.3989C124.398 52.7773 124.006 52.2085 123.691 51.7148V55.7939C123.691 56.2062 123.799 56.582 123.984 56.903C124.11 56.8075 124.236 56.708 124.368 56.6003L124.374 56.5942V56.5963Z" fill="white"/>
<path d="M123.51 43.7132L123.528 43.7274C123.64 43.8168 123.691 43.8595 123.691 44.3775V48.361C124.288 47.4266 124.739 46.3012 124.739 45.0316C124.739 43.6766 123.994 42.403 122.974 41.3731C122.905 41.5152 122.85 41.6635 122.817 41.822C122.673 42.5248 122.933 43.2318 123.512 43.7132H123.51Z" fill="white"/>
<path d="M131.632 53.5675H129.194C128.802 53.5675 128.7 53.5106 128.704 53.3278C128.654 53.6223 128.704 53.7036 129.18 53.7036H131.617C131.819 53.7036 131.963 53.535 131.973 53.2282C131.93 53.4476 131.802 53.5675 131.634 53.5675H131.632Z" fill="white"/>
<path d="M128.867 43.754C128.867 43.6991 128.867 43.6463 128.871 43.5996C128.856 43.6809 128.85 43.7763 128.85 43.8921V52.1294C128.85 52.2817 128.842 52.4199 128.832 52.5458C128.852 52.3853 128.867 52.2046 128.867 51.9913V43.754Z" fill="white"/>
<path d="M131.215 40.6905C129.639 40.6905 128.836 41.9093 128.599 41.9093C128.42 41.9093 128.213 41.4035 127.796 40.9282C127.589 40.6905 127.5 40.6011 127.291 40.721C126.279 41.2857 125.714 41.6717 124.764 41.9703C124.552 42.0333 124.477 42.1429 124.516 42.2547C124.552 42.1958 124.627 42.145 124.747 42.1084C125.698 41.8118 126.263 41.4238 127.274 40.8591C127.482 40.7393 127.571 40.8286 127.78 41.0663C128.197 41.5417 128.404 42.0475 128.583 42.0475C128.82 42.0475 129.623 40.8286 131.199 40.8286C132.032 40.8286 135.422 43.1485 135.422 45.2591V51.8611C135.422 51.8611 135.422 51.8773 135.422 51.8855C135.432 51.8286 135.438 51.7758 135.438 51.723V45.121C135.438 43.0103 132.048 40.6905 131.215 40.6905Z" fill="white"/>
<path d="M146.715 47.201C146.967 47.1096 147.245 46.9979 147.566 46.8577C148.551 46.4352 148.824 45.7242 148.897 45.3362C149.013 44.7309 148.818 44.1052 148.375 43.6603C147.956 43.2419 147.483 42.669 147.024 42.1165C145.655 40.465 144.363 38.9028 142.693 38.9028C141.37 38.9028 139.579 40.2415 138.628 41.0398C137.669 41.8443 137.046 42.5309 136.639 43.1037C136.968 43.7457 137.168 44.4262 137.168 45.1209V49.6306C137.306 49.8032 137.45 49.9637 137.602 50.112C137.478 50.1628 137.338 50.2176 137.168 50.2806V51.7229C137.168 52.4542 136.822 53.2647 136.14 54.1443C136.603 54.8492 137.322 55.5886 138.303 56.3626C139.25 57.1081 141.043 58.3574 142.427 58.3574C143.696 58.3574 145.293 57.1792 146.408 56.1919C148.129 54.6684 149 53.3053 149 52.1414C149 49.982 148.235 48.3305 146.715 47.2051V47.201ZM146.193 43.6867C146.193 43.6867 146.189 43.6867 146.187 43.6888C146.187 43.6888 146.191 43.6888 146.193 43.6867ZM142.411 56.7668C141.161 56.7668 137.237 53.8538 137.237 52.5151C137.237 52.4481 137.241 52.3953 137.253 52.3506C137.257 52.1637 137.293 52.0764 137.519 51.991C138.679 51.5746 138.797 51.4568 139.839 50.951C140.076 50.8311 140.166 51.0404 140.286 51.2191C140.702 51.8143 142.069 53.9249 143.765 53.9249C143.971 53.9249 144.196 53.7908 144.255 53.545C144.251 50.4959 142.794 50.9103 140.688 50.1079C138.994 49.4538 137.596 48.621 137.596 45.2611C137.596 45.2123 137.602 45.1595 137.612 45.1067C137.643 43.7314 141.6 40.6336 142.695 40.6336C143.944 40.6336 145.638 43.3698 147.156 44.8853C147.219 44.9482 147.215 45.0132 147.176 45.0721C147.243 45.2042 147.058 45.3301 146.873 45.4094C145.923 45.8258 145.445 45.9436 144.763 46.0939C144.139 46.2422 143.692 45.7974 143.245 45.2915C142.027 43.9244 141.7 43.447 141.194 43.447C140.989 43.447 140.763 43.6035 140.704 43.8553C140.706 46.5226 141.659 47.0284 143.885 47.7109C145.579 48.2452 147.276 49.2873 147.276 52.1414C147.276 52.1921 147.27 52.247 147.259 52.3039C147.217 53.6832 143.51 56.7689 142.415 56.7689L142.411 56.7668Z" fill="white"/>
<path d="M137.165 50.2808C137.094 50.3072 137.019 50.3356 136.933 50.364L136.911 50.3722C136.393 50.5672 135.521 51.0852 135.521 52.3772C135.521 52.9358 135.729 53.5249 136.135 54.1445C136.817 53.2649 137.163 52.4543 137.163 51.723V50.2808H137.165Z" fill="white"/>
<path d="M137.165 49.6308V45.1212C137.165 44.4264 136.966 43.7439 136.637 43.104C135.879 44.1705 135.879 44.8368 135.879 45.1212C135.879 47.248 136.385 48.6517 137.165 49.6308Z" fill="white"/>
<path d="M142.679 40.77C143.928 40.77 145.622 43.5062 147.14 45.0217C147.156 45.0379 147.166 45.0542 147.174 45.0704C147.215 45.0115 147.219 44.9485 147.154 44.8835C145.636 43.3681 143.942 40.6318 142.693 40.6318C141.598 40.6318 137.641 43.7297 137.61 45.1049C137.878 43.6708 141.618 40.77 142.679 40.77Z" fill="white"/>
<path d="M137.505 52.1292C138.665 51.7128 138.782 51.595 139.825 51.0892C140.062 50.9693 140.152 51.1786 140.271 51.3573C140.688 51.9525 142.055 54.0631 143.751 54.0631C143.989 54.0631 144.257 53.8844 144.257 53.5573C144.257 53.5532 144.257 53.5492 144.257 53.5451C144.198 53.7909 143.973 53.925 143.767 53.925C142.073 53.925 140.704 51.8144 140.288 51.2192C140.17 51.0404 140.081 50.8332 139.841 50.951C138.801 51.4569 138.681 51.5747 137.521 51.9911C137.293 52.0764 137.257 52.1617 137.255 52.3507C137.279 52.2511 137.344 52.1902 137.507 52.1292H137.505Z" fill="white"/>
<path d="M143.867 47.8471C145.561 48.3813 147.257 49.4234 147.257 52.2775C147.257 52.2857 147.257 52.2938 147.257 52.3019C147.267 52.245 147.273 52.1922 147.273 52.1394C147.273 49.2853 145.579 48.2452 143.883 47.7089C141.657 47.0264 140.704 46.5206 140.702 43.8534C140.692 43.894 140.686 43.9367 140.686 43.9813C140.686 46.6567 141.636 47.1625 143.867 47.8471Z" fill="white"/>
<path d="M30.7995 35.0922C29.3511 35.0109 27.8966 35.0983 26.4381 35.1633C23.0843 35.342 19.698 35.6081 16.3137 35.8905C15.8505 37.1378 15.5966 38.4866 15.5966 39.8944C15.5966 41.7267 16.0273 43.4574 16.789 44.9952C18.8062 43.9714 21.5973 42.6672 23.0802 42.4722C24.5266 42.2833 25.5098 42.7241 26.0806 43.1263C26.5498 43.4554 26.9256 43.8921 27.1531 44.3512C27.6854 43.2868 29.0952 42.1939 31.224 42.4722C32.6907 42.6631 35.4331 43.9389 37.4441 44.9586C38.1937 43.431 38.6183 41.7125 38.6183 39.8944C38.6183 38.5841 38.3969 37.3247 37.9926 36.1526C35.5935 35.7828 33.2026 35.2973 30.8015 35.0942L30.7995 35.0922ZM22.1153 39.5734C21.0692 39.5734 20.1672 40.0488 19.1861 40.4307C19.4197 39.2809 20.7279 38.3871 22.03 38.3465C23.3037 38.3079 24.8353 39.3459 25.0385 40.4266C24.0492 40.1381 23.1676 39.5775 22.1153 39.5754V39.5734ZM32.9182 39.4881C32.7862 40.8958 31.9147 41.9664 30.9681 41.879C30.0215 41.7917 29.3613 40.5769 29.4933 39.1692C29.6253 37.7614 30.4968 36.6909 31.4434 36.7782C32.3901 36.8656 33.0503 38.0803 32.9182 39.4881Z" fill="white"/>
<path d="M30.5483 43.1039C28.6916 43.1039 27.7774 44.3451 27.619 45.0154C27.5804 45.1759 27.2716 46.6141 28.1248 47.6907C28.7627 48.4972 29.8982 48.9075 31.4989 48.9075H37.7434L36.0411 47.9629L38.9846 46.5288C37.4123 45.6817 33.0225 43.3883 31.1333 43.1404C30.9281 43.114 30.7331 43.1018 30.5462 43.1018L30.5483 43.1039Z" fill="white"/>
<path d="M26.6802 45.0155C26.5055 44.2781 25.4167 42.848 23.1639 43.1425C21.2747 43.3883 16.8869 45.6818 15.3126 46.5309L18.254 47.965L16.5517 48.9096H22.7962C24.3969 48.9096 25.5325 48.5013 26.1703 47.6928C27.0235 46.6142 26.7147 45.176 26.6761 45.0155H26.6802Z" fill="white"/>
<path d="M42.7728 49.777C42.7728 49.7445 42.7708 49.7283 42.7708 49.7283C42.7708 49.7283 42.9475 49.8827 43.1893 50.1203C43.2969 50.226 43.4188 50.3479 43.5448 50.4799C43.819 50.7684 44.1095 51.1035 44.3228 51.4204C44.3634 51.4793 44.4101 51.5545 44.4609 51.6418C44.8266 52.2472 45.44 53.397 45.44 53.397C45.44 53.397 45.4949 52.6799 45.4624 51.652C45.4522 51.3493 45.436 51.0202 45.4055 50.6749C45.3486 49.9822 45.245 49.2245 45.0683 48.483C44.9342 47.9224 44.5787 47.1748 44.2151 46.5045C44.1379 46.3602 44.0587 46.2201 43.9835 46.086C43.9327 45.9966 43.882 45.9093 43.8352 45.828C43.7865 45.7447 43.7398 45.6655 43.6951 45.5904C43.4472 45.176 43.2644 44.8936 43.2482 44.8692L45.9398 46.1957C45.9398 46.1957 45.7732 45.5497 45.501 44.7006C45.4522 44.5503 45.4014 44.3939 45.3466 44.2354C45.3283 44.1826 45.31 44.1278 45.2917 44.0749C45.2735 44.0221 45.2531 43.9673 45.2349 43.9124C45.2166 43.8576 45.1963 43.8027 45.176 43.7479C45.1556 43.693 45.1353 43.6382 45.115 43.5813C45.0947 43.5265 45.0744 43.4696 45.052 43.4147C45.0297 43.3599 45.0094 43.303 44.987 43.2482C44.8997 43.0267 44.8103 42.8074 44.7169 42.5961C44.6701 42.4905 44.6214 42.3869 44.5726 42.2853C44.4893 42.1126 44.3634 41.881 44.211 41.619C44.1603 41.5316 44.1074 41.4402 44.0526 41.3468C43.9978 41.2533 43.9388 41.1579 43.882 41.0604C43.8231 40.9629 43.7641 40.8654 43.7032 40.7658C43.6118 40.6175 43.5204 40.4692 43.429 40.325C42.913 39.5003 42.4336 38.769 42.4336 38.769L44.9484 40.0122C44.9484 40.0122 44.5076 39.2159 44.0099 38.1006C43.8088 37.6497 43.5976 37.1439 43.4005 36.6177C42.0151 36.6319 40.6358 36.5121 39.2585 36.3313C39.5896 37.4628 39.7725 38.6552 39.7725 39.8923C39.7725 41.8993 39.3012 43.7966 38.4683 45.4827C39.2707 45.9032 39.8212 46.2099 39.8944 46.2506L40.4611 46.5654L37.5156 48.0016L39.9431 49.3464C39.9431 49.3464 39.9472 49.3565 39.9512 49.3606C39.9858 49.4317 40.0223 49.5069 40.0569 49.5841H31.5088C30.4464 49.5841 29.5566 49.4134 28.8457 49.0762C28.3337 49.3829 27.6857 49.5658 26.9808 49.5658C26.345 49.5658 25.758 49.4175 25.2725 49.1636C24.596 49.4419 23.7733 49.582 22.8084 49.582H13.9455L16.7995 47.9996L13.854 46.5634L14.4208 46.2485C14.4919 46.2099 15.0119 45.9194 15.7778 45.5172C14.9327 43.821 14.4533 41.9095 14.4533 39.8903C14.4533 38.5293 14.6707 37.221 15.0708 35.9921C13.5554 36.12 12.04 36.248 10.5307 36.374C10.3966 36.6827 10.2768 36.9834 10.1732 37.2739C10.1183 37.4303 10.0655 37.5847 10.0188 37.735C9.97207 37.8853 9.92738 38.0316 9.88878 38.1758C9.80956 38.4622 9.74455 38.7304 9.6897 38.9802C9.6633 39.1041 9.63892 39.224 9.61861 39.3378C9.59829 39.4515 9.58001 39.5592 9.56376 39.6607C9.53126 39.8639 9.50891 40.0447 9.49266 40.195C9.4886 40.2336 9.48453 40.2681 9.4825 40.3027C9.4561 40.5749 9.45406 40.7272 9.45406 40.7272L12.4564 38.7304C12.4564 38.7304 12.0908 39.4515 11.5972 40.522C11.5525 40.6196 11.5058 40.7191 11.459 40.8227C11.2722 41.233 11.069 41.686 10.8659 42.1634C10.7643 42.4011 10.6607 42.6448 10.5591 42.8927C10.4576 43.1405 10.356 43.3924 10.2565 43.6443C10.2077 43.7702 10.1569 43.8982 10.1082 44.0242C9.57392 45.4197 9.12701 46.8234 8.99903 47.8635C8.79793 49.517 8.80402 50.8923 8.88324 51.9445C8.91372 52.3488 8.95434 52.7063 8.99903 53.011C9.12295 53.8662 9.26921 54.3253 9.26921 54.3253L10.1183 52.3569L10.941 50.4474C10.7602 51.2051 10.0005 59.0056 14.047 64.6407C14.2969 64.9962 14.5671 65.3374 14.8575 65.6625C14.9002 65.7112 14.9449 65.762 14.9876 65.8108C14.9997 65.8229 15.0099 65.8372 15.0221 65.8493C15.0444 65.8737 15.0647 65.9001 15.0891 65.9245C15.1216 65.9611 15.1562 65.9976 15.1887 66.0301C15.0424 64.791 14.9815 63.5783 14.9713 62.4366C14.9672 61.9471 14.9733 61.4717 14.9876 61.0126C14.9957 60.714 15.0079 60.4235 15.0241 60.1391C15.0322 59.9868 15.0404 59.8385 15.0505 59.6902C15.0932 59.0036 15.1521 58.3718 15.213 57.8152C15.2273 57.6913 15.2415 57.5694 15.2537 57.4516C15.3146 56.9336 15.3776 56.4908 15.4345 56.1393C15.4954 55.7513 15.5462 55.473 15.5746 55.3288C15.5827 55.2841 15.5888 55.2536 15.5929 55.2354C15.5949 55.2211 15.597 55.211 15.597 55.211C15.597 55.211 15.6518 55.3694 15.7412 55.6477C15.7635 55.7188 15.79 55.796 15.8164 55.8834C15.9098 56.1759 16.0297 56.5558 16.1617 56.9966C16.7589 58.9812 17.6405 62.2436 17.8599 64.8337C17.8599 64.8337 17.8599 64.8357 17.8599 64.8377C17.862 64.8641 17.866 64.8926 17.8701 64.9251C17.8701 64.9332 17.8721 64.9413 17.8742 64.9515C17.8782 64.984 17.8823 65.0185 17.8884 65.0551C17.9006 65.1445 17.9168 65.2501 17.9331 65.372C17.9331 65.376 17.9331 65.3821 17.9331 65.3882C17.9412 65.4431 17.9473 65.502 17.9554 65.5629C17.9554 65.567 17.9554 65.5711 17.9554 65.5771C17.9635 65.6401 17.9696 65.7071 17.9757 65.7762C17.9757 65.7864 17.9757 65.7965 17.9778 65.8067C17.992 65.9489 18.0021 66.1053 18.0103 66.2739C18.0103 66.2861 18.0103 66.2983 18.0103 66.3125C18.0143 66.3978 18.0163 66.4872 18.0184 66.5786C18.0184 66.5786 18.0184 66.5806 18.0184 66.5827C18.0184 66.6741 18.0184 66.7675 18.0184 66.865C18.0184 66.8772 18.0184 66.8915 18.0184 66.9036C18.0184 67.0011 18.0143 67.1027 18.0103 67.2083C18.0103 67.2185 18.0103 67.2287 18.0103 67.2388C18.0062 67.3384 18.0001 67.442 17.992 67.5476C17.992 67.5577 17.992 67.5679 17.9899 67.5781C17.9818 67.6898 17.9717 67.8035 17.9574 67.9214C17.9574 67.9376 17.9534 67.9559 17.9513 67.9721C17.9371 68.092 17.9229 68.2118 17.9046 68.3378C17.8863 68.4617 17.866 68.5917 17.8437 68.7217C17.8396 68.7441 17.8356 68.7664 17.8315 68.7867C17.8071 68.9188 17.7807 69.0549 17.7523 69.193C17.7523 69.1971 17.7523 69.1991 17.7502 69.2032C17.7177 69.3555 17.6812 69.514 17.6405 69.6744C17.6365 69.6907 17.6324 69.7069 17.6284 69.7212C17.5898 69.8756 17.5451 70.034 17.4983 70.1945C17.4983 70.1965 17.4983 70.1985 17.4983 70.2006C17.4902 70.229 17.4821 70.2595 17.4719 70.2879C17.4252 70.4484 17.3744 70.6089 17.3176 70.7755C17.3074 70.8039 17.2993 70.8303 17.2891 70.8587C17.2302 71.0355 17.1672 71.2122 17.0982 71.395C17.2383 71.3341 17.3744 71.267 17.5085 71.198C20.5901 69.6054 22.264 66.0626 22.9201 64.34C22.9485 64.2649 22.975 64.1938 22.9993 64.1267C23.0481 63.9906 23.0907 63.8708 23.1253 63.7672C23.2126 63.5092 23.2533 63.3609 23.2533 63.3609C23.2533 63.3609 23.4015 64.2202 23.5356 65.4045C23.6027 65.9956 23.6656 66.668 23.7063 67.3546C23.7123 67.4684 23.7184 67.5842 23.7245 67.6979C23.755 68.3866 23.7591 69.0793 23.7164 69.7069C23.7083 69.8105 23.7002 69.9142 23.69 70.0157C23.6798 70.1173 23.6697 70.2148 23.6555 70.3103C23.6169 70.5987 23.5641 70.8648 23.497 71.1025C23.4523 71.261 23.3995 71.4052 23.3386 71.5332C23.881 71.3767 24.3847 71.1838 24.856 70.9603C25.2095 70.7917 25.5426 70.6069 25.8595 70.4078C25.9652 70.3407 26.0688 70.2737 26.1703 70.2026C26.475 69.9934 26.7615 69.7679 27.0337 69.5322C27.1251 69.453 27.2124 69.3738 27.2998 69.2925C27.3871 69.2113 27.4724 69.128 27.5557 69.0447C27.639 68.9614 27.7223 68.8761 27.8015 68.7908C28.1245 68.4475 28.4211 68.0859 28.6953 67.7121C28.7644 67.6187 28.8314 67.5252 28.8964 67.4298C29.0935 67.1454 29.2804 66.8549 29.4551 66.5624C29.514 66.4649 29.5709 66.3653 29.6277 66.2678C30.1336 65.3801 30.55 64.466 30.9156 63.5864C31.0131 63.9602 31.0558 64.3583 31.0558 64.7605C31.0558 65.2135 31.005 65.6726 30.9197 66.1053C30.7775 66.8264 30.5419 67.4785 30.294 67.9153C31.4316 67.4216 32.36 66.9321 33.142 66.4202C33.4772 66.2008 33.784 65.9794 34.0704 65.7518C34.5457 65.372 34.9601 64.9799 35.3319 64.5635C35.4822 64.3969 35.6244 64.2283 35.7625 64.0536C35.8316 63.9663 35.8986 63.8789 35.9657 63.7895C36.1647 63.5234 36.3557 63.2451 36.5405 62.9587C36.6259 62.8266 36.7091 62.6905 36.7924 62.5544C37.3754 61.5956 37.93 60.5149 38.6146 59.2534C38.6471 59.4078 38.6735 59.5642 38.6918 59.7207C38.6979 59.7735 38.7019 59.8263 38.706 59.8791C38.7162 59.9847 38.7263 60.0883 38.7324 60.194C38.7365 60.259 38.7344 60.324 38.7365 60.387C38.7385 60.4824 38.7405 60.5759 38.7405 60.6714C38.7405 60.7404 38.7344 60.8095 38.7324 60.8786C38.7283 60.9679 38.7243 61.0593 38.7182 61.1487C38.7121 61.2198 38.706 61.2909 38.6979 61.362C38.6897 61.4494 38.6796 61.5367 38.6694 61.622C38.6593 61.6952 38.6491 61.7663 38.639 61.8374C38.6268 61.9207 38.6146 62.006 38.5983 62.0893C38.5861 62.1624 38.5719 62.2335 38.5577 62.3046C38.5415 62.3858 38.5252 62.4671 38.509 62.5483C38.4927 62.6194 38.4785 62.6905 38.4622 62.7616C38.448 62.8246 38.4338 62.8856 38.4175 62.9465C38.4033 63.0013 38.3911 63.0562 38.3789 63.111C38.3668 63.1598 38.3525 63.2065 38.3403 63.2532C38.3221 63.3182 38.3058 63.3832 38.2875 63.4462C38.1575 63.8992 37.995 64.3807 37.8488 64.791C37.6883 65.2318 37.544 65.5954 37.4547 65.8453C37.4547 65.8453 37.4547 65.8453 37.4567 65.8433C39.2138 64.4721 40.4042 62.589 41.2046 60.5901C43.1324 55.7899 42.8175 50.3357 42.7789 49.773L42.7728 49.777Z" fill="white"/>
<path d="M29.1544 7.53643C31.3199 6.68732 34.2796 6.41105 36.3313 7.00624C36.8412 7.42471 37.4465 7.81473 37.8955 7.14235C39.027 5.62693 34.822 4.40404 33.8916 3.5732C31.9821 2.4986 30.0645 1.43009 28.0636 0.540348C26.54 -0.398152 24.7423 -0.184856 24.2425 1.73683C21.5347 8.97872 19.2088 16.5172 15.9037 23.5255C15.2232 25.0551 14.5305 26.6335 13.4254 27.9072L13.0232 28.3805C13.3767 27.4623 13.7261 26.536 14.1445 25.632C9.33218 27.5354 4.25778 29.0102 -0.00202942 32.0451C1.56214 34.5559 4.45889 35.9961 7.35768 36.2115C13.6773 35.6833 20.066 34.9154 26.3958 34.5051C34.6737 33.0445 45.8707 39.9431 51.8145 31.5677C43.8799 31.7526 35.5858 29.4104 27.897 27.9722C24.145 27.1454 20.2956 28.3134 16.5578 28.8457L16.5233 28.7136C24.1491 26.213 26.1724 26.2922 33.6986 28.4191C39.3276 29.0325 36.3943 24.7118 34.8971 21.6424C32.8008 17.5471 29.8695 11.2396 29.1524 7.5344L29.1544 7.53643Z" fill="white"/>
</g>
<defs>
<clipPath id="clip0_6_33">
<rect width="149" height="71.5352" fill="white"/>
</clipPath>
</defs>
</svg>
