<svg width="29" height="26" viewBox="0 0 29 26" fill="none" xmlns="http://www.w3.org/2000/svg">
<path d="M27.9305 25.0913C26.9398 26.2076 25.2317 26.3095 24.1154 25.3188C22.999 24.3281 22.8972 22.62 23.8879 21.5037C24.8786 20.3874 26.5867 20.2855 27.703 21.2762C28.8193 22.2669 28.9212 23.975 27.9305 25.0913ZM4.72379 4.49631C3.73309 5.61264 2.02502 5.71448 0.908692 4.72379C-0.207634 3.73309 -0.309479 2.02501 0.681215 0.908687C1.67191 -0.207639 3.37999 -0.309482 4.49631 0.681212C5.61264 1.67191 5.71448 3.37998 4.72379 4.49631ZM25.5728 23.6765L2.36616 3.08149L3.03884 2.32351L26.2455 22.9185L25.5728 23.6765Z" fill="#0080FF"/>
</svg>
