<svg width="70" height="70" viewBox="0 0 70 70" fill="none" xmlns="http://www.w3.org/2000/svg">
<path d="M69.21 0.789981C70.2633 1.84328 70.2633 3.55102 69.21 4.60432C68.1567 5.65762 66.449 5.65762 65.3957 4.60432C64.3424 3.55102 64.3424 1.84328 65.3957 0.789981C66.449 -0.26332 68.1567 -0.26332 69.21 0.789981ZM4.60432 65.3957C5.65762 66.449 5.65762 68.1567 4.60431 69.21C3.55102 70.2633 1.84328 70.2633 0.789975 69.21C-0.263326 68.1567 -0.263325 66.449 0.789973 65.3957C1.84328 64.3424 3.55102 64.3424 4.60432 65.3957ZM67.6604 3.05475L3.05474 67.6604L2.33955 66.9453L66.9452 2.33956L67.6604 3.05475Z" fill="#3DAFE9"/>
</svg>
