<svg width="28" height="55" viewBox="0 0 28 55" fill="none" xmlns="http://www.w3.org/2000/svg">
<path d="M2.694 -1.03571e-05C4.18186 -1.04221e-05 5.388 1.20613 5.388 2.69399C5.388 4.18184 4.18186 5.38799 2.694 5.38799C1.20615 5.38799 5.12314e-06 4.18184 5.05811e-06 2.69399C4.99307e-06 1.20613 1.20615 -1.0292e-05 2.694 -1.03571e-05ZM2.694 49.612C4.18186 49.612 5.388 50.8182 5.388 52.306C5.388 53.7939 4.18186 55 2.69401 55C1.20615 55 7.29177e-06 53.7939 7.22673e-06 52.306C7.1617e-06 50.8182 1.20615 49.612 2.694 49.612ZM26.991 23.7976L27.3222 23.4163L27.7 23.7444L27.3754 24.1253L26.991 23.7976ZM3.02524 2.31263L27.3222 23.4163L26.6597 24.179L2.36277 3.07534L3.02524 2.31263ZM27.3754 24.1253L3.07845 52.6337L2.30956 51.9784L26.6065 23.47L27.3754 24.1253Z" fill="#3DAFE9"/>
</svg>
