<svg width="137" height="137" viewBox="0 0 137 137" fill="none" xmlns="http://www.w3.org/2000/svg">
<path d="M0.782853 0.782857C-0.260949 1.82666 -0.260949 3.519 0.782853 4.5628C1.82666 5.6066 3.519 5.6066 4.5628 4.5628C5.6066 3.519 5.6066 1.82666 4.5628 0.782857C3.519 -0.260946 1.82666 -0.260946 0.782853 0.782857ZM132.437 132.437C131.393 133.481 131.393 135.173 132.437 136.217C133.481 137.261 135.173 137.261 136.217 136.217C137.261 135.173 137.261 133.481 136.217 132.437C135.173 131.393 133.481 131.393 132.437 132.437ZM2.31846 3.0272L133.973 134.682L134.682 133.973L3.0272 2.31846L2.31846 3.0272Z" fill="#3DAFE9"/>
</svg>
