<svg width="107" height="68" viewBox="0 0 107 68" fill="none" xmlns="http://www.w3.org/2000/svg">
<path d="M0.39562 1.28454C-0.3791 2.55019 0.0188784 4.20423 1.28453 4.97895C2.55018 5.75367 4.20423 5.35569 4.97895 4.09004C5.75366 2.82439 5.35569 1.17035 4.09004 0.395628C2.82439 -0.379092 1.17034 0.0188861 0.39562 1.28454ZM102.021 63.4907C101.246 64.7563 101.644 66.4104 102.91 67.1851C104.176 67.9598 105.83 67.5618 106.604 66.2962C107.379 65.0305 106.981 63.3765 105.715 62.6018C104.45 61.827 102.796 62.225 102.021 63.4907ZM2.42427 3.11698L104.05 65.3231L104.576 64.4637L2.9503 2.2576L2.42427 3.11698Z" fill="#5C49EA"/>
</svg>
