<svg width="28" height="55" viewBox="0 0 28 55" fill="none" xmlns="http://www.w3.org/2000/svg">
<path d="M25.006 -2.64948e-06C23.5181 -2.71452e-06 22.312 1.20614 22.312 2.69399C22.312 4.18185 23.5181 5.38799 25.006 5.38799C26.4938 5.38799 27.7 4.18185 27.7 2.69399C27.7 1.20614 26.4938 -2.58445e-06 25.006 -2.64948e-06ZM25.006 49.612C23.5181 49.612 22.312 50.8181 22.312 52.306C22.312 53.7939 23.5181 55 25.006 55C26.4938 55 27.7 53.7939 27.7 52.306C27.7 50.8181 26.4938 49.612 25.006 49.612ZM0.709037 23.7976L0.377802 23.4163L-9.20151e-07 23.7444L0.324594 24.1253L0.709037 23.7976ZM24.6747 2.31264L0.377802 23.4163L1.04027 24.179L25.3372 3.07535L24.6747 2.31264ZM0.324594 24.1253L24.6215 52.6336L25.3904 51.9783L1.09348 23.47L0.324594 24.1253Z" fill="#3DAFE9"/>
</svg>
