<svg width="53" height="48" viewBox="0 0 53 48" fill="none" xmlns="http://www.w3.org/2000/svg">
<path d="M0.679596 46.7357C1.66794 47.8493 3.37196 47.9509 4.48563 46.9626C5.5993 45.9743 5.70091 44.2702 4.71256 43.1566C3.72422 42.0429 2.0202 41.9413 0.906531 42.9296C-0.207143 43.918 -0.308745 45.622 0.679596 46.7357ZM48.2874 4.48562C49.2758 5.59929 50.9798 5.7009 52.0935 4.71255C53.2071 3.72421 53.3087 2.02019 52.3204 0.90652C51.3321 -0.207154 49.628 -0.308755 48.5144 0.679585C47.4007 1.66793 47.2991 3.37195 48.2874 4.48562ZM3.03162 45.3242L50.6395 3.07416L49.9684 2.31798L2.36054 44.568L3.03162 45.3242Z" fill="#5C49EA"/>
</svg>
