<svg width="84" height="51" viewBox="0 0 84 51" fill="none" xmlns="http://www.w3.org/2000/svg">
<path d="M0.359569 1.34072C1.09978 0.058637 2.73916 -0.380635 4.02124 0.359573C5.30332 1.09978 5.74259 2.73917 5.00238 4.02125C4.26218 5.30332 2.62279 5.7426 1.34071 5.00239C0.0586332 4.26218 -0.380639 2.62279 0.359569 1.34072ZM78.9976 46.7424C79.7378 45.4603 81.3772 45.0211 82.6593 45.7613C83.9414 46.5015 84.3806 48.1409 83.6404 49.4229C82.9002 50.705 81.2608 51.1443 79.9788 50.4041C78.6967 49.6639 78.2574 48.0245 78.9976 46.7424ZM2.93228 2.24572L81.5703 47.6474L81.0677 48.5179L2.42968 3.11624L2.93228 2.24572Z" fill="#0080FF"/>
</svg>
