<svg width="55" height="36" viewBox="0 0 55 36" fill="none" xmlns="http://www.w3.org/2000/svg">
<path d="M54.6029 1.28935C55.3805 2.55974 54.9811 4.21999 53.7107 4.99761C52.4403 5.77523 50.78 5.37576 50.0024 4.10537C49.2248 2.83498 49.6242 1.17473 50.8946 0.39711C52.165 -0.380512 53.8253 0.0189569 54.6029 1.28935ZM4.9976 31.6533C5.77523 32.9237 5.37576 34.584 4.10536 35.3616C2.83497 36.1392 1.17473 35.7398 0.397104 34.4694C-0.380519 33.199 0.0189517 31.5387 1.28934 30.7611C2.55974 29.9835 4.21998 30.3829 4.9976 31.6533ZM52.5666 3.12866L2.96136 33.4926L2.43335 32.6301L52.0386 2.26606L52.5666 3.12866Z" fill="#0080FF"/>
</svg>
