<svg width="64" height="45" viewBox="0 0 64 45" fill="none" xmlns="http://www.w3.org/2000/svg">
<path d="M0.462555 1.17436C-0.368182 2.39822 -0.0494965 4.06379 1.17436 4.89453C2.39822 5.72527 4.06379 5.40658 4.89453 4.18273C5.72527 2.95887 5.40658 1.29329 4.18273 0.462555C2.95887 -0.368182 1.29329 -0.0494965 0.462555 1.17436ZM58.8652 40.8173C58.0344 42.0411 58.3531 43.7067 59.577 44.5375C60.8008 45.3682 62.4664 45.0495 63.2972 43.8256C64.1279 42.6018 63.8092 40.9362 62.5854 40.1055C61.3615 39.2747 59.6959 39.5934 58.8652 40.8173ZM2.39651 3.09404L60.7991 42.737L61.3632 41.906L2.96058 2.26305L2.39651 3.09404Z" fill="#C883CC"/>
</svg>
