<svg width="64" height="45" viewBox="0 0 64 45" fill="none" xmlns="http://www.w3.org/2000/svg">
<path d="M63.2971 1.17436C64.1279 2.39822 63.8092 4.06379 62.5853 4.89453C61.3615 5.72527 59.6959 5.40658 58.8652 4.18272C58.0344 2.95887 58.3531 1.29329 59.577 0.462555C60.8008 -0.368182 62.4664 -0.0494965 63.2971 1.17436ZM4.89452 40.8173C5.72526 42.0411 5.40658 43.7067 4.18272 44.5374C2.95886 45.3682 1.29329 45.0495 0.462549 43.8256C-0.368188 42.6018 -0.0495014 40.9362 1.17435 40.1055C2.39821 39.2747 4.06378 39.5934 4.89452 40.8173ZM61.3632 3.09404L2.96057 42.7369L2.3965 41.906L60.7991 2.26304L61.3632 3.09404Z" fill="#3DAFE9"/>
</svg>
