<svg width="138" height="115" viewBox="0 0 138 115" fill="none" xmlns="http://www.w3.org/2000/svg">
<path d="M136.965 0.783109C138.009 1.82724 138.009 3.52012 136.965 4.56426C135.92 5.60839 134.228 5.60839 133.183 4.56425C132.139 3.52012 132.139 1.82724 133.183 0.783108C134.228 -0.261027 135.92 -0.261026 136.965 0.783109ZM4.56425 66.8092C5.60839 67.8534 5.60839 69.5462 4.56425 70.5904C3.52011 71.6345 1.82723 71.6345 0.783099 70.5904C-0.261035 69.5463 -0.261034 67.8534 0.783103 66.8092C1.82724 65.7651 3.52012 65.7651 4.56425 66.8092ZM128.89 91.1408L129.39 91.1757L129.368 91.4858L129.081 91.6043L128.89 91.1408ZM72.3658 114.436L72.5568 114.899L72.312 115L72.0907 114.855L72.3658 114.436ZM135.574 2.70864L129.39 91.1757L128.39 91.1058L134.574 2.63872L135.574 2.70864ZM129.081 91.6043L72.5568 114.899L72.1748 113.972L128.699 90.6773L129.081 91.6043ZM72.0907 114.855L2.39863 69.1189L2.94872 68.2807L72.6408 114.017L72.0907 114.855Z" fill="#C78FF7" fill-opacity="0.95"/>
</svg>
