<svg width="138" height="115" viewBox="0 0 138 115" fill="none" xmlns="http://www.w3.org/2000/svg">
<path d="M0.783103 0.783109C-0.261031 1.82724 -0.261032 3.52012 0.783102 4.56425C1.82724 5.60839 3.52011 5.60839 4.56425 4.56425C5.60838 3.52012 5.60838 1.82724 4.56425 0.783108C3.52011 -0.261027 1.82724 -0.261026 0.783103 0.783109ZM133.183 66.8092C132.139 67.8534 132.139 69.5462 133.183 70.5904C134.228 71.6345 135.92 71.6345 136.965 70.5904C138.009 69.5462 138.009 67.8534 136.965 66.8092C135.92 65.7651 134.228 65.7651 133.183 66.8092ZM8.85771 91.1408L8.35762 91.1757L8.37929 91.4858L8.6667 91.6042L8.85771 91.1408ZM65.3819 114.436L65.1909 114.899L65.4357 115L65.657 114.855L65.3819 114.436ZM2.17358 2.70864L8.35762 91.1757L9.35781 91.1058L3.17377 2.63872L2.17358 2.70864ZM8.6667 91.6042L65.1909 114.899L65.573 113.972L9.04873 90.6773L8.6667 91.6042ZM65.657 114.855L135.349 69.1189L134.799 68.2807L65.1069 114.016L65.657 114.855Z" fill="#3DAFE9"/>
</svg>
