<svg width="159" height="112" viewBox="0 0 159 112" fill="none" xmlns="http://www.w3.org/2000/svg">
<path d="M158.523 110.565C159.366 109.347 159.062 107.676 157.844 106.832C156.626 105.989 154.955 106.293 154.112 107.511C153.269 108.729 153.572 110.4 154.791 111.243C156.009 112.087 157.68 111.783 158.523 110.565ZM4.88817 4.20945C5.73139 2.99138 5.42751 1.32037 4.20945 0.477156C2.99138 -0.366068 1.32037 -0.0621937 0.477147 1.15588C-0.366075 2.37395 -0.0621992 4.04496 1.15587 4.88818C2.37394 5.7314 4.04495 5.42752 4.88817 4.20945ZM156.604 108.624L2.96894 2.26913L2.39639 3.0962L156.031 109.451L156.604 108.624Z" fill="#5C49EA"/>
</svg>
