<svg width="1200" height="1360" viewBox="0 0 1200 1360" fill="none" xmlns="http://www.w3.org/2000/svg">
<rect width="1200" height="1334" transform="translate(0 0.748535)" fill="#0F172A"/>
<g opacity="0.2">
<line y1="-0.5" x2="30.9614" y2="-0.5" transform="matrix(0.707107 -0.707107 -0.707107 -0.707107 969.257 105.149)" stroke="#3DAFE9"/>
<path d="M788.269 257.141C789.311 256.099 790.999 256.099 792.04 257.141C793.082 258.182 793.082 259.87 792.04 260.912C790.999 261.953 789.311 261.953 788.269 260.912C787.228 259.87 787.228 258.182 788.269 257.141ZM852.145 321.016C853.186 319.975 854.875 319.975 855.916 321.016C856.957 322.058 856.957 323.746 855.916 324.787C854.875 325.829 853.186 325.829 852.145 324.787C851.103 323.746 851.103 322.058 852.145 321.016ZM790.508 258.673L854.384 322.548L853.677 323.255L789.801 259.38L790.508 258.673Z" fill="#3DAFE9"/>
<path d="M715.852 243.961C714.576 243.224 714.139 241.593 714.876 240.318C715.612 239.042 717.243 238.605 718.518 239.342C719.794 240.078 720.231 241.709 719.494 242.984C718.758 244.26 717.127 244.697 715.852 243.961ZM761.019 165.729C759.743 164.993 759.306 163.362 760.043 162.086C760.779 160.811 762.41 160.374 763.685 161.11C764.961 161.847 765.398 163.478 764.661 164.753C763.925 166.029 762.294 166.466 761.019 165.729ZM716.752 241.401L761.919 163.17L762.785 163.67L717.618 241.901L716.752 241.401Z" fill="#0080FF"/>
<path d="M712.118 170.308C713.374 169.539 715.016 169.934 715.785 171.191C716.554 172.447 716.159 174.088 714.902 174.857C713.646 175.626 712.005 175.231 711.236 173.975C710.467 172.719 710.862 171.077 712.118 170.308ZM742.141 219.356C743.397 218.587 745.039 218.982 745.807 220.239C746.576 221.495 746.181 223.136 744.925 223.905C743.669 224.674 742.028 224.279 741.259 223.023C740.49 221.767 740.885 220.125 742.141 219.356ZM713.937 172.322L743.96 221.37L743.107 221.892L713.084 172.844L713.937 172.322Z" fill="#0080FF"/>
<path d="M748.472 168.437C749.574 169.414 749.674 171.1 748.697 172.201C747.719 173.303 746.034 173.403 744.932 172.426C743.831 171.448 743.73 169.763 744.708 168.661C745.685 167.56 747.371 167.459 748.472 168.437ZM728.15 191.336C729.252 192.314 729.352 193.999 728.375 195.101C727.397 196.202 725.712 196.303 724.61 195.325C723.508 194.348 723.408 192.662 724.386 191.561C725.363 190.459 727.049 190.359 728.15 191.336ZM747.076 170.763L726.754 193.662L726.006 192.999L746.328 170.1L747.076 170.763Z" fill="#0080FF"/>
<path d="M929.153 44.5167C930.194 43.4753 931.882 43.4753 932.924 44.5167C933.965 45.5581 933.965 47.2465 932.924 48.2879C931.882 49.3293 930.194 49.3293 929.153 48.2879C928.111 47.2465 928.111 45.5581 929.153 44.5167ZM995.006 176.57C996.047 175.529 997.735 175.529 998.777 176.57C999.818 177.611 999.818 179.3 998.777 180.341C997.735 181.383 996.047 181.383 995.006 180.341C993.964 179.3 993.964 177.611 995.006 176.57ZM1019.27 52.5701L1019.31 52.0714L1019.62 52.093L1019.74 52.3796L1019.27 52.5701ZM1042.51 108.946L1042.97 108.756L1043.07 109L1042.93 109.221L1042.51 108.946ZM931.073 45.9035L1019.31 52.0714L1019.24 53.0689L931.003 46.9011L931.073 45.9035ZM1019.74 52.3796L1042.97 108.756L1042.04 109.137L1018.81 52.7607L1019.74 52.3796ZM1042.93 109.221L997.309 178.73L996.473 178.181L1042.09 108.672L1042.93 109.221Z" fill="#C78FF7" fill-opacity="0.95"/>
<circle cx="2.97221" cy="2.97221" r="2.97221" transform="matrix(-4.37114e-08 1 1 4.37114e-08 1015.85 49.5076)" fill="#C78FF7" fill-opacity="0.95"/>
<path d="M922.808 66.8539C924.027 66.0268 925.685 66.3441 926.513 67.5626C927.34 68.7812 927.022 70.4395 925.804 71.2667C924.585 72.0938 922.927 71.7765 922.1 70.558C921.273 69.3394 921.59 67.6811 922.808 66.8539ZM962.28 125.003C963.498 124.176 965.156 124.494 965.984 125.712C966.811 126.931 966.493 128.589 965.275 129.416C964.056 130.243 962.398 129.926 961.571 128.707C960.744 127.489 961.061 125.83 962.28 125.003ZM924.72 68.7795L964.191 126.929L963.364 127.491L923.892 69.3411L924.72 68.7795Z" fill="#3DAFE9"/>
<circle cx="2.97221" cy="2.97221" r="2.97221" transform="matrix(-4.37114e-08 1 1 4.37114e-08 933.193 83.783)" fill="#3DAFE9"/>
<circle cx="3.43756" cy="3.43756" r="3.43756" transform="matrix(-4.37114e-08 1 1 4.37114e-08 965.82 102.199)" fill="#3DAFE9"/>
<circle cx="3.43756" cy="3.43756" r="3.43756" transform="matrix(-4.37114e-08 1 1 4.37114e-08 987.715 80.3445)" fill="#3DAFE9"/>
<circle cx="5.94441" cy="5.94441" r="5.94441" transform="matrix(0.995491 -0.0948537 -0.0948537 -0.995491 1037 144.851)" fill="#5C49EA"/>
<circle cx="5.94441" cy="5.94441" r="5.94441" transform="matrix(0.995491 -0.0948538 -0.0948538 -0.995491 995.717 110.757)" fill="#5C49EA"/>
<line y1="-0.5" x2="53.54" y2="-0.5" transform="matrix(-0.77099 -0.636847 -0.636847 0.77099 1042.35 138.373)" stroke="#5C49EA"/>
<path d="M851.364 129.203C851.364 127.73 852.558 126.536 854.031 126.536C855.503 126.536 856.697 127.73 856.697 129.203C856.697 130.676 855.503 131.87 854.031 131.87C852.558 131.87 851.364 130.676 851.364 129.203ZM900.473 129.203C900.473 127.73 901.666 126.536 903.139 126.536C904.612 126.536 905.806 127.73 905.806 129.203C905.806 130.676 904.612 131.87 903.139 131.87C901.666 131.87 900.473 130.676 900.473 129.203ZM874.92 105.153L874.543 104.825L874.867 104.451L875.244 104.772L874.92 105.153ZM853.653 128.875L874.543 104.825L875.298 105.481L854.408 129.531L853.653 128.875ZM875.244 104.772L903.464 128.823L902.815 129.584L874.596 105.533L875.244 104.772Z" fill="#3DAFE9"/>
<path d="M806.77 342.687C807.812 343.728 809.5 343.728 810.541 342.687C811.583 341.645 811.583 339.957 810.541 338.916C809.5 337.874 807.812 337.874 806.77 338.916C805.729 339.957 805.729 341.645 806.77 342.687ZM938.121 211.336C939.163 212.377 940.851 212.377 941.892 211.336C942.934 210.294 942.934 208.606 941.892 207.565C940.851 206.523 939.163 206.523 938.121 207.565C937.08 208.606 937.08 210.294 938.121 211.336ZM809.009 341.155L940.36 209.804L939.653 209.097L808.302 340.448L809.009 341.155Z" fill="#3DAFE9"/>
<path d="M928.419 258.571C927.208 257.733 925.547 258.035 924.708 259.246C923.87 260.457 924.172 262.118 925.383 262.956C926.594 263.794 928.255 263.492 929.093 262.281C929.932 261.07 929.63 259.409 928.419 258.571ZM822.688 411.303C821.477 410.465 819.816 410.767 818.978 411.978C818.139 413.189 818.441 414.85 819.652 415.689C820.863 416.527 822.525 416.225 823.363 415.014C824.201 413.803 823.899 412.142 822.688 411.303ZM926.49 260.479L820.759 413.211L821.581 413.781L927.312 261.048L926.49 260.479Z" fill="#5C49EA"/>
<path d="M862.605 399.811C863.861 400.58 865.503 400.185 866.272 398.929C867.041 397.673 866.646 396.031 865.39 395.262C864.134 394.494 862.492 394.889 861.723 396.145C860.954 397.401 861.349 399.042 862.605 399.811ZM924.343 298.951C925.599 299.72 927.241 299.325 928.01 298.069C928.779 296.813 928.384 295.171 927.127 294.402C925.871 293.633 924.23 294.028 923.461 295.285C922.692 296.541 923.087 298.182 924.343 298.951ZM864.424 397.798L926.162 296.938L925.309 296.416L863.571 397.276L864.424 397.798Z" fill="#5C49EA"/>
<path d="M718.408 404.17C719.626 404.997 721.285 404.68 722.112 403.462C722.939 402.243 722.622 400.585 721.403 399.757C720.185 398.93 718.526 399.248 717.699 400.466C716.872 401.685 717.189 403.343 718.408 404.17ZM757.879 346.021C759.097 346.848 760.756 346.531 761.583 345.312C762.41 344.094 762.093 342.435 760.874 341.608C759.656 340.781 757.997 341.098 757.17 342.317C756.343 343.535 756.66 345.194 757.879 346.021ZM720.319 402.245L759.79 344.095L758.963 343.534L719.492 401.683L720.319 402.245Z" fill="#C883CC"/>
<path d="M934.021 403.957C935.123 402.98 935.223 401.294 934.246 400.193C933.268 399.091 931.583 398.991 930.481 399.968C929.38 400.946 929.279 402.631 930.257 403.733C931.234 404.834 932.92 404.935 934.021 403.957ZM892.232 356.868C893.333 355.891 893.434 354.205 892.456 353.104C891.479 352.002 889.793 351.902 888.692 352.879C887.59 353.857 887.49 355.542 888.467 356.644C889.445 357.745 891.13 357.846 892.232 356.868ZM932.625 401.631L890.836 354.542L890.088 355.206L931.877 402.295L932.625 401.631Z" fill="#5C49EA"/>
<circle cx="731.765" cy="384.266" r="2.97221" transform="rotate(-90 731.765 384.266)" fill="#C883CC"/>
<circle cx="764.858" cy="365.385" r="3.43756" transform="rotate(-90 764.858 365.385)" fill="#3DAFE9"/>
<circle cx="786.752" cy="387.238" r="3.43756" transform="rotate(-90 786.752 387.238)" fill="#3DAFE9"/>
<path d="M975.498 369.522C976.539 370.564 978.228 370.564 979.269 369.522C980.311 368.481 980.311 366.793 979.269 365.751C978.228 364.71 976.539 364.71 975.498 365.751C974.457 366.793 974.457 368.481 975.498 369.522ZM1041.35 237.469C1042.39 238.51 1044.08 238.51 1045.12 237.469C1046.16 236.428 1046.16 234.739 1045.12 233.698C1044.08 232.656 1042.39 232.656 1041.35 233.698C1040.31 234.739 1040.31 236.428 1041.35 237.469ZM1065.62 361.469L1065.65 361.968L1065.96 361.946L1066.08 361.659L1065.62 361.469ZM1088.85 305.093L1089.31 305.283L1089.42 305.039L1089.27 304.819L1088.85 305.093ZM977.418 368.136L1065.65 361.968L1065.58 360.97L977.349 367.138L977.418 368.136ZM1066.08 361.659L1089.31 305.283L1088.39 304.902L1065.16 361.278L1066.08 361.659ZM1089.27 304.819L1043.65 235.309L1042.82 235.858L1088.43 305.367L1089.27 304.819Z" fill="#3DAFE9"/>
<circle cx="1065.16" cy="361.559" r="2.97221" transform="rotate(-90 1065.16 361.559)" fill="#3DAFE9"/>
<circle cx="762.35" cy="394.567" r="5.94441" transform="rotate(-90 762.35 394.567)" fill="#C883CC"/>
<circle cx="800.209" cy="432.426" r="5.94441" transform="rotate(-90 800.209 432.426)" fill="#C883CC"/>
<line x1="762.704" y1="394.214" x2="800.562" y2="432.072" stroke="#C883CC"/>
<line x1="765.212" y1="365.516" x2="787.105" y2="387.409" stroke="#3DAFE9"/>
<path d="M646.965 341.82C646.965 343.293 648.159 344.487 649.631 344.487C651.104 344.487 652.298 343.293 652.298 341.82C652.298 340.347 651.104 339.153 649.631 339.153C648.159 339.153 646.965 340.347 646.965 341.82ZM696.073 341.82C696.073 343.293 697.267 344.487 698.74 344.487C700.213 344.487 701.407 343.293 701.407 341.82C701.407 340.347 700.213 339.153 698.74 339.153C697.267 339.153 696.073 340.347 696.073 341.82ZM670.521 365.871L670.143 366.198L670.468 366.572L670.845 366.251L670.521 365.871ZM649.254 342.148L670.143 366.198L670.898 365.543L650.009 341.492L649.254 342.148ZM670.845 366.251L699.064 342.201L698.416 341.44L670.197 365.49L670.845 366.251Z" fill="#3DAFE9"/>
<circle cx="7.60032" cy="7.60032" r="7.60032" transform="matrix(-4.37114e-08 1 1 4.37114e-08 723.145 331.766)" fill="#3DAFE9"/>
<circle cx="7.60032" cy="7.60032" r="7.60032" transform="matrix(-4.37114e-08 1 1 4.37114e-08 771.55 283.362)" fill="#3DAFE9"/>
<path d="M731.028 339.65L719.538 271.335L779.433 291.245" stroke="#3DAFE9" stroke-width="2"/>
<circle cx="8.99783" cy="8.99783" r="8.49783" transform="matrix(-4.37114e-08 1 1 4.37114e-08 708.185 232.655)" stroke="#0080FF"/>
<circle cx="8.99783" cy="8.99783" r="8.74783" transform="matrix(-4.37114e-08 1 1 4.37114e-08 689.741 332.823)" stroke="#3DAFE9" stroke-width="0.5"/>
</g>
<g opacity="0.2">
<line y1="-0.5" x2="30.9614" y2="-0.5" transform="matrix(0.707107 -0.707107 -0.707107 -0.707107 353.626 382.781)" stroke="#3DAFE9"/>
<path d="M172.638 534.772C173.679 533.73 175.368 533.73 176.409 534.772C177.45 535.813 177.45 537.502 176.409 538.543C175.368 539.584 173.679 539.584 172.638 538.543C171.596 537.502 171.596 535.813 172.638 534.772ZM236.513 598.647C237.555 597.606 239.243 597.606 240.285 598.647C241.326 599.689 241.326 601.377 240.285 602.419C239.243 603.46 237.555 603.46 236.513 602.419C235.472 601.377 235.472 599.689 236.513 598.647ZM174.877 536.304L238.753 600.18L238.045 600.887L174.17 537.011L174.877 536.304Z" fill="#3DAFE9"/>
<path d="M100.22 521.592C98.9449 520.855 98.5079 519.225 99.2443 517.949C99.9807 516.674 101.612 516.237 102.887 516.973C104.162 517.709 104.599 519.34 103.863 520.616C103.127 521.891 101.496 522.328 100.22 521.592ZM145.387 443.361C144.112 442.624 143.675 440.993 144.411 439.718C145.148 438.442 146.778 438.005 148.054 438.742C149.329 439.478 149.766 441.109 149.03 442.384C148.294 443.66 146.663 444.097 145.387 443.361ZM101.121 519.032L146.288 440.801L147.154 441.301L101.987 519.532L101.121 519.032Z" fill="#0080FF"/>
<path d="M96.4867 447.94C97.7428 447.171 99.3844 447.566 100.153 448.822C100.922 450.078 100.527 451.72 99.2711 452.489C98.015 453.257 96.3734 452.862 95.6045 451.606C94.8356 450.35 95.2306 448.709 96.4867 447.94ZM126.51 496.988C127.766 496.219 129.407 496.614 130.176 497.87C130.945 499.126 130.55 500.768 129.294 501.536C128.038 502.305 126.396 501.91 125.627 500.654C124.858 499.398 125.253 497.757 126.51 496.988ZM98.3054 449.953L128.328 499.001L127.475 499.523L97.4525 450.475L98.3054 449.953Z" fill="#0080FF"/>
<path d="M132.841 446.068C133.942 447.046 134.043 448.731 133.065 449.833C132.088 450.934 130.402 451.035 129.301 450.057C128.199 449.08 128.099 447.394 129.076 446.293C130.054 445.191 131.739 445.091 132.841 446.068ZM112.519 468.967C113.62 469.945 113.721 471.63 112.743 472.732C111.766 473.834 110.08 473.934 108.979 472.956C107.877 471.979 107.777 470.293 108.754 469.192C109.732 468.09 111.417 467.99 112.519 468.967ZM131.445 448.395L111.123 471.294L110.375 470.63L130.697 447.731L131.445 448.395Z" fill="#0080FF"/>
<path d="M313.521 322.148C314.563 321.107 316.251 321.107 317.292 322.148C318.334 323.189 318.334 324.878 317.292 325.919C316.251 326.961 314.563 326.961 313.521 325.919C312.48 324.878 312.48 323.189 313.521 322.148ZM379.374 454.201C380.416 453.16 382.104 453.16 383.145 454.201C384.187 455.243 384.187 456.931 383.145 457.973C382.104 459.014 380.416 459.014 379.374 457.973C378.333 456.931 378.333 455.243 379.374 454.201ZM403.642 330.201L403.677 329.703L403.986 329.724L404.104 330.011L403.642 330.201ZM426.876 386.578L427.338 386.387L427.439 386.631L427.294 386.852L426.876 386.578ZM315.442 323.535L403.677 329.703L403.607 330.7L315.372 324.532L315.442 323.535ZM404.104 330.011L427.338 386.387L426.414 386.768L403.18 330.392L404.104 330.011ZM427.294 386.852L381.678 456.361L380.842 455.813L426.458 386.303L427.294 386.852Z" fill="#C78FF7" fill-opacity="0.95"/>
<circle cx="2.97221" cy="2.97221" r="2.97221" transform="matrix(-4.37114e-08 1 1 4.37114e-08 400.215 327.139)" fill="#C78FF7" fill-opacity="0.95"/>
<path d="M307.177 344.485C308.396 343.658 310.054 343.975 310.881 345.194C311.708 346.413 311.391 348.071 310.172 348.898C308.954 349.725 307.295 349.408 306.468 348.189C305.641 346.971 305.958 345.312 307.177 344.485ZM346.648 402.635C347.867 401.808 349.525 402.125 350.352 403.343C351.179 404.562 350.862 406.22 349.643 407.047C348.425 407.875 346.766 407.557 345.939 406.339C345.112 405.12 345.43 403.462 346.648 402.635ZM309.088 346.411L348.559 404.56L347.732 405.122L308.261 346.972L309.088 346.411Z" fill="#3DAFE9"/>
<circle cx="2.97221" cy="2.97221" r="2.97221" transform="matrix(-4.37114e-08 1 1 4.37114e-08 317.562 361.414)" fill="#3DAFE9"/>
<circle cx="3.43756" cy="3.43756" r="3.43756" transform="matrix(-4.37114e-08 1 1 4.37114e-08 350.189 379.83)" fill="#3DAFE9"/>
<circle cx="3.43756" cy="3.43756" r="3.43756" transform="matrix(-4.37114e-08 1 1 4.37114e-08 372.083 357.976)" fill="#3DAFE9"/>
<circle cx="5.94441" cy="5.94441" r="5.94441" transform="matrix(0.995491 -0.0948537 -0.0948537 -0.995491 421.365 422.483)" fill="#5C49EA"/>
<circle cx="5.94441" cy="5.94441" r="5.94441" transform="matrix(0.995491 -0.0948538 -0.0948538 -0.995491 380.085 388.389)" fill="#5C49EA"/>
<line y1="-0.5" x2="53.54" y2="-0.5" transform="matrix(-0.77099 -0.636847 -0.636847 0.77099 426.719 416.004)" stroke="#5C49EA"/>
<path d="M235.733 406.834C235.733 405.362 236.926 404.168 238.399 404.168C239.872 404.168 241.066 405.362 241.066 406.834C241.066 408.307 239.872 409.501 238.399 409.501C236.926 409.501 235.733 408.307 235.733 406.834ZM284.841 406.834C284.841 405.362 286.035 404.168 287.508 404.168C288.981 404.168 290.175 405.362 290.175 406.834C290.175 408.307 288.981 409.501 287.508 409.501C286.035 409.501 284.841 408.307 284.841 406.834ZM259.289 382.784L258.911 382.456L259.236 382.082L259.613 382.403L259.289 382.784ZM238.022 406.507L258.911 382.456L259.666 383.112L238.777 407.162L238.022 406.507ZM259.613 382.403L287.832 406.454L287.184 407.215L258.964 383.165L259.613 382.403Z" fill="#3DAFE9"/>
<path d="M191.139 620.318C192.18 621.36 193.869 621.36 194.91 620.318C195.951 619.277 195.951 617.588 194.91 616.547C193.869 615.506 192.18 615.506 191.139 616.547C190.097 617.588 190.097 619.277 191.139 620.318ZM322.49 488.967C323.531 490.009 325.22 490.009 326.261 488.967C327.302 487.926 327.302 486.237 326.261 485.196C325.22 484.155 323.531 484.155 322.49 485.196C321.448 486.237 321.448 487.926 322.49 488.967ZM193.378 618.786L324.729 487.435L324.022 486.728L192.671 618.079L193.378 618.786Z" fill="#3DAFE9"/>
<path d="M312.787 536.202C311.576 535.364 309.915 535.666 309.077 536.877C308.239 538.088 308.541 539.749 309.752 540.587C310.963 541.426 312.624 541.124 313.462 539.913C314.3 538.702 313.998 537.04 312.787 536.202ZM207.057 688.935C205.846 688.096 204.185 688.399 203.346 689.609C202.508 690.82 202.81 692.482 204.021 693.32C205.232 694.158 206.893 693.856 207.731 692.645C208.57 691.434 208.268 689.773 207.057 688.935ZM310.858 538.11L205.128 690.843L205.95 691.412L311.681 538.679L310.858 538.11Z" fill="#5C49EA"/>
<path d="M246.974 677.443C248.23 678.212 249.872 677.817 250.641 676.56C251.41 675.304 251.015 673.663 249.758 672.894C248.502 672.125 246.861 672.52 246.092 673.776C245.323 675.032 245.718 676.674 246.974 677.443ZM308.712 576.582C309.968 577.351 311.609 576.956 312.378 575.7C313.147 574.444 312.752 572.803 311.496 572.034C310.24 571.265 308.598 571.66 307.829 572.916C307.061 574.172 307.456 575.814 308.712 576.582ZM248.793 675.429L310.53 574.569L309.677 574.047L247.94 674.907L248.793 675.429Z" fill="#5C49EA"/>
<path d="M102.777 681.802C103.995 682.629 105.653 682.311 106.481 681.093C107.308 679.874 106.99 678.216 105.772 677.389C104.553 676.562 102.895 676.879 102.068 678.098C101.241 679.316 101.558 680.974 102.777 681.802ZM142.248 623.652C143.466 624.479 145.124 624.162 145.952 622.943C146.779 621.725 146.461 620.067 145.243 619.239C144.024 618.412 142.366 618.73 141.539 619.948C140.712 621.167 141.029 622.825 142.248 623.652ZM104.688 679.876L144.159 621.727L143.332 621.165L103.86 679.314L104.688 679.876Z" fill="#C883CC"/>
<path d="M318.39 681.589C319.491 680.611 319.592 678.925 318.614 677.824C317.637 676.722 315.951 676.622 314.85 677.599C313.748 678.577 313.648 680.263 314.625 681.364C315.603 682.466 317.288 682.566 318.39 681.589ZM276.6 634.5C277.702 633.522 277.802 631.837 276.825 630.735C275.847 629.633 274.162 629.533 273.06 630.511C271.959 631.488 271.858 633.174 272.836 634.275C273.813 635.377 275.499 635.477 276.6 634.5ZM316.994 679.262L275.204 632.173L274.456 632.837L316.246 679.926L316.994 679.262Z" fill="#5C49EA"/>
<circle cx="116.134" cy="661.897" r="2.97221" transform="rotate(-90 116.134 661.897)" fill="#C883CC"/>
<circle cx="149.227" cy="643.017" r="3.43756" transform="rotate(-90 149.227 643.017)" fill="#3DAFE9"/>
<circle cx="171.12" cy="664.869" r="3.43756" transform="rotate(-90 171.12 664.869)" fill="#3DAFE9"/>
<path d="M359.867 647.154C360.908 648.195 362.596 648.195 363.638 647.154C364.679 646.112 364.679 644.424 363.638 643.382C362.596 642.341 360.908 642.341 359.867 643.382C358.825 644.424 358.825 646.112 359.867 647.154ZM425.72 515.1C426.761 516.142 428.45 516.142 429.491 515.1C430.532 514.059 430.532 512.371 429.491 511.329C428.45 510.288 426.761 510.288 425.72 511.329C424.678 512.371 424.678 514.059 425.72 515.1ZM449.987 639.1L450.022 639.599L450.332 639.577L450.45 639.291L449.987 639.1ZM473.221 582.724L473.684 582.915L473.784 582.671L473.639 582.45L473.221 582.724ZM361.787 645.767L450.022 639.599L449.953 638.602L361.717 644.769L361.787 645.767ZM450.45 639.291L473.684 582.915L472.759 582.534L449.525 638.91L450.45 639.291ZM473.639 582.45L428.023 512.94L427.187 513.489L472.803 582.999L473.639 582.45Z" fill="#3DAFE9"/>
<circle cx="449.532" cy="639.191" r="2.97221" transform="rotate(-90 449.532 639.191)" fill="#3DAFE9"/>
<circle cx="146.719" cy="672.198" r="5.94441" transform="rotate(-90 146.719 672.198)" fill="#C883CC"/>
<circle cx="184.577" cy="710.058" r="5.94441" transform="rotate(-90 184.577 710.058)" fill="#C883CC"/>
<line x1="147.072" y1="671.845" x2="184.931" y2="709.703" stroke="#C883CC"/>
<line x1="149.581" y1="643.148" x2="171.474" y2="665.041" stroke="#3DAFE9"/>
<path d="M31.3333 619.451C31.3333 620.924 32.5272 622.118 34 622.118C35.4728 622.118 36.6667 620.924 36.6667 619.451C36.6667 617.979 35.4728 616.785 34 616.785C32.5272 616.785 31.3333 617.979 31.3333 619.451ZM80.442 619.451C80.442 620.924 81.6359 622.118 83.1087 622.118C84.5815 622.118 85.7754 620.924 85.7754 619.451C85.7754 617.979 84.5815 616.785 83.1087 616.785C81.6359 616.785 80.442 617.979 80.442 619.451ZM54.8896 643.502L54.5121 643.83L54.8369 644.204L55.2139 643.882L54.8896 643.502ZM33.6225 619.779L54.5121 643.83L55.267 643.174L34.3775 619.124L33.6225 619.779ZM55.2139 643.882L83.433 619.832L82.7844 619.071L54.5652 643.121L55.2139 643.882Z" fill="#3DAFE9"/>
<circle cx="7.60032" cy="7.60032" r="7.60032" transform="matrix(-4.37114e-08 1 1 4.37114e-08 107.514 609.397)" fill="#3DAFE9"/>
<circle cx="7.60032" cy="7.60032" r="7.60032" transform="matrix(-4.37114e-08 1 1 4.37114e-08 155.919 560.993)" fill="#3DAFE9"/>
<path d="M115.397 617.281L103.906 548.967L163.801 568.877" stroke="#3DAFE9" stroke-width="2"/>
<circle cx="8.99783" cy="8.99783" r="8.49783" transform="matrix(-4.37114e-08 1 1 4.37114e-08 92.5537 510.287)" stroke="#0080FF"/>
<circle cx="8.99783" cy="8.99783" r="8.74783" transform="matrix(-4.37114e-08 1 1 4.37114e-08 74.1094 610.454)" stroke="#3DAFE9" stroke-width="0.5"/>
</g>
<g opacity="0.2">
<line y1="-0.5" x2="30.9614" y2="-0.5" transform="matrix(-0.707107 -0.707107 -0.707107 0.707107 777.781 1037.11)" stroke="#3DAFE9"/>
<path d="M929.772 1218.1C928.73 1217.06 928.73 1215.37 929.772 1214.33C930.813 1213.29 932.501 1213.29 933.543 1214.33C934.584 1215.37 934.584 1217.06 933.543 1218.1C932.501 1219.14 930.813 1219.14 929.772 1218.1ZM993.647 1154.23C992.606 1153.18 992.606 1151.5 993.647 1150.45C994.689 1149.41 996.377 1149.41 997.418 1150.45C998.46 1151.5 998.46 1153.18 997.418 1154.23C996.377 1155.27 994.689 1155.27 993.647 1154.23ZM931.304 1215.86L995.179 1151.99L995.886 1152.69L932.011 1216.57L931.304 1215.86Z" fill="#3DAFE9"/>
<path d="M916.592 1290.52C915.855 1291.79 914.224 1292.23 912.949 1291.49C911.673 1290.76 911.236 1289.13 911.973 1287.85C912.709 1286.58 914.34 1286.14 915.616 1286.88C916.891 1287.61 917.328 1289.24 916.592 1290.52ZM838.36 1245.35C837.624 1246.63 835.993 1247.06 834.718 1246.33C833.442 1245.59 833.005 1243.96 833.742 1242.69C834.478 1241.41 836.109 1240.97 837.384 1241.71C838.66 1242.45 839.097 1244.08 838.36 1245.35ZM914.032 1289.62L835.801 1244.45L836.301 1243.59L914.532 1288.75L914.032 1289.62Z" fill="#0080FF"/>
<path d="M842.94 1294.25C842.171 1293 842.566 1291.35 843.822 1290.59C845.078 1289.82 846.72 1290.21 847.489 1291.47C848.257 1292.72 847.862 1294.37 846.606 1295.13C845.35 1295.9 843.709 1295.51 842.94 1294.25ZM891.988 1264.23C891.219 1262.97 891.614 1261.33 892.87 1260.56C894.126 1259.79 895.768 1260.19 896.536 1261.45C897.305 1262.7 896.91 1264.34 895.654 1265.11C894.398 1265.88 892.757 1265.49 891.988 1264.23ZM844.953 1292.43L894.001 1262.41L894.523 1263.26L845.475 1293.29L844.953 1292.43Z" fill="#0080FF"/>
<path d="M841.068 1257.9C842.046 1256.8 843.731 1256.7 844.833 1257.67C845.934 1258.65 846.035 1260.34 845.057 1261.44C844.08 1262.54 842.394 1262.64 841.293 1261.66C840.191 1260.69 840.091 1259 841.068 1257.9ZM863.967 1278.22C864.945 1277.12 866.63 1277.02 867.732 1278C868.834 1278.97 868.934 1280.66 867.956 1281.76C866.979 1282.86 865.293 1282.96 864.192 1281.99C863.09 1281.01 862.99 1279.32 863.967 1278.22ZM843.395 1259.29L866.294 1279.62L865.63 1280.36L842.731 1260.04L843.395 1259.29Z" fill="#0080FF"/>
<path d="M717.148 1077.22C716.107 1076.18 716.107 1074.49 717.148 1073.45C718.189 1072.4 719.878 1072.4 720.919 1073.45C721.961 1074.49 721.961 1076.18 720.919 1077.22C719.878 1078.26 718.189 1078.26 717.148 1077.22ZM849.201 1011.36C848.16 1010.32 848.16 1008.63 849.201 1007.59C850.243 1006.55 851.931 1006.55 852.973 1007.59C854.014 1008.63 854.014 1010.32 852.973 1011.36C851.931 1012.41 850.243 1012.41 849.201 1011.36ZM725.201 987.097L724.703 987.062L724.724 986.753L725.011 986.634L725.201 987.097ZM781.578 963.863L781.387 963.401L781.631 963.3L781.852 963.445L781.578 963.863ZM718.535 1075.3L724.703 987.062L725.7 987.132L719.532 1075.37L718.535 1075.3ZM725.011 986.634L781.387 963.401L781.768 964.325L725.392 987.559L725.011 986.634ZM781.852 963.445L851.361 1009.06L850.813 1009.9L781.303 964.281L781.852 963.445Z" fill="#C78FF7" fill-opacity="0.95"/>
<circle cx="2.97221" cy="2.97221" r="2.97221" transform="matrix(1 1.74846e-07 1.74846e-07 -1 722.139 990.524)" fill="#C78FF7" fill-opacity="0.95"/>
<path d="M739.485 1083.56C738.658 1082.34 738.975 1080.69 740.194 1079.86C741.413 1079.03 743.071 1079.35 743.898 1080.57C744.725 1081.79 744.408 1083.44 743.189 1084.27C741.971 1085.1 740.312 1084.78 739.485 1083.56ZM797.635 1044.09C796.808 1042.87 797.125 1041.21 798.343 1040.39C799.562 1039.56 801.22 1039.88 802.047 1041.1C802.875 1042.31 802.557 1043.97 801.339 1044.8C800.12 1045.63 798.462 1045.31 797.635 1044.09ZM741.411 1081.65L799.56 1042.18L800.122 1043.01L741.972 1082.48L741.411 1081.65Z" fill="#3DAFE9"/>
<circle cx="2.97221" cy="2.97221" r="2.97221" transform="matrix(1 1.74846e-07 1.74846e-07 -1 756.414 1073.18)" fill="#3DAFE9"/>
<circle cx="3.43756" cy="3.43756" r="3.43756" transform="matrix(1 1.74846e-07 1.74846e-07 -1 774.83 1040.55)" fill="#3DAFE9"/>
<circle cx="3.43756" cy="3.43756" r="3.43756" transform="matrix(1 1.74846e-07 1.74846e-07 -1 752.976 1018.66)" fill="#3DAFE9"/>
<circle cx="5.94441" cy="5.94441" r="5.94441" transform="matrix(-0.0948536 -0.995491 -0.995491 0.0948536 817.483 969.374)" fill="#5C49EA"/>
<circle cx="5.94441" cy="5.94441" r="5.94441" transform="matrix(-0.0948536 -0.995491 -0.995491 0.0948536 783.389 1010.65)" fill="#5C49EA"/>
<line y1="-0.5" x2="53.54" y2="-0.5" transform="matrix(-0.636847 0.77099 0.77099 0.636847 811.004 964.021)" stroke="#5C49EA"/>
<path d="M801.834 1155.01C800.361 1155.01 799.168 1153.81 799.168 1152.34C799.168 1150.87 800.361 1149.67 801.834 1149.67C803.307 1149.67 804.501 1150.87 804.501 1152.34C804.501 1153.81 803.307 1155.01 801.834 1155.01ZM801.834 1105.9C800.361 1105.9 799.168 1104.7 799.168 1103.23C799.168 1101.76 800.361 1100.56 801.834 1100.56C803.307 1100.56 804.501 1101.76 804.501 1103.23C804.501 1104.7 803.307 1105.9 801.834 1105.9ZM777.784 1131.45L777.456 1131.83L777.082 1131.5L777.403 1131.13L777.784 1131.45ZM801.506 1152.72L777.456 1131.83L778.112 1131.07L802.162 1151.96L801.506 1152.72ZM777.403 1131.13L801.454 1102.91L802.215 1103.56L778.164 1131.78L777.403 1131.13Z" fill="#3DAFE9"/>
<path d="M1015.32 1199.6C1016.36 1198.56 1016.36 1196.87 1015.32 1195.83C1014.28 1194.79 1012.59 1194.79 1011.55 1195.83C1010.51 1196.87 1010.51 1198.56 1011.55 1199.6C1012.59 1200.64 1014.28 1200.64 1015.32 1199.6ZM883.967 1068.25C885.009 1067.21 885.009 1065.52 883.967 1064.48C882.926 1063.44 881.237 1063.44 880.196 1064.48C879.155 1065.52 879.155 1067.21 880.196 1068.25C881.237 1069.29 882.926 1069.29 883.967 1068.25ZM1013.79 1197.36L882.435 1066.01L881.728 1066.72L1013.08 1198.07L1013.79 1197.36Z" fill="#3DAFE9"/>
<path d="M931.202 1077.95C930.364 1079.16 930.666 1080.82 931.877 1081.66C933.088 1082.5 934.749 1082.2 935.587 1080.99C936.425 1079.78 936.123 1078.12 934.912 1077.28C933.701 1076.44 932.04 1076.74 931.202 1077.95ZM1083.93 1183.68C1083.1 1184.89 1083.4 1186.55 1084.61 1187.39C1085.82 1188.23 1087.48 1187.93 1088.32 1186.72C1089.16 1185.51 1088.86 1183.85 1087.64 1183.01C1086.43 1182.17 1084.77 1182.47 1083.93 1183.68ZM933.11 1079.88L1085.84 1185.61L1086.41 1184.79L933.679 1079.06L933.11 1079.88Z" fill="#5C49EA"/>
<path d="M1072.44 1143.77C1073.21 1142.51 1072.82 1140.87 1071.56 1140.1C1070.3 1139.33 1068.66 1139.72 1067.89 1140.98C1067.12 1142.24 1067.52 1143.88 1068.78 1144.65C1070.03 1145.42 1071.67 1145.02 1072.44 1143.77ZM971.582 1082.03C972.351 1080.77 971.956 1079.13 970.7 1078.36C969.444 1077.59 967.802 1077.99 967.033 1079.24C966.265 1080.5 966.66 1082.14 967.916 1082.91C969.172 1083.68 970.813 1083.28 971.582 1082.03ZM1070.43 1141.95L969.569 1080.21L969.047 1081.06L1069.91 1142.8L1070.43 1141.95Z" fill="#5C49EA"/>
<path d="M1076.8 1287.96C1077.63 1286.74 1077.31 1285.09 1076.09 1284.26C1074.87 1283.43 1073.22 1283.75 1072.39 1284.97C1071.56 1286.19 1071.88 1287.84 1073.1 1288.67C1074.32 1289.5 1075.97 1289.18 1076.8 1287.96ZM1018.65 1248.49C1019.48 1247.27 1019.16 1245.62 1017.94 1244.79C1016.72 1243.96 1015.07 1244.28 1014.24 1245.5C1013.41 1246.72 1013.73 1248.37 1014.95 1249.2C1016.17 1250.03 1017.82 1249.71 1018.65 1248.49ZM1074.88 1286.05L1016.73 1246.58L1016.16 1247.41L1074.31 1286.88L1074.88 1286.05Z" fill="#C883CC"/>
<path d="M1076.59 1072.35C1075.61 1071.25 1073.93 1071.15 1072.82 1072.13C1071.72 1073.1 1071.62 1074.79 1072.6 1075.89C1073.58 1076.99 1075.26 1077.09 1076.36 1076.11C1077.47 1075.14 1077.57 1073.45 1076.59 1072.35ZM1029.5 1114.14C1028.52 1113.04 1026.84 1112.94 1025.73 1113.91C1024.63 1114.89 1024.53 1116.58 1025.51 1117.68C1026.49 1118.78 1028.17 1118.88 1029.27 1117.9C1030.38 1116.93 1030.48 1115.24 1029.5 1114.14ZM1074.26 1073.75L1027.17 1115.54L1027.84 1116.28L1074.93 1074.49L1074.26 1073.75Z" fill="#5C49EA"/>
<circle cx="1056.9" cy="1274.61" r="2.97221" transform="rotate(-180 1056.9 1274.61)" fill="#C883CC"/>
<circle cx="1038.02" cy="1241.51" r="3.43756" transform="rotate(-180 1038.02 1241.51)" fill="#3DAFE9"/>
<circle cx="1059.87" cy="1219.62" r="3.43756" transform="rotate(-180 1059.87 1219.62)" fill="#3DAFE9"/>
<path d="M1042.15 1030.87C1043.2 1029.83 1043.2 1028.14 1042.15 1027.1C1041.11 1026.06 1039.42 1026.06 1038.38 1027.1C1037.34 1028.14 1037.34 1029.83 1038.38 1030.87C1039.42 1031.91 1041.11 1031.91 1042.15 1030.87ZM910.1 965.02C911.142 963.978 911.142 962.29 910.1 961.249C909.059 960.207 907.371 960.207 906.329 961.249C905.288 962.29 905.288 963.978 906.329 965.02C907.371 966.061 909.059 966.061 910.1 965.02ZM1034.1 940.752L1034.6 940.717L1034.58 940.408L1034.29 940.29L1034.1 940.752ZM977.724 917.518L977.915 917.056L977.671 916.955L977.45 917.1L977.724 917.518ZM1040.77 1028.95L1034.6 940.717L1033.6 940.787L1039.77 1029.02L1040.77 1028.95ZM1034.29 940.29L977.915 917.056L977.534 917.98L1033.91 941.214L1034.29 940.29ZM977.45 917.1L907.94 962.716L908.489 963.552L977.999 917.936L977.45 917.1Z" fill="#3DAFE9"/>
<circle cx="1034.19" cy="941.207" r="2.97221" transform="rotate(-180 1034.19 941.207)" fill="#3DAFE9"/>
<circle cx="1067.2" cy="1244.02" r="5.94441" transform="rotate(-180 1067.2 1244.02)" fill="#C883CC"/>
<circle cx="1105.06" cy="1206.16" r="5.94441" transform="rotate(-180 1105.06 1206.16)" fill="#C883CC"/>
<line x1="1066.84" y1="1243.67" x2="1104.7" y2="1205.81" stroke="#C883CC"/>
<line x1="1038.15" y1="1241.16" x2="1060.04" y2="1219.27" stroke="#3DAFE9"/>
<path d="M1014.45 1359.41C1015.92 1359.41 1017.12 1358.21 1017.12 1356.74C1017.12 1355.27 1015.92 1354.07 1014.45 1354.07C1012.98 1354.07 1011.78 1355.27 1011.78 1356.74C1011.78 1358.21 1012.98 1359.41 1014.45 1359.41ZM1014.45 1310.3C1015.92 1310.3 1017.12 1309.1 1017.12 1307.63C1017.12 1306.16 1015.92 1304.96 1014.45 1304.96C1012.98 1304.96 1011.78 1306.16 1011.78 1307.63C1011.78 1309.1 1012.98 1310.3 1014.45 1310.3ZM1038.5 1335.85L1038.83 1336.23L1039.2 1335.9L1038.88 1335.53L1038.5 1335.85ZM1014.78 1357.12L1038.83 1336.23L1038.17 1335.47L1014.12 1356.36L1014.78 1357.12ZM1038.88 1335.53L1014.83 1307.31L1014.07 1307.95L1038.12 1336.17L1038.88 1335.53Z" fill="#3DAFE9"/>
<circle cx="7.60032" cy="7.60032" r="7.60032" transform="matrix(1 1.74846e-07 1.74846e-07 -1 1004.4 1283.23)" fill="#3DAFE9"/>
<circle cx="7.60032" cy="7.60032" r="7.60032" transform="matrix(1 1.74846e-07 1.74846e-07 -1 955.993 1234.82)" fill="#3DAFE9"/>
<path d="M1012.28 1275.34L943.966 1286.83L963.876 1226.94" stroke="#3DAFE9" stroke-width="2"/>
<circle cx="8.99783" cy="8.99783" r="8.49783" transform="matrix(1 1.74846e-07 1.74846e-07 -1 905.286 1298.19)" stroke="#0080FF"/>
<circle cx="8.99783" cy="8.99783" r="8.74783" transform="matrix(1 1.74846e-07 1.74846e-07 -1 1005.45 1316.63)" stroke="#3DAFE9" stroke-width="0.5"/>
</g>
<rect x="816" y="90.428" width="56" height="435" transform="rotate(90 816 90.428)" fill="url(#paint0_linear_32_850)"/>
<rect x="381" y="1292.43" width="56" height="435" transform="rotate(-90 381 1292.43)" fill="url(#paint1_linear_32_850)"/>
<defs>
<linearGradient id="paint0_linear_32_850" x1="872" y1="307.928" x2="816" y2="307.928" gradientUnits="userSpaceOnUse">
<stop stop-color="#0F172A" stop-opacity="0"/>
<stop offset="1" stop-color="#0F172A"/>
</linearGradient>
<linearGradient id="paint1_linear_32_850" x1="437" y1="1509.93" x2="381" y2="1509.93" gradientUnits="userSpaceOnUse">
<stop stop-color="#0F172A" stop-opacity="0"/>
<stop offset="1" stop-color="#0F172A"/>
</linearGradient>
</defs>
</svg>
