<svg width="1200" height="795" viewBox="0 0 1200 795" fill="none" xmlns="http://www.w3.org/2000/svg">
<g clip-path="url(#clip0_32_1332)">
<rect width="1200" height="794" transform="translate(0 0.748535)" fill="#0F172A"/>
<path fill-rule="evenodd" clip-rule="evenodd" d="M569.938 117.027C572.794 120.097 574.783 122.942 575.899 124.692C576.663 124.688 577.426 124.685 578.188 124.683C578.07 122.793 577.698 117.92 576.702 111.753C576.115 108.107 574.856 104.279 573.608 100.483C572.119 95.9546 570.646 91.4722 570.345 87.3999C569.794 79.9142 577.295 59.8389 577.295 59.8389C577.295 59.8389 583.365 86.5492 584.121 92.6496C584.816 98.1322 579.566 120.13 578.458 124.682C597.621 124.639 616.342 125.345 634.008 127.084C643.047 123.754 669.541 122.16 703.045 121.41C730.847 120.788 763.478 120.747 794.97 120.778C799.599 120.782 804.203 120.789 808.764 120.795H808.766C834.118 120.828 858.123 120.86 877.525 120.613C896.917 120.365 911.706 119.837 918.641 118.752C921.409 118.319 923.989 118.118 926.398 118.118C947.122 118.113 955.196 133.082 961.48 144.734C964.681 150.669 967.418 155.744 971.127 157.542C980.065 161.882 998.29 164.577 1018.65 165.493C1026.52 165.847 1034.71 165.934 1042.81 165.749C1046.95 165.653 1051.07 165.486 1055.11 165.246C1081.06 163.691 1095.28 153.831 1103.82 147.908C1106.75 145.877 1109.01 144.309 1110.85 143.697C1107.5 140.981 1102.74 137.655 1097.76 135.935C1088.47 132.703 1066.37 124.512 1066.37 124.512C1066.37 124.512 1084.26 117.683 1091.53 118.874C1096.36 119.672 1101.79 125.79 1106.27 132.209C1099.65 120.774 1093.37 109.151 1093.31 106.187C1093.24 102.796 1095.56 94.0453 1097.75 85.7974L1097.75 85.7943C1099.6 78.792 1101.36 72.1526 1101.48 69.4634C1101.83 61.6611 1104.43 65.0042 1107.24 68.63C1108.24 69.9172 1109.27 71.2401 1110.23 72.1125C1111.4 73.17 1112.89 74.1362 1114.34 75.0873C1117.65 77.2404 1120.83 79.3162 1120.02 82.1988C1119.72 83.2773 1119.19 86.0091 1118.52 89.4593L1118.52 89.4761L1118.52 89.4776C1116.58 99.4018 1113.5 115.248 1111.44 114.815C1104.28 113.284 1103.18 83.2439 1104.26 82.7335C1105.35 82.1988 1111.58 92.2121 1110.56 92.9169C1110.28 93.1127 1109.88 93.5314 1109.45 93.9873C1108.34 95.1734 1106.98 96.6114 1106.72 95.0314C1106.44 93.3822 1107.23 92.8935 1107.83 92.5237C1108.03 92.4031 1108.2 92.2951 1108.31 92.1635C1108.76 91.6288 1105.49 84.6778 1105.43 86.4763C1105.39 88.2991 1105.14 110.149 1110.76 110.805C1114.03 111.194 1118.59 84.9452 1116.73 82.4418C1114.87 79.9385 1112.97 77.8726 1108.35 73.4979C1104.73 70.0815 1103.67 73.7945 1102.92 76.4534C1102.71 77.1993 1102.52 77.8622 1102.3 78.2615C1101.32 80.06 1095.56 100.913 1097.66 106.6C1099.77 112.287 1114.34 138.585 1114.34 138.585L1119.26 151.785C1123.87 155.877 1135.71 164.426 1147.15 172.685L1147.15 172.689L1147.16 172.696C1156.65 179.546 1165.86 186.195 1170.43 189.935C1205.17 202.98 1193.7 285.22 1176.39 383.207C1175.03 390.887 1172.13 399.336 1169.53 406.894C1168.5 409.904 1167.51 412.773 1166.69 415.396C1168.08 415.675 1169.55 415.939 1171.06 416.187C1174.33 416.766 1177.86 416.875 1181.53 416.988C1198.37 417.509 1217.99 418.116 1227.18 464.577C1227.75 467.457 1227.98 471.241 1227.99 475.477C1227.99 476.586 1227.98 477.726 1227.96 478.888C1227.77 487.455 1226.89 497.27 1226.18 505.076V505.078L1226.18 505.08L1226.18 505.083C1225.81 509.291 1225.48 512.914 1225.34 515.444L1225.34 515.446V515.47C1223.12 556.338 1206.2 582.132 1205.04 583.781C1208.21 594.829 1210.71 604.263 1212 611.205C1212.59 614.388 1212.79 617.354 1212.65 620.149C1212.52 622.564 1212.13 624.702 1211.51 626.599C1209.07 635.219 1202.71 641.763 1193.84 647.04C1192.25 661.38 1181.21 726.035 1157.94 735.253C1145.39 740.214 1086.93 720.172 1048.82 704.904C1041.27 712.337 1035.09 718.114 1031.93 721.035C1027.4 725.706 1019.21 728.207 1007.24 728.713C1015.53 730.865 1028.44 734.41 1034.65 737.125C1044.22 741.305 1052.47 755.475 1052.47 755.475C1052.47 755.475 1037.8 757.443 1030.73 754.43C1024.89 751.943 1007.52 734.746 1001.62 728.807C961.126 728.544 884.36 709.478 767.865 676.826C748.809 671.486 731.237 666.564 717.812 663.04C717.149 663.333 716.488 663.626 715.828 663.921C679.14 680.294 648.109 695.532 622.916 707.903L622.915 707.904C587.453 725.317 563.558 737.05 551.737 738.276L551.665 738.34V738.316L551.642 738.314C549.159 740.917 547.377 743.157 546.432 744.926C545.084 747.454 542.447 750.735 537.48 751.999C526.099 754.926 495.925 747.138 460.344 734.014C426.87 739.711 333.646 753.428 306.994 722.858C283.633 696.039 251.283 668.762 231.495 653.614C182.501 658.331 125.109 672.058 97.0686 692.405C89.2672 698.077 81.3129 700.568 73.6875 699.874C73.0974 704.63 70.1709 729.099 71.0914 739.409C72.1133 750.857 74.6886 765.804 74.6886 765.804C74.6886 765.804 55.7828 764.978 60.4224 743.614C64.5499 724.609 71.9126 704.141 73.4875 699.855C72.9887 699.806 72.4912 699.743 71.9953 699.666L71.9907 699.672C71.9907 699.672 61.0969 713.939 52.6148 717.171C44.1124 720.404 30.8477 720.379 30.8477 720.379C30.8477 720.379 34.8741 712.942 38.3487 706.55C40.9022 701.843 54.7149 697.919 63.1811 696.772C61.1509 695.731 59.1649 694.438 57.2337 692.891C35.4712 675.482 24.1541 627.69 23.7511 592.01C16.5675 579.46 11.0948 566.752 7.15906 556.69C5.16031 551.586 3.5797 543.303 2.39684 532.675L2.37666 532.629L2.33045 532.072C1.76546 526.888 1.29346 521.159 0.912163 514.979L0.864204 514.401L0.881142 514.472C-1.36221 477.488 -0.385368 424.583 3.32298 375.755C3.21375 374.366 3.15333 373.606 3.15333 373.606L4.99281 354.625L5.041 355.528C6.35844 341.571 7.90784 328.212 9.67661 315.967C10.8185 307.783 12.1164 299.919 13.5768 292.503C13.9007 290.854 14.2284 289.244 14.56 287.674C10.8667 284.826 7.20253 282.039 3.62315 279.33C-21.7061 260.16 -37.6524 247.736 -44.7341 236.956C-47.0157 240.709 -58.8398 259.67 -66.2563 262.099C-74.493 264.796 -86 248.513 -86 248.513C-86 248.513 -79.01 249.704 -72.858 249.776C-69.6705 249.814 -66.132 245.944 -62.6858 242.175C-59.4804 238.669 -56.3549 235.251 -53.6661 235.145C-49.7905 234.976 -46.8023 235.605 -45.3385 236.005C-45.9462 235.014 -46.4779 234.037 -46.9341 233.068C-48.4613 231.826 -50.5095 230.255 -52.9306 228.632C-55.4099 226.969 -58.3525 225.908 -61.27 224.856L-61.2702 224.856C-64.7501 223.601 -68.1942 222.36 -70.7735 220.125C-75.5153 216.042 -83.4863 195.286 -83.4863 195.286C-83.4863 195.286 -64.3966 205.591 -60.3702 208.629C-58.0208 210.402 -52.8181 219.316 -48.892 226.434C-49.0996 224.618 -49.0346 222.8 -48.6998 220.952C-47.4326 213.898 -42.6834 209.179 -34.571 206.919C-33.718 206.649 -32.7515 206.41 -31.6537 206.199C20.3088 196.147 56.3164 180.071 73.5137 159.381C75.8405 156.575 77.8217 153.684 79.4505 150.712C87.5042 136.018 94.9113 124.182 101.92 114.944C115.365 97.2029 127.342 89.0224 139.602 88.5908C147.368 88.3234 165.027 94.5939 201.04 107.67C205.089 109.142 209.278 110.664 213.568 112.215C206.076 105.526 177.551 80.603 151.354 63.1443C129.856 48.815 72.6744 128.436 63.054 141.832L63.0525 141.834L63.0499 141.837L63.0471 141.841C62.4728 142.641 62.0688 143.203 61.8531 143.494C39.1504 174.33 23.4962 159.711 12.0716 149.042L12.0646 149.035L12.0465 149.019C8.70126 145.89 5.539 142.932 2.39711 141.064C-7.06598 135.449 -13.0954 125.169 -14.1377 112.822C-15.0575 101.958 -12.564 84.8722 4.52273 65.2101C22.754 44.2356 42.7225 34.2951 54.209 40.4684C58.0135 42.509 60.7409 46.2118 62.1066 51.1056C62.4755 52.4112 62.7471 53.8022 62.9159 55.2696C64.0386 64.9438 61.2036 70.9852 57.9549 77.9083L57.9548 77.9085L57.9547 77.9088L57.9546 77.909L57.9543 77.9096C56.8857 80.1868 55.7724 82.5594 54.7405 85.1881C54.455 85.914 54.0169 86.8282 53.4559 87.8819C49.094 96.6564 37.2024 115.938 32.0127 117.902C31.3728 118.142 30.5578 118.752 29.6539 119.43L29.6538 119.43C24.61 123.208 16.7982 129.061 21.2007 84.1917C22.5268 85.303 23.6753 87.4544 24.7472 90.0012C25.4584 91.6863 26.1357 93.547 26.8085 95.3953L26.8086 95.3956L26.8087 95.3959C27.4662 97.202 28.1193 98.9963 28.7956 100.603C30.197 103.923 31.699 106.433 33.5456 106.576C45.8905 95.4203 49.6512 60.3493 48.3023 59.6445C48.0206 59.4932 47.7106 59.32 47.373 59.1315L47.3725 59.1312C41.6345 55.9264 27.9447 48.2803 10.5726 68.2725C0.639381 79.6954 -3.40747 101.132 -2.61036 110.319C-1.89501 118.898 13.4135 142.352 17.0516 145.754C28.3951 156.351 42.1911 153.07 58.215 131.342C58.4901 130.968 59.1475 130.004 60.1415 128.547L60.1425 128.546C72.6655 110.184 138.584 13.532 166.438 32.1078C193.177 49.9466 236.832 105.13 249.844 121.578C251.989 124.29 253.301 125.949 253.568 126.214L253.568 126.238L253.568 126.258C284.242 136.563 314.313 145.235 332.011 145.633C342.864 145.876 366.205 143.032 395.779 139.411L395.841 139.387L395.938 139.375C439.018 134.111 494.599 127.321 549.144 125.284C547.97 124.845 546.921 124.318 546.045 123.686C537.951 117.877 536.766 96.0765 536.766 96.0765C536.766 96.0765 541.875 103.368 546.862 109.152C549.449 112.153 554.302 112.806 559.027 113.441C563.411 114.031 567.685 114.606 569.938 117.027ZM20.5306 264.932C18.454 263.464 16.4258 261.985 14.4559 260.495C9.38326 256.654 4.43044 253.888 -0.057785 251.381L-0.0583801 251.381L-0.0584946 251.381C-7.867 247.02 -14.2691 243.444 -17.4488 236.361C-17.861 235.442 -17.7236 234.418 -17.1124 233.298C-14.112 228.476 -1.06687 222.275 14.6353 214.81C39.0582 203.2 69.909 188.533 79.3892 171.249C97.9475 137.394 128.462 120.964 139.193 120.575C142.977 120.592 160.884 127.361 179.275 134.313C186.809 137.161 194.424 140.04 201.183 142.498C224.873 151.096 249.97 157.373 273.005 161.572L273.037 161.587L272.964 161.576C275.376 162.792 341.822 194.995 376.996 199.078C396.945 201.387 415.85 197.279 428.297 182.041C451.208 154.025 479.455 168.159 494.438 175.655L495.076 175.974L493.477 175.503C493.477 175.503 521.478 194.411 525.77 198.033C530.062 201.63 531.86 222.945 531.492 225.083C531.411 225.558 531.459 226.247 531.513 227.023V227.024V227.025V227.026C531.704 229.747 531.968 233.525 526.976 232.788C520.537 231.816 517.819 231.184 514.958 230.163C512.096 229.166 507.068 203.939 510.604 202.31C516.695 199.491 524.564 218.351 525.197 219.931C525.831 221.511 519.842 217.525 520.108 216.796C520.174 216.616 520.317 216.416 520.476 216.193C520.964 215.513 521.609 214.613 520.701 213.369C519.829 212.192 518.958 214.239 518.241 215.924C517.966 216.57 517.713 217.163 517.492 217.5C516.695 218.716 526.894 223.528 527.814 222.434C528.733 221.34 516.429 196.283 508.438 199.272C506.133 200.138 508.833 215.567 510.523 225.223L510.524 225.227C511.112 228.586 511.577 231.246 511.667 232.35C511.894 235.321 515.975 235.185 520.206 235.045C522.069 234.983 523.96 234.92 525.565 235.121C526.89 235.287 528.45 235.802 529.968 236.304C534.234 237.714 538.169 239.015 535.621 232.132C534.747 229.752 534.103 223.004 533.423 215.889V215.889C532.623 207.523 531.775 198.649 530.45 195.772L530.438 195.747C532.249 198.691 539.046 209.502 544 214.098C549.764 219.445 560.495 217.452 560.495 217.452C560.495 217.452 553.218 204.376 550.664 201.703C548.522 199.441 547.156 199.605 544.072 199.975C543.478 200.046 542.819 200.125 542.079 200.196C537.688 200.615 530.569 195.444 529.996 195.022L529.98 194.995H529.965C529.566 194.474 529.002 193.905 528.305 193.301C529.263 193.729 535.566 196.394 539.994 194.557C544.797 192.54 556.222 184.884 556.222 184.884C556.222 184.884 540.321 183.159 536.785 184.665C533.367 186.13 528.462 192.834 528.192 193.205C523.077 188.831 511.205 182.671 505.179 179.669C526.103 182.239 563.129 162.573 579.046 154.119C582.872 152.087 585.478 150.703 586.348 150.43L586.492 150.445L586.482 150.42L586.492 150.421L586.472 150.396C586.451 150.401 586.429 150.406 586.406 150.412L554.349 147.138C609.912 150.653 655.856 164.125 691.173 182.047L691.22 182.113L696.023 184.617L696.003 184.592L695.974 184.545C707.271 190.572 717.413 197.053 726.364 203.793C725.214 203.799 723.903 203.821 722.409 203.866C712.66 204.157 703.953 208.629 703.953 208.629C703.953 208.629 713.13 212.299 716.993 214.9C719.664 216.707 726.906 210.848 731.074 207.106C732.355 207.932 733.675 208.728 735.035 209.494C729.875 212.922 716.288 222.503 712.375 230.795C707.51 241.1 701.256 260.908 701.256 260.908C701.256 260.908 714.602 245.499 719.855 243.311C724.677 241.304 726.33 237.146 727.612 233.92C727.726 233.632 727.838 233.351 727.949 233.079C729.045 230.392 734.357 215.624 736.305 210.195C757.255 221.522 787.046 226.15 821.472 227.063L821.543 227.067L821.606 227.071C821.669 227.075 821.701 227.076 821.701 227.076C821.701 227.076 821.868 227.078 822.185 227.081C831.255 227.308 840.643 227.279 850.273 227.049C861.757 226.909 873.79 226.565 880.254 225.789L880.179 225.79C908.05 224.176 937.189 221.436 965.96 218.731C1001.69 215.372 1036.85 212.066 1068.31 211.036C1103.38 209.882 1121.89 219.682 1133.18 225.66C1136.64 227.491 1139.42 228.963 1141.79 229.653C1144.51 230.444 1146.91 232.737 1148.99 236.222C1148.79 236.568 1146.41 246.38 1142.94 260.71L1142.93 260.752C1138.54 278.872 1132.41 304.2 1126.71 326.748C1120.94 349.554 1120.26 366.68 1122.69 379.919C1125.06 397.57 1131.38 410.644 1138.66 418.569C1141.3 421.441 1145.45 424.224 1149.81 426.52C1149.66 428.425 1149.54 430.354 1149.44 432.307C1149.43 430.104 1149.35 428.877 1149.15 429.919C1149.09 430.242 1149.18 431.265 1149.41 432.867C1147.7 468.333 1153.98 511.577 1167.03 555.548C1170.76 568.165 1170.65 580.465 1170.55 590.277C1170.5 595.832 1170.45 600.59 1171.12 604.156C1173.47 617.086 1158.59 637.696 1131.9 644.283L1131.79 644.309C1119.19 647.411 1106.3 650.588 1094.33 654.442L1094.25 654.466C1101.31 644.993 1106.75 636.064 1108.95 628.851C1109.09 628.458 1109.22 628.045 1109.33 627.61C1109.64 626.443 1109.82 625.131 1109.91 623.648C1111.91 586.7 1047.79 452.665 1026.39 422.771C1025.48 418.154 1020.78 394.478 1018.03 389.526C1014.99 384.033 1005.81 378.37 1005.81 378.37C1005.81 378.37 1005.71 392.126 1009.82 399.612C1012.35 404.232 1018.13 412.268 1022.18 417.744C1018.56 414.576 1013.19 412.991 1007.31 415.933C1005.09 417.039 1002.79 418.789 1000.5 421.34C980.508 443.53 956.002 532.289 976.564 565.561C995.796 596.695 1041.89 634.658 1056.29 634.998C1060.16 635.096 1063.63 633.273 1065.8 629.992L1065.8 629.986C1067.93 626.766 1069.85 623.852 1065.42 600.283C1063.8 591.104 1060.79 577.323 1055.66 556.301C1053.19 546.142 1040.52 494.933 1034.75 485.455C1031.57 480.231 1026.26 478.158 1021.44 480.092C1020.96 480.278 1020.5 480.501 1020.04 480.764C1018.94 481.393 1017.86 482.31 1016.83 483.467C1015.95 484.44 1015.11 485.573 1014.31 486.842C1004.22 502.642 998.443 539.986 1003.46 546.531C1005.93 549.739 1018.83 562.159 1018.83 562.159C1018.82 562.116 1018.81 562.071 1018.8 562.023L1018.87 562.134C1018.79 561.704 1018.56 560.947 1018.23 559.927C1017.96 559.028 1017.62 557.939 1017.23 556.702L1017.22 556.69C1014.53 548.121 1009.61 532.463 1010.86 523.807C1021.63 446.155 1070.74 602.941 1055.25 615.774C1053.76 617.013 1051.98 617.585 1049.99 617.59C1033.34 617.538 1001.59 578.136 989.358 558.343C983.881 549.448 976.748 514.012 981.776 488.833C982.197 486.727 982.677 484.647 983.21 482.599C990.365 457.173 1007.52 443.584 1015.23 443.651C1044.99 443.87 1093.8 561.6 1090.55 621.072C1088.16 630.283 1072.77 649.192 1054.97 668.222L1054.72 668.296L1054.52 668.354C1050.75 669.109 1046.61 670.208 1042.21 671.515C1037.59 672.535 1032.81 673.423 1027.93 674.154C994.379 660.259 961.109 643.571 937.034 629.324C921.59 619.733 909.133 610.456 901.393 602.356L901.37 602.309C899.849 597.136 896.014 593.921 887.012 593.924C878.103 593.921 864.125 597.075 842.305 604.605C828.779 595.959 814.936 586.858 800.935 577.422C794.628 573.171 788.34 569.874 782.099 567.4C736.743 549.384 693.777 574.816 662.953 593.061C660.049 594.779 657.253 596.434 654.573 597.983C653.258 598.741 651.069 599.926 648.319 601.414L648.298 601.425L648.297 601.426C637.023 607.526 616.352 618.711 607.748 626.541C586.064 646.275 547.213 670.213 528.981 662.998C527.145 662.265 523.406 660.33 518.523 657.517C497.049 645.088 453.85 615.54 456.4 596.987C457.688 587.751 559.104 582.331 594.422 604.181C592.864 609.082 586.569 614.83 579.032 620.041C569.492 626.407 558.558 631.972 552.164 634.228C550.046 634.948 548.41 635.315 547.475 635.242C546.665 635.179 545.444 634.951 543.948 634.597C538.011 633.109 527.564 629.545 520.814 626.475C518.841 625.473 517.457 624.551 517.042 623.819C517.482 624.582 527.2 613.804 529.18 611.596C529.444 611.376 529.591 611.253 529.591 611.253C529.552 611.259 529.512 611.265 529.471 611.271L529.53 611.205C528.335 611.385 526.548 611.316 524.465 611.151C523.567 611.062 522.628 610.954 521.674 610.845C519.036 610.542 516.281 610.225 513.963 610.268C508.636 610.027 504.16 610.524 504.268 613.684C504.656 626.225 525.994 642.946 539.095 643.967C549.259 644.761 587.345 632.623 600.195 616.547C601.927 614.507 603.214 612.336 603.927 610.038C606.073 603.16 603.988 596.063 598.551 591.567C598.149 591.233 597.694 590.914 597.191 590.61C587.431 584.603 558.941 584.13 537.459 583.774C530.497 583.658 524.272 583.555 519.658 583.279C452.926 579.269 447.223 581.724 444.403 584.762C440.213 589.282 439.436 596.087 442.461 601.677C442.796 602.295 443.821 603.724 445.406 605.787L440.029 599.709H440.009C440.009 599.709 408.574 570.568 402.606 570.009C399.401 569.708 392.207 573.14 385.407 576.385L385.407 576.385C379.588 579.161 374.057 581.8 371.56 581.845C364.377 581.988 368.61 586.591 373.216 591.599C374.862 593.388 376.556 595.23 377.794 596.938C379.296 599.001 380.845 601.598 382.37 604.154C385.802 609.908 389.11 615.454 391.487 614.243C392.375 613.788 394.744 613.031 397.734 612.075C406.247 609.355 419.793 605.026 418.507 601.483C414.011 589.161 385.274 585.588 385.254 587.386C385.213 589.185 397.292 600.414 397.537 598.737C397.6 598.263 397.827 597.616 398.074 596.91C398.715 595.078 399.493 592.857 397.885 592.296C396.205 591.709 396.094 593.044 396.009 594.059C395.982 594.39 395.957 594.687 395.882 594.872C395.575 595.601 387.625 589.622 389.3 589.647C390.997 589.647 411.436 590.522 414.481 600.17C416.239 605.785 393.511 612.055 390.363 608.701C387.216 605.347 384.457 602.042 378.366 593.876C373.619 587.511 376.644 585.915 378.81 584.772C379.423 584.449 379.967 584.162 380.246 583.814C381.513 582.234 398.682 573.606 404.916 577.519C410.305 580.891 442.609 606.375 451.435 613.355C468.961 634.829 507.062 678.121 522.683 684.287C551.052 695.492 585.879 663.799 613.86 638.328L613.914 638.279C622.443 630.518 630.512 623.175 635.524 619.99C635.656 619.925 635.784 619.861 635.906 619.797C636.106 619.694 636.292 619.592 636.465 619.492C637.557 618.862 638.739 618.191 640.006 617.487C670.818 601.475 749.893 579.125 798.87 612.128C801.794 614.098 804.697 615.931 807.579 617.643C789.458 624.86 767.902 633.939 742.267 645.163C734.902 642.496 728.311 639.927 722.535 637.674C715.119 634.783 709.046 632.415 704.4 631.037C702.527 630.479 700.884 630.08 699.477 629.87C668.596 625.278 605.694 664.856 564.253 690.931C549.987 699.907 538.265 707.283 531.267 710.706C526.364 713.105 518.017 715.208 506.364 714.884C472.617 710.801 420.161 691.059 356.034 630.425C352.169 626.62 348.9 623.485 346.836 621.524C342.25 616.983 337.607 612.234 332.91 607.267C327.971 602.044 320.395 599.885 311.03 599.885C289.438 599.857 258.302 611.344 228.053 623.219C213.971 620.944 196.385 621.639 179.163 622.319C160.854 623.042 142.956 623.749 130.118 620.853C128.375 620.46 126.53 620.058 124.599 619.638C117.328 618.053 108.83 616.201 99.927 613.561C93.0861 611.529 86.0073 609.032 79.0622 605.833C69.5259 601.439 61.1938 593.853 54.1132 585.102L52.5582 583.136C49.8003 579.57 47.2432 575.843 44.89 572.083C47.5165 559.374 56.3235 537.26 65.6436 513.858L65.7566 513.575C71.4474 499.292 79.0466 483.309 86.8915 466.808C104.935 428.856 124.278 388.171 124.689 359.168C124.787 356.147 124.65 353.243 124.252 350.469C120.877 326.926 88.718 307.409 55.887 287.484L55.8867 287.484C48.665 283.102 41.4108 278.699 34.4233 274.23C35.4128 269.232 36.1508 266.658 37.0812 265.89C40.3955 263.143 43.8492 256.067 47.6153 248.351C51.7458 239.889 56.2521 230.657 61.3623 225.521C92.8378 193.877 129.403 169.329 157.506 183.353C160.856 185.029 164.978 186.886 169.442 188.896C179.223 193.302 190.641 198.445 199.16 204.036C202.851 206.461 206.451 208.912 209.987 211.319C238.416 230.678 262.688 247.205 297.081 224.378C335.567 198.83 383.167 213.841 396.484 248.114C396.787 248.983 397.083 249.862 397.374 250.749C399.781 258.1 346.903 270.434 323.115 261.036C317.413 258.784 313.383 255.283 312.185 250.165C309.467 238.499 343.906 234.052 344.11 234.027L370.297 243.422C370.329 243.442 370.355 243.453 370.376 243.457C370.384 243.461 370.392 243.465 370.399 243.468L370.456 243.482C370.441 243.484 370.422 243.479 370.399 243.468M370.35 243.441L370.297 243.422C370.101 243.303 369.689 242.891 369.069 242.272C366.528 239.731 360.506 233.712 351.7 230.216C360.539 233.708 366.583 239.75 369.13 242.296C369.741 242.906 370.15 243.316 370.35 243.441ZM304.479 243.025C299.782 247.708 298.913 251.397 299.513 255.172C300.351 260.397 301.619 268.296 342.332 271.82C364.549 273.74 387.236 273.108 400.112 270.192C408.533 268.272 411.619 262.536 412.723 258.04C413.867 253.471 413.97 246.106 408.063 237.017C403.555 230.081 395.236 222.127 384.237 215.592C395.216 222.123 403.52 230.065 408.022 236.992C413.929 246.082 413.827 253.446 412.682 258.016C411.597 262.438 408.594 263.122 400.485 264.97L400.071 265.064C387.195 267.98 364.856 270.07 342.618 268.15C306.378 265.014 306.04 256.966 305.812 251.55C305.784 250.882 305.757 250.253 305.665 249.679C305.436 248.238 304.783 247.371 304.246 246.659C303.433 245.58 302.886 244.854 304.479 243.025ZM231.708 193.883C223.164 188.802 214.682 183.236 206.483 177.856L206.415 177.812C198.267 172.458 190.406 167.296 182.85 162.806C190.394 167.29 198.24 172.443 206.374 177.787L206.442 177.832C214.655 183.221 223.15 188.795 231.708 193.883ZM422.028 718.699C388.768 714.002 351.893 704.102 333.094 698.919C332.507 698.757 331.922 698.589 331.339 698.416C303.152 690.027 279.296 668.938 263.26 651.821C286.473 651.562 304.774 654.062 312.308 659.692C337.84 678.775 380.407 700.853 422.028 718.699ZM586.406 150.412L586.409 150.412C586.39 150.418 586.37 150.424 586.348 150.43L586.336 150.429C586.36 150.423 586.384 150.417 586.406 150.412ZM529.996 195.022L530.041 195.097C530.019 195.066 529.996 195.035 529.972 195.004L529.996 195.022ZM27.3202 534.589C26.7021 531.205 25.6563 526.723 25.6563 526.723L25.6558 526.723C18.179 485.656 13.8523 380.835 27.7816 310.099C28.5167 306.355 29.1783 302.889 29.7774 299.688C55.1218 320.275 78.2281 342.565 80.7995 360.531C85.6638 394.362 65.9406 458.841 47.8932 504.12C41.6346 519.821 35.8792 534.265 31.6538 546.546C30.5656 543.957 28.9554 540.011 28.0252 537.192C27.7887 536.389 27.5535 535.52 27.3202 534.589ZM60.0481 656.559C53.1155 648.296 48.3869 635.536 45.6996 621.76C53.3726 629.5 62.0979 635.81 71.9495 639.495C83.2778 643.726 95.3848 642.849 105.602 642.11H105.603C111.349 641.694 116.497 641.321 120.573 641.925C132.619 643.701 151.467 644.526 169.505 644.883C166.605 645.73 163.826 646.468 161.185 647.078C146.296 650.523 117.532 655.644 95.2157 658.774C78.996 661.046 66.2012 662.266 64.6532 661.028C63.0495 659.745 61.5134 658.246 60.0481 656.559ZM1157.85 267.4C1163.01 302.655 1161.6 353.342 1157.14 378.637L1157.03 379.267C1154.74 392.156 1152.74 403.476 1151.43 412.325C1147.16 411.263 1143.3 409.922 1141.71 408.191C1138.75 404.976 1135.76 400.296 1133.25 394.356C1128.96 382.85 1128.05 366.367 1134.29 341.744C1143.65 304.72 1155.18 274.45 1157.46 268.484L1157.46 268.48L1157.46 268.478L1157.46 268.467L1157.51 268.348C1157.61 268.066 1157.7 267.846 1157.76 267.69C1157.82 267.534 1157.85 267.444 1157.85 267.421L1157.85 267.403L1157.85 267.4ZM728.459 156.4C713.124 144.794 692.242 137.018 667.969 132.07L669.31 132.265L669.312 132.263L669.33 132.265C671.528 132.296 685.659 133.273 706.094 134.685L706.096 134.686C766.036 138.828 880.208 146.719 906.562 145.487C941.213 143.86 949.692 155.411 956.533 164.732C959.4 168.639 961.98 172.153 966.079 174.142C979.143 180.474 1004.91 178.564 1032.79 176.497C1039.37 176.009 1046.06 175.513 1052.74 175.114C1062.74 174.521 1073.05 171.686 1081.97 169.232C1095.35 165.548 1105.63 162.722 1107.08 169.621C1109.64 181.678 1120.42 184.11 1127.43 185.693C1129.19 186.09 1130.72 186.433 1131.81 186.862C1115.76 186.947 1094.68 187.598 1067.72 188.481C961.296 191.981 783.153 197.814 728.459 156.4ZM1153.81 187.287C1149.12 187.011 1143.56 186.876 1137.08 186.856C1141.28 186.746 1145.12 186.797 1148.56 186.953C1150.43 187.037 1152.18 187.152 1153.81 187.287ZM1199.17 563.773C1200.74 561.866 1218.67 535.955 1208.79 486.014C1199.63 439.811 1186.51 436.044 1169.38 433.006L1168.89 432.918C1167.23 432.619 1165.64 432.332 1164.12 432.017C1164.09 456.712 1175.77 491.902 1187.02 525.767L1187.02 525.769C1191.15 538.2 1195.22 550.451 1198.63 561.94L1199.17 563.773ZM553 147.055C507.528 144.317 455.655 148.241 397.925 161.819C367.589 168.967 344.698 168.454 332.448 168.179L331.725 168.163C323.923 167.991 314.755 167.361 304.652 166.241C310.306 167.645 353.049 177.132 384.661 180.825C401.4 182.77 408.635 180.339 422.472 170.423C435.839 160.823 448.47 151.757 461.939 155.014C484.701 160.518 549.09 147.846 553 147.055ZM752.932 648.888C757.487 650.417 762.284 651.945 767.314 653.433C767.917 653.611 768.523 653.788 769.133 653.965C770.219 654.28 771.315 654.593 772.423 654.904C773.095 655.092 773.769 655.283 774.446 655.475C791.755 660.38 810.547 666.469 829.851 672.724C858.15 681.893 887.549 691.418 914.986 698.094C918.264 698.889 921.514 699.644 924.731 700.353C1002.44 717.487 1016.6 706.007 1018.73 704.284L1018.81 704.217L1019.36 703.634C1020.11 702.94 1020.86 702.237 1021.63 701.524C1022.38 700.786 1023.29 699.885 1024.32 698.859C996.938 704.105 966.173 706.039 945.681 695.37C945.681 695.37 931.456 673.861 925.242 668.563C908.197 654.045 888.784 648.225 867.455 641.831C853.764 637.727 839.282 633.386 824.131 626.355C802.457 632.081 777.431 639.828 752.932 648.888ZM954.776 668.514C956.262 669.288 957.836 670.001 959.489 670.654C967.457 673.794 977.251 675.558 987.845 676.209C983.61 674.161 979.294 672.087 974.944 669.997C935.11 650.861 892.498 630.39 884.733 616.114C881.378 615.203 873.673 615.786 862.974 617.614C888.333 633.315 912.212 647.104 933.479 658.136L954.776 668.514ZM1136.1 666.324C1151.32 662.574 1166.23 658.9 1178.78 654.114C1176.04 683.344 1162.92 694.294 1151.62 699.769C1139.8 705.494 1118.27 703.356 1092.62 696.629C1089.71 695.857 1086.75 695.037 1083.77 694.173C1077.8 692.436 1071.66 690.485 1065.41 688.358C1076.23 684.944 1083.45 682.167 1084.54 681.735C1099.3 675.413 1117.68 670.874 1135.5 666.471L1136.09 666.327L1136.1 666.324ZM695.614 657.869C698.32 658.275 702.457 659.178 707.725 660.469C662.967 680.434 612.568 702.773 580.532 714.168C617.467 687.012 673.442 654.575 695.614 657.869Z" fill="#2D2B56"/>
<rect x="34" y="94.7485" width="1131.5" height="606" rx="16" fill="#2D2B56"/>
</g>
<defs>
<clipPath id="clip0_32_1332">
<rect width="1200" height="794" fill="white" transform="translate(0 0.748535)"/>
</clipPath>
</defs>
</svg>
