<svg width="28" height="29" viewBox="0 0 28 29" fill="none" xmlns="http://www.w3.org/2000/svg">
<circle cx="14" cy="14.7485" r="14" fill="url(#paint0_linear_6_1457)"/>
<path d="M20.2071 11.7316C19.7881 11.9179 19.3458 12.0343 18.8802 12.1041C19.3458 11.8248 19.7183 11.3825 19.8812 10.847C19.4389 11.1031 18.9501 11.2893 18.4146 11.4057C17.9956 10.9634 17.3904 10.6841 16.7386 10.6841C15.4815 10.6841 14.4572 11.7084 14.4572 12.9654C14.4572 13.1517 14.4805 13.3146 14.5271 13.4776C12.6415 13.3844 10.9421 12.4766 9.80141 11.0798C9.61518 11.429 9.49878 11.8015 9.49878 12.2205C9.49878 13.012 9.89453 13.7104 10.5231 14.1294C10.1506 14.1061 9.80141 14.013 9.4755 13.85V13.8733C9.4755 14.9907 10.267 15.9219 11.3145 16.1314C11.1283 16.1779 10.9188 16.2012 10.7093 16.2012C10.5696 16.2012 10.4067 16.1779 10.267 16.1547C10.5696 17.0625 11.4077 17.7376 12.4087 17.7376C11.6172 18.3429 10.6395 18.7153 9.56862 18.7153C9.38239 18.7153 9.19616 18.7153 9.0332 18.6921C10.0575 19.3439 11.2447 19.7163 12.5483 19.7163C16.7618 19.7163 19.0665 16.2245 19.0665 13.1982C19.0665 13.1051 19.0665 12.9887 19.0665 12.8956C19.5088 12.593 19.9045 12.1972 20.2071 11.7316Z" fill="#0F172A"/>
<defs>
<linearGradient id="paint0_linear_6_1457" x1="14" y1="28.7485" x2="14" y2="0.748535" gradientUnits="userSpaceOnUse">
<stop stop-color="#5C49EA"/>
<stop offset="0.5" stop-color="#3DAFE9"/>
<stop offset="1" stop-color="#94FFED"/>
</linearGradient>
</defs>
</svg>
