<svg width="280" height="323" viewBox="0 0 280 323" fill="none" xmlns="http://www.w3.org/2000/svg">
<path fill-rule="evenodd" clip-rule="evenodd" d="M156.1 14.2622C152.175 14.2622 148.969 11.0565 148.969 7.13111C148.969 3.20573 152.175 0 156.1 0C160.026 0 163.231 3.20573 163.231 7.13111C163.231 11.0565 160.026 14.2622 156.1 14.2622ZM198.689 27.1542C198.689 32.4535 203.007 36.7714 208.306 36.7714C213.606 36.7714 217.923 32.4535 217.923 27.1542C217.923 21.8549 213.606 17.537 208.306 17.537C203.007 17.537 198.689 21.8549 198.689 27.1542ZM232.841 55.1568C226.626 55.1568 221.523 50.1192 221.523 43.8386C221.523 37.558 226.56 32.5204 232.841 32.5204C239.122 32.5204 244.159 37.558 244.159 43.8386C244.159 45.7366 243.699 47.5211 242.884 49.0874C244.578 48.28 246.475 47.828 248.477 47.828C255.667 47.828 261.496 53.6569 261.496 60.8472C261.496 68.0375 255.667 73.8664 248.477 73.8664C241.287 73.8664 235.458 68.0375 235.458 60.8472C235.458 58.4534 236.104 56.2104 237.231 54.2832C235.883 54.8462 234.4 55.1568 232.841 55.1568ZM110.238 9.87891C110.238 13.6734 113.313 16.7483 117.108 16.7483C120.902 16.7483 123.977 13.6734 123.977 9.87891C123.977 6.08437 120.902 3.00949 117.108 3.00949C113.313 3.00949 110.238 6.08437 110.238 9.87891ZM79.5567 52.0777C75.5659 52.0777 72.2947 48.8066 72.2947 44.8158C72.2947 40.825 75.5659 37.5538 79.5567 37.5538C83.5475 37.5538 86.8187 40.825 86.8187 44.8158C86.8187 48.8066 83.5475 52.0777 79.5567 52.0777ZM48.3476 88.9811C48.3476 93.3644 51.9459 96.9627 56.3292 96.9627C60.7126 96.9627 64.3108 93.3644 64.3108 88.9811C64.3108 84.5977 60.7126 80.9994 56.3292 80.9994C51.9459 80.9994 48.3476 84.5977 48.3476 88.9811ZM43.0482 130.852C38.2069 130.852 34.347 126.927 34.347 122.151C34.347 117.375 38.2723 113.449 43.0482 113.449C47.8241 113.449 51.7495 117.375 51.7495 122.151C51.7495 126.927 47.8241 130.852 43.0482 130.852ZM89.9574 138.566C86.1635 138.566 83.088 135.49 83.088 131.696C83.088 127.903 86.1635 124.827 89.9574 124.827C93.7513 124.827 96.8268 127.903 96.8268 131.697C96.8268 135.49 93.7513 138.566 89.9574 138.566ZM135.753 72.9528C132.155 72.9528 129.276 70.0742 129.276 66.4759C129.276 62.8777 132.155 59.999 135.753 59.999C139.351 59.999 142.23 62.8777 142.23 66.4759C142.23 70.0742 139.351 72.9528 135.753 72.9528ZM143.537 59.4083C143.537 63.2683 146.678 66.4086 150.538 66.4086C154.398 66.4086 157.538 63.2683 157.538 59.4083C157.538 55.5484 154.398 52.4081 150.538 52.4081C146.678 52.4081 143.537 55.5484 143.537 59.4083ZM146.288 94.8632C142.624 94.8632 139.615 91.8538 139.615 88.1901C139.615 84.5264 142.624 81.5169 146.288 81.5169C149.951 81.5169 152.961 84.5264 152.961 88.1901C152.961 91.8538 149.951 94.8632 146.288 94.8632ZM185.213 197.578C180.479 197.578 176.642 193.741 176.642 189.007C176.642 184.274 180.479 180.437 185.213 180.437C189.946 180.437 193.783 184.274 193.783 189.007C193.783 193.741 189.946 197.578 185.213 197.578ZM210.27 211.776C204.905 211.776 200.587 207.458 200.587 202.093C200.587 196.729 204.905 192.411 210.27 192.411C215.634 192.411 219.952 196.729 219.952 202.093C219.952 207.458 215.634 211.776 210.27 211.776ZM266.861 185.086C259.743 185.086 253.973 179.316 253.973 172.198C253.973 165.08 259.743 159.309 266.861 159.309C273.98 159.309 279.75 165.08 279.75 172.198C279.75 179.316 273.98 185.086 266.861 185.086ZM250.963 140.729C250.963 148.533 257.29 154.86 265.094 154.86C272.899 154.86 279.225 148.533 279.225 140.729C279.225 132.924 272.899 126.597 265.094 126.597C257.29 126.597 250.963 132.924 250.963 140.729ZM221.001 134.904C221.001 141.708 226.497 147.204 233.301 147.204C240.105 147.204 245.6 141.708 245.6 134.904C245.6 128.1 240.105 122.605 233.301 122.605C226.497 122.605 221.001 128.1 221.001 134.904ZM244.226 172C237.422 172 231.927 166.504 231.927 159.7C231.927 152.896 237.422 147.4 244.226 147.4C251.03 147.4 256.526 152.896 256.526 159.7C256.526 166.504 251.03 172 244.226 172ZM251.879 227.672C251.879 233.299 256.393 237.813 262.019 237.813C267.646 237.813 272.16 233.299 272.16 227.672C272.16 222.046 267.646 217.532 262.019 217.532C256.393 217.532 251.879 222.046 251.879 227.672ZM234.412 299.051C228.851 299.051 224.271 294.537 224.271 288.91C224.271 283.284 228.786 278.77 234.412 278.77C240.038 278.77 244.553 283.284 244.553 288.91C244.553 294.537 240.038 299.051 234.412 299.051ZM188.091 304.092C188.091 310.765 193.521 316.195 200.194 316.195C206.868 316.195 212.298 310.765 212.298 304.092C212.298 297.419 206.868 291.989 200.194 291.989C193.521 291.989 188.091 297.419 188.091 304.092ZM134.708 323C126.203 323 119.333 316.131 119.333 307.626C119.333 299.121 126.203 292.251 134.708 292.251C143.213 292.251 150.082 299.121 150.082 307.626C150.082 316.131 143.213 323 134.708 323ZM83.2836 291.724C75.4068 291.724 69.0214 285.339 69.0214 277.462C69.0214 269.585 75.4068 263.2 83.2836 263.2C91.1604 263.2 97.5458 269.585 97.5458 277.462C97.5458 285.339 91.1604 291.724 83.2836 291.724ZM49.2646 252.338C42.7223 252.338 37.423 247.039 37.423 240.496C37.423 233.954 42.7223 228.655 49.2646 228.655C55.8069 228.655 61.1062 233.954 61.1062 240.496C61.1062 247.039 55.8069 252.338 49.2646 252.338ZM17.1432 220.937C17.1432 226.956 22.05 231.863 28.0689 231.863C34.0878 231.863 38.9945 226.956 38.9945 220.937C38.9945 214.919 34.0878 210.012 28.0689 210.012C22.05 210.012 17.1432 214.919 17.1432 220.937ZM10.4023 192.349C4.64504 192.349 -2.5165e-07 187.704 0 181.947C2.5165e-07 176.189 4.64504 171.544 10.4023 171.544C14.9721 171.544 18.8412 174.471 20.2427 178.557C20.1821 178.104 20.1508 177.641 20.1508 177.171C20.1508 171.479 24.7305 166.899 30.4223 166.899C36.1141 166.899 40.6937 171.479 40.6937 177.171C40.6937 182.863 36.1141 187.442 30.4223 187.442C25.9102 187.442 22.0971 184.564 20.7103 180.536C20.7724 180.997 20.8045 181.468 20.8045 181.947C20.8045 187.704 16.1595 192.349 10.4023 192.349ZM111.416 214.721C111.416 220.141 115.81 224.534 121.229 224.534C126.649 224.534 131.043 220.141 131.043 214.721C131.043 209.301 126.649 204.907 121.229 204.907C115.81 204.907 111.416 209.301 111.416 214.721ZM140.921 221.195C140.921 226.691 145.369 231.139 150.865 231.139C156.36 231.139 160.809 226.691 160.809 221.195C160.809 215.7 156.36 211.251 150.865 211.251C145.369 211.251 140.921 215.7 140.921 221.195ZM139.156 252.991C139.156 259.784 144.662 265.291 151.455 265.291C152.07 265.291 152.675 265.246 153.266 265.158C147.538 266.789 143.343 272.06 143.343 278.311C143.343 285.863 149.465 291.984 157.017 291.984C164.568 291.984 170.69 285.863 170.69 278.311C170.69 270.759 164.568 264.638 157.017 264.638C156.3 264.638 155.597 264.693 154.911 264.799C160.021 263.306 163.755 258.584 163.755 252.991C163.755 246.198 158.248 240.692 151.455 240.692C144.662 240.692 139.156 246.198 139.156 252.991Z" fill="url(#paint0_radial_6_239)" fill-opacity="0.3" style="mix-blend-mode:color-dodge"/>
<defs>
<radialGradient id="paint0_radial_6_239" cx="0" cy="0" r="1" gradientUnits="userSpaceOnUse" gradientTransform="translate(140.071 148.152) rotate(90.0642) scale(174.848 151.436)">
<stop stop-color="white"/>
<stop offset="1" stop-color="#999999" stop-opacity="0"/>
</radialGradient>
</defs>
</svg>
