<svg width="540" height="259" viewBox="0 0 540 259" fill="none" xmlns="http://www.w3.org/2000/svg">
<g clip-path="url(#clip0_2025_668)">
<mask id="mask0_2025_668" style="mask-type:luminance" maskUnits="userSpaceOnUse" x="7" y="7" width="532" height="249">
<path d="M538.925 7H7.26501V255.44H538.925V7Z" fill="white"/>
</mask>
<g mask="url(#mask0_2025_668)">
<path fill-rule="evenodd" clip-rule="evenodd" d="M81.065 72.9899L55.275 66.7599V66.7399L46.635 40.5899C49.755 37.6599 52.995 34.9299 56.335 32.3799C56.365 32.3599 56.395 32.3399 56.425 32.3199C56.425 32.3199 56.485 32.2699 56.515 32.2599C57.215 31.7199 57.925 31.1999 58.635 30.6799C58.745 30.5999 58.855 30.5199 58.965 30.4399C59.075 30.3599 59.195 30.2799 59.295 30.1999C59.845 29.8099 60.395 29.4199 60.955 29.0299C61.425 28.6999 61.905 28.3799 62.385 28.0599C62.695 27.8599 63.005 27.6499 63.315 27.4399C83.355 14.2199 106.815 7.10986 131.375 7.10986H131.415C145.575 7.10986 159.375 9.47986 172.345 14.0199C172.385 14.0399 172.425 14.0499 172.465 14.0599C172.465 14.0599 172.545 14.0899 172.585 14.0999C173.325 14.3599 174.065 14.6299 174.795 14.8999C175.055 14.9999 175.325 15.0999 175.595 15.1999C176.125 15.3999 176.655 15.6099 177.175 15.8199C177.665 16.0099 178.145 16.1999 178.625 16.3999L179.495 16.7599C179.735 16.8599 179.975 16.9699 180.215 17.0699C180.695 17.2699 181.175 17.4799 181.655 17.6899C181.675 17.6899 181.695 17.7099 181.715 17.7099C181.725 17.7099 181.735 17.7199 181.755 17.7299C195.345 23.7399 208.075 32.3099 219.195 43.4499L224.775 49.0399L224.695 49.0599L198.325 55.9899L189.835 81.7299L185.385 77.2699C176.375 68.2399 165.505 61.7499 153.645 58.1499C152.585 57.8299 151.505 57.5399 150.425 57.2599C150.285 57.2299 150.145 57.1899 150.005 57.1499C148.995 56.8999 147.965 56.6699 146.935 56.4599C146.835 56.4399 146.745 56.4199 146.645 56.3999C146.545 56.3799 146.455 56.3599 146.355 56.3399C145.275 56.1299 144.185 55.9499 143.095 55.7799C143.025 55.7799 142.965 55.7599 142.895 55.7499H142.855C142.855 55.7499 142.815 55.7399 142.785 55.7299C142.755 55.7299 142.715 55.7199 142.685 55.7099C138.975 55.1699 135.205 54.8899 131.395 54.8899C131.035 54.8899 130.675 54.8999 130.315 54.9099C130.075 54.9099 129.845 54.9199 129.615 54.9299C118.055 55.2099 106.545 58.0799 96.045 63.5699C96.045 63.5699 96.025 63.5699 96.025 63.5799C96.025 63.5799 96.015 63.5799 96.005 63.5899C95.995 63.5899 95.975 63.6099 95.965 63.6099C95.955 63.6099 95.945 63.6199 95.935 63.6299C95.935 63.6299 95.855 63.6799 95.815 63.6999C94.845 64.2099 93.875 64.7499 92.925 65.3099C92.845 65.3599 92.755 65.4099 92.665 65.4599C92.575 65.5099 92.495 65.5699 92.405 65.6099C91.555 66.1199 90.705 66.6499 89.865 67.1999C89.745 67.2799 89.625 67.3599 89.505 67.4299C89.385 67.5099 89.265 67.5899 89.145 67.6699C88.365 68.1799 87.605 68.7199 86.845 69.2699C86.575 69.4599 86.305 69.6499 86.035 69.8499C85.285 70.3999 84.555 70.9799 83.825 71.5599L83.075 72.1599C82.835 72.3599 82.595 72.5699 82.355 72.7799C82.195 72.9199 82.035 73.0599 81.875 73.1899H81.855L81.065 72.9999V72.9899ZM349.505 54.7199L357.935 80.2699L360.975 77.2199C375.865 62.3199 395.415 54.8599 414.975 54.8599C432.665 54.8599 450.345 60.9799 464.575 73.1699L465.375 72.9799L491.165 66.7499L499.805 40.5999L499.785 40.5799C475.985 18.2799 445.485 7.10986 414.985 7.10986H414.975C383.185 7.10986 351.405 19.2199 327.215 43.4399L322.975 47.6799L323.075 47.7699L349.515 54.7199H349.505ZM538.985 128.58C538.985 128.4 538.985 128.22 538.975 128.04C538.955 127.15 538.915 126.26 538.875 125.37C538.875 125.27 538.875 125.17 538.865 125.08C538.765 123.08 538.625 121.08 538.425 119.08C538.395 118.74 538.355 118.4 538.315 118.06C538.265 117.5 538.195 116.94 538.135 116.38L538.115 116.21C538.035 115.51 537.935 114.8 537.835 114.1C537.835 114.02 537.815 113.94 537.805 113.86L537.785 113.73C537.765 113.61 537.755 113.48 537.735 113.35C536.455 104.48 534.235 95.8399 531.125 87.5399C531.105 87.4899 531.085 87.4399 531.075 87.3899V87.3699L531.055 87.3299V87.3099C531.055 87.3099 531.035 87.2799 531.035 87.2599C531.035 87.2499 531.035 87.2399 531.025 87.2299C530.755 86.5099 530.475 85.7899 530.185 85.0699L529.855 84.2299C529.695 83.8299 529.525 83.4399 529.355 83.0399L529.325 82.9599C529.285 82.8699 529.245 82.7699 529.205 82.6799C529.095 82.4399 528.995 82.1999 528.895 81.9599C528.795 81.7199 528.685 81.4699 528.585 81.2399L528.535 81.1299L528.495 81.0399C528.395 80.8199 528.295 80.6099 528.205 80.3899C527.885 79.6699 527.555 78.9499 527.225 78.2399C527.225 78.2299 527.215 78.2099 527.205 78.1999C527.205 78.1899 527.185 78.1699 527.185 78.1599C521.345 65.7799 513.365 54.1799 503.215 43.9199L503.195 43.9899L494.485 70.3599L468.335 76.6699L468.405 76.7399C468.405 76.7399 468.505 76.8299 468.545 76.8699C468.685 76.9999 468.815 77.1299 468.945 77.2599C483.365 91.6999 491.305 110.9 491.305 131.33C491.305 137.7 490.535 143.96 489.025 149.99C489.015 150.03 489.005 150.06 488.995 150.1C488.995 150.13 488.985 150.16 488.975 150.19C488.695 151.32 488.385 152.43 488.045 153.54C487.995 153.69 487.945 153.84 487.905 153.99C487.585 155.03 487.255 156.06 486.885 157.08C486.835 157.21 486.785 157.34 486.745 157.46C486.365 158.51 485.965 159.56 485.535 160.59C485.535 160.6 485.525 160.62 485.515 160.63C485.505 160.64 485.505 160.66 485.505 160.67C481.715 169.8 476.135 178.19 468.945 185.39C468.815 185.52 468.675 185.65 468.535 185.78C468.465 185.84 468.405 185.9 468.335 185.97L469.535 190.46L475.605 213.13L499.065 217.75L503.275 218.58H503.315C512.605 209.18 520.075 198.64 525.745 187.41C525.785 187.33 525.825 187.26 525.855 187.19L525.875 187.15C525.875 187.15 525.915 187.08 525.925 187.04C525.935 187.02 525.945 187 525.955 186.98C526.255 186.37 526.555 185.76 526.845 185.15C526.935 184.97 527.025 184.78 527.115 184.6C527.205 184.41 527.285 184.23 527.385 184.04C527.495 183.8 527.605 183.56 527.715 183.32C527.795 183.15 527.865 182.99 527.945 182.82C528.025 182.64 528.105 182.45 528.195 182.27V182.24C528.385 181.85 528.555 181.47 528.725 181.08C528.745 181.02 528.775 180.96 528.795 180.91L528.855 180.76L528.875 180.7C528.895 180.65 528.915 180.6 528.945 180.54L528.985 180.43C529.315 179.66 529.635 178.89 529.955 178.11C529.975 178.07 529.995 178.02 530.005 177.97C533.725 168.78 536.325 159.15 537.755 149.22C537.755 149.19 537.755 149.16 537.765 149.13V149.07C537.785 149.02 537.785 148.97 537.795 148.91C537.795 148.84 537.815 148.78 537.815 148.72V148.68L537.825 148.64V148.6C537.935 147.86 538.035 147.11 538.125 146.37C538.195 145.79 538.255 145.21 538.315 144.62C538.335 144.41 538.355 144.21 538.385 144C538.405 143.83 538.425 143.66 538.435 143.5C538.635 141.51 538.775 139.51 538.875 137.51C538.875 137.41 538.875 137.31 538.885 137.2C538.925 136.31 538.955 135.43 538.985 134.54C538.985 134.36 538.985 134.17 538.995 133.99C538.995 133.89 538.995 133.8 538.995 133.7V133.63V133.48V133.38C539.005 132.97 539.015 132.57 539.015 132.16V130.4C539.015 129.99 539.015 129.59 538.995 129.18V128.97C538.995 128.84 538.995 128.7 538.985 128.57L538.965 128.59L538.985 128.58ZM353.115 177.49L326.755 184.42L318.255 210.17L276.255 168.13L310.005 134.34L353.105 177.49H353.115ZM354.475 83.3399L346.205 58.2499L320.065 51.3699L319.415 51.1999L191.905 178.86L218.405 185.83L226.855 211.44L354.555 83.5999L354.475 83.3399ZM70.865 213.11L47.705 217.47L42.935 218.37C19.995 194.99 7.36499 164.28 7.36499 131.3C7.36499 98.3199 20.115 67.3199 43.275 43.8799V43.8999L51.995 70.3299L78.085 76.6299C77.985 76.7299 77.885 76.8299 77.775 76.9199C77.665 77.0199 77.565 77.1199 77.465 77.2199C63.035 91.6699 55.095 110.86 55.095 131.29C55.095 151.72 63.045 170.92 77.465 185.36C77.575 185.47 77.685 185.57 77.795 185.68C77.905 185.78 78.015 185.89 78.115 186L76.925 190.46L70.865 213.12V213.11ZM472.165 216.77L464.795 189.22C464.725 189.28 464.655 189.34 464.585 189.41L464.545 189.45L464.505 189.49C464.505 189.49 464.445 189.54 464.415 189.57C464.175 189.78 463.935 189.99 463.695 190.19C463.175 190.62 462.645 191.04 462.115 191.46H462.095C461.985 191.56 461.875 191.65 461.765 191.73C461.635 191.83 461.505 191.93 461.375 192.04C461.265 192.13 461.155 192.22 461.045 192.3C460.975 192.36 460.895 192.41 460.825 192.47C460.215 192.93 459.585 193.38 458.965 193.82L458.755 193.97C458.755 193.97 458.685 194.02 458.645 194.05L458.535 194.13C458.315 194.29 458.085 194.45 457.865 194.61C457.265 195.02 456.665 195.41 456.055 195.8C455.635 196.07 455.225 196.34 454.805 196.6C454.225 196.96 453.635 197.3 453.045 197.64C452.945 197.7 452.845 197.75 452.745 197.81C452.375 198.02 452.015 198.23 451.635 198.44C451.185 198.69 450.735 198.93 450.275 199.17L450.125 199.25L449.955 199.34C449.435 199.61 448.915 199.87 448.385 200.13C447.855 200.39 447.315 200.64 446.775 200.89C446.195 201.16 445.615 201.41 445.035 201.66C444.535 201.88 444.025 202.09 443.525 202.29C442.885 202.55 442.235 202.8 441.585 203.04C441.125 203.21 440.665 203.38 440.195 203.54C439.475 203.79 438.755 204.03 438.035 204.25C437.625 204.38 437.215 204.51 436.805 204.63C436.005 204.87 435.185 205.09 434.375 205.3C434.165 205.36 433.955 205.41 433.735 205.47C433.605 205.5 433.475 205.54 433.345 205.57C432.425 205.8 431.505 206 430.575 206.19C430.455 206.21 430.325 206.24 430.195 206.27C430.075 206.3 429.945 206.33 429.815 206.35C428.745 206.56 427.665 206.75 426.575 206.91C426.465 206.93 426.355 206.95 426.245 206.96C422.545 207.5 418.785 207.78 414.985 207.78C394.585 207.78 375.405 199.83 360.985 185.39L356.595 180.99L354.375 181.58L330.075 187.97L322.355 211.4L321.635 213.58L327.235 219.19C331.485 223.44 335.995 227.34 340.715 230.89C362.045 246.91 387.845 255.58 414.995 255.58C416.025 255.58 417.045 255.57 418.065 255.54C418.275 255.54 418.485 255.53 418.695 255.52C418.835 255.52 418.975 255.51 419.115 255.5C419.785 255.48 420.455 255.46 421.125 255.43C421.555 255.41 421.975 255.38 422.395 255.35C422.985 255.32 423.575 255.28 424.155 255.24C424.465 255.22 424.765 255.19 425.075 255.16C425.225 255.15 425.385 255.13 425.535 255.12C425.805 255.1 426.085 255.07 426.355 255.05C426.535 255.04 426.715 255.02 426.905 255C426.995 255 427.085 254.98 427.185 254.98C427.675 254.93 428.155 254.88 428.635 254.82C428.895 254.79 429.155 254.76 429.415 254.74C429.675 254.71 429.935 254.68 430.195 254.65C430.705 254.59 431.205 254.52 431.705 254.45C431.945 254.41 432.195 254.38 432.435 254.35C432.685 254.32 432.935 254.28 433.175 254.25C433.695 254.17 434.215 254.09 434.735 254C434.965 253.96 435.205 253.92 435.445 253.88C435.685 253.84 435.925 253.81 436.155 253.76C436.685 253.67 437.215 253.57 437.745 253.47C438.205 253.39 438.655 253.31 439.115 253.22C439.655 253.11 440.195 253 440.745 252.88C441.185 252.79 441.615 252.7 442.055 252.6C442.415 252.52 442.775 252.44 443.125 252.35C443.325 252.3 443.525 252.25 443.725 252.21C443.935 252.16 444.135 252.11 444.345 252.06C444.425 252.04 444.505 252.02 444.585 252.01C444.715 251.98 444.845 251.95 444.965 251.92C445.535 251.78 446.105 251.63 446.675 251.48C447.065 251.38 447.455 251.28 447.845 251.17C448.435 251.01 449.015 250.84 449.595 250.67C449.805 250.61 450.025 250.55 450.245 250.48L450.375 250.44C450.485 250.41 450.595 250.38 450.705 250.34C450.995 250.25 451.295 250.16 451.585 250.07C451.885 249.97 452.185 249.88 452.475 249.79C452.825 249.68 453.185 249.57 453.535 249.45C454.145 249.25 454.745 249.05 455.345 248.84C455.675 248.73 456.015 248.61 456.345 248.49C456.465 248.45 456.595 248.4 456.715 248.36C456.895 248.29 457.085 248.22 457.265 248.16C457.575 248.05 457.875 247.94 458.185 247.83C458.335 247.77 458.495 247.71 458.655 247.66C458.735 247.63 458.815 247.6 458.905 247.57C458.975 247.54 459.055 247.51 459.125 247.48C459.755 247.24 460.385 246.99 461.005 246.74C461.155 246.68 461.295 246.62 461.445 246.56C461.595 246.5 461.745 246.44 461.885 246.38C462.525 246.12 463.165 245.85 463.805 245.57C463.885 245.53 463.965 245.5 464.045 245.46L464.205 245.39C464.345 245.33 464.475 245.27 464.605 245.21C465.255 244.92 465.905 244.63 466.555 244.33C466.715 244.26 466.885 244.18 467.045 244.11L467.165 244.05C467.165 244.05 467.255 244.01 467.295 243.99C467.965 243.68 468.625 243.36 469.285 243.04C469.515 242.93 469.735 242.82 469.965 242.71C470.645 242.37 471.315 242.03 471.985 241.68C472.035 241.65 472.085 241.63 472.125 241.6C472.275 241.52 472.435 241.44 472.595 241.36C473.285 241 473.965 240.63 474.655 240.25L475.195 239.95C475.895 239.56 476.595 239.16 477.285 238.75C477.445 238.66 477.605 238.57 477.755 238.47C478.465 238.05 479.175 237.62 479.875 237.19C479.945 237.15 480.005 237.11 480.075 237.07C480.145 237.03 480.205 236.99 480.265 236.95C480.985 236.5 481.705 236.04 482.425 235.58C482.535 235.51 482.645 235.44 482.755 235.36C483.495 234.88 484.225 234.39 484.945 233.89C484.985 233.86 485.025 233.83 485.075 233.8C485.075 233.8 485.155 233.74 485.205 233.71C485.955 233.19 486.695 232.67 487.435 232.13C487.485 232.09 487.525 232.06 487.575 232.02L487.625 231.99C488.385 231.44 489.135 230.88 489.885 230.31C489.885 230.31 489.895 230.3 489.905 230.29H489.915C489.915 230.29 489.965 230.24 489.995 230.23C490.765 229.64 491.535 229.04 492.295 228.43C492.295 228.43 492.305 228.43 492.315 228.42C492.315 228.42 492.325 228.41 492.335 228.41C494.805 226.43 497.205 224.35 499.535 222.17L472.125 216.76L472.105 216.78L472.165 216.77ZM201.655 59.4999L193.925 82.9299L193.235 85.0099L236.375 128.19L270.125 94.3999L228.275 52.5099L225.955 53.1199L201.655 59.4999ZM215.095 189.35L223.515 214.89L223.315 214.85L223.435 214.96L219.245 219.15C195.805 242.62 163.285 255.54 131.485 255.54C99.685 255.54 69.735 243.65 46.655 221.98L74.295 216.77L81.665 189.21C95.515 201.19 112.995 207.75 131.495 207.75C151.895 207.75 171.075 199.8 185.495 185.36L188.465 182.39L188.495 182.37H188.535L188.595 182.43L197.385 184.7L198.115 184.89L215.095 189.35Z" fill="url(#paint0_linear_2025_668)"/>
</g>
<path d="M257.055 154.763L250.245 147.953C250.635 147.403 251.275 146.633 252.005 145.903C252.995 144.913 253.835 144.393 254.685 144.323C255.385 144.263 256.075 144.533 256.665 145.113C257.555 146.003 257.555 147.213 257.145 148.093L257.175 148.123C257.855 147.813 258.635 148.003 259.465 148.493C260.545 149.143 261.525 149.753 261.935 149.873L260.635 151.173C260.325 151.073 259.605 150.673 258.545 150.003C257.445 149.293 256.835 149.333 256.095 150.033L255.465 150.663L258.305 153.503L257.055 154.753V154.763ZM252.365 147.573L254.545 149.753L255.295 149.003C256.145 148.153 256.225 147.173 255.535 146.483C254.775 145.723 253.895 145.913 253.075 146.733C252.675 147.133 252.455 147.423 252.355 147.573H252.365ZM262.965 140.673L263.985 141.693L261.385 144.293L263.415 146.323L266.325 143.413L267.365 144.453L263.195 148.623L256.295 141.723L260.305 137.703L261.345 138.743L258.585 141.503L260.365 143.283L262.965 140.683V140.673ZM268.775 143.043L261.875 136.143L263.135 134.883L268.985 140.733L271.825 137.893L272.875 138.953L268.775 143.053V143.043ZM273.905 129.733L274.925 130.753L272.325 133.353L274.355 135.383L277.265 132.473L278.295 133.513L274.125 137.683L267.225 130.783L271.245 126.763L272.275 127.793L269.515 130.553L271.295 132.333L273.895 129.733H273.905ZM281.325 126.573L279.135 128.763L280.495 131.313L279.195 132.613L274.505 123.493L276.115 121.883L285.265 126.543L283.915 127.893L281.335 126.563L281.325 126.573ZM278.385 127.613L280.155 125.843L277.915 124.683C277.365 124.393 276.775 124.033 276.275 123.743L276.255 123.763C276.555 124.263 276.935 124.853 277.215 125.383L278.385 127.613ZM285.895 125.263L285.125 123.943C285.775 123.773 286.595 123.363 287.235 122.713C288.045 121.903 288.115 121.073 287.555 120.513C287.035 119.993 286.375 120.033 285.175 120.593C283.625 121.323 282.295 121.443 281.305 120.453C280.175 119.323 280.255 117.523 281.755 116.033C282.505 115.283 283.215 114.893 283.765 114.723L284.475 116.043C284.095 116.153 283.425 116.443 282.775 117.093C281.975 117.893 282.055 118.673 282.455 119.073C282.985 119.603 283.635 119.453 284.915 118.893C286.565 118.143 287.755 118.163 288.745 119.163C289.855 120.273 289.975 122.073 288.195 123.853C287.465 124.583 286.505 125.133 285.905 125.283L285.895 125.263ZM291.925 111.713L292.945 112.733L290.345 115.333L292.375 117.363L295.285 114.453L296.325 115.483L292.155 119.653L285.255 112.753L289.265 108.743L290.305 109.773L287.545 112.533L289.325 114.313L291.925 111.713Z" fill="#0F172A"/>
<path d="M394.635 39.5129C393.805 36.4229 392.995 33.3229 392.205 30.2229C393.055 29.8529 394.175 29.4929 395.385 29.2129C397.465 28.7229 398.975 28.8229 400.125 29.3729C401.315 29.9329 402.135 30.9829 402.385 32.6229C402.645 34.3429 402.215 35.7329 401.405 36.7329C400.545 37.7929 399.055 38.5429 397.125 39.0129C396.065 39.2729 395.255 39.4229 394.645 39.5129H394.635ZM394.515 30.9429C395.045 33.2129 395.585 35.4729 396.135 37.7329C396.405 37.7129 396.795 37.6129 397.165 37.5229C399.555 36.9729 400.765 35.4729 400.335 33.0229C399.985 30.9029 398.365 29.9229 395.855 30.5029C395.225 30.6529 394.775 30.8029 394.515 30.9329V30.9429ZM410.455 30.9829C410.485 31.4629 410.515 31.9429 410.545 32.4329C409.215 32.5329 407.885 32.6529 406.565 32.8129C406.665 33.7629 406.775 34.7129 406.885 35.6629C408.325 35.4929 409.755 35.3629 411.195 35.2629C411.225 35.7529 411.255 36.2329 411.285 36.7229C409.255 36.8629 407.235 37.0729 405.205 37.3629C404.765 34.1429 404.345 30.9129 403.935 27.6829C406.105 27.3829 408.275 27.1529 410.455 27.0029C410.485 27.4929 410.505 27.9729 410.535 28.4629C409.065 28.5629 407.595 28.7029 406.125 28.8729C406.215 29.7129 406.305 30.5429 406.395 31.3829C407.745 31.2229 409.095 31.0929 410.445 30.9929L410.455 30.9829ZM413.345 36.6029C413.215 33.3929 413.105 30.1829 413.005 26.9729C413.735 26.8229 414.745 26.7029 416.125 26.6829C417.625 26.6729 418.715 26.9629 419.405 27.5029C420.045 27.9929 420.435 28.7829 420.385 29.6929C420.345 30.6229 419.995 31.3729 419.375 31.8829C418.575 32.5729 417.385 32.8829 416.035 32.9029C415.675 32.9029 415.355 32.9029 415.105 32.8629C415.125 34.0929 415.145 35.3129 415.165 36.5429C414.555 36.5529 413.955 36.5729 413.345 36.6029ZM415.045 28.1529C415.055 29.2529 415.065 30.3529 415.085 31.4529C415.325 31.5029 415.635 31.5129 416.035 31.5129C417.485 31.5029 418.375 30.8629 418.415 29.7229C418.445 28.6329 417.615 28.0429 416.215 28.0529C415.655 28.0529 415.265 28.1129 415.055 28.1529H415.045ZM422.105 36.6729C422.305 33.4229 422.525 30.1729 422.775 26.9329C423.455 26.9729 424.125 27.0229 424.805 27.0829C424.545 29.8329 424.295 32.5729 424.055 35.3229C425.445 35.4329 426.835 35.5829 428.215 35.7629C428.145 36.2529 428.085 36.7529 428.015 37.2429C426.055 36.9829 424.085 36.8029 422.105 36.6829V36.6729ZM435.405 28.4029C438.625 29.0529 439.905 31.6529 439.175 34.3229C438.315 37.4829 435.895 38.7729 433.225 38.2529C430.495 37.7229 429.025 35.4229 429.425 32.5729C429.835 29.6129 432.305 27.7829 435.405 28.4029ZM435.065 29.7929C433.105 29.4029 431.775 30.8629 431.445 32.8529C431.125 34.8129 431.885 36.5229 433.615 36.8629C435.355 37.2129 436.695 35.8929 437.185 33.9129C437.625 32.1329 437.045 30.1929 435.065 29.8029V29.7929ZM443.295 40.7129C442.715 40.5229 442.135 40.3429 441.555 40.1629C441.955 38.8629 442.355 37.5729 442.755 36.2729C442.265 34.1429 441.715 32.0029 441.085 29.8829C441.825 30.0829 442.575 30.2829 443.315 30.5029C443.495 31.4229 443.675 32.3529 443.835 33.2729C443.965 34.0729 444.055 34.6729 444.125 35.3929C444.125 35.3929 444.145 35.3929 444.155 35.3929C444.605 34.8829 445.085 34.3929 445.665 33.8429C446.345 33.1929 447.045 32.5429 447.745 31.9029C448.465 32.1529 449.195 32.4129 449.905 32.6829C448.065 34.0029 446.295 35.3829 444.585 36.8029C444.145 38.1029 443.715 39.4029 443.285 40.7029L443.295 40.7129Z" fill="#0F172A"/>
<path d="M391.685 233.183C391.915 231.873 392.145 230.563 392.385 229.253C392.605 228.013 392.885 226.513 393.195 225.233C393.185 225.233 393.165 225.233 393.155 225.223C392.555 226.303 391.835 227.483 391.085 228.573C390.255 229.823 389.405 231.063 388.535 232.283C388.035 232.153 387.545 232.023 387.045 231.883C386.945 230.413 386.865 228.943 386.805 227.473C386.765 226.163 386.795 224.783 386.885 223.533C386.885 223.533 386.865 223.533 386.855 223.533C386.445 224.743 385.935 226.203 385.475 227.453C385.015 228.683 384.555 229.913 384.095 231.133C383.495 230.953 382.905 230.763 382.305 230.573C383.545 227.553 384.765 224.523 385.955 221.493C386.715 221.733 387.485 221.973 388.255 222.193C388.305 223.573 388.375 224.953 388.455 226.333C388.505 227.533 388.515 228.743 388.495 229.863C388.505 229.863 388.525 229.863 388.545 229.873C389.095 228.923 389.755 227.853 390.425 226.843C391.215 225.703 391.985 224.543 392.735 223.393C393.505 223.583 394.265 223.753 395.045 223.923C394.535 227.143 394.045 230.363 393.575 233.593C392.945 233.463 392.305 233.313 391.675 233.173L391.685 233.183ZM402.025 225.043C404.875 225.453 406.355 227.753 406.095 230.523C405.795 233.783 403.395 235.433 400.395 234.993C397.335 234.533 395.835 232.073 396.405 229.273C396.995 226.333 399.285 224.643 402.025 225.043ZM401.775 226.453C399.985 226.183 398.745 227.623 398.395 229.603C398.045 231.553 398.855 233.313 400.725 233.593C402.615 233.873 403.865 232.403 404.095 230.373C404.305 228.543 403.585 226.713 401.775 226.453ZM409.595 235.813C408.985 235.773 408.385 235.733 407.775 235.683C408.035 232.443 408.305 229.193 408.565 225.953C409.245 226.013 409.935 226.053 410.615 226.103C411.385 227.553 412.185 228.983 413.015 230.413C413.665 231.523 414.245 232.663 414.705 233.733C414.715 233.733 414.725 233.733 414.735 233.733C414.635 232.423 414.615 231.163 414.645 229.673C414.665 228.543 414.695 227.403 414.715 226.273C415.275 226.283 415.835 226.293 416.385 226.293C416.375 229.543 416.355 232.803 416.345 236.053C415.665 236.053 414.985 236.043 414.305 236.023C413.395 234.573 412.515 233.113 411.685 231.643C411.075 230.543 410.455 229.303 410.035 228.173C410.015 228.173 410.005 228.173 409.985 228.183C409.985 229.443 409.905 230.733 409.805 232.343C409.725 233.503 409.655 234.663 409.575 235.823L409.595 235.813ZM418.935 226.263C419.535 226.253 420.135 226.233 420.745 226.213C420.865 229.463 420.995 232.713 421.115 235.973C420.455 236.003 419.795 236.013 419.135 236.033C419.065 232.783 419.005 229.523 418.935 226.273V226.263ZM425.925 235.683C425.705 232.933 425.475 230.183 425.255 227.443C424.305 227.523 423.355 227.583 422.395 227.633C422.365 227.133 422.345 226.643 422.315 226.143C424.805 226.013 427.295 225.783 429.765 225.473C429.825 225.963 429.895 226.463 429.955 226.953C428.995 227.073 428.035 227.183 427.075 227.283C427.345 230.023 427.615 232.773 427.895 235.513C427.235 235.583 426.585 235.633 425.925 235.693V235.683ZM435.075 224.483C437.905 223.963 440.055 225.653 440.695 228.373C441.445 231.553 439.695 233.893 436.715 234.433C433.665 234.983 431.465 233.133 431.105 230.283C430.725 227.303 432.345 224.973 435.075 224.483ZM435.285 225.903C433.505 226.223 432.785 227.973 433.085 229.973C433.375 231.933 434.705 233.333 436.575 233.003C438.455 232.663 439.175 230.873 438.745 228.873C438.355 227.073 437.085 225.573 435.285 225.903ZM443.955 232.713C443.175 229.593 442.395 226.483 441.625 223.363C442.255 223.083 443.225 222.743 444.235 222.463C445.615 222.073 446.625 222.013 447.425 222.333C448.085 222.593 448.595 223.143 448.855 223.933C449.245 225.133 448.635 226.223 447.785 226.833C447.785 226.843 447.785 226.863 447.795 226.873C448.585 226.903 449.225 227.423 449.765 228.233C450.455 229.293 451.075 230.273 451.405 230.563C450.745 230.773 450.095 230.983 449.435 231.183C449.195 230.953 448.715 230.263 448.075 229.183C447.425 228.043 446.825 227.803 445.765 228.073C445.455 228.163 445.145 228.243 444.825 228.333C445.175 229.623 445.515 230.913 445.865 232.213C445.225 232.383 444.585 232.553 443.945 232.713H443.955ZM443.685 224.103C443.955 225.093 444.215 226.093 444.485 227.083C444.845 226.983 445.215 226.883 445.575 226.783C446.815 226.433 447.405 225.583 447.115 224.663C446.805 223.633 445.915 223.393 444.755 223.723C444.195 223.883 443.845 224.023 443.675 224.113L443.685 224.103Z" fill="#0F172A"/>
<path d="M115.255 236.043C115.955 233.373 116.665 230.713 117.365 228.043C116.415 227.793 115.485 227.513 114.545 227.213C114.695 226.743 114.855 226.263 115.005 225.793C117.405 226.573 119.855 227.173 122.325 227.583C122.245 228.073 122.165 228.563 122.075 229.053C121.105 228.893 120.135 228.703 119.175 228.483C118.565 231.173 117.965 233.863 117.355 236.553C116.645 236.393 115.945 236.223 115.245 236.033L115.255 236.043ZM129.365 232.243C129.355 232.723 129.345 233.213 129.335 233.693C127.955 233.663 126.575 233.573 125.205 233.443C125.115 234.393 125.015 235.343 124.925 236.293C126.535 236.453 128.155 236.543 129.785 236.573C129.785 237.063 129.765 237.553 129.765 238.033C127.385 237.993 125.005 237.823 122.645 237.503L123.945 227.823C125.855 228.083 127.775 228.223 129.695 228.263C129.695 228.753 129.675 229.243 129.665 229.723C128.305 229.693 126.955 229.613 125.595 229.483C125.515 230.323 125.435 231.153 125.345 231.993C126.685 232.123 128.025 232.203 129.365 232.243ZM131.635 237.573C131.785 237.073 131.925 236.583 132.075 236.083C132.755 236.403 133.805 236.653 134.885 236.573C136.245 236.473 136.935 235.853 136.845 235.063C136.765 234.323 136.155 233.973 134.725 233.623C132.875 233.173 131.725 232.323 131.705 230.923C131.695 229.323 133.025 228.113 135.135 227.923C136.205 227.833 137.015 227.953 137.565 228.143C137.485 228.633 137.395 229.133 137.305 229.623C136.915 229.483 136.185 229.293 135.235 229.383C134.065 229.483 133.585 230.103 133.615 230.673C133.655 231.423 134.275 231.753 135.755 232.123C137.665 232.583 138.715 233.273 138.915 234.663C139.155 236.193 137.925 237.813 134.845 238.033C133.595 238.123 132.285 237.873 131.635 237.563V237.573ZM143.975 236.563C143.365 233.873 142.765 231.183 142.155 228.493C141.205 228.703 140.245 228.893 139.285 229.053C139.205 228.563 139.125 228.073 139.035 227.583C141.505 227.173 143.955 226.573 146.355 225.793C146.505 226.263 146.665 226.743 146.815 227.213C145.875 227.523 144.925 227.803 143.965 228.053C144.665 230.723 145.365 233.383 146.065 236.053C145.365 236.233 144.655 236.413 143.955 236.573L143.975 236.563Z" fill="#0F172A"/>
<path d="M115.175 35.743C115.365 36.183 115.545 36.623 115.725 37.073C115.345 37.363 114.455 37.753 113.295 38.023C110.255 38.733 107.825 37.533 106.875 34.713C105.835 31.673 107.785 28.953 111.305 28.153C112.675 27.843 113.705 27.903 114.165 28.013C114.095 28.503 114.035 29.003 113.975 29.493C113.405 29.393 112.645 29.373 111.715 29.573C109.435 30.093 108.165 31.773 108.835 34.023C109.445 36.083 111.095 37.013 113.265 36.523C114.005 36.353 114.745 36.063 115.185 35.753L115.175 35.743ZM120.705 26.703C124.125 26.433 126.125 28.643 126.105 31.413C126.075 34.693 124.085 36.533 121.395 36.763C118.655 37.003 116.565 35.263 116.065 32.423C115.535 29.483 117.405 26.983 120.705 26.703ZM120.775 28.133C118.705 28.313 117.835 30.103 118.115 32.093C118.385 34.063 119.625 35.473 121.375 35.323C123.145 35.183 124.095 33.563 124.035 31.523C123.985 29.683 122.855 27.963 120.775 28.133ZM128.125 36.393C128.225 33.193 128.315 29.993 128.415 26.793C129.345 26.693 130.535 26.673 131.785 26.773C133.945 26.953 135.395 27.533 136.315 28.433C137.295 29.353 137.735 30.623 137.445 32.263C137.135 33.973 136.275 35.143 135.205 35.833C134.075 36.553 132.465 36.793 130.555 36.653C129.495 36.583 128.715 36.493 128.125 36.393ZM130.445 28.173C130.305 30.493 130.155 32.823 130.015 35.143C130.265 35.203 130.655 35.223 131.035 35.253C133.415 35.463 135.005 34.433 135.385 31.983C135.725 29.863 134.465 28.393 131.865 28.173C131.205 28.123 130.735 28.133 130.445 28.173ZM145.685 33.593C145.535 34.053 145.395 34.513 145.245 34.973C143.955 34.563 142.655 34.203 141.345 33.873C141.115 34.803 140.885 35.733 140.655 36.663C142.055 37.003 143.435 37.403 144.815 37.853C144.665 38.313 144.515 38.783 144.365 39.243C142.445 38.623 140.495 38.093 138.535 37.673C139.215 34.493 139.895 31.303 140.575 28.123C142.785 28.593 144.965 29.173 147.135 29.873C146.985 30.333 146.835 30.803 146.685 31.263C145.235 30.793 143.765 30.383 142.295 30.023C142.095 30.843 141.895 31.653 141.695 32.473C143.035 32.803 144.365 33.173 145.685 33.593Z" fill="#0F172A"/>
<path d="M216.875 82.4828L223.685 75.6729C224.215 76.0429 224.905 76.6029 225.755 77.4529C226.675 78.3729 227.155 79.2428 227.225 80.0528C227.295 80.8028 227.015 81.6128 226.375 82.2528C225.725 82.9128 224.975 83.2428 224.215 83.2228C223.215 83.2228 222.185 82.6728 221.295 81.7828C221.055 81.5428 220.855 81.3228 220.725 81.1228L218.125 83.7228L216.875 82.4728V82.4828ZM224.055 77.8028L221.715 80.1428C221.825 80.3328 222.025 80.5529 222.275 80.8129C223.215 81.7529 224.255 81.8729 225.065 81.0629C225.835 80.2929 225.715 79.3528 224.845 78.4828C224.495 78.1328 224.225 77.9229 224.055 77.8129V77.8028ZM222.895 88.5128L229.795 81.6128L231.055 82.8728L225.205 88.7228L228.045 91.5629L226.995 92.6228L222.895 88.5229V88.5128ZM233.825 95.5229L231.635 93.3328L229.085 94.6928L227.785 93.3928L236.905 88.7029L238.515 90.3129L233.855 99.4628L232.505 98.1128L233.835 95.5328L233.825 95.5229ZM232.795 92.5828L234.565 94.3529L235.725 92.1128C236.015 91.5628 236.375 90.9728 236.665 90.4728L236.645 90.4529C236.145 90.7529 235.555 91.1328 235.025 91.4128L232.795 92.5828ZM236.275 101.883L235.115 100.723L242.015 93.8228L243.455 95.2528L242.275 99.9929C241.965 101.223 241.565 102.423 241.135 103.483L241.155 103.503C241.995 102.503 242.855 101.573 243.915 100.523L246.325 98.1128L247.495 99.2828L240.595 106.183L239.295 104.883L240.525 100.053C240.845 98.8528 241.235 97.5429 241.675 96.4229L241.635 96.4028C240.795 97.3428 239.895 98.2628 238.755 99.4028L236.285 101.873L236.275 101.883Z" fill="#0F172A"/>
<path d="M516.475 106.523C517.315 109.663 515.585 111.973 512.865 112.543C509.655 113.223 507.425 111.643 506.705 109.013C505.965 106.323 507.385 103.983 510.115 103.073C512.955 102.123 515.655 103.503 516.475 106.523ZM515.085 106.853C514.565 104.943 512.685 104.413 510.755 105.003C508.855 105.583 507.655 107.033 508.115 108.733C508.575 110.443 510.355 111.053 512.345 110.583C514.135 110.163 515.595 108.773 515.085 106.843V106.853ZM508.415 115.583C511.565 114.963 514.715 114.343 517.865 113.723C518.115 114.403 518.385 115.363 518.615 116.693C518.855 118.143 518.735 119.243 518.305 120.003C517.915 120.703 517.205 121.213 516.295 121.323C515.375 121.443 514.575 121.223 513.985 120.713C513.185 120.063 512.685 118.943 512.465 117.633C512.405 117.283 512.365 116.963 512.365 116.723C511.155 116.933 509.945 117.153 508.745 117.363C508.645 116.773 508.535 116.183 508.415 115.593V115.583ZM517.005 115.883C515.925 116.073 514.835 116.263 513.755 116.463C513.735 116.703 513.775 117.013 513.845 117.393C514.075 118.793 514.845 119.563 515.975 119.403C517.045 119.253 517.505 118.343 517.285 116.993C517.195 116.453 517.085 116.083 517.005 115.883ZM515.885 129.423C515.405 129.443 514.925 129.463 514.435 129.493C514.375 128.193 514.295 126.893 514.185 125.593C513.235 125.673 512.275 125.753 511.325 125.833C511.445 127.243 511.535 128.653 511.585 130.063C511.095 130.083 510.615 130.103 510.125 130.123C510.045 128.133 509.905 126.143 509.695 124.153C512.935 123.813 516.165 123.483 519.405 123.143C519.625 125.253 519.775 127.363 519.865 129.483C519.375 129.503 518.895 129.523 518.405 129.543C518.345 128.113 518.255 126.683 518.135 125.253C517.295 125.323 516.465 125.393 515.625 125.463C515.735 126.783 515.825 128.093 515.885 129.413V129.423ZM510.185 132.143C513.395 132.083 516.605 132.023 519.815 131.953C519.945 132.693 520.045 133.813 520.035 134.963C520.015 136.533 519.745 137.603 519.165 138.303C518.695 138.873 517.995 139.183 517.165 139.133C515.905 139.063 515.105 138.113 514.795 137.133C514.785 137.133 514.765 137.133 514.755 137.133C514.475 137.863 513.765 138.283 512.815 138.493C511.585 138.753 510.445 138.963 510.055 139.143C510.085 138.523 510.115 137.903 510.135 137.283C510.435 137.143 511.235 136.933 512.455 136.683C513.735 136.433 514.155 135.953 514.195 134.883C514.195 134.563 514.195 134.253 514.195 133.933C512.855 133.933 511.515 133.933 510.185 133.933C510.185 133.333 510.185 132.743 510.165 132.143H510.185ZM518.605 133.933C517.575 133.933 516.545 133.933 515.525 133.933C515.525 134.313 515.525 134.693 515.525 135.063C515.505 136.343 516.115 137.173 517.085 137.213C518.155 137.253 518.675 136.433 518.695 135.153C518.695 134.523 518.655 134.133 518.615 133.933H518.605ZM512.175 146.503C512.315 145.433 512.435 144.353 512.535 143.283C511.645 142.903 510.755 142.533 509.855 142.173C509.905 141.553 509.955 140.933 509.995 140.313C513.175 141.583 516.325 142.963 519.445 144.453C519.365 145.293 519.265 146.143 519.165 146.983C515.785 147.753 512.405 148.413 509.025 148.973C509.125 148.333 509.225 147.693 509.315 147.053C510.265 146.883 511.225 146.703 512.175 146.513V146.503ZM513.845 143.723C513.755 144.603 513.655 145.483 513.545 146.363C514.375 146.193 515.205 146.013 516.035 145.833C516.645 145.703 517.335 145.603 517.905 145.503C517.905 145.493 517.905 145.483 517.905 145.473C517.365 145.253 516.705 145.013 516.145 144.773C515.375 144.413 514.605 144.063 513.835 143.723H513.845ZM508.595 151.463C511.305 151.973 514.015 152.473 516.725 152.983C516.915 151.973 517.085 150.963 517.245 149.953C517.735 150.033 518.225 150.103 518.715 150.183C518.285 152.903 517.755 155.613 517.115 158.313C516.635 158.203 516.145 158.083 515.665 157.963C515.905 156.953 516.135 155.933 516.345 154.923C513.645 154.363 510.945 153.803 508.245 153.253C508.365 152.663 508.485 152.063 508.595 151.473V151.463ZM511.185 164.743C510.725 164.593 510.265 164.453 509.805 164.303C510.205 163.053 510.585 161.793 510.935 160.523C510.015 160.263 509.095 160.013 508.165 159.763C507.785 161.133 507.375 162.503 506.935 163.863C506.475 163.713 506.005 163.563 505.545 163.413C506.165 161.493 506.725 159.563 507.225 157.613C510.375 158.423 513.535 159.223 516.685 160.033C516.155 162.103 515.565 164.153 514.905 166.193C514.445 166.043 513.975 165.893 513.515 165.743C513.955 164.363 514.375 162.973 514.765 161.583C513.955 161.363 513.145 161.133 512.335 160.913C511.985 162.193 511.595 163.473 511.195 164.743H511.185Z" fill="#0F172A"/>
<path d="M39.1549 153.193C36.1149 154.183 33.0649 155.173 30.025 156.163C29.705 155.563 29.265 154.423 28.945 153.283C28.525 151.783 28.465 150.803 28.735 149.943C28.925 149.163 29.4549 148.573 30.2649 148.403C31.1449 148.213 32.075 148.663 32.735 149.713C32.735 149.713 32.7549 149.713 32.7649 149.713C32.7449 148.543 33.3349 147.363 34.6549 147.093C35.5049 146.913 36.2549 147.173 36.8349 147.633C37.5849 148.203 38.1349 149.263 38.6349 151.013C38.9149 151.983 39.075 152.743 39.165 153.193H39.1549ZM30.545 153.833C31.395 153.583 32.255 153.333 33.1049 153.083C33.005 152.753 32.915 152.433 32.825 152.103C32.465 150.783 31.725 150.163 30.915 150.353C30.025 150.563 29.805 151.453 30.155 152.723C30.315 153.303 30.445 153.633 30.545 153.833ZM34.345 152.713C35.365 152.413 36.3849 152.113 37.4049 151.813C37.3649 151.573 37.2849 151.263 37.1749 150.853C36.8549 149.703 36.195 148.773 35.0149 149.053C33.9149 149.313 33.715 150.473 34.075 151.773C34.165 152.083 34.255 152.393 34.345 152.703V152.713ZM27.405 146.173C27.285 145.483 27.175 144.793 27.075 144.103C28.955 143.833 30.835 143.563 32.705 143.283C34.595 143.003 35.345 142.053 35.205 140.823C35.055 139.503 34.125 138.783 32.215 138.923C30.325 139.073 28.435 139.223 26.535 139.373C26.485 138.683 26.435 137.983 26.405 137.293C28.265 137.203 30.115 137.103 31.975 137.013C34.995 136.883 36.3749 138.383 36.6349 140.733C36.8949 142.993 35.935 144.663 32.905 145.213C31.065 145.533 29.235 145.853 27.395 146.173H27.405ZM26.325 134.393C26.325 133.693 26.325 133.003 26.325 132.303C29.575 132.363 32.8349 132.423 36.0849 132.483C36.0749 133.083 36.0749 133.693 36.0849 134.293C32.8349 134.323 29.575 134.363 26.325 134.393ZM36.185 129.963C32.935 129.773 29.6849 129.583 26.4349 129.403C26.4749 128.713 26.525 128.013 26.585 127.323C29.335 127.563 32.075 127.793 34.825 128.033C34.945 126.643 35.1049 125.263 35.3149 123.883C35.8049 123.953 36.295 124.033 36.795 124.103C36.495 126.043 36.295 128.003 36.185 129.963ZM37.0649 122.313C33.9149 121.743 30.765 121.173 27.615 120.603C27.655 119.673 27.805 118.503 28.085 117.293C28.565 115.193 29.345 113.853 30.365 113.063C31.415 112.223 32.725 111.963 34.305 112.473C35.955 113.013 36.995 114.023 37.525 115.193C38.085 116.423 38.085 118.053 37.665 119.943C37.435 120.983 37.235 121.753 37.055 122.323L37.0649 122.313ZM29.285 118.813C31.5649 119.293 33.835 119.773 36.115 120.253C36.215 120.013 36.295 119.633 36.375 119.263C36.925 116.933 36.135 115.193 33.755 114.483C31.695 113.853 30.075 114.883 29.485 117.423C29.335 118.063 29.285 118.533 29.275 118.823L29.285 118.813Z" fill="#0F172A"/>
<path d="M336.825 105.963L360.845 81.9628C371.285 71.5328 383.815 64.1128 397.445 60.1228" stroke="url(#paint1_linear_2025_668)" stroke-width="6.8" stroke-miterlimit="10" stroke-linecap="round"/>
<path d="M417.955 4.34277C450.255 4.34277 480.595 17.2128 503.435 40.6028C513.465 50.8728 521.535 62.6328 527.405 75.4028" stroke="url(#paint2_linear_2025_668)" stroke-width="6.8" stroke-miterlimit="10" stroke-linecap="round"/>
<path d="M387.745 255.513C364.475 251.033 342.995 239.623 325.705 222.253L296.685 193.123" stroke="url(#paint3_linear_2025_668)" stroke-width="6.8" stroke-miterlimit="10" stroke-linecap="round"/>
<path d="M181.105 13.6929C195.635 19.7229 208.995 28.6729 220.525 40.2629L263.145 83.1929" stroke="url(#paint4_linear_2025_668)" stroke-width="6.8" stroke-miterlimit="10" stroke-linecap="round"/>
<path d="M65.935 241.193C56.385 235.603 47.505 228.583 39.555 220.273C16.865 196.533 4.36499 164.973 4.36499 131.413C4.36499 114.633 7.49499 98.353 13.455 83.293" stroke="url(#paint5_linear_2025_668)" stroke-width="6.8" stroke-miterlimit="10" stroke-linecap="round"/>
<path d="M205.005 160.073L188.655 178.253C173.155 195.493 152.555 204.983 130.625 204.983C125.885 204.983 121.215 204.543 116.635 203.663" stroke="url(#paint6_linear_2025_668)" stroke-width="6.8" stroke-miterlimit="10" stroke-linecap="round"/>
<path d="M92.2986 145.887V108.388C95.2962 107.935 98.8595 107.596 102.762 107.596C109.832 107.596 114.866 109.236 118.203 112.347C121.597 115.458 123.576 119.869 123.576 126.034C123.576 132.256 121.653 137.346 118.09 140.853C114.527 144.416 108.644 146.339 101.235 146.339C97.7283 146.339 94.7872 146.17 92.2986 145.887ZM97.2193 112.007V142.097C98.4636 142.324 100.274 142.38 102.197 142.38C112.717 142.38 118.429 136.498 118.429 126.204C118.486 117.211 113.395 111.498 102.988 111.498C100.443 111.498 98.5202 111.725 97.2193 112.007ZM152.022 133.217H132.791C132.904 139.948 137.203 142.72 142.18 142.72C145.743 142.72 147.893 142.097 149.759 141.306L150.608 144.869C148.854 145.661 145.856 146.566 141.501 146.566C133.074 146.566 128.04 141.023 128.04 132.765C128.04 124.507 132.904 118.003 140.879 118.003C149.816 118.003 152.191 125.865 152.191 130.898C152.191 131.917 152.078 132.708 152.022 133.217ZM132.848 129.654H147.384C147.44 126.487 146.083 121.566 140.483 121.566C135.449 121.566 133.244 126.204 132.848 129.654ZM154.961 118.625H160.278L165.651 134.009C166.556 136.498 167.291 138.76 167.857 141.023H168.027C168.649 138.76 169.441 136.498 170.346 134.009L175.662 118.625H180.866L170.119 146H165.368L154.961 118.625Z" fill="white"/>
<path d="M383.739 107.256C394.146 107.256 400.877 115.231 400.877 126.543C400.877 139.665 392.902 146.622 383.174 146.622C373.106 146.622 366.036 138.817 366.036 127.279C366.036 115.175 373.559 107.256 383.739 107.256ZM383.513 111.272C375.369 111.272 371.296 118.795 371.296 127.166C371.296 135.31 375.708 142.606 383.457 142.606C391.262 142.606 395.674 135.423 395.674 126.77C395.674 119.191 391.714 111.272 383.513 111.272ZM407.124 157.199V127.561C407.124 124.055 407.011 121.227 406.898 118.625H411.366L411.593 123.319H411.706C413.742 119.982 416.966 118.003 421.434 118.003C428.052 118.003 433.029 123.602 433.029 131.917C433.029 141.758 427.033 146.622 420.586 146.622C416.966 146.622 413.798 145.038 412.158 142.324H412.045V157.199H407.124ZM412.045 130.163V134.858C412.045 135.593 412.158 136.272 412.271 136.894C413.176 140.344 416.174 142.72 419.737 142.72C424.997 142.72 428.052 138.421 428.052 132.143C428.052 126.656 425.167 121.962 419.907 121.962C416.513 121.962 413.346 124.394 412.384 128.127C412.215 128.749 412.045 129.484 412.045 130.163ZM437.403 144.699L438.647 140.91C440.118 141.871 442.72 142.889 445.208 142.889C448.828 142.889 450.525 141.079 450.525 138.817C450.525 136.441 449.111 135.14 445.434 133.783C440.514 132.03 438.195 129.315 438.195 126.034C438.195 121.623 441.758 118.003 447.64 118.003C450.412 118.003 452.844 118.795 454.371 119.7L453.127 123.319C452.052 122.641 450.072 121.736 447.527 121.736C444.586 121.736 442.946 123.433 442.946 125.469C442.946 127.731 444.586 128.749 448.149 130.107C452.9 131.917 455.332 134.292 455.332 138.364C455.332 143.172 451.6 146.566 445.095 146.566C442.097 146.566 439.326 145.83 437.403 144.699Z" fill="white"/>
</g>
<defs>
<linearGradient id="paint0_linear_2025_668" x1="273.205" y1="255.56" x2="273.205" y2="7.09987" gradientUnits="userSpaceOnUse">
<stop stop-color="#5C49EA"/>
<stop offset="0.5" stop-color="#3DAFE9"/>
<stop offset="1" stop-color="#94FFED"/>
</linearGradient>
<linearGradient id="paint1_linear_2025_668" x1="400.285" y1="83.4528" x2="334.015" y2="82.6428" gradientUnits="userSpaceOnUse">
<stop stop-color="#5C49EA" stop-opacity="0"/>
<stop offset="1" stop-color="#C78FF7" stop-opacity="0.95"/>
</linearGradient>
<linearGradient id="paint2_linear_2025_668" x1="530.515" y1="39.8728" x2="414.855" y2="39.8728" gradientUnits="userSpaceOnUse">
<stop stop-color="#5C49EA" stop-opacity="0"/>
<stop offset="1" stop-color="#C78FF7" stop-opacity="0.95"/>
</linearGradient>
<linearGradient id="paint3_linear_2025_668" x1="390.535" y1="223.843" x2="293.905" y2="224.793" gradientUnits="userSpaceOnUse">
<stop stop-color="#C78FF7" stop-opacity="0.95"/>
<stop offset="1" stop-color="#5C49EA" stop-opacity="0"/>
</linearGradient>
<linearGradient id="paint4_linear_2025_668" x1="265.955" y1="48.0929" x2="178.285" y2="48.8029" gradientUnits="userSpaceOnUse">
<stop stop-color="#CD93F8"/>
<stop offset="1" stop-color="#5C49EA" stop-opacity="0"/>
</linearGradient>
<linearGradient id="paint5_linear_2025_668" x1="69.015" y1="162.253" x2="1.28499" y2="162.253" gradientUnits="userSpaceOnUse">
<stop stop-color="#5C49EA" stop-opacity="0"/>
<stop offset="1" stop-color="#CD93F8"/>
</linearGradient>
<linearGradient id="paint6_linear_2025_668" x1="207.935" y1="182.533" x2="113.685" y2="182.533" gradientUnits="userSpaceOnUse">
<stop stop-color="#5C49EA" stop-opacity="0"/>
<stop offset="1" stop-color="#C78FF7" stop-opacity="0.95"/>
</linearGradient>
<clipPath id="clip0_2025_668">
<rect width="538.07" height="257.97" fill="white" transform="translate(0.964966 0.942871)"/>
</clipPath>
</defs>
</svg>
