<svg width="1332" height="907" viewBox="0 0 1332 907" fill="none" xmlns="http://www.w3.org/2000/svg">
<rect width="1200" height="906.321" transform="translate(53 0.427734)" fill="#0F172A"/>
<g opacity="0.2">
<line y1="-0.5" x2="30.9614" y2="-0.5" transform="matrix(-0.707107 -0.707107 -0.707107 0.707107 61.7805 584.542)" stroke="#3DAFE9"/>
<path d="M213.772 765.53C212.73 764.488 212.73 762.8 213.772 761.758C214.813 760.717 216.502 760.717 217.543 761.758C218.584 762.8 218.584 764.488 217.543 765.53C216.502 766.571 214.813 766.571 213.772 765.53ZM277.647 701.654C276.606 700.613 276.606 698.924 277.647 697.883C278.689 696.841 280.377 696.841 281.419 697.883C282.46 698.924 282.46 700.613 281.419 701.654C280.377 702.695 278.689 702.695 277.647 701.654ZM215.304 763.29L279.18 699.415L279.887 700.122L216.011 763.998L215.304 763.29Z" fill="#3DAFE9"/>
<path d="M200.592 837.947C199.855 839.223 198.225 839.66 196.949 838.923C195.674 838.187 195.237 836.556 195.973 835.281C196.709 834.005 198.34 833.568 199.616 834.304C200.891 835.041 201.328 836.672 200.592 837.947ZM122.361 792.78C121.624 794.056 119.993 794.493 118.718 793.756C117.442 793.02 117.005 791.389 117.742 790.114C118.478 788.838 120.109 788.401 121.384 789.138C122.66 789.874 123.097 791.505 122.361 792.78ZM198.032 837.047L119.801 791.88L120.301 791.014L198.532 836.181L198.032 837.047Z" fill="#0080FF"/>
<path d="M126.94 841.681C126.171 840.425 126.566 838.783 127.822 838.014C129.078 837.245 130.72 837.64 131.489 838.896C132.257 840.153 131.862 841.794 130.606 842.563C129.35 843.332 127.709 842.937 126.94 841.681ZM175.988 811.658C175.219 810.402 175.614 808.76 176.87 807.991C178.126 807.222 179.768 807.617 180.536 808.874C181.305 810.13 180.91 811.771 179.654 812.54C178.398 813.309 176.757 812.914 175.988 811.658ZM128.953 839.862L178.001 809.839L178.523 810.692L129.475 840.715L128.953 839.862Z" fill="#0080FF"/>
<path d="M125.068 805.327C126.046 804.225 127.731 804.125 128.833 805.102C129.934 806.08 130.035 807.765 129.057 808.867C128.08 809.968 126.394 810.069 125.293 809.091C124.191 808.114 124.091 806.428 125.068 805.327ZM147.968 825.649C148.945 824.547 150.631 824.447 151.732 825.424C152.834 826.402 152.934 828.087 151.957 829.189C150.979 830.29 149.294 830.391 148.192 829.413C147.09 828.436 146.99 826.75 147.968 825.649ZM127.395 806.723L150.294 827.045L149.63 827.793L126.731 807.471L127.395 806.723Z" fill="#0080FF"/>
<path d="M1.14803 624.646C0.106632 623.605 0.106631 621.916 1.14803 620.875C2.18943 619.833 3.87787 619.833 4.91927 620.875C5.96066 621.916 5.96067 623.605 4.91927 624.646C3.87787 625.687 2.18943 625.687 1.14803 624.646ZM133.201 558.793C132.16 557.752 132.16 556.063 133.201 555.022C134.243 553.98 135.931 553.98 136.973 555.022C138.014 556.063 138.014 557.752 136.973 558.793C135.931 559.834 134.243 559.834 133.201 558.793ZM9.2015 534.525L8.70271 534.49L8.72433 534.181L9.01098 534.063L9.2015 534.525ZM65.5776 511.291L65.3871 510.829L65.6312 510.729L65.8519 510.873L65.5776 511.291ZM2.53487 622.726L8.70271 534.49L9.70028 534.56L3.53243 622.795L2.53487 622.726ZM9.01098 534.063L65.3871 510.829L65.7681 511.754L9.39201 534.987L9.01098 534.063ZM65.8519 510.873L135.361 556.489L134.813 557.325L65.3033 511.709L65.8519 510.873Z" fill="#C78FF7" fill-opacity="0.95"/>
<circle cx="2.97221" cy="2.97221" r="2.97221" transform="matrix(1 1.74846e-07 1.74846e-07 -1 6.13892 537.952)" fill="#C78FF7" fill-opacity="0.95"/>
<path d="M23.4853 630.99C22.6581 629.772 22.9754 628.114 24.194 627.286C25.4125 626.459 27.0709 626.777 27.898 627.995C28.7252 629.214 28.4079 630.872 27.1893 631.699C25.9708 632.526 24.3124 632.209 23.4853 630.99ZM81.6347 591.519C80.8076 590.301 81.1249 588.642 82.3434 587.815C83.562 586.988 85.2203 587.306 86.0475 588.524C86.8746 589.743 86.5573 591.401 85.3388 592.228C84.1202 593.055 82.4619 592.738 81.6347 591.519ZM25.4108 629.079L83.5603 589.608L84.1219 590.435L25.9725 629.906L25.4108 629.079Z" fill="#3DAFE9"/>
<circle cx="2.97221" cy="2.97221" r="2.97221" transform="matrix(1 1.74846e-07 1.74846e-07 -1 40.4143 620.606)" fill="#3DAFE9"/>
<circle cx="3.43756" cy="3.43756" r="3.43756" transform="matrix(1 1.74846e-07 1.74846e-07 -1 58.8303 587.979)" fill="#3DAFE9"/>
<circle cx="3.43756" cy="3.43756" r="3.43756" transform="matrix(1 1.74846e-07 1.74846e-07 -1 36.9758 566.084)" fill="#3DAFE9"/>
<circle cx="5.94441" cy="5.94441" r="5.94441" transform="matrix(-0.0948536 -0.995491 -0.995491 0.0948536 101.483 516.802)" fill="#5C49EA"/>
<circle cx="5.94441" cy="5.94441" r="5.94441" transform="matrix(-0.0948536 -0.995491 -0.995491 0.0948536 67.3889 558.082)" fill="#5C49EA"/>
<line y1="-0.5" x2="53.54" y2="-0.5" transform="matrix(-0.636847 0.77099 0.77099 0.636847 95.0043 511.449)" stroke="#5C49EA"/>
<path d="M85.8342 702.435C84.3615 702.435 83.1676 701.241 83.1676 699.768C83.1676 698.296 84.3615 697.102 85.8342 697.102C87.307 697.102 88.5009 698.296 88.5009 699.768C88.5009 701.241 87.307 702.435 85.8342 702.435ZM85.8342 653.326C84.3615 653.326 83.1676 652.132 83.1676 650.66C83.1676 649.187 84.3615 647.993 85.8342 647.993C87.307 647.993 88.5009 649.187 88.5009 650.66C88.5009 652.132 87.307 653.326 85.8342 653.326ZM61.7838 678.879L61.4559 679.256L61.0819 678.931L61.4032 678.554L61.7838 678.879ZM85.5064 700.146L61.4559 679.256L62.1117 678.501L86.1621 699.391L85.5064 700.146ZM61.4032 678.554L85.4537 650.335L86.2148 650.984L62.1643 679.203L61.4032 678.554Z" fill="#3DAFE9"/>
<path d="M299.318 747.029C300.36 745.987 300.36 744.299 299.318 743.257C298.277 742.216 296.589 742.216 295.547 743.257C294.506 744.299 294.506 745.987 295.547 747.029C296.589 748.07 298.277 748.07 299.318 747.029ZM167.967 615.678C169.009 614.636 169.009 612.948 167.967 611.906C166.926 610.865 165.238 610.865 164.196 611.906C163.155 612.948 163.155 614.636 164.196 615.678C165.238 616.719 166.926 616.719 167.967 615.678ZM297.786 744.79L166.435 613.438L165.728 614.146L297.079 745.497L297.786 744.79Z" fill="#3DAFE9"/>
<path d="M215.202 625.38C214.364 626.591 214.666 628.252 215.877 629.091C217.088 629.929 218.749 629.627 219.587 628.416C220.426 627.205 220.124 625.544 218.913 624.706C217.702 623.867 216.041 624.169 215.202 625.38ZM367.935 731.111C367.097 732.322 367.399 733.983 368.61 734.821C369.82 735.66 371.482 735.357 372.32 734.147C373.158 732.936 372.856 731.274 371.645 730.436C370.434 729.598 368.773 729.9 367.935 731.111ZM217.11 627.309L369.843 733.04L370.412 732.218L217.679 626.487L217.11 627.309Z" fill="#5C49EA"/>
<path d="M356.443 691.194C357.212 689.937 356.817 688.296 355.561 687.527C354.304 686.758 352.663 687.153 351.894 688.409C351.125 689.665 351.52 691.307 352.776 692.076C354.032 692.845 355.674 692.45 356.443 691.194ZM255.583 629.456C256.352 628.2 255.957 626.558 254.7 625.789C253.444 625.02 251.803 625.415 251.034 626.671C250.265 627.928 250.66 629.569 251.916 630.338C253.172 631.107 254.814 630.712 255.583 629.456ZM354.429 689.375L253.569 627.637L253.047 628.49L353.907 690.228L354.429 689.375Z" fill="#5C49EA"/>
<path d="M360.802 835.391C361.629 834.172 361.311 832.514 360.093 831.687C358.874 830.86 357.216 831.177 356.389 832.396C355.562 833.614 355.879 835.273 357.098 836.1C358.316 836.927 359.974 836.61 360.802 835.391ZM302.652 795.92C303.479 794.701 303.162 793.043 301.943 792.216C300.725 791.389 299.067 791.706 298.239 792.925C297.412 794.143 297.73 795.801 298.948 796.629C300.167 797.456 301.825 797.138 302.652 795.92ZM358.876 833.48L300.727 794.009L300.165 794.836L358.314 834.307L358.876 833.48Z" fill="#C883CC"/>
<path d="M360.589 619.778C359.611 618.676 357.926 618.576 356.824 619.553C355.723 620.531 355.622 622.216 356.6 623.318C357.577 624.419 359.263 624.52 360.364 623.542C361.466 622.565 361.566 620.879 360.589 619.778ZM313.5 661.567C312.522 660.466 310.837 660.365 309.735 661.343C308.634 662.32 308.533 664.006 309.511 665.107C310.488 666.209 312.174 666.309 313.275 665.332C314.377 664.354 314.477 662.669 313.5 661.567ZM358.262 621.174L311.173 662.963L311.837 663.711L358.926 621.922L358.262 621.174Z" fill="#5C49EA"/>
<circle cx="340.897" cy="822.034" r="2.97221" transform="rotate(-180 340.897 822.034)" fill="#C883CC"/>
<circle cx="322.016" cy="788.941" r="3.43756" transform="rotate(-180 322.016 788.941)" fill="#3DAFE9"/>
<circle cx="343.87" cy="767.047" r="3.43756" transform="rotate(-180 343.87 767.047)" fill="#3DAFE9"/>
<path d="M326.154 578.301C327.195 577.26 327.195 575.571 326.154 574.53C325.112 573.488 323.424 573.488 322.383 574.53C321.341 575.571 321.341 577.26 322.383 578.301C323.424 579.343 325.112 579.343 326.154 578.301ZM194.1 512.448C195.142 511.407 195.142 509.718 194.1 508.677C193.059 507.635 191.371 507.635 190.329 508.677C189.288 509.718 189.288 511.407 190.329 512.448C191.371 513.489 193.059 513.489 194.1 512.448ZM318.1 488.18L318.599 488.145L318.577 487.836L318.291 487.718L318.1 488.18ZM261.724 464.946L261.915 464.484L261.671 464.384L261.45 464.528L261.724 464.946ZM324.767 576.381L318.599 488.145L317.602 488.215L323.769 576.45L324.767 576.381ZM318.291 487.718L261.915 464.484L261.534 465.409L317.91 488.643L318.291 487.718ZM261.45 464.528L191.94 510.144L192.489 510.98L261.999 465.364L261.45 464.528Z" fill="#3DAFE9"/>
<circle cx="318.191" cy="488.636" r="2.97221" transform="rotate(-180 318.191 488.636)" fill="#3DAFE9"/>
<circle cx="351.198" cy="791.449" r="5.94441" transform="rotate(-180 351.198 791.449)" fill="#C883CC"/>
<circle cx="389.058" cy="753.59" r="5.94441" transform="rotate(-180 389.058 753.59)" fill="#C883CC"/>
<line x1="350.845" y1="791.095" x2="388.703" y2="753.237" stroke="#C883CC"/>
<line x1="322.148" y1="788.587" x2="344.041" y2="766.694" stroke="#3DAFE9"/>
<path d="M298.451 906.834C299.924 906.834 301.118 905.64 301.118 904.167C301.118 902.695 299.924 901.501 298.451 901.501C296.979 901.501 295.785 902.695 295.785 904.167C295.785 905.64 296.979 906.834 298.451 906.834ZM298.451 857.725C299.924 857.725 301.118 856.532 301.118 855.059C301.118 853.586 299.924 852.392 298.451 852.392C296.979 852.392 295.785 853.586 295.785 855.059C295.785 856.532 296.979 857.725 298.451 857.725ZM322.502 883.278L322.83 883.655L323.204 883.331L322.882 882.954L322.502 883.278ZM298.779 904.545L322.83 883.655L322.174 882.9L298.124 903.79L298.779 904.545ZM322.882 882.954L298.832 854.734L298.071 855.383L322.121 883.602L322.882 882.954Z" fill="#3DAFE9"/>
<circle cx="7.60032" cy="7.60032" r="7.60032" transform="matrix(1 1.74846e-07 1.74846e-07 -1 288.397 830.653)" fill="#3DAFE9"/>
<circle cx="7.60032" cy="7.60032" r="7.60032" transform="matrix(1 1.74846e-07 1.74846e-07 -1 239.994 782.249)" fill="#3DAFE9"/>
<path d="M296.281 822.771L227.967 834.261L247.877 774.366" stroke="#3DAFE9" stroke-width="2"/>
<circle cx="8.99783" cy="8.99783" r="8.49783" transform="matrix(1 1.74846e-07 1.74846e-07 -1 189.287 845.614)" stroke="#0080FF"/>
<circle cx="8.99783" cy="8.99783" r="8.74783" transform="matrix(1 1.74846e-07 1.74846e-07 -1 289.454 864.058)" stroke="#3DAFE9" stroke-width="0.5"/>
</g>
<g opacity="0.2">
<line y1="-0.5" x2="30.9614" y2="-0.5" transform="matrix(0.707107 0.707107 0.707107 -0.707107 1270.22 379.054)" stroke="#3DAFE9"/>
<path d="M1118.23 198.066C1119.27 199.107 1119.27 200.796 1118.23 201.837C1117.19 202.879 1115.5 202.879 1114.46 201.837C1113.42 200.796 1113.42 199.107 1114.46 198.066C1115.5 197.025 1117.19 197.025 1118.23 198.066ZM1054.36 261.942C1055.4 262.983 1055.4 264.671 1054.36 265.713C1053.31 266.754 1051.63 266.754 1050.58 265.713C1049.54 264.671 1049.54 262.983 1050.58 261.942C1051.63 260.9 1053.31 260.9 1054.36 261.942ZM1116.7 200.305L1052.82 264.181L1052.12 263.474L1115.99 199.598L1116.7 200.305Z" fill="#3DAFE9"/>
<path d="M1131.41 125.649C1132.15 124.373 1133.78 123.936 1135.05 124.673C1136.33 125.409 1136.77 127.04 1136.03 128.315C1135.29 129.591 1133.66 130.028 1132.39 129.291C1131.11 128.555 1130.68 126.924 1131.41 125.649ZM1209.64 170.816C1210.38 169.54 1212.01 169.103 1213.29 169.84C1214.56 170.576 1215 172.207 1214.26 173.482C1213.53 174.758 1211.89 175.195 1210.62 174.458C1209.34 173.722 1208.91 172.091 1209.64 170.816ZM1133.97 126.549L1212.2 171.716L1211.7 172.582L1133.47 127.415L1133.97 126.549Z" fill="#0080FF"/>
<path d="M1205.07 121.915C1205.83 123.172 1205.44 124.813 1204.18 125.582C1202.93 126.351 1201.29 125.956 1200.52 124.7C1199.75 123.444 1200.14 121.802 1201.4 121.033C1202.65 120.264 1204.3 120.659 1205.07 121.915ZM1156.02 151.938C1156.79 153.194 1156.39 154.836 1155.14 155.605C1153.88 156.374 1152.24 155.979 1151.47 154.723C1150.7 153.467 1151.09 151.825 1152.35 151.056C1153.61 150.287 1155.25 150.682 1156.02 151.938ZM1203.05 123.734L1154 153.757L1153.48 152.904L1202.53 122.881L1203.05 123.734Z" fill="#0080FF"/>
<path d="M1206.93 158.269C1205.96 159.37 1204.27 159.471 1203.17 158.493C1202.07 157.516 1201.97 155.83 1202.95 154.729C1203.92 153.627 1205.61 153.527 1206.71 154.504C1207.81 155.482 1207.91 157.167 1206.93 158.269ZM1184.04 137.947C1183.06 139.048 1181.37 139.149 1180.27 138.171C1179.17 137.194 1179.07 135.508 1180.05 134.407C1181.02 133.305 1182.71 133.205 1183.81 134.182C1184.91 135.16 1185.01 136.845 1184.04 137.947ZM1204.61 156.873L1181.71 136.551L1182.37 135.803L1205.27 156.125L1204.61 156.873Z" fill="#0080FF"/>
<path d="M1330.85 338.95C1331.9 339.991 1331.9 341.679 1330.85 342.721C1329.81 343.762 1328.12 343.762 1327.08 342.721C1326.04 341.679 1326.04 339.991 1327.08 338.95C1328.12 337.908 1329.81 337.908 1330.85 338.95ZM1198.8 404.803C1199.84 405.844 1199.84 407.533 1198.8 408.574C1197.76 409.615 1196.07 409.615 1195.03 408.574C1193.99 407.533 1193.99 405.844 1195.03 404.803C1196.07 403.761 1197.76 403.761 1198.8 404.803ZM1322.8 429.071L1323.3 429.105L1323.28 429.415L1322.99 429.533L1322.8 429.071ZM1266.42 452.304L1266.62 452.767L1266.37 452.867L1266.15 452.722L1266.42 452.304ZM1329.47 340.87L1323.3 429.105L1322.3 429.036L1328.47 340.8L1329.47 340.87ZM1322.99 429.533L1266.62 452.767L1266.23 451.842L1322.61 428.608L1322.99 429.533ZM1266.15 452.722L1196.64 407.106L1197.19 406.27L1266.7 451.886L1266.15 452.722Z" fill="#C78FF7" fill-opacity="0.95"/>
<circle cx="2.97221" cy="2.97221" r="2.97221" transform="matrix(-1 -8.74228e-08 -8.74228e-08 1 1325.86 425.645)" fill="#C78FF7" fill-opacity="0.95"/>
<path d="M1308.52 332.604C1309.34 333.823 1309.03 335.481 1307.81 336.308C1306.59 337.135 1304.93 336.818 1304.1 335.6C1303.28 334.381 1303.6 332.723 1304.81 331.896C1306.03 331.068 1307.69 331.386 1308.52 332.604ZM1250.37 372.075C1251.2 373.294 1250.88 374.952 1249.66 375.779C1248.44 376.607 1246.78 376.289 1245.96 375.071C1245.13 373.852 1245.45 372.194 1246.66 371.367C1247.88 370.539 1249.54 370.857 1250.37 372.075ZM1306.59 334.516L1248.44 373.987L1247.88 373.159L1306.03 333.688L1306.59 334.516Z" fill="#3DAFE9"/>
<circle cx="2.97221" cy="2.97221" r="2.97221" transform="matrix(-1 -8.74228e-08 -8.74228e-08 1 1291.59 342.989)" fill="#3DAFE9"/>
<circle cx="3.43756" cy="3.43756" r="3.43756" transform="matrix(-1 -8.74228e-08 -8.74228e-08 1 1273.17 375.617)" fill="#3DAFE9"/>
<circle cx="3.43756" cy="3.43756" r="3.43756" transform="matrix(-1 -8.74228e-08 -8.74228e-08 1 1295.03 397.511)" fill="#3DAFE9"/>
<circle cx="5.94441" cy="5.94441" r="5.94441" transform="matrix(0.0948538 0.995491 0.995491 -0.0948538 1230.52 446.793)" fill="#5C49EA"/>
<circle cx="5.94441" cy="5.94441" r="5.94441" transform="matrix(0.0948538 0.995491 0.995491 -0.0948538 1264.61 405.514)" fill="#5C49EA"/>
<line y1="-0.5" x2="53.54" y2="-0.5" transform="matrix(0.636847 -0.77099 -0.77099 -0.636847 1237 452.147)" stroke="#5C49EA"/>
<path d="M1246.17 261.161C1247.64 261.161 1248.84 262.355 1248.84 263.828C1248.84 265.3 1247.64 266.494 1246.17 266.494C1244.7 266.494 1243.5 265.3 1243.5 263.828C1243.5 262.355 1244.7 261.161 1246.17 261.161ZM1246.17 310.27C1247.64 310.27 1248.84 311.463 1248.84 312.936C1248.84 314.409 1247.64 315.603 1246.17 315.603C1244.7 315.603 1243.5 314.409 1243.5 312.936C1243.5 311.463 1244.7 310.27 1246.17 310.27ZM1270.22 284.717L1270.55 284.34L1270.92 284.664L1270.6 285.041L1270.22 284.717ZM1246.5 263.45L1270.55 284.34L1269.89 285.095L1245.84 264.205L1246.5 263.45ZM1270.6 285.041L1246.55 313.261L1245.79 312.612L1269.84 284.393L1270.6 285.041Z" fill="#3DAFE9"/>
<path d="M1032.68 216.566C1031.64 217.608 1031.64 219.296 1032.68 220.338C1033.73 221.379 1035.41 221.379 1036.46 220.338C1037.5 219.296 1037.5 217.608 1036.46 216.566C1035.41 215.525 1033.73 215.525 1032.68 216.566ZM1164.04 347.917C1162.99 348.959 1162.99 350.647 1164.04 351.689C1165.08 352.73 1166.77 352.73 1167.81 351.689C1168.85 350.647 1168.85 348.959 1167.81 347.917C1166.77 346.876 1165.08 346.876 1164.04 347.917ZM1034.22 218.806L1165.57 350.157L1166.27 349.45L1034.92 218.098L1034.22 218.806Z" fill="#3DAFE9"/>
<path d="M1116.8 338.216C1117.64 337.005 1117.34 335.344 1116.13 334.505C1114.92 333.667 1113.25 333.969 1112.42 335.18C1111.58 336.391 1111.88 338.052 1113.09 338.89C1114.3 339.729 1115.96 339.427 1116.8 338.216ZM964.069 232.485C964.907 231.274 964.605 229.613 963.394 228.775C962.184 227.936 960.522 228.238 959.684 229.449C958.846 230.66 959.148 232.322 960.359 233.16C961.57 233.998 963.231 233.696 964.069 232.485ZM1114.89 336.287L962.161 230.556L961.592 231.378L1114.32 337.109L1114.89 336.287Z" fill="#5C49EA"/>
<path d="M975.559 272.402C974.79 273.658 975.185 275.299 976.441 276.068C977.697 276.837 979.339 276.442 980.108 275.186C980.877 273.93 980.482 272.288 979.226 271.519C977.97 270.75 976.328 271.145 975.559 272.402ZM1076.42 334.139C1075.65 335.395 1076.05 337.037 1077.3 337.806C1078.56 338.575 1080.2 338.18 1080.97 336.924C1081.74 335.667 1081.34 334.026 1080.09 333.257C1078.83 332.488 1077.19 332.883 1076.42 334.139ZM977.572 274.22L1078.43 335.958L1078.95 335.105L978.095 273.367L977.572 274.22Z" fill="#5C49EA"/>
<path d="M971.201 128.204C970.374 129.422 970.692 131.081 971.91 131.908C973.129 132.735 974.787 132.418 975.614 131.199C976.441 129.981 976.124 128.322 974.905 127.495C973.687 126.668 972.028 126.985 971.201 128.204ZM1029.35 167.675C1028.52 168.893 1028.84 170.552 1030.06 171.379C1031.28 172.206 1032.94 171.889 1033.76 170.67C1034.59 169.452 1034.27 167.793 1033.05 166.966C1031.84 166.139 1030.18 166.456 1029.35 167.675ZM973.127 130.115L1031.28 169.586L1031.84 168.759L973.689 129.288L973.127 130.115Z" fill="#C883CC"/>
<path d="M971.414 343.817C972.392 344.918 974.077 345.019 975.179 344.041C976.28 343.064 976.381 341.378 975.403 340.277C974.426 339.175 972.74 339.075 971.639 340.052C970.537 341.03 970.437 342.715 971.414 343.817ZM1018.5 302.027C1019.48 303.129 1021.17 303.229 1022.27 302.252C1023.37 301.274 1023.47 299.589 1022.49 298.487C1021.51 297.386 1019.83 297.285 1018.73 298.263C1017.63 299.24 1017.53 300.926 1018.5 302.027ZM973.741 342.421L1020.83 300.631L1020.17 299.883L973.077 341.673L973.741 342.421Z" fill="#5C49EA"/>
<circle cx="991.105" cy="141.561" r="2.97221" fill="#C883CC"/>
<circle cx="1009.99" cy="174.654" r="3.43756" fill="#3DAFE9"/>
<circle cx="988.135" cy="196.548" r="3.43756" fill="#3DAFE9"/>
<path d="M1005.85 385.296C1004.81 386.337 1004.81 388.026 1005.85 389.067C1006.89 390.109 1008.58 390.109 1009.62 389.067C1010.66 388.026 1010.66 386.337 1009.62 385.296C1008.58 384.255 1006.89 384.255 1005.85 385.296ZM1137.9 451.149C1136.86 452.19 1136.86 453.879 1137.9 454.92C1138.94 455.962 1140.63 455.962 1141.67 454.92C1142.71 453.879 1142.71 452.19 1141.67 451.149C1140.63 450.108 1138.94 450.108 1137.9 451.149ZM1013.9 475.417L1013.4 475.452L1013.42 475.761L1013.71 475.879L1013.9 475.417ZM1070.28 498.651L1070.09 499.113L1070.33 499.214L1070.55 499.069L1070.28 498.651ZM1007.24 387.216L1013.4 475.452L1014.4 475.382L1008.23 387.147L1007.24 387.216ZM1013.71 475.879L1070.09 499.113L1070.47 498.188L1014.09 474.955L1013.71 475.879ZM1070.55 499.069L1140.06 453.453L1139.51 452.617L1070 498.233L1070.55 499.069Z" fill="#3DAFE9"/>
<circle cx="1013.81" cy="474.959" r="2.97221" fill="#3DAFE9"/>
<circle cx="980.804" cy="172.147" r="5.94441" fill="#C883CC"/>
<circle cx="942.944" cy="210.007" r="5.94441" fill="#C883CC"/>
<line x1="981.157" y1="172.501" x2="943.298" y2="210.359" stroke="#C883CC"/>
<line x1="1009.85" y1="175.009" x2="987.961" y2="196.902" stroke="#3DAFE9"/>
<path d="M1033.55 56.7611C1032.08 56.7611 1030.89 57.955 1030.89 59.4277C1030.89 60.9005 1032.08 62.0944 1033.55 62.0944C1035.03 62.0944 1036.22 60.9005 1036.22 59.4277C1036.22 57.955 1035.03 56.7611 1033.55 56.7611ZM1033.55 105.87C1032.08 105.87 1030.89 107.064 1030.89 108.536C1030.89 110.009 1032.08 111.203 1033.55 111.203C1035.03 111.203 1036.22 110.009 1036.22 108.536C1036.22 107.064 1035.03 105.87 1033.55 105.87ZM1009.5 80.3173L1009.17 79.9398L1008.8 80.2646L1009.12 80.6416L1009.5 80.3173ZM1033.22 59.0502L1009.17 79.9398L1009.83 80.6948L1033.88 59.8052L1033.22 59.0502ZM1009.12 80.6416L1033.17 108.861L1033.93 108.212L1009.88 79.993L1009.12 80.6416Z" fill="#3DAFE9"/>
<circle cx="7.60032" cy="7.60032" r="7.60032" transform="matrix(-1 -8.74228e-08 -8.74228e-08 1 1043.61 132.943)" fill="#3DAFE9"/>
<circle cx="7.60032" cy="7.60032" r="7.60032" transform="matrix(-1 -8.74228e-08 -8.74228e-08 1 1092.01 181.348)" fill="#3DAFE9"/>
<path d="M1035.72 140.825L1104.04 129.335L1084.13 189.23" stroke="#3DAFE9" stroke-width="2"/>
<circle cx="8.99783" cy="8.99783" r="8.49783" transform="matrix(-1 -8.74228e-08 -8.74228e-08 1 1142.72 117.982)" stroke="#0080FF"/>
<circle cx="8.99783" cy="8.99783" r="8.74783" transform="matrix(-1 -8.74228e-08 -8.74228e-08 1 1042.55 99.5376)" stroke="#3DAFE9" stroke-width="0.5"/>
</g>
</svg>
