<svg width="1045" height="67" viewBox="0 0 1045 67" fill="none" xmlns="http://www.w3.org/2000/svg">
<path d="M28.6085 65.7612H15.8403L1.43054e-06 1.05603H12.5762L18.7203 30.4326C20.3524 38.3047 21.8884 46.5609 22.9444 52.993H23.1364C24.1924 46.1768 26.0165 38.4967 27.8405 30.3366L34.8486 1.05603H47.2329L53.665 30.8166C55.297 38.4967 56.641 45.6968 57.601 52.705H57.7931C58.9451 45.6008 60.4811 38.2087 62.2091 30.3366L68.9293 1.05603H80.9295L63.5532 65.7612H50.8809L44.1608 35.3286C42.5288 27.9365 41.3768 21.7924 40.6087 14.7843H40.4167C39.2647 21.6964 38.0167 27.9365 36.0967 35.3286L28.6085 65.7612ZM88.8151 1.05603H100.623V65.7612H88.8151V1.05603ZM126.512 65.7612V10.9442H108.08V1.05603H156.945V10.9442H138.321V65.7612H126.512ZM164.566 1.05603H176.375V26.9765H203.735V1.05603H215.543V65.7612H203.735V37.2487H176.375V65.7612H164.566V1.05603Z" fill="white"/>
<path d="M304.816 65.7612L303.568 39.3607C303.184 31.0086 302.704 20.9284 302.8 12.1922H302.512C300.4 20.0644 297.712 28.8005 294.832 36.9607L285.424 64.9932H276.304L267.663 37.3447C265.167 29.0885 262.863 20.2564 261.135 12.1922H260.943C260.655 20.6404 260.271 30.9126 259.791 39.7447L258.351 65.7612H247.311L251.631 1.05603H267.183L275.631 27.0725C277.936 34.6566 279.952 42.3368 281.584 49.5369H281.872C283.6 42.5288 285.808 34.5606 288.304 26.9765L297.232 1.05603H312.592L316.336 65.7612H304.816ZM361.293 47.4249H340.748L335.18 65.7612H322.988L343.724 1.05603H358.797L379.821 65.7612H367.149L361.293 47.4249ZM342.668 38.4967H359.277L354.189 22.5604C352.941 18.6243 351.885 14.2083 350.925 10.4642H350.733C349.773 14.2083 348.813 18.7203 347.661 22.5604L342.668 38.4967ZM438.599 30.0486V62.7851C434.471 64.3212 426.407 66.4332 417.767 66.4332C406.822 66.4332 398.566 63.6492 392.422 57.7931C386.662 52.321 383.302 43.7768 383.398 33.9846C383.398 13.5363 397.99 0.384012 419.399 0.384012C427.367 0.384012 433.607 2.01604 436.583 3.45607L433.991 12.9602C430.439 11.4242 426.119 10.1762 419.303 10.1762C405.478 10.1762 395.782 18.3363 395.782 33.4086C395.782 48.0969 404.806 56.833 418.247 56.833C422.471 56.833 425.639 56.257 427.175 55.489V39.3607H415.751V30.0486H438.599ZM450.697 1.05603H462.505V65.7612H450.697V1.05603ZM520.458 54.529L522.378 63.8412C519.594 65.2812 513.45 66.7212 505.674 66.7212C485.13 66.7212 472.65 53.857 472.65 34.1766C472.65 12.8642 487.434 3.81477e-06 507.21 3.81477e-06C514.986 3.81477e-06 520.554 1.63204 522.954 2.88006L520.362 12.2882C517.29 10.9442 513.066 9.79219 507.69 9.79219C494.538 9.79219 485.034 18.0483 485.034 33.6006C485.034 47.8089 493.386 56.929 507.594 56.929C512.394 56.929 517.386 55.969 520.458 54.529ZM579.684 3.81477e-06C598.596 3.81477e-06 609.733 14.3043 609.733 32.7366C609.733 54.433 596.58 66.8172 578.724 66.8172C560.484 66.8172 548.963 52.897 548.963 33.8886C548.963 14.0163 561.444 3.81477e-06 579.684 3.81477e-06ZM579.396 9.50418C567.684 9.50418 561.444 20.3524 561.444 33.6966C561.444 46.8489 568.068 57.313 579.396 57.313C590.82 57.313 597.252 46.7529 597.252 33.2166C597.252 21.0244 591.204 9.50418 579.396 9.50418ZM619.918 65.7612V1.05603H657.263V10.7522H631.727V28.6085H655.535V38.3047H631.727V65.7612H619.918ZM688.638 65.5692V1.92004C693.823 1.05603 700.447 0.576018 707.455 0.576018C719.551 0.576018 727.903 3.07206 733.855 8.06415C740.095 13.1522 743.935 20.8324 743.935 31.8726C743.935 43.3928 739.999 52.033 733.855 57.6011C727.423 63.4572 717.151 66.4332 704.575 66.4332C697.663 66.4332 692.479 66.0492 688.638 65.5692ZM700.447 10.4642V56.737C702.079 57.025 704.575 57.025 706.975 57.025C722.335 57.121 731.455 48.6729 731.455 32.2566C731.551 17.9523 723.295 9.79219 708.511 9.79219C704.767 9.79219 702.079 10.0802 700.447 10.4642ZM790.364 27.4565V37.0567H765.979V56.065H793.244V65.7612H754.171V1.05603H791.804V10.7522H765.979V27.4565H790.364ZM832.649 65.7612H819.112L798.184 1.05603H811.048L819.88 30.4326C822.376 38.5927 824.488 46.1768 826.216 54.049H826.408C828.136 46.3688 830.441 38.4967 833.033 30.6246L842.441 1.05603H855.017L832.649 65.7612ZM888.877 3.81477e-06C907.789 3.81477e-06 918.926 14.3043 918.926 32.7366C918.926 54.433 905.773 66.8172 887.917 66.8172C869.677 66.8172 858.157 52.897 858.157 33.8886C858.157 14.0163 870.637 3.81477e-06 888.877 3.81477e-06ZM888.589 9.50418C876.877 9.50418 870.637 20.3524 870.637 33.6966C870.637 46.8489 877.261 57.313 888.589 57.313C900.013 57.313 906.445 46.7529 906.445 33.2166C906.445 21.0244 900.397 9.50418 888.589 9.50418ZM929.112 65.7612V1.92004C933.336 1.15203 939.192 0.576018 947.16 0.576018C955.8 0.576018 962.136 2.40005 966.264 5.85611C970.104 9.02417 972.6 14.1123 972.6 20.1604C972.6 26.3045 970.68 31.3926 967.032 34.8486C962.328 39.5527 954.936 41.7608 946.584 41.7608C944.376 41.7608 942.36 41.6648 940.824 41.3768V65.7612H929.112ZM940.824 10.1762V32.0646C942.264 32.4486 944.184 32.5446 946.584 32.5446C955.416 32.5446 960.792 28.2245 960.792 20.6404C960.792 13.4403 955.8 9.60018 947.64 9.60018C944.376 9.60018 942.072 9.88819 940.824 10.1762ZM979.857 62.6891L982.45 52.897C986.29 55.105 992.05 57.025 998.098 57.025C1005.68 57.025 1009.91 53.473 1009.91 48.1929C1009.91 43.2968 1006.64 40.4167 998.386 37.4407C987.73 33.6006 980.914 27.9365 980.914 18.6243C980.914 8.06415 989.746 3.81477e-06 1003.76 3.81477e-06C1010.77 3.81477e-06 1015.95 1.53603 1019.31 3.26407L1016.43 12.7682C1014.13 11.5202 1009.62 9.69618 1003.57 9.69618C996.082 9.69618 992.818 13.7283 992.818 17.4723C992.818 22.4644 996.562 24.7685 1005.2 28.1285C1016.43 32.3526 1021.91 38.0167 1021.91 47.3289C1021.91 57.6971 1014.03 66.7212 997.33 66.7212C990.514 66.7212 983.41 64.8012 979.857 62.6891ZM1042.22 45.7928H1033.19L1031.46 1.05603H1043.94L1042.22 45.7928ZM1037.7 66.8172C1033.38 66.8172 1030.41 63.6492 1030.5 59.3291C1030.5 54.913 1033.48 51.8409 1037.7 51.8409C1042.12 51.8409 1044.9 54.913 1045 59.3291C1045 63.6492 1042.12 66.8172 1037.7 66.8172Z" fill="url(#paint0_linear_6_317)"/>
<defs>
<linearGradient id="paint0_linear_6_317" x1="523.788" y1="89.7616" x2="523.788" y2="-6.2401" gradientUnits="userSpaceOnUse">
<stop stop-color="#5C49EA"/>
<stop offset="0.5" stop-color="#3DAFE9"/>
<stop offset="1" stop-color="#94FFED"/>
</linearGradient>
</defs>
</svg>
