<svg width="1046" height="68" viewBox="0 0 1046 68" fill="none" xmlns="http://www.w3.org/2000/svg">
<path d="M28.8293 66.495H16.0613L0.22125 1.79099H12.7973L18.9413 31.167C20.5733 39.039 22.1093 47.295 23.1653 53.727H23.3573C24.4133 46.911 26.2373 39.231 28.0613 31.071L35.0693 1.79099H47.4533L53.8853 31.551C55.5173 39.231 56.8613 46.431 57.8213 53.439H58.0133C59.1653 46.335 60.7013 38.943 62.4293 31.071L69.1493 1.79099H81.1493L63.7733 66.495H51.1013L44.3813 36.063C42.7493 28.671 41.5973 22.527 40.8293 15.519H40.6373C39.4853 22.431 38.2373 28.671 36.3173 36.063L28.8293 66.495ZM89.0348 1.79099H100.843V66.495H89.0348V1.79099ZM126.731 66.495V11.679H108.299V1.79099H157.163V11.679H138.539V66.495H126.731ZM164.785 1.79099H176.593V27.711H203.953V1.79099H215.761V66.495H203.953V37.983H176.593V66.495H164.785V1.79099Z" fill="white"/>
<path d="M305.032 66.495L303.784 40.095C303.4 31.743 302.92 21.663 303.016 12.927H302.728C300.616 20.799 297.928 29.535 295.048 37.695L285.64 65.727H276.52L267.88 38.079C265.384 29.823 263.08 20.991 261.352 12.927H261.16C260.872 21.375 260.488 31.647 260.008 40.479L258.568 66.495H247.528L251.848 1.79099H267.4L275.848 27.807C278.152 35.391 280.168 43.071 281.8 50.271H282.088C283.816 43.263 286.024 35.295 288.52 27.711L297.448 1.79099H312.808L316.552 66.495H305.032ZM361.508 48.159H340.964L335.396 66.495H323.204L343.94 1.79099H359.012L380.036 66.495H367.364L361.508 48.159ZM342.884 39.231H359.492L354.404 23.295C353.156 19.359 352.1 14.943 351.14 11.199H350.948C349.988 14.943 349.028 19.455 347.876 23.295L342.884 39.231ZM438.812 30.783V63.519C434.684 65.055 426.62 67.167 417.98 67.167C407.036 67.167 398.78 64.383 392.636 58.527C386.876 53.055 383.516 44.511 383.612 34.719C383.612 14.271 398.204 1.11899 419.612 1.11899C427.58 1.11899 433.82 2.75099 436.796 4.19099L434.204 13.695C430.652 12.159 426.332 10.911 419.516 10.911C405.692 10.911 395.996 19.071 395.996 34.143C395.996 48.831 405.02 57.567 418.46 57.567C422.684 57.567 425.852 56.991 427.388 56.223V40.095H415.964V30.783H438.812ZM450.91 1.79099H462.718V66.495H450.91V1.79099ZM520.67 55.263L522.59 64.575C519.806 66.015 513.662 67.455 505.886 67.455C485.342 67.455 472.862 54.591 472.862 34.911C472.862 13.599 487.646 0.734989 507.422 0.734989C515.198 0.734989 520.766 2.36699 523.166 3.61499L520.574 13.023C517.502 11.679 513.278 10.527 507.902 10.527C494.75 10.527 485.246 18.783 485.246 34.335C485.246 48.543 493.598 57.663 507.806 57.663C512.606 57.663 517.598 56.703 520.67 55.263ZM579.895 0.734989C598.807 0.734989 609.943 15.039 609.943 33.471C609.943 55.167 596.791 67.551 578.935 67.551C560.695 67.551 549.175 53.631 549.175 34.623C549.175 14.751 561.655 0.734989 579.895 0.734989ZM579.607 10.239C567.895 10.239 561.655 21.087 561.655 34.431C561.655 47.583 568.279 58.047 579.607 58.047C591.031 58.047 597.463 47.487 597.463 33.951C597.463 21.759 591.415 10.239 579.607 10.239ZM620.129 66.495V1.79099H657.473V11.487H631.937V29.343H655.745V39.039H631.937V66.495H620.129ZM688.847 66.303V2.65499C694.031 1.79099 700.655 1.31099 707.663 1.31099C719.759 1.31099 728.111 3.80699 734.063 8.79899C740.303 13.887 744.143 21.567 744.143 32.607C744.143 44.127 740.207 52.767 734.063 58.335C727.631 64.191 717.359 67.167 704.783 67.167C697.871 67.167 692.687 66.783 688.847 66.303ZM700.655 11.199V57.471C702.287 57.759 704.783 57.759 707.183 57.759C722.543 57.855 731.663 49.407 731.663 32.991C731.759 18.687 723.503 10.527 708.719 10.527C704.975 10.527 702.287 10.815 700.655 11.199ZM790.571 28.191V37.791H766.187V56.799H793.451V66.495H754.379V1.79099H792.011V11.487H766.187V28.191H790.571ZM832.855 66.495H819.319L798.391 1.79099H811.255L820.087 31.167C822.583 39.327 824.695 46.911 826.423 54.783H826.615C828.343 47.103 830.647 39.231 833.239 31.359L842.647 1.79099H855.223L832.855 66.495ZM889.082 0.734989C907.994 0.734989 919.13 15.039 919.13 33.471C919.13 55.167 905.978 67.551 888.122 67.551C869.882 67.551 858.362 53.631 858.362 34.623C858.362 14.751 870.842 0.734989 889.082 0.734989ZM888.794 10.239C877.082 10.239 870.842 21.087 870.842 34.431C870.842 47.583 877.466 58.047 888.794 58.047C900.218 58.047 906.65 47.487 906.65 33.951C906.65 21.759 900.602 10.239 888.794 10.239ZM929.316 66.495V2.65499C933.54 1.88699 939.396 1.31099 947.364 1.31099C956.004 1.31099 962.34 3.13499 966.468 6.59099C970.308 9.75899 972.804 14.847 972.804 20.895C972.804 27.039 970.884 32.127 967.236 35.583C962.532 40.287 955.14 42.495 946.788 42.495C944.58 42.495 942.564 42.399 941.028 42.111V66.495H929.316ZM941.028 10.911V32.799C942.468 33.183 944.388 33.279 946.788 33.279C955.62 33.279 960.996 28.959 960.996 21.375C960.996 14.175 956.004 10.335 947.844 10.335C944.58 10.335 942.276 10.623 941.028 10.911ZM980.061 63.423L982.653 53.631C986.493 55.839 992.253 57.759 998.301 57.759C1005.89 57.759 1010.11 54.207 1010.11 48.927C1010.11 44.031 1006.85 41.151 998.589 38.175C987.933 34.335 981.117 28.671 981.117 19.359C981.117 8.79899 989.949 0.734989 1003.97 0.734989C1010.97 0.734989 1016.16 2.27099 1019.52 3.99899L1016.64 13.503C1014.33 12.255 1009.82 10.431 1003.77 10.431C996.285 10.431 993.021 14.463 993.021 18.207C993.021 23.199 996.765 25.503 1005.41 28.863C1016.64 33.087 1022.11 38.751 1022.11 48.063C1022.11 58.431 1014.24 67.455 997.533 67.455C990.717 67.455 983.613 65.535 980.061 63.423ZM1042.42 46.527H1033.39L1031.67 1.79099H1044.15L1042.42 46.527ZM1037.91 67.551C1033.59 67.551 1030.61 64.383 1030.71 60.063C1030.71 55.647 1033.68 52.575 1037.91 52.575C1042.32 52.575 1045.11 55.647 1045.2 60.063C1045.2 64.383 1042.32 67.551 1037.91 67.551Z" fill="url(#paint0_linear_6_317)"/>
<defs>
<linearGradient id="paint0_linear_6_317" x1="524" y1="90.495" x2="524" y2="-5.505" gradientUnits="userSpaceOnUse">
<stop stop-color="#5C49EA"/>
<stop offset="0.5" stop-color="#3DAFE9"/>
<stop offset="1" stop-color="#94FFED"/>
</linearGradient>
</defs>
</svg>
