<svg width="137" height="38" viewBox="0 0 137 38" fill="none" xmlns="http://www.w3.org/2000/svg">
<path d="M29.8188 0.48275C28.8674 0.558551 26.8537 0.519135 25.7976 0.43727C24.8647 0.370565 24.0026 0.655576 23.3683 1.23773C22.6602 1.88658 22.4508 2.68098 22.3892 3.27526C22.3245 2.69311 22.1152 1.9169 21.4224 1.28018C20.976 0.870851 20.1877 0.397853 18.9592 0.485782C18.0078 0.561583 15.9942 0.522167 14.9381 0.440302C14.0051 0.376629 13.143 0.658608 12.5087 1.24076C11.8006 1.88962 11.5912 2.68401 11.5296 3.27829C11.465 2.69614 11.2556 1.91994 10.5628 1.28321C10.1164 0.873883 9.32815 0.400885 8.09964 0.488814C7.14823 0.564615 5.13457 0.525199 4.07848 0.443334C3.14555 0.376629 2.28344 0.661641 1.64917 1.24379C0.64234 2.16553 0.642334 3.38441 0.642334 3.90289V28.6686C0.642334 30.5697 2.0248 32.5102 4.87287 34.6023C5.96898 35.4088 8.71851 37.2826 10.5628 37.2826C11.8806 37.2826 13.3555 36.5519 16.1573 34.9115C17.6014 35.9121 19.8706 37.2826 21.4255 37.2826C22.4138 37.2826 23.5346 36.9794 30.7764 32.7861C31.0843 32.6072 31.2998 32.4829 31.3768 32.4404L31.4199 32.4162C32.5683 31.7704 33.2796 30.506 33.2796 29.1113V3.89683C33.2796 3.38744 33.2796 2.18979 32.2851 1.28018C31.8386 0.870851 31.0535 0.397853 29.8219 0.485782L29.8188 0.48275ZM30.0959 30.3756C29.6002 30.6424 22.4354 34.9024 21.3978 34.9024C20.7666 34.9024 18.9192 33.9261 17.2504 32.7285C16.8008 32.3737 16.4837 32.1069 16.2589 32.1069C15.8987 32.1069 11.7975 34.9024 10.5351 34.9024C9.27273 34.9024 3.23484 31.1306 3.23484 28.8657V4.103C3.23484 3.61485 3.23484 3.17217 3.86603 3.21462C4.99294 3.30255 7.15747 3.34803 8.28129 3.2601C8.91249 3.21462 8.91249 3.61485 8.91249 4.103V27.2253C8.91249 28.8232 12.4718 30.8213 13.5094 30.8213C13.9158 30.8213 14.0944 30.6 14.0944 30.1998V4.103C14.0944 3.61485 14.0944 3.17217 14.7256 3.21462C15.8525 3.30255 18.0171 3.34803 19.1409 3.2601C19.7721 3.21462 19.7721 3.61485 19.7721 4.103V27.2253C19.7721 28.8232 23.3314 30.8213 24.369 30.8213C24.7754 30.8213 24.954 30.6 24.954 30.1998V4.103C24.954 3.61485 24.954 3.17217 25.5852 3.21462C26.7121 3.30255 28.8766 3.34803 30.0035 3.2601C30.6347 3.21462 30.6347 3.61485 30.6347 4.103V29.3114C30.6347 29.7995 30.41 30.1998 30.0928 30.3756H30.0959Z" fill="white"/>
<path d="M67.724 25.1842H71.5542C71.7328 25.1842 71.8252 25.0963 71.8252 24.9174V18.9716C71.8252 17.8618 68.8047 15.5544 68.038 15.5544C67.6778 15.5544 67.453 15.8213 67.453 16.3094V24.9204C67.453 25.0538 67.5423 25.1872 67.724 25.1872V25.1842Z" fill="white"/>
<path d="M87.4211 23.4985L89.0899 22.8315C90.4878 22.2978 91.6147 20.7454 91.6147 18.8807C91.6147 16.5733 88.4156 14.842 87.5135 14.842C87.107 14.842 86.9716 15.1089 86.9716 15.7729V23.0528C86.9716 23.4076 87.1532 23.5864 87.4211 23.4955V23.4985Z" fill="white"/>
<path d="M106.301 30.4207H109.996C110.31 30.4207 110.538 30.1538 110.538 29.6657V19.0141C110.538 16.7067 107.246 14.842 106.347 14.842C105.941 14.842 105.805 15.1089 105.805 15.7729V28.0678C105.805 30.0204 104.995 30.4207 106.301 30.4207Z" fill="white"/>
<path d="M132.881 20.7151C133.263 20.5787 133.685 20.4119 134.172 20.2027C135.665 19.572 136.077 18.5108 136.191 17.9347C136.367 17.0312 136.071 16.0973 135.4 15.4333C134.766 14.8087 134.048 13.9537 133.353 13.129C131.277 10.6639 129.319 8.33228 126.788 8.33228C124.784 8.33228 122.068 10.3304 120.627 11.522C119.174 12.7227 118.229 13.7475 117.613 14.6025C115.799 11.1127 111.378 8.42324 109.395 8.42324C107.942 8.42324 106.769 8.85075 105.879 9.34498C104.309 7.85928 102.766 8.45962 102.169 8.79618C101.855 8.969 101.565 9.13273 101.294 9.28434C100.309 9.84223 99.7147 10.1788 98.8618 10.4395C97.9627 10.7064 97.2669 11.2764 96.8974 12.0192C94.7206 9.85739 91.7093 8.42324 89.8342 8.42324C88.695 8.42324 87.7313 8.81134 86.9646 9.27524C85.422 7.87747 83.9133 8.46568 83.3068 8.80527L83.199 8.86895C81.872 9.69972 81.1669 10.0454 79.9568 10.4577C78.8361 10.8125 78.0386 11.6402 77.82 12.6893C77.7861 12.85 77.7738 13.0107 77.7677 13.1714C77.2011 12.5498 76.5114 11.9161 75.6955 11.2643C74.3223 10.1697 71.7051 8.33228 69.596 8.33228C67.6717 8.33228 65.2516 10.0909 63.5612 11.5644C62.6406 12.3679 61.8832 13.1411 61.2859 13.8809C61.409 13.511 61.5322 13.1411 61.6461 12.7772C61.9417 11.8434 61.7477 10.8307 61.1288 10.0545C60.4638 9.22066 59.3892 8.78102 58.25 8.87501H58.21C57.6958 8.9114 54.4166 8.95384 53.7362 8.95384C52.6339 8.95384 51.3962 8.93262 50.2015 8.90836C48.9822 8.88714 47.7198 8.86288 46.5714 8.86288C45.2289 8.86288 44.0805 9.65728 43.6248 10.8974C43.4832 10.485 43.2399 10.0514 42.8212 9.6694C42.1869 9.08725 41.3279 8.80527 40.3703 8.87198C39.3727 8.95081 37.7901 8.99326 36.7987 8.91443C35.5886 8.82953 34.8066 9.2995 34.3571 9.71185C33.3625 10.6245 33.3625 11.8191 33.3625 12.3315V33.3678C33.3625 33.8772 33.3625 35.0749 34.3571 35.9875C34.8035 36.3968 35.5917 36.8698 36.8202 36.7819C37.7901 36.7061 39.3727 36.7485 40.3919 36.8274C40.4812 36.8334 40.5674 36.8365 40.6536 36.8365C41.4849 36.8365 42.2485 36.5545 42.8212 36.0269C42.8643 35.9875 42.9043 35.9451 42.9443 35.9056C43.5386 36.4787 44.3514 36.794 45.2382 36.794C45.3398 36.794 45.4445 36.791 45.5492 36.7819C46.2963 36.7273 47.9446 36.7 50.494 36.7C51.6086 36.7 53.1573 36.7273 54.5244 36.7546C55.5374 36.7728 56.4118 36.791 56.8952 36.791C58.2346 36.791 59.3769 35.9996 59.8387 34.7686C59.9804 35.1779 60.2205 35.6055 60.6362 35.9875C61.0827 36.3968 61.8709 36.8698 63.0994 36.7819C64.0693 36.7061 65.6519 36.7485 66.671 36.8274C67.6039 36.891 68.4661 36.6091 69.1003 36.0269C69.3497 35.7965 69.5406 35.5479 69.6823 35.2962C69.8208 35.5327 69.9994 35.7662 70.2396 35.9845C70.686 36.3938 71.4711 36.8668 72.7027 36.7789C73.6726 36.7031 75.2552 36.7455 76.2744 36.8243C76.3637 36.8304 76.4499 36.8334 76.5361 36.8334C77.3674 36.8334 78.1279 36.5515 78.7037 36.0239C79.0608 35.6964 79.2918 35.3295 79.4395 34.9718C79.5873 35.3144 79.809 35.6661 80.1539 35.9814C80.6003 36.3908 81.3885 36.8638 82.6171 36.7758C83.5869 36.7 85.1696 36.7425 86.1887 36.8213C87.1216 36.885 87.9837 36.603 88.618 36.0209C89.6156 35.1052 89.6248 33.8984 89.6248 33.3739C90.0497 34.1592 90.5177 34.9657 91.0504 35.7934C91.7216 36.8486 92.7716 37.4277 93.8646 37.4277C94.3418 37.4277 94.8314 37.3155 95.2994 37.0881L95.3302 37.073C96.531 36.4635 97.4393 35.9481 98.4431 35.1931C98.9973 36.133 100.023 36.7394 101.248 36.7394H108.459C110.383 36.7394 112.803 34.9809 114.494 33.5043C115.464 32.6583 116.252 31.8488 116.865 31.0726C117.567 32.1247 118.657 33.2283 120.144 34.3836C121.579 35.4963 124.297 37.361 126.394 37.361C128.318 37.361 130.739 35.6024 132.429 34.1258C135.037 31.8518 136.358 29.8173 136.358 28.0799C136.358 24.8569 135.2 22.3918 132.897 20.7121L132.881 20.7151ZM47.0024 21.8552C45.9033 24.0352 44.7794 26.2607 43.8219 28.4711V17.8256C44.219 18.0045 44.6593 18.1045 45.1243 18.1045H45.2505C45.8417 18.0742 46.6022 18.0287 47.4243 17.9802C47.9138 17.9499 48.4403 17.9196 48.9699 17.8893C48.3572 19.1748 47.6891 20.4968 47.0055 21.8552H47.0024ZM40.5489 34.4594C39.422 34.3714 37.7101 34.3259 36.5832 34.4139C35.952 34.4594 35.952 34.0591 35.952 33.571V12.5347C35.952 12.0465 35.952 11.6463 36.5832 11.6918C37.7101 11.7797 39.422 11.7373 40.5489 11.6463C41.1801 11.6008 41.1801 12.0465 41.1801 12.5347V33.571C41.1801 34.0591 41.1801 34.5018 40.5489 34.4594ZM58.6225 30.9543C58.0375 31.9761 57.7666 32.8615 57.3602 34.0622C57.2709 34.329 57.0892 34.4169 56.8644 34.4169C55.7837 34.4169 52.4492 34.329 50.4632 34.329C46.5868 34.329 46.5437 34.329 45.3244 34.4169C44.7825 34.4624 44.5577 34.1956 44.647 33.8408C46.4051 28.0254 50.5063 21.5459 52.8494 15.7335C52.9387 15.5121 52.8494 15.3787 52.5785 15.3787C50.5956 15.3787 46.9901 15.6456 45.0966 15.7335C44.7794 15.7335 44.5547 15.5121 44.7794 15.1119C45.3644 14.0901 45.6354 13.2048 46.0418 12.0041C46.1311 11.7373 46.3128 11.6493 46.5375 11.6493C48.7913 11.6493 51.4516 11.7373 53.7023 11.7373C54.2442 11.7373 58.0283 11.6918 58.4347 11.6493C58.9766 11.6038 59.2014 11.9586 59.1121 12.2254C57.354 18.0409 53.613 24.5628 51.2699 30.3327C51.1806 30.5541 51.2699 30.6875 51.5409 30.6875C53.5237 30.6875 56.3626 30.4207 58.3023 30.3327C58.6164 30.3327 58.8442 30.5541 58.6164 30.9543H58.6225ZM58.681 14.0113C58.681 14.0113 58.6533 14.0113 58.6379 14.0143C58.6533 14.0143 58.6687 14.0143 58.681 14.0113ZM58.33 27.5493H58.21C57.4864 27.5857 56.6643 27.6403 55.796 27.6979C55.5959 27.71 55.3927 27.7252 55.1895 27.7373C55.7067 26.6124 56.2548 25.4572 56.8213 24.2687C57.782 22.2493 58.7549 20.1966 59.6325 18.1561V27.8253C59.2353 27.6464 58.795 27.5463 58.33 27.5463V27.5493ZM76.4221 34.4594C75.2952 34.3714 73.5833 34.3259 72.4564 34.4139C71.8252 34.4594 71.8252 34.0591 71.8252 33.571V28.556C71.8252 28.3771 71.7359 28.2892 71.5543 28.2892H67.724C67.5424 28.2892 67.4531 28.3771 67.4531 28.556V33.571C67.4531 34.0591 67.4531 34.5018 66.8219 34.4594C65.695 34.3714 63.983 34.3259 62.8561 34.4139C62.2249 34.4594 62.225 34.0591 62.225 33.571V17.8165C62.225 15.7759 67.9026 11.1157 69.5714 11.1157C71.465 11.1157 77.0533 15.3333 77.0533 17.3283V33.571C77.0533 34.0591 77.0533 34.5018 76.4221 34.4594ZM118.407 25.3117V24.3414C118.617 24.5992 118.835 24.8387 119.066 25.06C118.878 25.1358 118.666 25.2177 118.407 25.3117ZM96.8851 25.6088C96.6788 25.2207 96.4787 24.869 96.2908 24.5597C96.8697 23.9594 97.4609 23.2499 97.9812 22.4494V27.4584C97.5009 26.7155 97.1406 26.0909 96.8851 25.6119V25.6088ZM97.3346 32.9494C96.297 33.7923 95.4872 34.2805 94.0894 34.99C93.7291 35.1688 93.4582 34.99 93.2334 34.6352C91.5215 31.9731 90.4839 29.4868 89.4462 27.3553C88.9967 26.4244 88.4086 26.0242 87.9129 26.2456L87.2817 26.5124C86.9677 26.6458 86.9677 26.7337 86.9677 27.1794V33.571C86.9677 34.0591 86.9677 34.5018 86.3365 34.4594C85.2096 34.3714 83.4977 34.3259 82.3707 34.4139C81.7396 34.4594 81.7396 34.0591 81.7396 33.571V16.7068C81.7396 15.3302 81.4686 14.4873 80.5234 13.7323C80.2524 13.511 80.2986 13.2442 80.7481 13.1108C82.1891 12.6226 83.0912 12.1799 84.5784 11.2461C84.8924 11.0672 85.0279 11.2006 85.3451 11.5553C85.9762 12.2648 86.2903 13.0198 86.5612 13.0198C86.9215 13.0198 88.1377 11.2006 89.8065 11.2006C91.7894 11.2006 96.9282 14.5298 96.9282 17.6801C96.9282 20.2543 95.0346 22.5616 93.141 24.1171C92.8701 24.3384 92.9625 24.5173 93.1872 24.8266C93.412 25.1358 93.9539 25.8908 94.5389 27.0005C94.9884 27.8434 95.9799 29.5747 97.6949 31.7487C98.1444 32.3248 97.7842 32.5916 97.3346 32.9464V32.9494ZM108.419 34.3714H101.208C100.802 34.3714 100.577 34.1501 100.577 33.7499V16.7068C100.577 15.3302 100.306 14.4873 99.3606 13.7323C99.0896 13.511 99.1358 13.2442 99.5854 13.1108C101.026 12.6681 101.885 12.089 103.416 11.2461C103.73 11.0672 103.865 11.2006 104.182 11.5553C104.813 12.2648 105.128 13.0198 105.398 13.0198C105.759 13.0198 106.975 11.2006 109.364 11.2006C110.627 11.2006 115.765 14.6632 115.765 17.8135V27.6676C115.765 29.7081 110.088 34.3684 108.419 34.3684V34.3714ZM126.357 34.993C124.464 34.993 118.515 30.642 118.515 28.6469C118.515 28.3377 118.561 28.2043 118.921 28.0708C120.679 27.4493 120.858 27.2734 122.438 26.5184C122.798 26.3396 122.933 26.6519 123.115 26.9187C123.746 27.8071 125.818 30.9573 128.389 30.9573C128.75 30.9573 129.156 30.6905 129.156 30.2024C129.156 25.6301 126.948 26.2516 123.746 25.054C121.178 24.0777 119.06 22.8345 119.06 17.8195C119.06 15.779 125.101 11.1187 126.767 11.1187C128.66 11.1187 131.228 15.2029 133.528 17.4648C133.753 17.6861 133.439 17.9075 133.122 18.0409C131.681 18.6624 130.957 18.8383 129.923 19.0627C128.977 19.284 128.3 18.62 127.626 17.865C125.778 15.8244 125.283 15.1119 124.516 15.1119C124.156 15.1119 123.749 15.4212 123.749 15.9093C123.749 19.9025 125.19 20.6575 128.571 21.6793C131.139 22.4767 133.71 24.0322 133.71 28.2922C133.71 30.3327 128.032 34.993 126.363 34.993H126.357Z" fill="white"/>
<path d="M29.8188 0.48275C28.8674 0.558551 26.8537 0.519135 25.7976 0.43727C24.8647 0.370565 24.0026 0.655576 23.3683 1.23773C22.6602 1.88658 22.4508 2.68098 22.3892 3.27526C22.3245 2.69311 22.1152 1.9169 21.4224 1.28018C20.976 0.870851 20.1877 0.397853 18.9592 0.485782C18.0078 0.561583 15.9942 0.522167 14.9381 0.440302C14.0051 0.376629 13.143 0.658608 12.5087 1.24076C11.8006 1.88962 11.5912 2.68401 11.5296 3.27829C11.465 2.69614 11.2556 1.91994 10.5628 1.28321C10.1164 0.873883 9.32815 0.400885 8.09964 0.488814C7.14823 0.564615 5.13457 0.525199 4.07848 0.443334C3.14555 0.376629 2.28344 0.661641 1.64917 1.24379C0.64234 2.16553 0.642334 3.38441 0.642334 3.90289V28.6686C0.642334 30.5697 2.0248 32.5102 4.87287 34.6023C5.96898 35.4088 8.71851 37.2826 10.5628 37.2826C11.8806 37.2826 13.3555 36.5519 16.1573 34.9115C17.6014 35.9121 19.8706 37.2826 21.4255 37.2826C22.4138 37.2826 23.5346 36.9794 30.7764 32.7861C31.0843 32.6072 31.2998 32.4829 31.3768 32.4404L31.4199 32.4162C32.5683 31.7704 33.2796 30.506 33.2796 29.1113V3.89683C33.2796 3.38744 33.2796 2.18979 32.2851 1.28018C31.8386 0.870851 31.0535 0.397853 29.8219 0.485782L29.8188 0.48275ZM30.0959 30.3756C29.6002 30.6424 22.4354 34.9024 21.3978 34.9024C20.7666 34.9024 18.9192 33.9261 17.2504 32.7285C16.8008 32.3737 16.4837 32.1069 16.2589 32.1069C15.8987 32.1069 11.7975 34.9024 10.5351 34.9024C9.27273 34.9024 3.23484 31.1306 3.23484 28.8657V4.103C3.23484 3.61485 3.23484 3.17217 3.86603 3.21462C4.99294 3.30255 7.15747 3.34803 8.28129 3.2601C8.91249 3.21462 8.91249 3.61485 8.91249 4.103V27.2253C8.91249 28.8232 12.4718 30.8213 13.5094 30.8213C13.9158 30.8213 14.0944 30.6 14.0944 30.1998V4.103C14.0944 3.61485 14.0944 3.17217 14.7256 3.21462C15.8525 3.30255 18.0171 3.34803 19.1409 3.2601C19.7721 3.21462 19.7721 3.61485 19.7721 4.103V27.2253C19.7721 28.8232 23.3314 30.8213 24.369 30.8213C24.7754 30.8213 24.954 30.6 24.954 30.1998V4.103C24.954 3.61485 24.954 3.17217 25.5852 3.21462C26.7121 3.30255 28.8766 3.34803 30.0035 3.2601C30.6347 3.21462 30.6347 3.61485 30.6347 4.103V29.3114C30.6347 29.7995 30.41 30.1998 30.0928 30.3756H30.0959Z" fill="white"/>
<path d="M132.881 20.7151C133.263 20.5787 133.685 20.4119 134.172 20.2027C135.665 19.572 136.077 18.5108 136.191 17.9347C136.367 17.0312 136.071 16.0973 135.4 15.4333C134.766 14.8087 134.048 13.9537 133.353 13.129C131.277 10.6639 129.319 8.33228 126.788 8.33228C124.784 8.33228 122.068 10.3304 120.627 11.522C119.174 12.7227 118.229 13.7475 117.613 14.6025C115.799 11.1127 111.378 8.42324 109.395 8.42324C107.942 8.42324 106.769 8.85075 105.879 9.34498C104.309 7.85928 102.766 8.45962 102.169 8.79618C101.855 8.969 101.565 9.13273 101.294 9.28434C100.309 9.84223 99.7147 10.1788 98.8618 10.4395C97.9627 10.7064 97.2669 11.2764 96.8974 12.0192C94.7206 9.85739 91.7093 8.42324 89.8342 8.42324C88.695 8.42324 87.7313 8.81134 86.9646 9.27524C85.422 7.87747 83.9133 8.46568 83.3068 8.80527L83.199 8.86895C81.872 9.69972 81.1669 10.0454 79.9568 10.4577C78.8361 10.8125 78.0386 11.6402 77.82 12.6893C77.7861 12.85 77.7738 13.0107 77.7677 13.1714C77.2011 12.5498 76.5114 11.9161 75.6955 11.2643C74.3223 10.1697 71.7051 8.33228 69.596 8.33228C67.6717 8.33228 65.2516 10.0909 63.5612 11.5644C62.6406 12.3679 61.8832 13.1411 61.2859 13.8809C61.409 13.511 61.5322 13.1411 61.6461 12.7772C61.9417 11.8434 61.7477 10.8307 61.1288 10.0545C60.4638 9.22066 59.3892 8.78102 58.25 8.87501H58.21C57.6958 8.9114 54.4166 8.95384 53.7362 8.95384C52.6339 8.95384 51.3962 8.93262 50.2015 8.90836C48.9822 8.88714 47.7198 8.86288 46.5714 8.86288C45.2289 8.86288 44.0805 9.65728 43.6248 10.8974C43.4832 10.485 43.2399 10.0514 42.8212 9.6694C42.1869 9.08725 41.3279 8.80527 40.3703 8.87198C39.3727 8.95081 37.7901 8.99326 36.7987 8.91443C35.5886 8.82953 34.8066 9.2995 34.3571 9.71185C33.3625 10.6245 33.3625 11.8191 33.3625 12.3315V33.3678C33.3625 33.8772 33.3625 35.0749 34.3571 35.9875C34.8035 36.3968 35.5917 36.8698 36.8202 36.7819C37.7901 36.7061 39.3727 36.7485 40.3919 36.8274C40.4812 36.8334 40.5674 36.8365 40.6536 36.8365C41.4849 36.8365 42.2485 36.5545 42.8212 36.0269C42.8643 35.9875 42.9043 35.9451 42.9443 35.9056C43.5386 36.4787 44.3514 36.794 45.2382 36.794C45.3398 36.794 45.4445 36.791 45.5492 36.7819C46.2963 36.7273 47.9446 36.7 50.494 36.7C51.6086 36.7 53.1573 36.7273 54.5244 36.7546C55.5374 36.7728 56.4118 36.791 56.8952 36.791C58.2346 36.791 59.3769 35.9996 59.8387 34.7686C59.9804 35.1779 60.2205 35.6055 60.6362 35.9875C61.0827 36.3968 61.8709 36.8698 63.0994 36.7819C64.0693 36.7061 65.6519 36.7485 66.671 36.8274C67.6039 36.891 68.4661 36.6091 69.1003 36.0269C69.3497 35.7965 69.5406 35.5479 69.6823 35.2962C69.8208 35.5327 69.9994 35.7662 70.2396 35.9845C70.686 36.3938 71.4711 36.8668 72.7027 36.7789C73.6726 36.7031 75.2552 36.7455 76.2744 36.8243C76.3637 36.8304 76.4499 36.8334 76.5361 36.8334C77.3674 36.8334 78.1279 36.5515 78.7037 36.0239C79.0608 35.6964 79.2918 35.3295 79.4395 34.9718C79.5873 35.3144 79.809 35.6661 80.1539 35.9814C80.6003 36.3908 81.3885 36.8638 82.6171 36.7758C83.5869 36.7 85.1696 36.7425 86.1887 36.8213C87.1216 36.885 87.9837 36.603 88.618 36.0209C89.6156 35.1052 89.6248 33.8984 89.6248 33.3739C90.0497 34.1592 90.5177 34.9657 91.0504 35.7934C91.7216 36.8486 92.7716 37.4277 93.8646 37.4277C94.3418 37.4277 94.8314 37.3155 95.2994 37.0881L95.3302 37.073C96.531 36.4635 97.4393 35.9481 98.4431 35.1931C98.9973 36.133 100.023 36.7394 101.248 36.7394H108.459C110.383 36.7394 112.803 34.9809 114.494 33.5043C115.464 32.6583 116.252 31.8488 116.865 31.0726C117.567 32.1247 118.657 33.2283 120.144 34.3836C121.579 35.4963 124.297 37.361 126.394 37.361C128.318 37.361 130.739 35.6024 132.429 34.1258C135.037 31.8518 136.358 29.8173 136.358 28.0799C136.358 24.8569 135.2 22.3918 132.897 20.7121L132.881 20.7151ZM47.0024 21.8552C45.9033 24.0352 44.7794 26.2607 43.8219 28.4711V17.8256C44.219 18.0045 44.6593 18.1045 45.1243 18.1045H45.2505C45.8417 18.0742 46.6022 18.0287 47.4243 17.9802C47.9138 17.9499 48.4403 17.9196 48.9699 17.8893C48.3572 19.1748 47.6891 20.4968 47.0055 21.8552H47.0024ZM40.5489 34.4594C39.422 34.3714 37.7101 34.3259 36.5832 34.4139C35.952 34.4594 35.952 34.0591 35.952 33.571V12.5347C35.952 12.0465 35.952 11.6463 36.5832 11.6918C37.7101 11.7797 39.422 11.7373 40.5489 11.6463C41.1801 11.6008 41.1801 12.0465 41.1801 12.5347V33.571C41.1801 34.0591 41.1801 34.5018 40.5489 34.4594ZM58.6225 30.9543C58.0375 31.9761 57.7666 32.8615 57.3602 34.0622C57.2709 34.329 57.0892 34.4169 56.8644 34.4169C55.7837 34.4169 52.4492 34.329 50.4632 34.329C46.5868 34.329 46.5437 34.329 45.3244 34.4169C44.7825 34.4624 44.5577 34.1956 44.647 33.8408C46.4051 28.0254 50.5063 21.5459 52.8494 15.7335C52.9387 15.5121 52.8494 15.3787 52.5785 15.3787C50.5956 15.3787 46.9901 15.6456 45.0966 15.7335C44.7794 15.7335 44.5547 15.5121 44.7794 15.1119C45.3644 14.0901 45.6354 13.2048 46.0418 12.0041C46.1311 11.7373 46.3128 11.6493 46.5375 11.6493C48.7913 11.6493 51.4516 11.7373 53.7023 11.7373C54.2442 11.7373 58.0283 11.6918 58.4347 11.6493C58.9766 11.6038 59.2014 11.9586 59.1121 12.2254C57.354 18.0409 53.613 24.5628 51.2699 30.3327C51.1806 30.5541 51.2699 30.6875 51.5409 30.6875C53.5237 30.6875 56.3626 30.4207 58.3023 30.3327C58.6164 30.3327 58.8442 30.5541 58.6164 30.9543H58.6225ZM58.681 14.0113C58.681 14.0113 58.6533 14.0113 58.6379 14.0143C58.6533 14.0143 58.6687 14.0143 58.681 14.0113ZM58.33 27.5493H58.21C57.4864 27.5857 56.6643 27.6403 55.796 27.6979C55.5959 27.71 55.3927 27.7252 55.1895 27.7373C55.7067 26.6124 56.2548 25.4572 56.8213 24.2687C57.782 22.2493 58.7549 20.1966 59.6325 18.1561V27.8253C59.2353 27.6464 58.795 27.5463 58.33 27.5463V27.5493ZM76.4221 34.4594C75.2952 34.3714 73.5833 34.3259 72.4564 34.4139C71.8252 34.4594 71.8252 34.0591 71.8252 33.571V28.556C71.8252 28.3771 71.7359 28.2892 71.5543 28.2892H67.724C67.5424 28.2892 67.4531 28.3771 67.4531 28.556V33.571C67.4531 34.0591 67.4531 34.5018 66.8219 34.4594C65.695 34.3714 63.983 34.3259 62.8561 34.4139C62.2249 34.4594 62.225 34.0591 62.225 33.571V17.8165C62.225 15.7759 67.9026 11.1157 69.5714 11.1157C71.465 11.1157 77.0533 15.3333 77.0533 17.3283V33.571C77.0533 34.0591 77.0533 34.5018 76.4221 34.4594ZM118.407 25.3117V24.3414C118.617 24.5992 118.835 24.8387 119.066 25.06C118.878 25.1358 118.666 25.2177 118.407 25.3117ZM96.8851 25.6088C96.6788 25.2207 96.4787 24.869 96.2908 24.5597C96.8697 23.9594 97.4609 23.2499 97.9812 22.4494V27.4584C97.5009 26.7155 97.1406 26.0909 96.8851 25.6119V25.6088ZM97.3346 32.9494C96.297 33.7923 95.4872 34.2805 94.0894 34.99C93.7291 35.1688 93.4582 34.99 93.2334 34.6352C91.5215 31.9731 90.4839 29.4868 89.4462 27.3553C88.9967 26.4244 88.4086 26.0242 87.9129 26.2456L87.2817 26.5124C86.9677 26.6458 86.9677 26.7337 86.9677 27.1794V33.571C86.9677 34.0591 86.9677 34.5018 86.3365 34.4594C85.2096 34.3714 83.4977 34.3259 82.3707 34.4139C81.7396 34.4594 81.7396 34.0591 81.7396 33.571V16.7068C81.7396 15.3302 81.4686 14.4873 80.5234 13.7323C80.2524 13.511 80.2986 13.2442 80.7481 13.1108C82.1891 12.6226 83.0912 12.1799 84.5784 11.2461C84.8924 11.0672 85.0279 11.2006 85.3451 11.5553C85.9762 12.2648 86.2903 13.0198 86.5612 13.0198C86.9215 13.0198 88.1377 11.2006 89.8065 11.2006C91.7894 11.2006 96.9282 14.5298 96.9282 17.6801C96.9282 20.2543 95.0346 22.5616 93.141 24.1171C92.8701 24.3384 92.9625 24.5173 93.1872 24.8266C93.412 25.1358 93.9539 25.8908 94.5389 27.0005C94.9884 27.8434 95.9799 29.5747 97.6949 31.7487C98.1444 32.3248 97.7842 32.5916 97.3346 32.9464V32.9494ZM108.419 34.3714H101.208C100.802 34.3714 100.577 34.1501 100.577 33.7499V16.7068C100.577 15.3302 100.306 14.4873 99.3606 13.7323C99.0896 13.511 99.1358 13.2442 99.5854 13.1108C101.026 12.6681 101.885 12.089 103.416 11.2461C103.73 11.0672 103.865 11.2006 104.182 11.5553C104.813 12.2648 105.128 13.0198 105.398 13.0198C105.759 13.0198 106.975 11.2006 109.364 11.2006C110.627 11.2006 115.765 14.6632 115.765 17.8135V27.6676C115.765 29.7081 110.088 34.3684 108.419 34.3684V34.3714ZM126.357 34.993C124.464 34.993 118.515 30.642 118.515 28.6469C118.515 28.3377 118.561 28.2043 118.921 28.0708C120.679 27.4493 120.858 27.2734 122.438 26.5184C122.798 26.3396 122.933 26.6519 123.115 26.9187C123.746 27.8071 125.818 30.9573 128.389 30.9573C128.75 30.9573 129.156 30.6905 129.156 30.2024C129.156 25.6301 126.948 26.2516 123.746 25.054C121.178 24.0777 119.06 22.8345 119.06 17.8195C119.06 15.779 125.101 11.1187 126.767 11.1187C128.66 11.1187 131.228 15.2029 133.528 17.4648C133.753 17.6861 133.439 17.9075 133.122 18.0409C131.681 18.6624 130.957 18.8383 129.923 19.0627C128.977 19.284 128.3 18.62 127.626 17.865C125.778 15.8244 125.283 15.1119 124.516 15.1119C124.156 15.1119 123.749 15.4212 123.749 15.9093C123.749 19.9025 125.19 20.6575 128.571 21.6793C131.139 22.4767 133.71 24.0322 133.71 28.2922C133.71 30.3327 128.032 34.993 126.363 34.993H126.357Z" fill="white"/>
</svg>
